<svg width="310" height="320" viewBox="0 0 310 320" fill="none" xmlns="http://www.w3.org/2000/svg">
<g filter="url(#filter0_d_294_1000)">
<rect x="14" y="7.7301" width="282" height="265.564" rx="8.65031" fill="white"/>
</g>
<path fill-rule="evenodd" clip-rule="evenodd" d="M46.0061 80.092C49.3503 80.092 52.0614 77.4483 52.0614 74.1871C52.0614 70.9259 49.3503 68.2822 46.0061 68.2822C42.6619 68.2822 39.9509 70.9259 39.9509 74.1871C39.9509 77.4483 42.6619 80.092 46.0061 80.092Z" fill="#6A26DA"/>
<path d="M58.1477 79.0369V70.5596H60.8847C61.5467 70.5596 62.0876 70.6686 62.5075 70.8865C62.9273 71.1045 63.2381 71.4033 63.44 71.7827C63.6418 72.1622 63.7427 72.582 63.7427 73.0422C63.7427 73.5751 63.5974 74.0554 63.3067 74.4833C63.0242 74.9112 62.5801 75.214 61.9746 75.3916L63.8275 79.0369H62.6286L60.9089 75.537H60.8362H59.165V79.0369H58.1477ZM59.165 74.7377H60.812C61.466 74.7377 61.9423 74.5802 62.241 74.2654C62.5397 73.9505 62.6891 73.5468 62.6891 73.0543C62.6891 72.5537 62.5397 72.1581 62.241 71.8675C61.9504 71.5688 61.47 71.4194 60.7999 71.4194H59.165V74.7377ZM67.5999 79.1822C67.0267 79.1822 66.518 79.053 66.074 78.7947C65.6299 78.5282 65.2787 78.1609 65.0204 77.6926C64.7701 77.2243 64.6449 76.6713 64.6449 76.0335C64.6449 75.4037 64.7701 74.8547 65.0204 74.3865C65.2706 73.9101 65.6178 73.5428 66.0619 73.2844C66.514 73.018 67.0347 72.8848 67.6241 72.8848C68.2054 72.8848 68.706 73.018 69.1258 73.2844C69.5537 73.5428 69.8807 73.8859 70.1067 74.3138C70.3328 74.7417 70.4458 75.2019 70.4458 75.6944C70.4458 75.7832 70.4418 75.872 70.4337 75.9608C70.4337 76.0496 70.4337 76.1505 70.4337 76.2636H65.6501C65.6743 76.7238 65.7793 77.1073 65.965 77.4141C66.1587 77.7128 66.3969 77.9389 66.6795 78.0923C66.9701 78.2457 67.2769 78.3223 67.5999 78.3223C68.0197 78.3223 68.3709 78.2255 68.6535 78.0317C68.9361 77.8379 69.1419 77.5755 69.2711 77.2445H70.2763C70.1148 77.8016 69.804 78.2658 69.3438 78.6372C68.8917 79.0005 68.3104 79.1822 67.5999 79.1822ZM67.5999 73.7446C67.1155 73.7446 66.6835 73.894 66.3041 74.1927C65.9327 74.4833 65.7187 74.9112 65.6622 75.4764H69.4407C69.4165 74.9355 69.2308 74.5116 68.8836 74.2048C68.5364 73.898 68.1085 73.7446 67.5999 73.7446ZM74.0951 79.1822C73.3766 79.1822 72.7791 79.0005 72.3028 78.6372C71.8265 78.2739 71.5479 77.7814 71.4672 77.1597H72.5087C72.5733 77.4746 72.7388 77.7491 73.0052 77.9833C73.2797 78.2093 73.6471 78.3223 74.1073 78.3223C74.5352 78.3223 74.85 78.2335 75.0519 78.0559C75.2537 77.8702 75.3546 77.6522 75.3546 77.402C75.3546 77.0386 75.2214 76.7964 74.955 76.6753C74.6966 76.5542 74.3293 76.4452 73.8529 76.3483C73.53 76.2838 73.207 76.1909 72.8841 76.0698C72.5612 75.9487 72.2907 75.7792 72.0727 75.5612C71.8547 75.3351 71.7457 75.0404 71.7457 74.6771C71.7457 74.1523 71.9395 73.7244 72.327 73.3934C72.7226 73.0543 73.2555 72.8848 73.9256 72.8848C74.5634 72.8848 75.0842 73.0462 75.4878 73.3692C75.8996 73.6841 76.1378 74.1362 76.2024 74.7256H75.1972C75.1568 74.4188 75.0236 74.1806 74.7976 74.011C74.5796 73.8334 74.2849 73.7446 73.9135 73.7446C73.5502 73.7446 73.2676 73.8213 73.0658 73.9747C72.872 74.1281 72.7751 74.3299 72.7751 74.5802C72.7751 74.8224 72.9003 75.0122 73.1505 75.1494C73.4089 75.2867 73.7561 75.4037 74.192 75.5006C74.5634 75.5814 74.9146 75.6823 75.2456 75.8034C75.5847 75.9164 75.8592 76.09 76.0691 76.3241C76.2871 76.5502 76.3961 76.8812 76.3961 77.3172C76.4042 77.8581 76.1983 78.3062 75.7785 78.6614C75.3667 79.0086 74.8056 79.1822 74.0951 79.1822ZM79.951 79.0369C79.402 79.0369 78.9701 78.9037 78.6552 78.6372C78.3403 78.3708 78.1829 77.8904 78.1829 77.1961V73.8899H77.1414V73.0301H78.1829L78.3161 71.589H79.2002V73.0301H80.9683V73.8899H79.2002V77.1961C79.2002 77.5755 79.2769 77.8339 79.4303 77.9711C79.5837 78.1003 79.8541 78.1649 80.2417 78.1649H80.8714V79.0369H79.951ZM82.2607 79.0369V70.3174H83.278V79.0369H82.2607ZM87.646 79.1822C87.0727 79.1822 86.5641 79.053 86.12 78.7947C85.676 78.5282 85.3248 78.1609 85.0664 77.6926C84.8162 77.2243 84.691 76.6713 84.691 76.0335C84.691 75.4037 84.8162 74.8547 85.0664 74.3865C85.3167 73.9101 85.6639 73.5428 86.1079 73.2844C86.5601 73.018 87.0808 72.8848 87.6702 72.8848C88.2515 72.8848 88.752 73.018 89.1719 73.2844C89.5998 73.5428 89.9268 73.8859 90.1528 74.3138C90.3789 74.7417 90.4919 75.2019 90.4919 75.6944C90.4919 75.7832 90.4879 75.872 90.4798 75.9608C90.4798 76.0496 90.4798 76.1505 90.4798 76.2636H85.6962C85.7204 76.7238 85.8254 77.1073 86.0111 77.4141C86.2048 77.7128 86.443 77.9389 86.7256 78.0923C87.0162 78.2457 87.323 78.3223 87.646 78.3223C88.0658 78.3223 88.417 78.2255 88.6996 78.0317C88.9821 77.8379 89.188 77.5755 89.3172 77.2445H90.3224C90.1609 77.8016 89.8501 78.2658 89.3899 78.6372C88.9377 79.0005 88.3564 79.1822 87.646 79.1822ZM87.646 73.7446C87.1615 73.7446 86.7296 73.894 86.3501 74.1927C85.9788 74.4833 85.7648 74.9112 85.7083 75.4764H89.4867C89.4625 74.9355 89.2768 74.5116 88.9297 74.2048C88.5825 73.898 88.1546 73.7446 87.646 73.7446ZM94.1412 79.1822C93.4227 79.1822 92.8252 79.0005 92.3489 78.6372C91.8725 78.2739 91.594 77.7814 91.5133 77.1597H92.5548C92.6193 77.4746 92.7848 77.7491 93.0513 77.9833C93.3258 78.2093 93.6931 78.3223 94.1533 78.3223C94.5812 78.3223 94.8961 78.2335 95.0979 78.0559C95.2998 77.8702 95.4007 77.6522 95.4007 77.402C95.4007 77.0386 95.2675 76.7964 95.0011 76.6753C94.7427 76.5542 94.3754 76.4452 93.899 76.3483C93.5761 76.2838 93.2531 76.1909 92.9302 76.0698C92.6072 75.9487 92.3368 75.7792 92.1188 75.5612C91.9008 75.3351 91.7918 75.0404 91.7918 74.6771C91.7918 74.1523 91.9856 73.7244 92.3731 73.3934C92.7687 73.0543 93.3016 72.8848 93.9717 72.8848C94.6095 72.8848 95.1302 73.0462 95.5339 73.3692C95.9457 73.6841 96.1838 74.1362 96.2484 74.7256H95.2433C95.2029 74.4188 95.0697 74.1806 94.8436 74.011C94.6256 73.8334 94.3309 73.7446 93.9596 73.7446C93.5962 73.7446 93.3137 73.8213 93.1118 73.9747C92.9181 74.1281 92.8212 74.3299 92.8212 74.5802C92.8212 74.8224 92.9463 75.0122 93.1966 75.1494C93.455 75.2867 93.8021 75.4037 94.2381 75.5006C94.6095 75.5814 94.9607 75.6823 95.2917 75.8034C95.6308 75.9164 95.9053 76.09 96.1152 76.3241C96.3332 76.5502 96.4422 76.8812 96.4422 77.3172C96.4503 77.8581 96.2444 78.3062 95.8246 78.6614C95.4128 79.0086 94.8517 79.1822 94.1412 79.1822ZM100.196 79.1822C99.4779 79.1822 98.8804 79.0005 98.4041 78.6372C97.9277 78.2739 97.6492 77.7814 97.5685 77.1597H98.61C98.6746 77.4746 98.8401 77.7491 99.1065 77.9833C99.381 78.2093 99.7483 78.3223 100.209 78.3223C100.636 78.3223 100.951 78.2335 101.153 78.0559C101.355 77.8702 101.456 77.6522 101.456 77.402C101.456 77.0386 101.323 76.7964 101.056 76.6753C100.798 76.5542 100.431 76.4452 99.9542 76.3483C99.6313 76.2838 99.3083 76.1909 98.9854 76.0698C98.6624 75.9487 98.392 75.7792 98.174 75.5612C97.956 75.3351 97.847 75.0404 97.847 74.6771C97.847 74.1523 98.0408 73.7244 98.4283 73.3934C98.8239 73.0543 99.3568 72.8848 100.027 72.8848C100.665 72.8848 101.185 73.0462 101.589 73.3692C102.001 73.6841 102.239 74.1362 102.304 74.7256H101.298C101.258 74.4188 101.125 74.1806 100.899 74.011C100.681 73.8334 100.386 73.7446 100.015 73.7446C99.6515 73.7446 99.3689 73.8213 99.167 73.9747C98.9733 74.1281 98.8764 74.3299 98.8764 74.5802C98.8764 74.8224 99.0015 75.0122 99.2518 75.1494C99.5102 75.2867 99.8573 75.4037 100.293 75.5006C100.665 75.5814 101.016 75.6823 101.347 75.8034C101.686 75.9164 101.961 76.09 102.17 76.3241C102.388 76.5502 102.497 76.8812 102.497 77.3172C102.505 77.8581 102.3 78.3062 101.88 78.6614C101.468 79.0086 100.907 79.1822 100.196 79.1822Z" fill="black"/>
<g opacity="0.2">
<path fill-rule="evenodd" clip-rule="evenodd" d="M251.883 44.9264C251.883 43.9714 252.658 43.1963 253.613 43.1963C254.568 43.1963 255.344 43.9714 255.344 44.9264C255.344 45.8813 254.568 46.6564 253.613 46.6564C252.658 46.6564 251.883 45.8813 251.883 44.9264ZM259.669 43.1963C258.714 43.1963 257.939 43.9714 257.939 44.9264C257.939 45.8814 258.714 46.6565 259.669 46.6565C260.624 46.6565 261.399 45.8814 261.399 44.9264C261.399 43.9714 260.624 43.1963 259.669 43.1963ZM265.724 43.1963C264.769 43.1963 263.994 43.9714 263.994 44.9264C263.994 45.8814 264.769 46.6565 265.724 46.6565C266.679 46.6565 267.454 45.8814 267.454 44.9264C267.454 43.9714 266.679 43.1963 265.724 43.1963Z" fill="black"/>
</g>
<path d="M44.4231 50.9509V39.2661H40.4838V37.6295H50.3607V39.2661H46.4404V50.9509H44.4231ZM54.8777 51.1793C53.9515 51.1793 53.1268 50.9763 52.4037 50.5703C51.6932 50.1516 51.135 49.5744 50.729 48.8385C50.323 48.1027 50.12 47.2463 50.12 46.2694C50.12 45.2798 50.3166 44.4107 50.71 43.6622C51.1159 42.9136 51.6742 42.33 52.3846 41.9114C53.1078 41.4927 53.9452 41.2833 54.8967 41.2833C55.8229 41.2833 56.6285 41.4927 57.3136 41.9114C57.9987 42.3173 58.5316 42.8629 58.9122 43.548C59.2928 44.2331 59.4831 44.988 59.4831 45.8126C59.4831 45.9395 59.4767 46.0791 59.4641 46.2313C59.4641 46.3709 59.4577 46.5295 59.445 46.7071H52.0992C52.1626 47.6206 52.4608 48.3184 52.9936 48.8005C53.5392 49.2699 54.1672 49.5046 54.8777 49.5046C55.4486 49.5046 55.9244 49.3777 56.305 49.124C56.6983 48.8576 56.9901 48.5023 57.1804 48.0583H59.1976C58.9439 48.9464 58.4364 49.6886 57.6752 50.2849C56.9266 50.8811 55.9941 51.1793 54.8777 51.1793ZM54.8777 42.939C54.2053 42.939 53.609 43.142 53.0888 43.548C52.5686 43.9413 52.2514 44.5376 52.1373 45.3369H57.4658C57.4278 44.601 57.1677 44.0174 56.6856 43.5861C56.2035 43.1547 55.6008 42.939 54.8777 42.939ZM64.7733 51.1793C63.974 51.1793 63.3143 51.0461 62.7941 50.7797C62.274 50.5132 61.887 50.1643 61.6333 49.733C61.3795 49.2889 61.2526 48.8068 61.2526 48.2866C61.2526 47.3732 61.6079 46.65 62.3184 46.1171C63.0288 45.5843 64.0438 45.3178 65.3633 45.3178H67.8373V45.1466C67.8373 44.4107 67.6343 43.8588 67.2283 43.4909C66.835 43.123 66.3212 42.939 65.6868 42.939C65.1286 42.939 64.6401 43.0786 64.2214 43.3577C63.8154 43.6241 63.568 44.0238 63.4792 44.5566H61.462C61.5254 43.8715 61.7538 43.2879 62.1471 42.8058C62.5531 42.311 63.0606 41.9367 63.6695 41.683C64.2912 41.4166 64.97 41.2833 65.7058 41.2833C67.0253 41.2833 68.0466 41.6322 68.7698 42.33C69.4929 43.0151 69.8545 43.954 69.8545 45.1466V50.9509H68.1037L67.9324 49.3333C67.666 49.8535 67.279 50.2912 66.7715 50.6464C66.2641 51.0017 65.598 51.1793 64.7733 51.1793ZM65.173 49.5427C65.7185 49.5427 66.1752 49.4158 66.5432 49.162C66.9238 48.8956 67.2156 48.5467 67.4186 48.1154C67.6343 47.684 67.7675 47.2082 67.8182 46.6881H65.5726C64.7733 46.6881 64.2024 46.8276 63.8598 47.1067C63.53 47.3858 63.3651 47.7347 63.3651 48.1534C63.3651 48.5848 63.5236 48.9273 63.8408 49.1811C64.1707 49.4221 64.6147 49.5427 65.173 49.5427ZM72.2066 50.9509V41.5117H73.9955L74.1667 42.8439C74.4712 42.3617 74.8709 41.9811 75.3657 41.702C75.8732 41.4229 76.4568 41.2833 77.1165 41.2833C78.6136 41.2833 79.6539 41.8733 80.2375 43.0532C80.5801 42.5077 81.0368 42.0763 81.6077 41.7591C82.1913 41.4419 82.8194 41.2833 83.4918 41.2833C84.6717 41.2833 85.5978 41.6386 86.2703 42.3491C86.9427 43.0595 87.2789 44.1189 87.2789 45.5272V50.9509H85.2616V45.7365C85.2616 43.9096 84.5638 42.9961 83.1683 42.9961C82.4578 42.9961 81.8742 43.2625 81.4174 43.7954C80.9734 44.3283 80.7514 45.0895 80.7514 46.0791V50.9509H78.7341V45.7365C78.7341 43.9096 78.03 42.9961 76.6217 42.9961C75.9239 42.9961 75.3466 43.2625 74.8899 43.7954C74.4459 44.3283 74.2238 45.0895 74.2238 46.0791V50.9509H72.2066ZM94.5099 50.9509V37.6295H99.1725C100.213 37.6295 101.076 37.8071 101.761 38.1623C102.446 38.5049 102.953 38.9806 103.283 39.5896C103.626 40.1859 103.797 40.8647 103.797 41.6259C103.797 42.3491 103.632 43.0151 103.302 43.6241C102.985 44.2204 102.484 44.6962 101.799 45.0514C101.114 45.4067 100.238 45.5843 99.1725 45.5843H96.5272V50.9509H94.5099ZM96.5272 43.9286H99.0773C100.029 43.9286 100.708 43.7256 101.114 43.3196C101.532 42.901 101.742 42.3364 101.742 41.6259C101.742 40.89 101.532 40.3191 101.114 39.9131C100.708 39.4945 100.029 39.2851 99.0773 39.2851H96.5272V43.9286ZM105.715 50.9509V41.5117H107.523L107.694 43.3006C108.024 42.6789 108.48 42.1905 109.064 41.8352C109.66 41.4673 110.377 41.2833 111.215 41.2833V43.3957H110.663C110.104 43.3957 109.603 43.4909 109.159 43.6812C108.728 43.8588 108.379 44.1697 108.113 44.6137C107.859 45.0451 107.732 45.6477 107.732 46.4216V50.9509H105.715ZM117.099 51.1793C116.198 51.1793 115.386 50.9763 114.663 50.5703C113.953 50.1516 113.388 49.5744 112.969 48.8385C112.551 48.09 112.341 47.2209 112.341 46.2313C112.341 45.2417 112.551 44.379 112.969 43.6431C113.401 42.8946 113.978 42.3173 114.701 41.9114C115.424 41.4927 116.23 41.2833 117.118 41.2833C118.019 41.2833 118.825 41.4927 119.535 41.9114C120.258 42.3173 120.829 42.8946 121.248 43.6431C121.679 44.379 121.895 45.2417 121.895 46.2313C121.895 47.2209 121.679 48.09 121.248 48.8385C120.829 49.5744 120.258 50.1516 119.535 50.5703C118.812 50.9763 118 51.1793 117.099 51.1793ZM117.099 49.4475C117.581 49.4475 118.025 49.327 118.431 49.0859C118.85 48.8449 119.186 48.4896 119.44 48.0202C119.694 47.5381 119.82 46.9418 119.82 46.2313C119.82 45.5208 119.694 44.9309 119.44 44.4615C119.199 43.9794 118.869 43.6178 118.45 43.3767C118.044 43.1357 117.6 43.0151 117.118 43.0151C116.636 43.0151 116.186 43.1357 115.767 43.3767C115.361 43.6178 115.031 43.9794 114.777 44.4615C114.524 44.9309 114.397 45.5208 114.397 46.2313C114.397 46.9418 114.524 47.5381 114.777 48.0202C115.031 48.4896 115.361 48.8449 115.767 49.0859C116.173 49.327 116.617 49.4475 117.099 49.4475ZM127.438 48.0583C126.943 48.0583 126.486 48.0012 126.068 47.887L125.249 48.6863C125.389 48.7751 125.56 48.8512 125.763 48.9146C125.966 48.9781 126.252 49.0352 126.619 49.0859C126.987 49.1367 127.489 49.1874 128.123 49.2382C129.379 49.3524 130.286 49.6568 130.844 50.1516C131.402 50.6337 131.682 51.2808 131.682 52.0928C131.682 52.651 131.529 53.1775 131.225 53.6723C130.933 54.1798 130.47 54.5858 129.836 54.8903C129.214 55.2075 128.415 55.366 127.438 55.366C126.118 55.366 125.046 55.1123 124.222 54.6048C123.41 54.11 123.004 53.3551 123.004 52.3402C123.004 51.9469 123.105 51.5536 123.308 51.1603C123.524 50.7797 123.86 50.4181 124.317 50.0755C124.05 49.9613 123.816 49.8408 123.613 49.7139C123.422 49.5744 123.251 49.4348 123.099 49.2953V48.8385L124.735 47.1638C124 46.5295 123.632 45.6985 123.632 44.6708C123.632 44.0491 123.778 43.4846 124.069 42.9771C124.374 42.4569 124.812 42.0446 125.382 41.7401C125.953 41.4356 126.638 41.2833 127.438 41.2833C127.971 41.2833 128.465 41.3595 128.922 41.5117H132.443V42.8439L130.768 42.939C131.073 43.4592 131.225 44.0364 131.225 44.6708C131.225 45.3052 131.073 45.8761 130.768 46.3836C130.476 46.8911 130.045 47.297 129.474 47.6015C128.916 47.906 128.237 48.0583 127.438 48.0583ZM127.438 46.4787C128.021 46.4787 128.491 46.3265 128.846 46.022C129.214 45.7048 129.398 45.2608 129.398 44.6898C129.398 44.1062 129.214 43.6622 128.846 43.3577C128.491 43.0532 128.021 42.901 127.438 42.901C126.841 42.901 126.359 43.0532 125.991 43.3577C125.636 43.6622 125.459 44.1062 125.459 44.6898C125.459 45.2608 125.636 45.7048 125.991 46.022C126.359 46.3265 126.841 46.4787 127.438 46.4787ZM124.907 52.1499C124.907 52.6954 125.148 53.1014 125.63 53.3678C126.112 53.6469 126.715 53.7865 127.438 53.7865C128.136 53.7865 128.7 53.6343 129.131 53.3298C129.563 53.038 129.779 52.6447 129.779 52.1499C129.779 51.7819 129.633 51.4648 129.341 51.1983C129.049 50.9446 128.497 50.786 127.685 50.7226C127.076 50.6845 126.537 50.6274 126.068 50.5513C125.624 50.7923 125.319 51.0524 125.154 51.3315C124.989 51.6107 124.907 51.8834 124.907 52.1499ZM134.242 50.9509V41.5117H136.05L136.221 43.3006C136.551 42.6789 137.008 42.1905 137.592 41.8352C138.188 41.4673 138.905 41.2833 139.742 41.2833V43.3957H139.19C138.632 43.3957 138.131 43.4909 137.687 43.6812C137.255 43.8588 136.906 44.1697 136.64 44.6137C136.386 45.0451 136.259 45.6477 136.259 46.4216V50.9509H134.242ZM145.626 51.1793C144.7 51.1793 143.876 50.9763 143.153 50.5703C142.442 50.1516 141.884 49.5744 141.478 48.8385C141.072 48.1027 140.869 47.2463 140.869 46.2694C140.869 45.2798 141.065 44.4107 141.459 43.6622C141.865 42.9136 142.423 42.33 143.133 41.9114C143.857 41.4927 144.694 41.2833 145.646 41.2833C146.572 41.2833 147.377 41.4927 148.062 41.9114C148.748 42.3173 149.28 42.8629 149.661 43.548C150.042 44.2331 150.232 44.988 150.232 45.8126C150.232 45.9395 150.226 46.0791 150.213 46.2313C150.213 46.3709 150.207 46.5295 150.194 46.7071H142.848C142.911 47.6206 143.21 48.3184 143.742 48.8005C144.288 49.2699 144.916 49.5046 145.626 49.5046C146.197 49.5046 146.673 49.3777 147.054 49.124C147.447 48.8576 147.739 48.5023 147.929 48.0583H149.946C149.693 48.9464 149.185 49.6886 148.424 50.2849C147.675 50.8811 146.743 51.1793 145.626 51.1793ZM145.626 42.939C144.954 42.939 144.358 43.142 143.838 43.548C143.317 43.9413 143 44.5376 142.886 45.3369H148.215C148.177 44.601 147.917 44.0174 147.434 43.5861C146.952 43.1547 146.35 42.939 145.626 42.939ZM156.093 51.1793C154.9 51.1793 153.917 50.8875 153.143 50.3039C152.369 49.7203 151.925 48.9464 151.811 47.9821H153.847C153.949 48.4135 154.19 48.7878 154.571 49.105C154.951 49.4094 155.452 49.5617 156.074 49.5617C156.683 49.5617 157.127 49.4348 157.406 49.1811C157.685 48.9273 157.825 48.6355 157.825 48.3057C157.825 47.8236 157.628 47.5 157.235 47.3351C156.854 47.1575 156.321 46.9989 155.636 46.8593C155.103 46.7451 154.571 46.5929 154.038 46.4026C153.518 46.2123 153.08 45.9459 152.725 45.6033C152.382 45.2481 152.211 44.7723 152.211 44.176C152.211 43.3513 152.528 42.6662 153.162 42.1207C153.797 41.5625 154.685 41.2833 155.827 41.2833C156.88 41.2833 157.73 41.5371 158.377 42.0446C159.036 42.5521 159.423 43.2689 159.538 44.195H157.596C157.533 43.789 157.343 43.4719 157.026 43.2435C156.721 43.0151 156.309 42.901 155.789 42.901C155.281 42.901 154.888 43.0088 154.609 43.2245C154.33 43.4275 154.19 43.6939 154.19 44.0238C154.19 44.3536 154.38 44.6137 154.761 44.804C155.154 44.9943 155.668 45.1656 156.302 45.3178C156.937 45.4574 157.52 45.6223 158.053 45.8126C158.599 45.9903 159.036 46.2567 159.366 46.6119C159.696 46.9672 159.861 47.4873 159.861 48.1724C159.874 49.0352 159.538 49.752 158.853 50.3229C158.18 50.8938 157.26 51.1793 156.093 51.1793ZM165.831 51.1793C164.639 51.1793 163.656 50.8875 162.882 50.3039C162.108 49.7203 161.664 48.9464 161.55 47.9821H163.586C163.687 48.4135 163.928 48.7878 164.309 49.105C164.69 49.4094 165.191 49.5617 165.812 49.5617C166.421 49.5617 166.865 49.4348 167.145 49.1811C167.424 48.9273 167.563 48.6355 167.563 48.3057C167.563 47.8236 167.367 47.5 166.973 47.3351C166.593 47.1575 166.06 46.9989 165.375 46.8593C164.842 46.7451 164.309 46.5929 163.776 46.4026C163.256 46.2123 162.818 45.9459 162.463 45.6033C162.12 45.2481 161.949 44.7723 161.949 44.176C161.949 43.3513 162.266 42.6662 162.901 42.1207C163.535 41.5625 164.423 41.2833 165.565 41.2833C166.618 41.2833 167.468 41.5371 168.115 42.0446C168.775 42.5521 169.162 43.2689 169.276 44.195H167.335C167.271 43.789 167.081 43.4719 166.764 43.2435C166.459 43.0151 166.047 42.901 165.527 42.901C165.019 42.901 164.626 43.0088 164.347 43.2245C164.068 43.4275 163.928 43.6939 163.928 44.0238C163.928 44.3536 164.119 44.6137 164.499 44.804C164.893 44.9943 165.406 45.1656 166.041 45.3178C166.675 45.4574 167.259 45.6223 167.792 45.8126C168.337 45.9903 168.775 46.2567 169.105 46.6119C169.435 46.9672 169.599 47.4873 169.599 48.1724C169.612 49.0352 169.276 49.752 168.591 50.3229C167.918 50.8938 166.999 51.1793 165.831 51.1793Z" fill="black"/>
<rect x="39.9509" y="147.962" width="11.2454" height="89.0012" rx="5.6227" fill="#6A26DA" fill-opacity="0.23"/>
<rect x="59.8466" y="110.974" width="11.2454" height="125.989" rx="5.6227" fill="#6A26DA"/>
<rect x="79.7423" y="163.566" width="11.2454" height="73.3971" rx="5.6227" fill="#6A26DA" fill-opacity="0.23"/>
<rect x="99.6381" y="143.916" width="11.2454" height="93.0467" rx="5.6227" fill="#6A26DA" fill-opacity="0.23"/>
<rect x="119.534" y="118.488" width="11.2454" height="118.476" rx="5.6227" fill="#6A26DA"/>
<rect x="139.429" y="182.638" width="11.2454" height="54.3254" rx="5.6227" fill="#6A26DA" fill-opacity="0.23"/>
<rect x="159.325" y="102.883" width="11.2454" height="134.08" rx="5.6227" fill="#6A26DA"/>
<rect x="179.221" y="130.046" width="11.2454" height="106.917" rx="5.6227" fill="#6A26DA" fill-opacity="0.23"/>
<rect x="199.117" y="153.163" width="11.2454" height="83.7998" rx="5.6227" fill="#6A26DA"/>
<rect x="219.012" y="117.332" width="11.2454" height="119.632" rx="5.6227" fill="#6A26DA"/>
<rect x="238.908" y="164.722" width="11.2454" height="72.2412" rx="5.6227" fill="#6A26DA" fill-opacity="0.23"/>
<rect x="258.804" y="108.663" width="11.2454" height="128.3" rx="5.6227" fill="#6A26DA"/>
<defs>
<filter id="filter0_d_294_1000" x="0.159509" y="0.809857" width="309.681" height="293.245" filterUnits="userSpaceOnUse" color-interpolation-filters="sRGB">
<feFlood flood-opacity="0" result="BackgroundImageFix"/>
<feColorMatrix in="SourceAlpha" type="matrix" values="0 0 0 0 0 0 0 0 0 0 0 0 0 0 0 0 0 0 127 0" result="hardAlpha"/>
<feOffset dy="6.92025"/>
<feGaussianBlur stdDeviation="6.92025"/>
<feComposite in2="hardAlpha" operator="out"/>
<feColorMatrix type="matrix" values="0 0 0 0 0 0 0 0 0 0 0 0 0 0 0 0 0 0 0.11 0"/>
<feBlend mode="normal" in2="BackgroundImageFix" result="effect1_dropShadow_294_1000"/>
<feBlend mode="normal" in="SourceGraphic" in2="effect1_dropShadow_294_1000" result="shape"/>
</filter>
</defs>
</svg>
