<svg width="342" height="376" viewBox="0 0 342 376" fill="none" xmlns="http://www.w3.org/2000/svg">
<g filter="url(#filter0_d_289_847)">
<rect x="8" y="4" width="326" height="360" rx="10" fill="white"/>
<g clip-path="url(#clip0_289_847)">
<path fill-rule="evenodd" clip-rule="evenodd" d="M38 330C38 327.791 39.7909 326 42 326H300C302.209 326 304 327.791 304 330C304 332.209 302.209 334 300 334H42C39.7909 334 38 332.209 38 330Z" fill="#FFE5D3"/>
<path d="M39.036 315V305.2H42.48C43.1707 305.2 43.74 305.312 44.188 305.536C44.6453 305.751 44.986 306.049 45.21 306.432C45.434 306.805 45.546 307.225 45.546 307.692C45.546 308.327 45.3733 308.826 45.028 309.19C44.692 309.554 44.286 309.806 43.81 309.946C44.174 310.011 44.5053 310.156 44.804 310.38C45.1027 310.604 45.336 310.884 45.504 311.22C45.6813 311.556 45.77 311.925 45.77 312.326C45.77 312.821 45.6487 313.273 45.406 313.684C45.1633 314.085 44.804 314.407 44.328 314.65C43.852 314.883 43.2733 315 42.592 315H39.036ZM40.212 309.484H42.396C43.0213 309.484 43.502 309.339 43.838 309.05C44.174 308.751 44.342 308.341 44.342 307.818C44.342 307.323 44.174 306.927 43.838 306.628C43.5113 306.329 43.0167 306.18 42.354 306.18H40.212V309.484ZM40.212 314.02H42.466C43.138 314.02 43.656 313.866 44.02 313.558C44.384 313.241 44.566 312.802 44.566 312.242C44.566 311.691 44.3747 311.253 43.992 310.926C43.6093 310.59 43.0913 310.422 42.438 310.422H40.212V314.02ZM48.1019 306.516C47.8685 306.516 47.6725 306.441 47.5139 306.292C47.3645 306.133 47.2899 305.937 47.2899 305.704C47.2899 305.48 47.3645 305.293 47.5139 305.144C47.6725 304.995 47.8685 304.92 48.1019 304.92C48.3259 304.92 48.5172 304.995 48.6759 305.144C48.8345 305.293 48.9139 305.48 48.9139 305.704C48.9139 305.937 48.8345 306.133 48.6759 306.292C48.5172 306.441 48.3259 306.516 48.1019 306.516ZM47.5139 315V308.056H48.6899V315H47.5139ZM50.7375 315V304.92H51.9135V309.246C52.1468 308.817 52.4782 308.485 52.9075 308.252C53.3368 308.009 53.8035 307.888 54.3075 307.888C55.1102 307.888 55.7542 308.14 56.2395 308.644C56.7248 309.139 56.9675 309.904 56.9675 310.94V315H55.8055V311.066C55.8055 309.619 55.2222 308.896 54.0555 308.896C53.4488 308.896 52.9402 309.115 52.5295 309.554C52.1188 309.983 51.9135 310.599 51.9135 311.402V315H50.7375ZM61.0592 315.168C60.4805 315.168 59.9999 315.07 59.6172 314.874C59.2345 314.678 58.9499 314.417 58.7632 314.09C58.5765 313.763 58.4832 313.409 58.4832 313.026C58.4832 312.317 58.7539 311.771 59.2952 311.388C59.8365 311.005 60.5739 310.814 61.5072 310.814H63.3832V310.73C63.3832 310.123 63.2245 309.666 62.9072 309.358C62.5899 309.041 62.1652 308.882 61.6332 308.882C61.1759 308.882 60.7792 308.999 60.4432 309.232C60.1165 309.456 59.9112 309.787 59.8272 310.226H58.6232C58.6699 309.722 58.8379 309.297 59.1272 308.952C59.4259 308.607 59.7945 308.345 60.2332 308.168C60.6719 307.981 61.1385 307.888 61.6332 307.888C62.6039 307.888 63.3319 308.149 63.8172 308.672C64.3119 309.185 64.5592 309.871 64.5592 310.73V315H63.5092L63.4392 313.754C63.2432 314.146 62.9539 314.482 62.5712 314.762C62.1979 315.033 61.6939 315.168 61.0592 315.168ZM61.2412 314.174C61.6892 314.174 62.0719 314.057 62.3892 313.824C62.7159 313.591 62.9632 313.287 63.1312 312.914C63.2992 312.541 63.3832 312.149 63.3832 311.738V311.724H61.6052C60.9145 311.724 60.4245 311.845 60.1352 312.088C59.8552 312.321 59.7152 312.615 59.7152 312.97C59.7152 313.334 59.8459 313.628 60.1072 313.852C60.3779 314.067 60.7559 314.174 61.2412 314.174ZM66.3234 315V308.056H67.3874L67.4574 309.302C67.6814 308.863 68.0034 308.518 68.4234 308.266C68.8434 308.014 69.3194 307.888 69.8514 307.888C70.6728 307.888 71.3261 308.14 71.8114 308.644C72.3061 309.139 72.5534 309.904 72.5534 310.94V315H71.3774V311.066C71.3774 309.619 70.7801 308.896 69.5854 308.896C68.9881 308.896 68.4888 309.115 68.0874 309.554C67.6954 309.983 67.4994 310.599 67.4994 311.402V315H66.3234ZM77.5271 315.168C76.8645 315.168 76.2671 315.019 75.7351 314.72C75.2125 314.412 74.7971 313.987 74.4891 313.446C74.1905 312.895 74.0411 312.256 74.0411 311.528C74.0411 310.8 74.1905 310.165 74.4891 309.624C74.7971 309.073 75.2125 308.649 75.7351 308.35C76.2671 308.042 76.8645 307.888 77.5271 307.888C78.3485 307.888 79.0391 308.103 79.5991 308.532C80.1685 308.961 80.5278 309.535 80.6771 310.254H79.4731C79.3798 309.825 79.1511 309.493 78.7871 309.26C78.4231 309.017 77.9985 308.896 77.5131 308.896C77.1211 308.896 76.7525 308.994 76.4071 309.19C76.0618 309.386 75.7818 309.68 75.5671 310.072C75.3525 310.464 75.2451 310.949 75.2451 311.528C75.2451 312.107 75.3525 312.592 75.5671 312.984C75.7818 313.376 76.0618 313.675 76.4071 313.88C76.7525 314.076 77.1211 314.174 77.5131 314.174C77.9985 314.174 78.4231 314.057 78.7871 313.824C79.1511 313.581 79.3798 313.241 79.4731 312.802H80.6771C80.5371 313.502 80.1825 314.071 79.6131 314.51C79.0438 314.949 78.3485 315.168 77.5271 315.168ZM85.4415 315.168C84.7788 315.168 84.1908 315.019 83.6775 314.72C83.1642 314.412 82.7582 313.987 82.4595 313.446C82.1702 312.905 82.0255 312.265 82.0255 311.528C82.0255 310.8 82.1702 310.165 82.4595 309.624C82.7488 309.073 83.1502 308.649 83.6635 308.35C84.1862 308.042 84.7882 307.888 85.4695 307.888C86.1415 307.888 86.7202 308.042 87.2055 308.35C87.7002 308.649 88.0782 309.045 88.3395 309.54C88.6008 310.035 88.7315 310.567 88.7315 311.136C88.7315 311.239 88.7268 311.341 88.7175 311.444C88.7175 311.547 88.7175 311.663 88.7175 311.794H83.1875C83.2155 312.326 83.3368 312.769 83.5515 313.124C83.7755 313.469 84.0508 313.731 84.3775 313.908C84.7135 314.085 85.0682 314.174 85.4415 314.174C85.9268 314.174 86.3328 314.062 86.6595 313.838C86.9862 313.614 87.2242 313.311 87.3735 312.928H88.5355C88.3488 313.572 87.9895 314.109 87.4575 314.538C86.9348 314.958 86.2628 315.168 85.4415 315.168ZM85.4415 308.882C84.8815 308.882 84.3822 309.055 83.9435 309.4C83.5142 309.736 83.2668 310.231 83.2015 310.884H87.5695C87.5415 310.259 87.3268 309.769 86.9255 309.414C86.5242 309.059 86.0295 308.882 85.4415 308.882Z" fill="black"/>
<path d="M255.129 315V306.516L253.547 306.866V306.054L255.521 305.2H256.319V315H255.129ZM262.21 315.168C261.342 315.168 260.59 314.958 259.956 314.538C259.33 314.109 258.85 313.516 258.514 312.76C258.178 311.995 258.01 311.108 258.01 310.1C258.01 309.092 258.178 308.21 258.514 307.454C258.85 306.689 259.33 306.096 259.956 305.676C260.59 305.247 261.342 305.032 262.21 305.032C263.078 305.032 263.824 305.247 264.45 305.676C265.075 306.096 265.556 306.689 265.892 307.454C266.228 308.21 266.396 309.092 266.396 310.1C266.396 311.108 266.228 311.995 265.892 312.76C265.556 313.516 265.075 314.109 264.45 314.538C263.824 314.958 263.078 315.168 262.21 315.168ZM262.21 314.132C262.779 314.132 263.288 313.973 263.736 313.656C264.193 313.329 264.548 312.867 264.8 312.27C265.061 311.663 265.192 310.94 265.192 310.1C265.192 309.26 265.061 308.541 264.8 307.944C264.548 307.347 264.193 306.889 263.736 306.572C263.288 306.245 262.779 306.082 262.21 306.082C261.631 306.082 261.118 306.245 260.67 306.572C260.222 306.889 259.867 307.347 259.606 307.944C259.344 308.541 259.214 309.26 259.214 310.1C259.214 310.94 259.344 311.663 259.606 312.27C259.867 312.867 260.222 313.329 260.67 313.656C261.118 313.973 261.631 314.132 262.21 314.132ZM271.917 315.168C271.049 315.168 270.297 314.958 269.663 314.538C269.037 314.109 268.557 313.516 268.221 312.76C267.885 311.995 267.717 311.108 267.717 310.1C267.717 309.092 267.885 308.21 268.221 307.454C268.557 306.689 269.037 306.096 269.663 305.676C270.297 305.247 271.049 305.032 271.917 305.032C272.785 305.032 273.531 305.247 274.157 305.676C274.782 306.096 275.263 306.689 275.599 307.454C275.935 308.21 276.103 309.092 276.103 310.1C276.103 311.108 275.935 311.995 275.599 312.76C275.263 313.516 274.782 314.109 274.157 314.538C273.531 314.958 272.785 315.168 271.917 315.168ZM271.917 314.132C272.486 314.132 272.995 313.973 273.443 313.656C273.9 313.329 274.255 312.867 274.507 312.27C274.768 311.663 274.899 310.94 274.899 310.1C274.899 309.26 274.768 308.541 274.507 307.944C274.255 307.347 273.9 306.889 273.443 306.572C272.995 306.245 272.486 306.082 271.917 306.082C271.338 306.082 270.825 306.245 270.377 306.572C269.929 306.889 269.574 307.347 269.313 307.944C269.051 308.541 268.921 309.26 268.921 310.1C268.921 310.94 269.051 311.663 269.313 312.27C269.574 312.867 269.929 313.329 270.377 313.656C270.825 313.973 271.338 314.132 271.917 314.132ZM276.37 316.666L277.182 313.572H278.4L277.182 316.666H276.37ZM284.304 315V312.9H279.334V311.99L284.094 305.2H285.466V311.864H286.922V312.9H285.466V315H284.304ZM280.636 311.864H284.36V306.502L280.636 311.864ZM288.189 315V314.174C288.851 313.651 289.477 313.124 290.065 312.592C290.662 312.051 291.189 311.519 291.647 310.996C292.113 310.473 292.477 309.96 292.739 309.456C293.009 308.952 293.145 308.467 293.145 308C293.145 307.655 293.084 307.333 292.963 307.034C292.851 306.735 292.664 306.497 292.403 306.32C292.141 306.133 291.787 306.04 291.339 306.04C290.909 306.04 290.55 306.138 290.261 306.334C289.971 306.521 289.752 306.773 289.603 307.09C289.463 307.407 289.393 307.748 289.393 308.112H288.259C288.259 307.468 288.394 306.917 288.665 306.46C288.935 305.993 289.304 305.639 289.771 305.396C290.237 305.153 290.765 305.032 291.353 305.032C292.221 305.032 292.93 305.279 293.481 305.774C294.041 306.259 294.321 306.987 294.321 307.958C294.321 308.537 294.176 309.111 293.887 309.68C293.597 310.24 293.229 310.786 292.781 311.318C292.333 311.841 291.852 312.331 291.339 312.788C290.835 313.245 290.363 313.656 289.925 314.02H294.657V315H288.189ZM299.452 315.168C298.836 315.168 298.308 315.047 297.87 314.804C297.431 314.561 297.081 314.239 296.82 313.838C296.568 313.427 296.414 312.975 296.358 312.48H297.45C297.543 313.012 297.767 313.423 298.122 313.712C298.476 314.001 298.924 314.146 299.466 314.146C300.212 314.146 300.833 313.801 301.328 313.11C301.822 312.41 302.088 311.323 302.126 309.848C301.902 310.287 301.542 310.669 301.048 310.996C300.562 311.313 299.974 311.472 299.284 311.472C298.733 311.472 298.21 311.341 297.716 311.08C297.221 310.819 296.82 310.455 296.512 309.988C296.204 309.512 296.05 308.957 296.05 308.322C296.05 307.771 296.185 307.244 296.456 306.74C296.736 306.236 297.128 305.825 297.632 305.508C298.136 305.191 298.738 305.032 299.438 305.032C300.147 305.032 300.744 305.167 301.23 305.438C301.715 305.699 302.102 306.054 302.392 306.502C302.69 306.95 302.905 307.454 303.036 308.014C303.176 308.565 303.246 309.129 303.246 309.708C303.246 310.791 303.096 311.743 302.798 312.564C302.499 313.376 302.065 314.015 301.496 314.482C300.936 314.939 300.254 315.168 299.452 315.168ZM299.522 310.45C299.96 310.45 300.352 310.352 300.698 310.156C301.043 309.951 301.318 309.68 301.524 309.344C301.729 309.008 301.832 308.644 301.832 308.252C301.832 307.832 301.729 307.459 301.524 307.132C301.318 306.796 301.043 306.535 300.698 306.348C300.352 306.161 299.96 306.068 299.522 306.068C299.083 306.068 298.691 306.161 298.346 306.348C298 306.535 297.73 306.796 297.534 307.132C297.338 307.459 297.24 307.837 297.24 308.266C297.24 308.929 297.454 309.461 297.884 309.862C298.322 310.254 298.868 310.45 299.522 310.45Z" fill="#FF3A29"/>
<path fill-rule="evenodd" clip-rule="evenodd" d="M38 330C38 327.791 39.7909 326 42 326H204C206.209 326 208 327.791 208 330C208 332.209 206.209 334 204 334H42C39.7909 334 38 332.209 38 330Z" fill="#FF3A29"/>
</g>
<g clip-path="url(#clip1_289_847)">
<path fill-rule="evenodd" clip-rule="evenodd" d="M38 272C38 269.791 39.7909 268 42 268H300C302.209 268 304 269.791 304 272C304 274.209 302.209 276 300 276H42C39.7909 276 38 274.209 38 272Z" fill="#CCF8FE"/>
<path d="M41.332 257V248.166H38.406V247.2H45.434V248.166H42.508V257H41.332ZM47.4617 257L45.4317 250.056H46.6077L48.0777 255.502L49.7017 250.056H51.0317L52.6697 255.502L54.1257 250.056H55.3157L53.2857 257H52.0817L50.3737 251.274L48.6657 257H47.4617ZM57.3304 248.516C57.0971 248.516 56.9011 248.441 56.7424 248.292C56.5931 248.133 56.5184 247.937 56.5184 247.704C56.5184 247.48 56.5931 247.293 56.7424 247.144C56.9011 246.995 57.0971 246.92 57.3304 246.92C57.5544 246.92 57.7457 246.995 57.9044 247.144C58.0631 247.293 58.1424 247.48 58.1424 247.704C58.1424 247.937 58.0631 248.133 57.9044 248.292C57.7457 248.441 57.5544 248.516 57.3304 248.516ZM56.7424 257V250.056H57.9184V257H56.7424ZM62.71 257C62.0753 257 61.576 256.846 61.212 256.538C60.848 256.23 60.666 255.675 60.666 254.872V251.05H59.462V250.056H60.666L60.82 248.39H61.842V250.056H63.886V251.05H61.842V254.872C61.842 255.311 61.9307 255.609 62.108 255.768C62.2853 255.917 62.598 255.992 63.046 255.992H63.774V257H62.71ZM68.1241 257C67.4894 257 66.9901 256.846 66.6261 256.538C66.2621 256.23 66.0801 255.675 66.0801 254.872V251.05H64.8761V250.056H66.0801L66.2341 248.39H67.2561V250.056H69.3001V251.05H67.2561V254.872C67.2561 255.311 67.3447 255.609 67.5221 255.768C67.6994 255.917 68.0121 255.992 68.4601 255.992H69.1881V257H68.1241ZM73.7247 257.168C73.0621 257.168 72.4741 257.019 71.9607 256.72C71.4474 256.412 71.0414 255.987 70.7427 255.446C70.4534 254.905 70.3087 254.265 70.3087 253.528C70.3087 252.8 70.4534 252.165 70.7427 251.624C71.0321 251.073 71.4334 250.649 71.9467 250.35C72.4694 250.042 73.0714 249.888 73.7527 249.888C74.4247 249.888 75.0034 250.042 75.4887 250.35C75.9834 250.649 76.3614 251.045 76.6227 251.54C76.8841 252.035 77.0147 252.567 77.0147 253.136C77.0147 253.239 77.0101 253.341 77.0007 253.444C77.0007 253.547 77.0007 253.663 77.0007 253.794H71.4707C71.4987 254.326 71.6201 254.769 71.8347 255.124C72.0587 255.469 72.3341 255.731 72.6607 255.908C72.9967 256.085 73.3514 256.174 73.7247 256.174C74.2101 256.174 74.6161 256.062 74.9427 255.838C75.2694 255.614 75.5074 255.311 75.6567 254.928H76.8187C76.6321 255.572 76.2727 256.109 75.7407 256.538C75.2181 256.958 74.5461 257.168 73.7247 257.168ZM73.7247 250.882C73.1647 250.882 72.6654 251.055 72.2267 251.4C71.7974 251.736 71.5501 252.231 71.4847 252.884H75.8527C75.8247 252.259 75.6101 251.769 75.2087 251.414C74.8074 251.059 74.3127 250.882 73.7247 250.882ZM78.5734 257V250.056H79.6374L79.7354 251.386C79.9501 250.929 80.2768 250.565 80.7154 250.294C81.1541 250.023 81.6954 249.888 82.3394 249.888V251.12H82.0174C81.6068 251.12 81.2288 251.195 80.8834 251.344C80.5381 251.484 80.2628 251.727 80.0574 252.072C79.8521 252.417 79.7494 252.893 79.7494 253.5V257H78.5734Z" fill="black"/>
<path d="M257.18 257V248.516L255.598 248.866V248.054L257.572 247.2H258.37V257H257.18ZM263.49 257.168C262.865 257.168 262.3 257.056 261.796 256.832C261.292 256.599 260.886 256.253 260.578 255.796C260.28 255.339 260.121 254.769 260.102 254.088H261.292C261.302 254.648 261.498 255.133 261.88 255.544C262.263 255.945 262.8 256.146 263.49 256.146C264.181 256.146 264.699 255.955 265.044 255.572C265.399 255.189 265.576 254.727 265.576 254.186C265.576 253.729 265.464 253.355 265.24 253.066C265.026 252.777 264.732 252.562 264.358 252.422C263.994 252.282 263.593 252.212 263.154 252.212H262.426V251.218H263.154C263.789 251.218 264.284 251.073 264.638 250.784C265.002 250.495 265.184 250.089 265.184 249.566C265.184 249.127 265.04 248.768 264.75 248.488C264.47 248.199 264.05 248.054 263.49 248.054C262.949 248.054 262.515 248.217 262.188 248.544C261.862 248.861 261.68 249.263 261.642 249.748H260.452C260.48 249.216 260.62 248.745 260.872 248.334C261.134 247.923 261.488 247.606 261.936 247.382C262.384 247.149 262.902 247.032 263.49 247.032C264.125 247.032 264.652 247.144 265.072 247.368C265.502 247.592 265.824 247.891 266.038 248.264C266.262 248.637 266.374 249.048 266.374 249.496C266.374 249.991 266.239 250.443 265.968 250.854C265.698 251.255 265.292 251.526 264.75 251.666C265.329 251.787 265.81 252.063 266.192 252.492C266.575 252.921 266.766 253.486 266.766 254.186C266.766 254.727 266.64 255.227 266.388 255.684C266.146 256.132 265.782 256.491 265.296 256.762C264.811 257.033 264.209 257.168 263.49 257.168ZM268.515 257V256.174C269.177 255.651 269.803 255.124 270.391 254.592C270.988 254.051 271.515 253.519 271.973 252.996C272.439 252.473 272.803 251.96 273.065 251.456C273.335 250.952 273.471 250.467 273.471 250C273.471 249.655 273.41 249.333 273.289 249.034C273.177 248.735 272.99 248.497 272.729 248.32C272.467 248.133 272.113 248.04 271.665 248.04C271.235 248.04 270.876 248.138 270.587 248.334C270.297 248.521 270.078 248.773 269.929 249.09C269.789 249.407 269.719 249.748 269.719 250.112H268.585C268.585 249.468 268.72 248.917 268.991 248.46C269.261 247.993 269.63 247.639 270.097 247.396C270.563 247.153 271.091 247.032 271.679 247.032C272.547 247.032 273.256 247.279 273.807 247.774C274.367 248.259 274.647 248.987 274.647 249.958C274.647 250.537 274.502 251.111 274.213 251.68C273.923 252.24 273.555 252.786 273.107 253.318C272.659 253.841 272.178 254.331 271.665 254.788C271.161 255.245 270.689 255.656 270.251 256.02H274.983V257H268.515ZM275.673 258.666L276.485 255.572H277.703L276.485 258.666H275.673ZM282.697 257.168C281.987 257.168 281.39 257.037 280.905 256.776C280.419 256.505 280.027 256.146 279.729 255.698C279.439 255.25 279.225 254.751 279.085 254.2C278.954 253.64 278.889 253.071 278.889 252.492C278.889 251.409 279.038 250.462 279.337 249.65C279.635 248.829 280.065 248.189 280.625 247.732C281.194 247.265 281.88 247.032 282.683 247.032C283.299 247.032 283.826 247.153 284.265 247.396C284.703 247.639 285.049 247.965 285.301 248.376C285.562 248.777 285.725 249.225 285.791 249.72H284.699C284.596 249.188 284.367 248.777 284.013 248.488C283.658 248.199 283.21 248.054 282.669 248.054C281.931 248.054 281.311 248.404 280.807 249.104C280.312 249.795 280.046 250.877 280.009 252.352C280.233 251.913 280.587 251.535 281.073 251.218C281.567 250.891 282.16 250.728 282.851 250.728C283.411 250.728 283.933 250.859 284.419 251.12C284.913 251.381 285.315 251.75 285.623 252.226C285.931 252.693 286.085 253.243 286.085 253.878C286.085 254.429 285.949 254.956 285.679 255.46C285.408 255.964 285.016 256.375 284.503 256.692C283.999 257.009 283.397 257.168 282.697 257.168ZM282.613 256.132C283.051 256.132 283.443 256.039 283.789 255.852C284.134 255.665 284.405 255.409 284.601 255.082C284.797 254.746 284.895 254.363 284.895 253.934C284.895 253.271 284.675 252.744 284.237 252.352C283.807 251.951 283.266 251.75 282.613 251.75C282.174 251.75 281.782 251.853 281.437 252.058C281.091 252.254 280.816 252.52 280.611 252.856C280.415 253.192 280.317 253.556 280.317 253.948C280.317 254.368 280.415 254.746 280.611 255.082C280.816 255.409 281.091 255.665 281.437 255.852C281.782 256.039 282.174 256.132 282.613 256.132ZM292.425 257V254.9H287.455V253.99L292.215 247.2H293.587V253.864H295.043V254.9H293.587V257H292.425ZM288.757 253.864H292.481V248.502L288.757 253.864ZM299.796 257.168C299.124 257.168 298.54 257.047 298.046 256.804C297.551 256.561 297.154 256.23 296.856 255.81C296.566 255.381 296.389 254.895 296.324 254.354H297.472C297.584 254.895 297.845 255.334 298.256 255.67C298.666 255.997 299.184 256.16 299.81 256.16C300.276 256.16 300.678 256.053 301.014 255.838C301.35 255.614 301.606 255.315 301.784 254.942C301.97 254.569 302.064 254.153 302.064 253.696C302.064 252.968 301.858 252.38 301.448 251.932C301.037 251.484 300.505 251.26 299.852 251.26C299.31 251.26 298.848 251.381 298.466 251.624C298.083 251.867 297.803 252.184 297.626 252.576H296.506L297.346 247.2H302.484V248.222H298.256L297.682 251.204C297.906 250.933 298.214 250.709 298.606 250.532C299.007 250.355 299.464 250.266 299.978 250.266C300.622 250.266 301.182 250.415 301.658 250.714C302.143 251.013 302.521 251.419 302.792 251.932C303.062 252.445 303.198 253.029 303.198 253.682C303.198 254.307 303.062 254.886 302.792 255.418C302.53 255.95 302.143 256.375 301.63 256.692C301.126 257.009 300.514 257.168 299.796 257.168Z" fill="#02A0FC"/>
<path fill-rule="evenodd" clip-rule="evenodd" d="M38 272C38 269.791 39.7909 268 42 268H264C266.209 268 268 269.791 268 272C268 274.209 266.209 276 264 276H42C39.7909 276 38 274.209 38 272Z" fill="#02A0FC"/>
</g>
<g clip-path="url(#clip2_289_847)">
<path fill-rule="evenodd" clip-rule="evenodd" d="M38 214C38 211.791 39.7909 210 42 210H300C302.209 210 304 211.791 304 214C304 216.209 302.209 218 300 218H42C39.7909 218 38 216.209 38 214Z" fill="#DAD7FE"/>
<path d="M39.036 199V189.2H45V190.166H40.212V193.61H44.286V194.562H40.212V199H39.036ZM48.276 199.168C47.6973 199.168 47.2167 199.07 46.834 198.874C46.4513 198.678 46.1667 198.417 45.98 198.09C45.7933 197.763 45.7 197.409 45.7 197.026C45.7 196.317 45.9707 195.771 46.512 195.388C47.0533 195.005 47.7907 194.814 48.724 194.814H50.6V194.73C50.6 194.123 50.4413 193.666 50.124 193.358C49.8067 193.041 49.382 192.882 48.85 192.882C48.3927 192.882 47.996 192.999 47.66 193.232C47.3333 193.456 47.128 193.787 47.044 194.226H45.84C45.8867 193.722 46.0547 193.297 46.344 192.952C46.6427 192.607 47.0113 192.345 47.45 192.168C47.8887 191.981 48.3553 191.888 48.85 191.888C49.8207 191.888 50.5487 192.149 51.034 192.672C51.5287 193.185 51.776 193.871 51.776 194.73V199H50.726L50.656 197.754C50.46 198.146 50.1707 198.482 49.788 198.762C49.4147 199.033 48.9107 199.168 48.276 199.168ZM48.458 198.174C48.906 198.174 49.2887 198.057 49.606 197.824C49.9327 197.591 50.18 197.287 50.348 196.914C50.516 196.541 50.6 196.149 50.6 195.738V195.724H48.822C48.1313 195.724 47.6413 195.845 47.352 196.088C47.072 196.321 46.932 196.615 46.932 196.97C46.932 197.334 47.0627 197.628 47.324 197.852C47.5947 198.067 47.9727 198.174 48.458 198.174ZM56.7322 199.168C56.0696 199.168 55.4722 199.019 54.9402 198.72C54.4176 198.412 54.0022 197.987 53.6942 197.446C53.3956 196.895 53.2462 196.256 53.2462 195.528C53.2462 194.8 53.3956 194.165 53.6942 193.624C54.0022 193.073 54.4176 192.649 54.9402 192.35C55.4722 192.042 56.0696 191.888 56.7322 191.888C57.5536 191.888 58.2442 192.103 58.8042 192.532C59.3736 192.961 59.7329 193.535 59.8822 194.254H58.6782C58.5849 193.825 58.3562 193.493 57.9922 193.26C57.6282 193.017 57.2036 192.896 56.7182 192.896C56.3262 192.896 55.9576 192.994 55.6122 193.19C55.2669 193.386 54.9869 193.68 54.7722 194.072C54.5576 194.464 54.4502 194.949 54.4502 195.528C54.4502 196.107 54.5576 196.592 54.7722 196.984C54.9869 197.376 55.2669 197.675 55.6122 197.88C55.9576 198.076 56.3262 198.174 56.7182 198.174C57.2036 198.174 57.6282 198.057 57.9922 197.824C58.3562 197.581 58.5849 197.241 58.6782 196.802H59.8822C59.7422 197.502 59.3876 198.071 58.8182 198.51C58.2489 198.949 57.5536 199.168 56.7322 199.168ZM64.6466 199.168C63.9839 199.168 63.3959 199.019 62.8826 198.72C62.3693 198.412 61.9633 197.987 61.6646 197.446C61.3753 196.905 61.2306 196.265 61.2306 195.528C61.2306 194.8 61.3753 194.165 61.6646 193.624C61.9539 193.073 62.3553 192.649 62.8686 192.35C63.3913 192.042 63.9933 191.888 64.6746 191.888C65.3466 191.888 65.9253 192.042 66.4106 192.35C66.9053 192.649 67.2833 193.045 67.5446 193.54C67.8059 194.035 67.9366 194.567 67.9366 195.136C67.9366 195.239 67.9319 195.341 67.9226 195.444C67.9226 195.547 67.9226 195.663 67.9226 195.794H62.3926C62.4206 196.326 62.5419 196.769 62.7566 197.124C62.9806 197.469 63.2559 197.731 63.5826 197.908C63.9186 198.085 64.2733 198.174 64.6466 198.174C65.1319 198.174 65.5379 198.062 65.8646 197.838C66.1913 197.614 66.4293 197.311 66.5786 196.928H67.7406C67.5539 197.572 67.1946 198.109 66.6626 198.538C66.1399 198.958 65.4679 199.168 64.6466 199.168ZM64.6466 192.882C64.0866 192.882 63.5873 193.055 63.1486 193.4C62.7193 193.736 62.4719 194.231 62.4066 194.884H66.7746C66.7466 194.259 66.5319 193.769 66.1306 193.414C65.7293 193.059 65.2346 192.882 64.6466 192.882ZM73.2053 199.168C72.636 199.168 72.1273 199.051 71.6793 198.818C71.2406 198.585 70.9046 198.258 70.6713 197.838L70.5593 199H69.4953V188.92H70.6713V193.204C70.8953 192.868 71.2126 192.565 71.6233 192.294C72.0433 192.023 72.5753 191.888 73.2193 191.888C73.91 191.888 74.512 192.047 75.0253 192.364C75.5386 192.681 75.9353 193.115 76.2153 193.666C76.5046 194.217 76.6493 194.842 76.6493 195.542C76.6493 196.242 76.5046 196.867 76.2153 197.418C75.9353 197.959 75.534 198.389 75.0113 198.706C74.498 199.014 73.896 199.168 73.2053 199.168ZM73.0793 198.146C73.546 198.146 73.9566 198.039 74.3113 197.824C74.666 197.6 74.946 197.292 75.1513 196.9C75.3566 196.508 75.4593 196.051 75.4593 195.528C75.4593 195.005 75.3566 194.548 75.1513 194.156C74.946 193.764 74.666 193.461 74.3113 193.246C73.9566 193.022 73.546 192.91 73.0793 192.91C72.6126 192.91 72.202 193.022 71.8473 193.246C71.4926 193.461 71.2126 193.764 71.0073 194.156C70.802 194.548 70.6993 195.005 70.6993 195.528C70.6993 196.051 70.802 196.508 71.0073 196.9C71.2126 197.292 71.4926 197.6 71.8473 197.824C72.202 198.039 72.6126 198.146 73.0793 198.146ZM81.4503 199.168C80.797 199.168 80.209 199.019 79.6863 198.72C79.1636 198.421 78.7483 198.001 78.4403 197.46C78.1416 196.909 77.9923 196.265 77.9923 195.528C77.9923 194.791 78.1463 194.151 78.4543 193.61C78.7623 193.059 79.1776 192.635 79.7003 192.336C80.2323 192.037 80.825 191.888 81.4783 191.888C82.1316 191.888 82.7196 192.037 83.2423 192.336C83.765 192.635 84.1756 193.059 84.4743 193.61C84.7823 194.151 84.9363 194.791 84.9363 195.528C84.9363 196.265 84.7823 196.909 84.4743 197.46C84.1663 198.001 83.7463 198.421 83.2143 198.72C82.6916 199.019 82.1036 199.168 81.4503 199.168ZM81.4503 198.16C81.8516 198.16 82.225 198.062 82.5703 197.866C82.9156 197.67 83.1956 197.376 83.4103 196.984C83.625 196.592 83.7323 196.107 83.7323 195.528C83.7323 194.949 83.625 194.464 83.4103 194.072C83.205 193.68 82.9296 193.386 82.5843 193.19C82.239 192.994 81.8703 192.896 81.4783 192.896C81.077 192.896 80.7036 192.994 80.3583 193.19C80.013 193.386 79.733 193.68 79.5183 194.072C79.3036 194.464 79.1963 194.949 79.1963 195.528C79.1963 196.107 79.3036 196.592 79.5183 196.984C79.733 197.376 80.0083 197.67 80.3443 197.866C80.6896 198.062 81.0583 198.16 81.4503 198.16ZM89.7355 199.168C89.0821 199.168 88.4941 199.019 87.9715 198.72C87.4488 198.421 87.0335 198.001 86.7255 197.46C86.4268 196.909 86.2775 196.265 86.2775 195.528C86.2775 194.791 86.4315 194.151 86.7395 193.61C87.0475 193.059 87.4628 192.635 87.9855 192.336C88.5175 192.037 89.1101 191.888 89.7635 191.888C90.4168 191.888 91.0048 192.037 91.5275 192.336C92.0501 192.635 92.4608 193.059 92.7595 193.61C93.0675 194.151 93.2215 194.791 93.2215 195.528C93.2215 196.265 93.0675 196.909 92.7595 197.46C92.4515 198.001 92.0315 198.421 91.4995 198.72C90.9768 199.019 90.3888 199.168 89.7355 199.168ZM89.7355 198.16C90.1368 198.16 90.5101 198.062 90.8555 197.866C91.2008 197.67 91.4808 197.376 91.6955 196.984C91.9101 196.592 92.0175 196.107 92.0175 195.528C92.0175 194.949 91.9101 194.464 91.6955 194.072C91.4901 193.68 91.2148 193.386 90.8695 193.19C90.5241 192.994 90.1555 192.896 89.7635 192.896C89.3621 192.896 88.9888 192.994 88.6435 193.19C88.2981 193.386 88.0181 193.68 87.8035 194.072C87.5888 194.464 87.4815 194.949 87.4815 195.528C87.4815 196.107 87.5888 196.592 87.8035 196.984C88.0181 197.376 88.2935 197.67 88.6295 197.866C88.9748 198.062 89.3435 198.16 89.7355 198.16ZM94.8566 199V188.92H96.0326V194.982L98.8746 192.056H100.317L97.2366 195.192L100.709 199H99.2106L96.0326 195.402V199H94.8566Z" fill="black"/>
<path d="M268.527 199V190.516L266.945 190.866V190.054L268.919 189.2H269.717V199H268.527ZM271.632 199V198.174C272.295 197.651 272.92 197.124 273.508 196.592C274.105 196.051 274.633 195.519 275.09 194.996C275.557 194.473 275.921 193.96 276.182 193.456C276.453 192.952 276.588 192.467 276.588 192C276.588 191.655 276.527 191.333 276.406 191.034C276.294 190.735 276.107 190.497 275.846 190.32C275.585 190.133 275.23 190.04 274.782 190.04C274.353 190.04 273.993 190.138 273.704 190.334C273.415 190.521 273.195 190.773 273.046 191.09C272.906 191.407 272.836 191.748 272.836 192.112H271.702C271.702 191.468 271.837 190.917 272.108 190.46C272.379 189.993 272.747 189.639 273.214 189.396C273.681 189.153 274.208 189.032 274.796 189.032C275.664 189.032 276.373 189.279 276.924 189.774C277.484 190.259 277.764 190.987 277.764 191.958C277.764 192.537 277.619 193.111 277.33 193.68C277.041 194.24 276.672 194.786 276.224 195.318C275.776 195.841 275.295 196.331 274.782 196.788C274.278 197.245 273.807 197.656 273.368 198.02H278.1V199H271.632ZM278.79 200.666L279.602 197.572H280.82L279.602 200.666H278.79ZM283.252 199V190.516L281.67 190.866V190.054L283.644 189.2H284.442V199H283.252ZM290.333 199.168C289.465 199.168 288.713 198.958 288.079 198.538C287.453 198.109 286.973 197.516 286.637 196.76C286.301 195.995 286.133 195.108 286.133 194.1C286.133 193.092 286.301 192.21 286.637 191.454C286.973 190.689 287.453 190.096 288.079 189.676C288.713 189.247 289.465 189.032 290.333 189.032C291.201 189.032 291.947 189.247 292.573 189.676C293.198 190.096 293.679 190.689 294.015 191.454C294.351 192.21 294.519 193.092 294.519 194.1C294.519 195.108 294.351 195.995 294.015 196.76C293.679 197.516 293.198 198.109 292.573 198.538C291.947 198.958 291.201 199.168 290.333 199.168ZM290.333 198.132C290.902 198.132 291.411 197.973 291.859 197.656C292.316 197.329 292.671 196.867 292.923 196.27C293.184 195.663 293.315 194.94 293.315 194.1C293.315 193.26 293.184 192.541 292.923 191.944C292.671 191.347 292.316 190.889 291.859 190.572C291.411 190.245 290.902 190.082 290.333 190.082C289.754 190.082 289.241 190.245 288.793 190.572C288.345 190.889 287.99 191.347 287.729 191.944C287.467 192.541 287.337 193.26 287.337 194.1C287.337 194.94 287.467 195.663 287.729 196.27C287.99 196.867 288.345 197.329 288.793 197.656C289.241 197.973 289.754 198.132 290.333 198.132ZM299.452 199.168C298.836 199.168 298.308 199.047 297.87 198.804C297.431 198.561 297.081 198.239 296.82 197.838C296.568 197.427 296.414 196.975 296.358 196.48H297.45C297.543 197.012 297.767 197.423 298.122 197.712C298.476 198.001 298.924 198.146 299.466 198.146C300.212 198.146 300.833 197.801 301.328 197.11C301.822 196.41 302.088 195.323 302.126 193.848C301.902 194.287 301.542 194.669 301.048 194.996C300.562 195.313 299.974 195.472 299.284 195.472C298.733 195.472 298.21 195.341 297.716 195.08C297.221 194.819 296.82 194.455 296.512 193.988C296.204 193.512 296.05 192.957 296.05 192.322C296.05 191.771 296.185 191.244 296.456 190.74C296.736 190.236 297.128 189.825 297.632 189.508C298.136 189.191 298.738 189.032 299.438 189.032C300.147 189.032 300.744 189.167 301.23 189.438C301.715 189.699 302.102 190.054 302.392 190.502C302.69 190.95 302.905 191.454 303.036 192.014C303.176 192.565 303.246 193.129 303.246 193.708C303.246 194.791 303.096 195.743 302.798 196.564C302.499 197.376 302.065 198.015 301.496 198.482C300.936 198.939 300.254 199.168 299.452 199.168ZM299.522 194.45C299.96 194.45 300.352 194.352 300.698 194.156C301.043 193.951 301.318 193.68 301.524 193.344C301.729 193.008 301.832 192.644 301.832 192.252C301.832 191.832 301.729 191.459 301.524 191.132C301.318 190.796 301.043 190.535 300.698 190.348C300.352 190.161 299.96 190.068 299.522 190.068C299.083 190.068 298.691 190.161 298.346 190.348C298 190.535 297.73 190.796 297.534 191.132C297.338 191.459 297.24 191.837 297.24 192.266C297.24 192.929 297.454 193.461 297.884 193.862C298.322 194.254 298.868 194.45 299.522 194.45Z" fill="#4339F2"/>
<path fill-rule="evenodd" clip-rule="evenodd" d="M38 214C38 211.791 39.7909 210 42 210H184C186.209 210 188 211.791 188 214C188 216.209 186.209 218 184 218H42C39.7909 218 38 216.209 38 214Z" fill="#4339F2"/>
</g>
<g clip-path="url(#clip3_289_847)">
<path d="M39.036 141V131.2H40.212V141H39.036ZM42.2199 141V134.056H43.2839L43.3539 135.302C43.5779 134.863 43.8999 134.518 44.3199 134.266C44.7399 134.014 45.2159 133.888 45.7479 133.888C46.5692 133.888 47.2226 134.14 47.7079 134.644C48.2026 135.139 48.4499 135.904 48.4499 136.94V141H47.2739V137.066C47.2739 135.619 46.6766 134.896 45.4819 134.896C44.8846 134.896 44.3852 135.115 43.9839 135.554C43.5919 135.983 43.3959 136.599 43.3959 137.402V141H42.2199ZM52.8916 141.168C52.061 141.168 51.3703 140.958 50.8196 140.538C50.269 140.118 49.947 139.549 49.8536 138.83H51.0576C51.1323 139.194 51.3236 139.511 51.6316 139.782C51.949 140.043 52.3736 140.174 52.9056 140.174C53.4003 140.174 53.7643 140.071 53.9976 139.866C54.231 139.651 54.3476 139.399 54.3476 139.11C54.3476 138.69 54.1936 138.41 53.8856 138.27C53.587 138.13 53.1623 138.004 52.6116 137.892C52.2383 137.817 51.865 137.71 51.4916 137.57C51.1183 137.43 50.8056 137.234 50.5536 136.982C50.3016 136.721 50.1756 136.38 50.1756 135.96C50.1756 135.353 50.3996 134.859 50.8476 134.476C51.305 134.084 51.921 133.888 52.6956 133.888C53.433 133.888 54.035 134.075 54.5016 134.448C54.9776 134.812 55.253 135.335 55.3276 136.016H54.1656C54.119 135.661 53.965 135.386 53.7036 135.19C53.4516 134.985 53.111 134.882 52.6816 134.882C52.2616 134.882 51.935 134.971 51.7016 135.148C51.4776 135.325 51.3656 135.559 51.3656 135.848C51.3656 136.128 51.5103 136.347 51.7996 136.506C52.0983 136.665 52.4996 136.8 53.0036 136.912C53.433 137.005 53.839 137.122 54.2216 137.262C54.6136 137.393 54.931 137.593 55.1736 137.864C55.4256 138.125 55.5516 138.508 55.5516 139.012C55.561 139.637 55.323 140.155 54.8376 140.566C54.3616 140.967 53.713 141.168 52.8916 141.168ZM59.6612 141C59.0265 141 58.5272 140.846 58.1632 140.538C57.7992 140.23 57.6172 139.675 57.6172 138.872V135.05H56.4132V134.056H57.6172L57.7712 132.39H58.7932V134.056H60.8372V135.05H58.7932V138.872C58.7932 139.311 58.8818 139.609 59.0592 139.768C59.2365 139.917 59.5492 139.992 59.9972 139.992H60.7252V141H59.6612ZM64.6412 141.168C64.0626 141.168 63.5819 141.07 63.1992 140.874C62.8166 140.678 62.5319 140.417 62.3452 140.09C62.1586 139.763 62.0652 139.409 62.0652 139.026C62.0652 138.317 62.3359 137.771 62.8772 137.388C63.4186 137.005 64.1559 136.814 65.0892 136.814H66.9652V136.73C66.9652 136.123 66.8066 135.666 66.4892 135.358C66.1719 135.041 65.7472 134.882 65.2152 134.882C64.7579 134.882 64.3612 134.999 64.0252 135.232C63.6986 135.456 63.4932 135.787 63.4092 136.226H62.2052C62.2519 135.722 62.4199 135.297 62.7092 134.952C63.0079 134.607 63.3766 134.345 63.8152 134.168C64.2539 133.981 64.7206 133.888 65.2152 133.888C66.1859 133.888 66.9139 134.149 67.3992 134.672C67.8939 135.185 68.1412 135.871 68.1412 136.73V141H67.0912L67.0212 139.754C66.8252 140.146 66.5359 140.482 66.1532 140.762C65.7799 141.033 65.2759 141.168 64.6412 141.168ZM64.8232 140.174C65.2712 140.174 65.6539 140.057 65.9712 139.824C66.2979 139.591 66.5452 139.287 66.7132 138.914C66.8812 138.541 66.9652 138.149 66.9652 137.738V137.724H65.1872C64.4966 137.724 64.0066 137.845 63.7172 138.088C63.4372 138.321 63.2972 138.615 63.2972 138.97C63.2972 139.334 63.4279 139.628 63.6892 139.852C63.9599 140.067 64.3379 140.174 64.8232 140.174ZM72.6495 138.816C72.2575 138.816 71.8981 138.765 71.5715 138.662L70.8715 139.32C70.9741 139.395 71.1001 139.46 71.2495 139.516C71.4081 139.563 71.6321 139.609 71.9215 139.656C72.2108 139.693 72.6168 139.735 73.1395 139.782C74.0728 139.847 74.7401 140.062 75.1415 140.426C75.5428 140.79 75.7435 141.266 75.7435 141.854C75.7435 142.255 75.6315 142.638 75.4075 143.002C75.1928 143.366 74.8568 143.665 74.3995 143.898C73.9515 144.131 73.3728 144.248 72.6635 144.248C72.0381 144.248 71.4828 144.164 70.9975 143.996C70.5121 143.837 70.1341 143.59 69.8635 143.254C69.5928 142.927 69.4575 142.512 69.4575 142.008C69.4575 141.747 69.5275 141.462 69.6675 141.154C69.8075 140.855 70.0688 140.571 70.4515 140.3C70.2461 140.216 70.0688 140.127 69.9195 140.034C69.7795 139.931 69.6488 139.819 69.5275 139.698V139.376L70.7175 138.2C70.1668 137.733 69.8915 137.117 69.8915 136.352C69.8915 135.895 69.9988 135.479 70.2135 135.106C70.4281 134.733 70.7408 134.439 71.1515 134.224C71.5621 134 72.0615 133.888 72.6495 133.888C73.0508 133.888 73.4148 133.944 73.7415 134.056H76.3035V134.938L75.0015 134.994C75.2721 135.386 75.4075 135.839 75.4075 136.352C75.4075 136.809 75.2955 137.225 75.0715 137.598C74.8568 137.971 74.5441 138.27 74.1335 138.494C73.7321 138.709 73.2375 138.816 72.6495 138.816ZM72.6495 137.85C73.1441 137.85 73.5361 137.724 73.8255 137.472C74.1241 137.211 74.2735 136.837 74.2735 136.352C74.2735 135.876 74.1241 135.512 73.8255 135.26C73.5361 134.999 73.1441 134.868 72.6495 134.868C72.1455 134.868 71.7441 134.999 71.4455 135.26C71.1561 135.512 71.0115 135.876 71.0115 136.352C71.0115 136.837 71.1561 137.211 71.4455 137.472C71.7441 137.724 72.1455 137.85 72.6495 137.85ZM70.6055 141.896C70.6055 142.363 70.8015 142.708 71.1935 142.932C71.5855 143.165 72.0755 143.282 72.6635 143.282C73.2421 143.282 73.7041 143.156 74.0495 142.904C74.4041 142.652 74.5815 142.316 74.5815 141.896C74.5815 141.597 74.4601 141.336 74.2175 141.112C73.9748 140.897 73.5268 140.771 72.8735 140.734C72.3601 140.697 71.9168 140.65 71.5435 140.594C71.1608 140.799 70.9088 141.019 70.7875 141.252C70.6661 141.495 70.6055 141.709 70.6055 141.896ZM77.6301 141V134.056H78.6941L78.7921 135.386C79.0067 134.929 79.3334 134.565 79.7721 134.294C80.2107 134.023 80.7521 133.888 81.3961 133.888V135.12H81.0741C80.6634 135.12 80.2854 135.195 79.9401 135.344C79.5947 135.484 79.3194 135.727 79.1141 136.072C78.9087 136.417 78.8061 136.893 78.8061 137.5V141H77.6301ZM85.026 141.168C84.4473 141.168 83.9667 141.07 83.584 140.874C83.2013 140.678 82.9167 140.417 82.73 140.09C82.5433 139.763 82.45 139.409 82.45 139.026C82.45 138.317 82.7207 137.771 83.262 137.388C83.8033 137.005 84.5407 136.814 85.474 136.814H87.35V136.73C87.35 136.123 87.1913 135.666 86.874 135.358C86.5567 135.041 86.132 134.882 85.6 134.882C85.1427 134.882 84.746 134.999 84.41 135.232C84.0833 135.456 83.878 135.787 83.794 136.226H82.59C82.6367 135.722 82.8047 135.297 83.094 134.952C83.3927 134.607 83.7613 134.345 84.2 134.168C84.6387 133.981 85.1053 133.888 85.6 133.888C86.5707 133.888 87.2987 134.149 87.784 134.672C88.2787 135.185 88.526 135.871 88.526 136.73V141H87.476L87.406 139.754C87.21 140.146 86.9207 140.482 86.538 140.762C86.1647 141.033 85.6607 141.168 85.026 141.168ZM85.208 140.174C85.656 140.174 86.0387 140.057 86.356 139.824C86.6827 139.591 86.93 139.287 87.098 138.914C87.266 138.541 87.35 138.149 87.35 137.738V137.724H85.572C84.8813 137.724 84.3913 137.845 84.102 138.088C83.822 138.321 83.682 138.615 83.682 138.97C83.682 139.334 83.8127 139.628 84.074 139.852C84.3447 140.067 84.7227 140.174 85.208 140.174ZM90.2902 141V134.056H91.3542L91.4382 135.064C91.6622 134.691 91.9609 134.401 92.3342 134.196C92.7076 133.991 93.1276 133.888 93.5942 133.888C94.1449 133.888 94.6162 134 95.0082 134.224C95.4096 134.448 95.7176 134.789 95.9322 135.246C96.1749 134.826 96.5062 134.495 96.9262 134.252C97.3556 134.009 97.8176 133.888 98.3122 133.888C99.1429 133.888 99.8056 134.14 100.3 134.644C100.795 135.139 101.042 135.904 101.042 136.94V141H99.8802V137.066C99.8802 136.347 99.7356 135.806 99.4462 135.442C99.1569 135.078 98.7416 134.896 98.2002 134.896C97.6402 134.896 97.1736 135.115 96.8002 135.554C96.4362 135.983 96.2542 136.599 96.2542 137.402V141H95.0782V137.066C95.0782 136.347 94.9336 135.806 94.6442 135.442C94.3549 135.078 93.9396 134.896 93.3982 134.896C92.8476 134.896 92.3856 135.115 92.0122 135.554C91.6482 135.983 91.4662 136.599 91.4662 137.402V141H90.2902Z" fill="black"/>
<path fill-rule="evenodd" clip-rule="evenodd" d="M38 156C38 153.791 39.7909 152 42 152H300C302.209 152 304 153.791 304 156C304 158.209 302.209 160 300 160H42C39.7909 160 38 158.209 38 156Z" fill="#FFF5CC"/>
<path fill-rule="evenodd" clip-rule="evenodd" d="M38 156C38 153.791 39.7909 152 42 152H234C236.209 152 238 153.791 238 156C238 158.209 236.209 160 234 160H42C39.7909 160 38 158.209 38 156Z" fill="#FFB200"/>
<path d="M265.046 141.168C264.337 141.168 263.74 141.037 263.254 140.776C262.769 140.505 262.377 140.146 262.078 139.698C261.789 139.25 261.574 138.751 261.434 138.2C261.304 137.64 261.238 137.071 261.238 136.492C261.238 135.409 261.388 134.462 261.686 133.65C261.985 132.829 262.414 132.189 262.974 131.732C263.544 131.265 264.23 131.032 265.032 131.032C265.648 131.032 266.176 131.153 266.614 131.396C267.053 131.639 267.398 131.965 267.65 132.376C267.912 132.777 268.075 133.225 268.14 133.72H267.048C266.946 133.188 266.717 132.777 266.362 132.488C266.008 132.199 265.56 132.054 265.018 132.054C264.281 132.054 263.66 132.404 263.156 133.104C262.662 133.795 262.396 134.877 262.358 136.352C262.582 135.913 262.937 135.535 263.422 135.218C263.917 134.891 264.51 134.728 265.2 134.728C265.76 134.728 266.283 134.859 266.768 135.12C267.263 135.381 267.664 135.75 267.972 136.226C268.28 136.693 268.434 137.243 268.434 137.878C268.434 138.429 268.299 138.956 268.028 139.46C267.758 139.964 267.366 140.375 266.852 140.692C266.348 141.009 265.746 141.168 265.046 141.168ZM264.962 140.132C265.401 140.132 265.793 140.039 266.138 139.852C266.484 139.665 266.754 139.409 266.95 139.082C267.146 138.746 267.244 138.363 267.244 137.934C267.244 137.271 267.025 136.744 266.586 136.352C266.157 135.951 265.616 135.75 264.962 135.75C264.524 135.75 264.132 135.853 263.786 136.058C263.441 136.254 263.166 136.52 262.96 136.856C262.764 137.192 262.666 137.556 262.666 137.948C262.666 138.368 262.764 138.746 262.96 139.082C263.166 139.409 263.441 139.665 263.786 139.852C264.132 140.039 264.524 140.132 264.962 140.132ZM273.395 141.168C272.723 141.168 272.14 141.047 271.645 140.804C271.151 140.561 270.754 140.23 270.455 139.81C270.166 139.381 269.989 138.895 269.923 138.354H271.071C271.183 138.895 271.445 139.334 271.855 139.67C272.266 139.997 272.784 140.16 273.409 140.16C273.876 140.16 274.277 140.053 274.613 139.838C274.949 139.614 275.206 139.315 275.383 138.942C275.57 138.569 275.663 138.153 275.663 137.696C275.663 136.968 275.458 136.38 275.047 135.932C274.637 135.484 274.105 135.26 273.451 135.26C272.91 135.26 272.448 135.381 272.065 135.624C271.683 135.867 271.403 136.184 271.225 136.576H270.105L270.945 131.2H276.083V132.222H271.855L271.281 135.204C271.505 134.933 271.813 134.709 272.205 134.532C272.607 134.355 273.064 134.266 273.577 134.266C274.221 134.266 274.781 134.415 275.257 134.714C275.743 135.013 276.121 135.419 276.391 135.932C276.662 136.445 276.797 137.029 276.797 137.682C276.797 138.307 276.662 138.886 276.391 139.418C276.13 139.95 275.743 140.375 275.229 140.692C274.725 141.009 274.114 141.168 273.395 141.168ZM277.628 142.666L278.44 139.572H279.658L278.44 142.666H277.628ZM284.176 141.168C283.551 141.168 282.986 141.056 282.482 140.832C281.978 140.599 281.572 140.253 281.264 139.796C280.965 139.339 280.807 138.769 280.788 138.088H281.978C281.987 138.648 282.183 139.133 282.566 139.544C282.949 139.945 283.485 140.146 284.176 140.146C284.867 140.146 285.385 139.955 285.73 139.572C286.085 139.189 286.262 138.727 286.262 138.186C286.262 137.729 286.15 137.355 285.926 137.066C285.711 136.777 285.417 136.562 285.044 136.422C284.68 136.282 284.279 136.212 283.84 136.212H283.112V135.218H283.84C284.475 135.218 284.969 135.073 285.324 134.784C285.688 134.495 285.87 134.089 285.87 133.566C285.87 133.127 285.725 132.768 285.436 132.488C285.156 132.199 284.736 132.054 284.176 132.054C283.635 132.054 283.201 132.217 282.874 132.544C282.547 132.861 282.365 133.263 282.328 133.748H281.138C281.166 133.216 281.306 132.745 281.558 132.334C281.819 131.923 282.174 131.606 282.622 131.382C283.07 131.149 283.588 131.032 284.176 131.032C284.811 131.032 285.338 131.144 285.758 131.368C286.187 131.592 286.509 131.891 286.724 132.264C286.948 132.637 287.06 133.048 287.06 133.496C287.06 133.991 286.925 134.443 286.654 134.854C286.383 135.255 285.977 135.526 285.436 135.666C286.015 135.787 286.495 136.063 286.878 136.492C287.261 136.921 287.452 137.486 287.452 138.186C287.452 138.727 287.326 139.227 287.074 139.684C286.831 140.132 286.467 140.491 285.982 140.762C285.497 141.033 284.895 141.168 284.176 141.168ZM289.934 141L293.826 132.208H288.45V131.2H295.03V132.082L291.18 141H289.934ZM299.746 141.168C299.036 141.168 298.439 141.037 297.954 140.776C297.468 140.505 297.076 140.146 296.778 139.698C296.488 139.25 296.274 138.751 296.134 138.2C296.003 137.64 295.938 137.071 295.938 136.492C295.938 135.409 296.087 134.462 296.386 133.65C296.684 132.829 297.114 132.189 297.674 131.732C298.243 131.265 298.929 131.032 299.732 131.032C300.348 131.032 300.875 131.153 301.314 131.396C301.752 131.639 302.098 131.965 302.35 132.376C302.611 132.777 302.774 133.225 302.84 133.72H301.748C301.645 133.188 301.416 132.777 301.062 132.488C300.707 132.199 300.259 132.054 299.718 132.054C298.98 132.054 298.36 132.404 297.856 133.104C297.361 133.795 297.095 134.877 297.058 136.352C297.282 135.913 297.636 135.535 298.122 135.218C298.616 134.891 299.209 134.728 299.9 134.728C300.46 134.728 300.982 134.859 301.468 135.12C301.962 135.381 302.364 135.75 302.672 136.226C302.98 136.693 303.134 137.243 303.134 137.878C303.134 138.429 302.998 138.956 302.728 139.46C302.457 139.964 302.065 140.375 301.552 140.692C301.048 141.009 300.446 141.168 299.746 141.168ZM299.662 140.132C300.1 140.132 300.492 140.039 300.838 139.852C301.183 139.665 301.454 139.409 301.65 139.082C301.846 138.746 301.944 138.363 301.944 137.934C301.944 137.271 301.724 136.744 301.286 136.352C300.856 135.951 300.315 135.75 299.662 135.75C299.223 135.75 298.831 135.853 298.486 136.058C298.14 136.254 297.865 136.52 297.66 136.856C297.464 137.192 297.366 137.556 297.366 137.948C297.366 138.368 297.464 138.746 297.66 139.082C297.865 139.409 298.14 139.665 298.486 139.852C298.831 140.039 299.223 140.132 299.662 140.132Z" fill="#FFB200"/>
</g>
<g opacity="0.2">
<path fill-rule="evenodd" clip-rule="evenodd" d="M283 49C283 47.896 283.896 47 285 47C286.104 47 287 47.896 287 49C287 50.104 286.104 51 285 51C283.896 51 283 50.104 283 49ZM292 47C290.896 47 290 47.896 290 49C290 50.104 290.896 51 292 51C293.104 51 294 50.104 294 49C294 47.896 293.104 47 292 47ZM299 47C297.896 47 297 47.896 297 49C297 50.104 297.896 51 299 51C300.104 51 301 50.104 301 49C301 47.896 300.104 47 299 47Z" fill="black"/>
</g>
<path d="M43.17 56V42.492H38.616V40.6H50.034V42.492H45.502V56H43.17ZM53.4483 43.02C53.0083 43.02 52.6416 42.888 52.3483 42.624C52.0696 42.3453 51.9303 42.0007 51.9303 41.59C51.9303 41.1793 52.0696 40.842 52.3483 40.578C52.6416 40.2993 53.0083 40.16 53.4483 40.16C53.8883 40.16 54.2476 40.2993 54.5263 40.578C54.8196 40.842 54.9663 41.1793 54.9663 41.59C54.9663 42.0007 54.8196 42.3453 54.5263 42.624C54.2476 42.888 53.8883 43.02 53.4483 43.02ZM52.2823 56V45.088H54.6143V56H52.2823ZM62.2688 56C61.1981 56 60.3474 55.7433 59.7168 55.23C59.0861 54.702 58.7708 53.7707 58.7708 52.436V47.046H56.9008V45.088H58.7708L59.0568 42.316H61.1028V45.088H64.1828V47.046H61.1028V52.436C61.1028 53.0373 61.2274 53.4553 61.4768 53.69C61.7408 53.91 62.1881 54.02 62.8188 54.02H64.0728V56H62.2688ZM66.5873 56V40.16H68.9193V56H66.5873ZM76.9764 56.264C75.9058 56.264 74.9524 56.0293 74.1164 55.56C73.2951 55.076 72.6498 54.4087 72.1804 53.558C71.7111 52.7073 71.4764 51.7173 71.4764 50.588C71.4764 49.444 71.7038 48.4393 72.1584 47.574C72.6278 46.7087 73.2731 46.034 74.0944 45.55C74.9304 45.066 75.8984 44.824 76.9984 44.824C78.0691 44.824 79.0004 45.066 79.7924 45.55C80.5844 46.0193 81.2004 46.65 81.6404 47.442C82.0804 48.234 82.3004 49.1067 82.3004 50.06C82.3004 50.2067 82.2931 50.368 82.2784 50.544C82.2784 50.7053 82.2711 50.8887 82.2564 51.094H73.7644C73.8378 52.15 74.1824 52.9567 74.7984 53.514C75.4291 54.0567 76.1551 54.328 76.9764 54.328C77.6364 54.328 78.1864 54.1813 78.6264 53.888C79.0811 53.58 79.4184 53.1693 79.6384 52.656H81.9704C81.6771 53.6827 81.0904 54.5407 80.2104 55.23C79.3451 55.9193 78.2671 56.264 76.9764 56.264ZM76.9764 46.738C76.1991 46.738 75.5098 46.9727 74.9084 47.442C74.3071 47.8967 73.9404 48.586 73.8084 49.51H79.9684C79.9244 48.6593 79.6238 47.9847 79.0664 47.486C78.5091 46.9873 77.8124 46.738 76.9764 46.738Z" fill="black"/>
<path opacity="0.4" d="M40.036 84V74.2H46.098V75.166H41.212V78.582H45.678V79.534H41.212V83.034H46.098V84H40.036ZM49.8703 84L47.2383 77.056H48.4703L50.5563 82.866L52.6563 77.056H53.8603L51.2283 84H49.8703ZM57.9357 84.168C57.273 84.168 56.685 84.0187 56.1717 83.72C55.6583 83.412 55.2523 82.9873 54.9537 82.446C54.6643 81.9047 54.5197 81.2653 54.5197 80.528C54.5197 79.8 54.6643 79.1653 54.9537 78.624C55.243 78.0733 55.6443 77.6487 56.1577 77.35C56.6803 77.042 57.2823 76.888 57.9637 76.888C58.6357 76.888 59.2143 77.042 59.6997 77.35C60.1943 77.6487 60.5723 78.0453 60.8337 78.54C61.095 79.0347 61.2257 79.5667 61.2257 80.136C61.2257 80.2387 61.221 80.3413 61.2117 80.444C61.2117 80.5467 61.2117 80.6633 61.2117 80.794H55.6817C55.7097 81.326 55.831 81.7693 56.0457 82.124C56.2697 82.4693 56.545 82.7307 56.8717 82.908C57.2077 83.0853 57.5623 83.174 57.9357 83.174C58.421 83.174 58.827 83.062 59.1537 82.838C59.4803 82.614 59.7183 82.3107 59.8677 81.928H61.0297C60.843 82.572 60.4837 83.1087 59.9517 83.538C59.429 83.958 58.757 84.168 57.9357 84.168ZM57.9357 77.882C57.3757 77.882 56.8763 78.0547 56.4377 78.4C56.0083 78.736 55.761 79.2307 55.6957 79.884H60.0637C60.0357 79.2587 59.821 78.7687 59.4197 78.414C59.0183 78.0593 58.5237 77.882 57.9357 77.882ZM62.7844 84V77.056H63.8484L63.9464 78.386C64.161 77.9287 64.4877 77.5647 64.9264 77.294C65.365 77.0233 65.9064 76.888 66.5504 76.888V78.12H66.2284C65.8177 78.12 65.4397 78.1947 65.0944 78.344C64.749 78.484 64.4737 78.7267 64.2684 79.072C64.063 79.4173 63.9604 79.8933 63.9604 80.5V84H62.7844ZM68.6263 87.08L70.3483 83.328H69.9423L67.1843 77.056H68.4583L70.7543 82.46L73.1903 77.056H74.4083L69.8583 87.08H68.6263ZM79.3547 84V73.92H80.5307V84H79.3547ZM84.7682 84.168C84.1895 84.168 83.7089 84.07 83.3262 83.874C82.9435 83.678 82.6589 83.4167 82.4722 83.09C82.2855 82.7633 82.1922 82.4087 82.1922 82.026C82.1922 81.3167 82.4629 80.7707 83.0042 80.388C83.5455 80.0053 84.2829 79.814 85.2162 79.814H87.0922V79.73C87.0922 79.1233 86.9335 78.666 86.6162 78.358C86.2989 78.0407 85.8742 77.882 85.3422 77.882C84.8849 77.882 84.4882 77.9987 84.1522 78.232C83.8255 78.456 83.6202 78.7873 83.5362 79.226H82.3322C82.3789 78.722 82.5469 78.2973 82.8362 77.952C83.1349 77.6067 83.5035 77.3453 83.9422 77.168C84.3809 76.9813 84.8475 76.888 85.3422 76.888C86.3129 76.888 87.0409 77.1493 87.5262 77.672C88.0209 78.1853 88.2682 78.8713 88.2682 79.73V84H87.2182L87.1482 82.754C86.9522 83.146 86.6629 83.482 86.2802 83.762C85.9069 84.0327 85.4029 84.168 84.7682 84.168ZM84.9502 83.174C85.3982 83.174 85.7809 83.0573 86.0982 82.824C86.4249 82.5907 86.6722 82.2873 86.8402 81.914C87.0082 81.5407 87.0922 81.1487 87.0922 80.738V80.724H85.3142C84.6235 80.724 84.1335 80.8453 83.8442 81.088C83.5642 81.3213 83.4242 81.6153 83.4242 81.97C83.4242 82.334 83.5549 82.628 83.8162 82.852C84.0869 83.0667 84.4649 83.174 84.9502 83.174ZM90.0324 84V77.056H91.0964L91.1944 78.386C91.4091 77.9287 91.7357 77.5647 92.1744 77.294C92.6131 77.0233 93.1544 76.888 93.7984 76.888V78.12H93.4764C93.0657 78.12 92.6877 78.1947 92.3424 78.344C91.9971 78.484 91.7217 78.7267 91.5164 79.072C91.3111 79.4173 91.2084 79.8933 91.2084 80.5V84H90.0324ZM97.6983 81.816C97.3063 81.816 96.9469 81.7647 96.6203 81.662L95.9203 82.32C96.0229 82.3947 96.1489 82.46 96.2983 82.516C96.4569 82.5627 96.6809 82.6093 96.9703 82.656C97.2596 82.6933 97.6656 82.7353 98.1883 82.782C99.1216 82.8473 99.7889 83.062 100.19 83.426C100.592 83.79 100.792 84.266 100.792 84.854C100.792 85.2553 100.68 85.638 100.456 86.002C100.242 86.366 99.9056 86.6647 99.4483 86.898C99.0003 87.1313 98.4216 87.248 97.7123 87.248C97.0869 87.248 96.5316 87.164 96.0463 86.996C95.5609 86.8373 95.1829 86.59 94.9123 86.254C94.6416 85.9273 94.5063 85.512 94.5063 85.008C94.5063 84.7467 94.5763 84.462 94.7163 84.154C94.8563 83.8553 95.1176 83.5707 95.5003 83.3C95.2949 83.216 95.1176 83.1273 94.9683 83.034C94.8283 82.9313 94.6976 82.8193 94.5763 82.698V82.376L95.7663 81.2C95.2156 80.7333 94.9403 80.1173 94.9403 79.352C94.9403 78.8947 95.0476 78.4793 95.2623 78.106C95.4769 77.7327 95.7896 77.4387 96.2003 77.224C96.6109 77 97.1103 76.888 97.6983 76.888C98.0996 76.888 98.4636 76.944 98.7903 77.056H101.352V77.938L100.05 77.994C100.321 78.386 100.456 78.8387 100.456 79.352C100.456 79.8093 100.344 80.2247 100.12 80.598C99.9056 80.9713 99.5929 81.27 99.1823 81.494C98.7809 81.7087 98.2863 81.816 97.6983 81.816ZM97.6983 80.85C98.1929 80.85 98.5849 80.724 98.8743 80.472C99.1729 80.2107 99.3223 79.8373 99.3223 79.352C99.3223 78.876 99.1729 78.512 98.8743 78.26C98.5849 77.9987 98.1929 77.868 97.6983 77.868C97.1943 77.868 96.7929 77.9987 96.4943 78.26C96.2049 78.512 96.0603 78.876 96.0603 79.352C96.0603 79.8373 96.2049 80.2107 96.4943 80.472C96.7929 80.724 97.1943 80.85 97.6983 80.85ZM95.6543 84.896C95.6543 85.3627 95.8503 85.708 96.2423 85.932C96.6343 86.1653 97.1243 86.282 97.7123 86.282C98.2909 86.282 98.7529 86.156 99.0983 85.904C99.4529 85.652 99.6303 85.316 99.6303 84.896C99.6303 84.5973 99.5089 84.336 99.2663 84.112C99.0236 83.8973 98.5756 83.7713 97.9223 83.734C97.4089 83.6967 96.9656 83.65 96.5923 83.594C96.2096 83.7993 95.9576 84.0187 95.8363 84.252C95.7149 84.4947 95.6543 84.7093 95.6543 84.896ZM105.527 84.168C104.865 84.168 104.277 84.0187 103.763 83.72C103.25 83.412 102.844 82.9873 102.545 82.446C102.256 81.9047 102.111 81.2653 102.111 80.528C102.111 79.8 102.256 79.1653 102.545 78.624C102.835 78.0733 103.236 77.6487 103.749 77.35C104.272 77.042 104.874 76.888 105.555 76.888C106.227 76.888 106.806 77.042 107.291 77.35C107.786 77.6487 108.164 78.0453 108.425 78.54C108.687 79.0347 108.817 79.5667 108.817 80.136C108.817 80.2387 108.813 80.3413 108.803 80.444C108.803 80.5467 108.803 80.6633 108.803 80.794H103.273C103.301 81.326 103.423 81.7693 103.637 82.124C103.861 82.4693 104.137 82.7307 104.463 82.908C104.799 83.0853 105.154 83.174 105.527 83.174C106.013 83.174 106.419 83.062 106.745 82.838C107.072 82.614 107.31 82.3107 107.459 81.928H108.621C108.435 82.572 108.075 83.1087 107.543 83.538C107.021 83.958 106.349 84.168 105.527 84.168ZM105.527 77.882C104.967 77.882 104.468 78.0547 104.029 78.4C103.6 78.736 103.353 79.2307 103.287 79.884H107.655C107.627 79.2587 107.413 78.7687 107.011 78.414C106.61 78.0593 106.115 77.882 105.527 77.882ZM117.231 84.168C116.541 84.168 115.934 84.0093 115.411 83.692C114.898 83.3747 114.497 82.9407 114.207 82.39C113.927 81.8393 113.787 81.214 113.787 80.514C113.787 79.814 113.932 79.1933 114.221 78.652C114.511 78.1013 114.912 77.672 115.425 77.364C115.939 77.0467 116.545 76.888 117.245 76.888C117.815 76.888 118.319 77.0047 118.757 77.238C119.196 77.4713 119.537 77.798 119.779 78.218V73.92H120.955V84H119.891L119.779 82.852C119.555 83.188 119.233 83.4913 118.813 83.762C118.393 84.0327 117.866 84.168 117.231 84.168ZM117.357 83.146C117.824 83.146 118.235 83.0387 118.589 82.824C118.953 82.6 119.233 82.292 119.429 81.9C119.635 81.508 119.737 81.0507 119.737 80.528C119.737 80.0053 119.635 79.548 119.429 79.156C119.233 78.764 118.953 78.4607 118.589 78.246C118.235 78.022 117.824 77.91 117.357 77.91C116.9 77.91 116.489 78.022 116.125 78.246C115.771 78.4607 115.491 78.764 115.285 79.156C115.089 79.548 114.991 80.0053 114.991 80.528C114.991 81.0507 115.089 81.508 115.285 81.9C115.491 82.292 115.771 82.6 116.125 82.824C116.489 83.0387 116.9 83.146 117.357 83.146ZM125.994 84.168C125.332 84.168 124.744 84.0187 124.23 83.72C123.717 83.412 123.311 82.9873 123.012 82.446C122.723 81.9047 122.578 81.2653 122.578 80.528C122.578 79.8 122.723 79.1653 123.012 78.624C123.302 78.0733 123.703 77.6487 124.216 77.35C124.739 77.042 125.341 76.888 126.022 76.888C126.694 76.888 127.273 77.042 127.758 77.35C128.253 77.6487 128.631 78.0453 128.892 78.54C129.154 79.0347 129.284 79.5667 129.284 80.136C129.284 80.2387 129.28 80.3413 129.27 80.444C129.27 80.5467 129.27 80.6633 129.27 80.794H123.74C123.768 81.326 123.89 81.7693 124.104 82.124C124.328 82.4693 124.604 82.7307 124.93 82.908C125.266 83.0853 125.621 83.174 125.994 83.174C126.48 83.174 126.886 83.062 127.212 82.838C127.539 82.614 127.777 82.3107 127.926 81.928H129.088C128.902 82.572 128.542 83.1087 128.01 83.538C127.488 83.958 126.816 84.168 125.994 84.168ZM125.994 77.882C125.434 77.882 124.935 78.0547 124.496 78.4C124.067 78.736 123.82 79.2307 123.754 79.884H128.122C128.094 79.2587 127.88 78.7687 127.478 78.414C127.077 78.0593 126.582 77.882 125.994 77.882ZM133.503 84.168C132.672 84.168 131.982 83.958 131.431 83.538C130.88 83.118 130.558 82.5487 130.465 81.83H131.669C131.744 82.194 131.935 82.5113 132.243 82.782C132.56 83.0433 132.985 83.174 133.517 83.174C134.012 83.174 134.376 83.0713 134.609 82.866C134.842 82.6513 134.959 82.3993 134.959 82.11C134.959 81.69 134.805 81.41 134.497 81.27C134.198 81.13 133.774 81.004 133.223 80.892C132.85 80.8173 132.476 80.71 132.103 80.57C131.73 80.43 131.417 80.234 131.165 79.982C130.913 79.7207 130.787 79.38 130.787 78.96C130.787 78.3533 131.011 77.8587 131.459 77.476C131.916 77.084 132.532 76.888 133.307 76.888C134.044 76.888 134.646 77.0747 135.113 77.448C135.589 77.812 135.864 78.3347 135.939 79.016H134.777C134.73 78.6613 134.576 78.386 134.315 78.19C134.063 77.9847 133.722 77.882 133.293 77.882C132.873 77.882 132.546 77.9707 132.313 78.148C132.089 78.3253 131.977 78.5587 131.977 78.848C131.977 79.128 132.122 79.3473 132.411 79.506C132.71 79.6647 133.111 79.8 133.615 79.912C134.044 80.0053 134.45 80.122 134.833 80.262C135.225 80.3927 135.542 80.5933 135.785 80.864C136.037 81.1253 136.163 81.508 136.163 82.012C136.172 82.6373 135.934 83.1553 135.449 83.566C134.973 83.9673 134.324 84.168 133.503 84.168ZM138.557 75.516C138.324 75.516 138.128 75.4413 137.969 75.292C137.82 75.1333 137.745 74.9373 137.745 74.704C137.745 74.48 137.82 74.2933 137.969 74.144C138.128 73.9947 138.324 73.92 138.557 73.92C138.781 73.92 138.972 73.9947 139.131 74.144C139.29 74.2933 139.369 74.48 139.369 74.704C139.369 74.9373 139.29 75.1333 139.131 75.292C138.972 75.4413 138.781 75.516 138.557 75.516ZM137.969 84V77.056H139.145V84H137.969ZM143.937 81.816C143.545 81.816 143.185 81.7647 142.859 81.662L142.159 82.32C142.261 82.3947 142.387 82.46 142.537 82.516C142.695 82.5627 142.919 82.6093 143.209 82.656C143.498 82.6933 143.904 82.7353 144.427 82.782C145.36 82.8473 146.027 83.062 146.429 83.426C146.83 83.79 147.031 84.266 147.031 84.854C147.031 85.2553 146.919 85.638 146.695 86.002C146.48 86.366 146.144 86.6647 145.687 86.898C145.239 87.1313 144.66 87.248 143.951 87.248C143.325 87.248 142.77 87.164 142.285 86.996C141.799 86.8373 141.421 86.59 141.151 86.254C140.88 85.9273 140.745 85.512 140.745 85.008C140.745 84.7467 140.815 84.462 140.955 84.154C141.095 83.8553 141.356 83.5707 141.739 83.3C141.533 83.216 141.356 83.1273 141.207 83.034C141.067 82.9313 140.936 82.8193 140.815 82.698V82.376L142.005 81.2C141.454 80.7333 141.179 80.1173 141.179 79.352C141.179 78.8947 141.286 78.4793 141.501 78.106C141.715 77.7327 142.028 77.4387 142.439 77.224C142.849 77 143.349 76.888 143.937 76.888C144.338 76.888 144.702 76.944 145.029 77.056H147.591V77.938L146.289 77.994C146.559 78.386 146.695 78.8387 146.695 79.352C146.695 79.8093 146.583 80.2247 146.359 80.598C146.144 80.9713 145.831 81.27 145.421 81.494C145.019 81.7087 144.525 81.816 143.937 81.816ZM143.937 80.85C144.431 80.85 144.823 80.724 145.113 80.472C145.411 80.2107 145.561 79.8373 145.561 79.352C145.561 78.876 145.411 78.512 145.113 78.26C144.823 77.9987 144.431 77.868 143.937 77.868C143.433 77.868 143.031 77.9987 142.733 78.26C142.443 78.512 142.299 78.876 142.299 79.352C142.299 79.8373 142.443 80.2107 142.733 80.472C143.031 80.724 143.433 80.85 143.937 80.85ZM141.893 84.896C141.893 85.3627 142.089 85.708 142.481 85.932C142.873 86.1653 143.363 86.282 143.951 86.282C144.529 86.282 144.991 86.156 145.337 85.904C145.691 85.652 145.869 85.316 145.869 84.896C145.869 84.5973 145.747 84.336 145.505 84.112C145.262 83.8973 144.814 83.7713 144.161 83.734C143.647 83.6967 143.204 83.65 142.831 83.594C142.448 83.7993 142.196 84.0187 142.075 84.252C141.953 84.4947 141.893 84.7093 141.893 84.896ZM148.917 84V77.056H149.981L150.051 78.302C150.275 77.8633 150.597 77.518 151.017 77.266C151.437 77.014 151.913 76.888 152.445 76.888C153.267 76.888 153.92 77.14 154.405 77.644C154.9 78.1387 155.147 78.904 155.147 79.94V84H153.971V80.066C153.971 78.6193 153.374 77.896 152.179 77.896C151.582 77.896 151.083 78.1153 150.681 78.554C150.289 78.9833 150.093 79.5993 150.093 80.402V84H148.917ZM163.826 84.168C163.163 84.168 162.566 84.0187 162.034 83.72C161.511 83.412 161.096 82.9873 160.788 82.446C160.489 81.8953 160.34 81.256 160.34 80.528C160.34 79.8 160.489 79.1653 160.788 78.624C161.096 78.0733 161.511 77.6487 162.034 77.35C162.566 77.042 163.163 76.888 163.826 76.888C164.647 76.888 165.338 77.1027 165.898 77.532C166.467 77.9613 166.827 78.5353 166.976 79.254H165.772C165.679 78.8247 165.45 78.4933 165.086 78.26C164.722 78.0173 164.297 77.896 163.812 77.896C163.42 77.896 163.051 77.994 162.706 78.19C162.361 78.386 162.081 78.68 161.866 79.072C161.651 79.464 161.544 79.9493 161.544 80.528C161.544 81.1067 161.651 81.592 161.866 81.984C162.081 82.376 162.361 82.6747 162.706 82.88C163.051 83.076 163.42 83.174 163.812 83.174C164.297 83.174 164.722 83.0573 165.086 82.824C165.45 82.5813 165.679 82.2407 165.772 81.802H166.976C166.836 82.502 166.481 83.0713 165.912 83.51C165.343 83.9487 164.647 84.168 163.826 84.168ZM171.782 84.168C171.129 84.168 170.541 84.0187 170.018 83.72C169.496 83.4213 169.08 83.0013 168.772 82.46C168.474 81.9093 168.324 81.2653 168.324 80.528C168.324 79.7907 168.478 79.1513 168.786 78.61C169.094 78.0593 169.51 77.6347 170.032 77.336C170.564 77.0373 171.157 76.888 171.81 76.888C172.464 76.888 173.052 77.0373 173.574 77.336C174.097 77.6347 174.508 78.0593 174.806 78.61C175.114 79.1513 175.268 79.7907 175.268 80.528C175.268 81.2653 175.114 81.9093 174.806 82.46C174.498 83.0013 174.078 83.4213 173.546 83.72C173.024 84.0187 172.436 84.168 171.782 84.168ZM171.782 83.16C172.184 83.16 172.557 83.062 172.902 82.866C173.248 82.67 173.528 82.376 173.742 81.984C173.957 81.592 174.064 81.1067 174.064 80.528C174.064 79.9493 173.957 79.464 173.742 79.072C173.537 78.68 173.262 78.386 172.916 78.19C172.571 77.994 172.202 77.896 171.81 77.896C171.409 77.896 171.036 77.994 170.69 78.19C170.345 78.386 170.065 78.68 169.85 79.072C169.636 79.464 169.528 79.9493 169.528 80.528C169.528 81.1067 169.636 81.592 169.85 81.984C170.065 82.376 170.34 82.67 170.676 82.866C171.022 83.062 171.39 83.16 171.782 83.16ZM176.904 84V77.056H177.968L178.052 78.064C178.276 77.6907 178.574 77.4013 178.948 77.196C179.321 76.9907 179.741 76.888 180.208 76.888C180.758 76.888 181.23 77 181.622 77.224C182.023 77.448 182.331 77.7887 182.546 78.246C182.788 77.826 183.12 77.4947 183.54 77.252C183.969 77.0093 184.431 76.888 184.926 76.888C185.756 76.888 186.419 77.14 186.914 77.644C187.408 78.1387 187.656 78.904 187.656 79.94V84H186.494V80.066C186.494 79.3473 186.349 78.806 186.06 78.442C185.77 78.078 185.355 77.896 184.814 77.896C184.254 77.896 183.787 78.1153 183.414 78.554C183.05 78.9833 182.868 79.5993 182.868 80.402V84H181.692V80.066C181.692 79.3473 181.547 78.806 181.258 78.442C180.968 78.078 180.553 77.896 180.012 77.896C179.461 77.896 178.999 78.1153 178.626 78.554C178.262 78.9833 178.08 79.5993 178.08 80.402V84H176.904ZM189.427 87.08V77.056H190.491L190.603 78.204C190.827 77.868 191.144 77.5647 191.555 77.294C191.975 77.0233 192.507 76.888 193.151 76.888C193.842 76.888 194.444 77.0467 194.957 77.364C195.47 77.6813 195.867 78.1153 196.147 78.666C196.436 79.2167 196.581 79.842 196.581 80.542C196.581 81.242 196.436 81.8673 196.147 82.418C195.867 82.9593 195.466 83.3887 194.943 83.706C194.43 84.014 193.828 84.168 193.137 84.168C192.568 84.168 192.059 84.0513 191.611 83.818C191.172 83.5847 190.836 83.258 190.603 82.838V87.08H189.427ZM193.011 83.146C193.478 83.146 193.888 83.0387 194.243 82.824C194.598 82.6 194.878 82.292 195.083 81.9C195.288 81.508 195.391 81.0507 195.391 80.528C195.391 80.0053 195.288 79.548 195.083 79.156C194.878 78.764 194.598 78.4607 194.243 78.246C193.888 78.022 193.478 77.91 193.011 77.91C192.544 77.91 192.134 78.022 191.779 78.246C191.424 78.4607 191.144 78.764 190.939 79.156C190.734 79.548 190.631 80.0053 190.631 80.528C190.631 81.0507 190.734 81.508 190.939 81.9C191.144 82.292 191.424 82.6 191.779 82.824C192.134 83.0387 192.544 83.146 193.011 83.146ZM200.528 84.168C199.949 84.168 199.469 84.07 199.086 83.874C198.703 83.678 198.419 83.4167 198.232 83.09C198.045 82.7633 197.952 82.4087 197.952 82.026C197.952 81.3167 198.223 80.7707 198.764 80.388C199.305 80.0053 200.043 79.814 200.976 79.814H202.852V79.73C202.852 79.1233 202.693 78.666 202.376 78.358C202.059 78.0407 201.634 77.882 201.102 77.882C200.645 77.882 200.248 77.9987 199.912 78.232C199.585 78.456 199.38 78.7873 199.296 79.226H198.092C198.139 78.722 198.307 78.2973 198.596 77.952C198.895 77.6067 199.263 77.3453 199.702 77.168C200.141 76.9813 200.607 76.888 201.102 76.888C202.073 76.888 202.801 77.1493 203.286 77.672C203.781 78.1853 204.028 78.8713 204.028 79.73V84H202.978L202.908 82.754C202.712 83.146 202.423 83.482 202.04 83.762C201.667 84.0327 201.163 84.168 200.528 84.168ZM200.71 83.174C201.158 83.174 201.541 83.0573 201.858 82.824C202.185 82.5907 202.432 82.2873 202.6 81.914C202.768 81.5407 202.852 81.1487 202.852 80.738V80.724H201.074C200.383 80.724 199.893 80.8453 199.604 81.088C199.324 81.3213 199.184 81.6153 199.184 81.97C199.184 82.334 199.315 82.628 199.576 82.852C199.847 83.0667 200.225 83.174 200.71 83.174ZM205.792 84V77.056H206.856L206.926 78.302C207.15 77.8633 207.472 77.518 207.892 77.266C208.312 77.014 208.788 76.888 209.32 76.888C210.142 76.888 210.795 77.14 211.28 77.644C211.775 78.1387 212.022 78.904 212.022 79.94V84H210.846V80.066C210.846 78.6193 210.249 77.896 209.054 77.896C208.457 77.896 207.958 78.1153 207.556 78.554C207.164 78.9833 206.968 79.5993 206.968 80.402V84H205.792ZM214.355 87.08L216.077 83.328H215.671L212.913 77.056H214.187L216.483 82.46L218.919 77.056H220.137L215.587 87.08H214.355ZM226.483 84L224.453 77.056H225.629L227.099 82.502L228.723 77.056H230.053L231.691 82.502L233.147 77.056H234.337L232.307 84H231.103L229.395 78.274L227.687 84H226.483ZM235.638 84V73.92H236.814V78.246C237.047 77.8167 237.379 77.4853 237.808 77.252C238.237 77.0093 238.704 76.888 239.208 76.888C240.011 76.888 240.655 77.14 241.14 77.644C241.625 78.1387 241.868 78.904 241.868 79.94V84H240.706V80.066C240.706 78.6193 240.123 77.896 238.956 77.896C238.349 77.896 237.841 78.1153 237.43 78.554C237.019 78.9833 236.814 79.5993 236.814 80.402V84H235.638ZM246.772 84.168C246.109 84.168 245.521 84.0187 245.008 83.72C244.494 83.412 244.088 82.9873 243.79 82.446C243.5 81.9047 243.356 81.2653 243.356 80.528C243.356 79.8 243.5 79.1653 243.79 78.624C244.079 78.0733 244.48 77.6487 244.994 77.35C245.516 77.042 246.118 76.888 246.8 76.888C247.472 76.888 248.05 77.042 248.536 77.35C249.03 77.6487 249.408 78.0453 249.67 78.54C249.931 79.0347 250.062 79.5667 250.062 80.136C250.062 80.2387 250.057 80.3413 250.048 80.444C250.048 80.5467 250.048 80.6633 250.048 80.794H244.518C244.546 81.326 244.667 81.7693 244.882 82.124C245.106 82.4693 245.381 82.7307 245.708 82.908C246.044 83.0853 246.398 83.174 246.772 83.174C247.257 83.174 247.663 83.062 247.99 82.838C248.316 82.614 248.554 82.3107 248.704 81.928H249.866C249.679 82.572 249.32 83.1087 248.788 83.538C248.265 83.958 247.593 84.168 246.772 84.168ZM246.772 77.882C246.212 77.882 245.712 78.0547 245.274 78.4C244.844 78.736 244.597 79.2307 244.532 79.884H248.9C248.872 79.2587 248.657 78.7687 248.256 78.414C247.854 78.0593 247.36 77.882 246.772 77.882ZM254.132 84C253.497 84 252.998 83.846 252.634 83.538C252.27 83.23 252.088 82.6747 252.088 81.872V78.05H250.884V77.056H252.088L252.242 75.39H253.264V77.056H255.308V78.05H253.264V81.872C253.264 82.3107 253.353 82.6093 253.53 82.768C253.707 82.9173 254.02 82.992 254.468 82.992H255.196V84H254.132ZM256.802 84V73.92H257.978V78.246C258.211 77.8167 258.543 77.4853 258.972 77.252C259.401 77.0093 259.868 76.888 260.372 76.888C261.175 76.888 261.819 77.14 262.304 77.644C262.789 78.1387 263.032 78.904 263.032 79.94V84H261.87V80.066C261.87 78.6193 261.287 77.896 260.12 77.896C259.513 77.896 259.005 78.1153 258.594 78.554C258.183 78.9833 257.978 79.5993 257.978 80.402V84H256.802ZM267.936 84.168C267.273 84.168 266.685 84.0187 266.172 83.72C265.658 83.412 265.252 82.9873 264.954 82.446C264.664 81.9047 264.52 81.2653 264.52 80.528C264.52 79.8 264.664 79.1653 264.954 78.624C265.243 78.0733 265.644 77.6487 266.158 77.35C266.68 77.042 267.282 76.888 267.964 76.888C268.636 76.888 269.214 77.042 269.7 77.35C270.194 77.6487 270.572 78.0453 270.834 78.54C271.095 79.0347 271.226 79.5667 271.226 80.136C271.226 80.2387 271.221 80.3413 271.212 80.444C271.212 80.5467 271.212 80.6633 271.212 80.794H265.682C265.71 81.326 265.831 81.7693 266.046 82.124C266.27 82.4693 266.545 82.7307 266.872 82.908C267.208 83.0853 267.562 83.174 267.936 83.174C268.421 83.174 268.827 83.062 269.154 82.838C269.48 82.614 269.718 82.3107 269.868 81.928H271.03C270.843 82.572 270.484 83.1087 269.952 83.538C269.429 83.958 268.757 84.168 267.936 84.168ZM267.936 77.882C267.376 77.882 266.876 78.0547 266.438 78.4C266.008 78.736 265.761 79.2307 265.696 79.884H270.064C270.036 79.2587 269.821 78.7687 269.42 78.414C269.018 78.0593 268.524 77.882 267.936 77.882ZM272.784 84V77.056H273.848L273.946 78.386C274.161 77.9287 274.488 77.5647 274.926 77.294C275.365 77.0233 275.906 76.888 276.55 76.888V78.12H276.228C275.818 78.12 275.44 78.1947 275.094 78.344C274.749 78.484 274.474 78.7267 274.268 79.072C274.063 79.4173 273.96 79.8933 273.96 80.5V84H272.784ZM40.68 95.516C40.4467 95.516 40.2507 95.4413 40.092 95.292C39.9427 95.1333 39.868 94.9373 39.868 94.704C39.868 94.48 39.9427 94.2933 40.092 94.144C40.2507 93.9947 40.4467 93.92 40.68 93.92C40.904 93.92 41.0953 93.9947 41.254 94.144C41.4127 94.2933 41.492 94.48 41.492 94.704C41.492 94.9373 41.4127 95.1333 41.254 95.292C41.0953 95.4413 40.904 95.516 40.68 95.516ZM40.092 104V97.056H41.268V104H40.092ZM46.0596 104C45.4249 104 44.9256 103.846 44.5616 103.538C44.1976 103.23 44.0156 102.675 44.0156 101.872V98.05H42.8116V97.056H44.0156L44.1696 95.39H45.1916V97.056H47.2356V98.05H45.1916V101.872C45.1916 102.311 45.2803 102.609 45.4576 102.768C45.6349 102.917 45.9476 102.992 46.3956 102.992H47.1236V104H46.0596ZM48.2257 97.322L49.0377 94.2H50.3537L49.0657 97.322H48.2257ZM53.7686 104.168C52.9379 104.168 52.2472 103.958 51.6966 103.538C51.1459 103.118 50.8239 102.549 50.7306 101.83H51.9346C52.0092 102.194 52.2006 102.511 52.5086 102.782C52.8259 103.043 53.2506 103.174 53.7826 103.174C54.2772 103.174 54.6412 103.071 54.8746 102.866C55.1079 102.651 55.2246 102.399 55.2246 102.11C55.2246 101.69 55.0706 101.41 54.7626 101.27C54.4639 101.13 54.0392 101.004 53.4886 100.892C53.1152 100.817 52.7419 100.71 52.3686 100.57C51.9952 100.43 51.6826 100.234 51.4306 99.982C51.1786 99.7207 51.0526 99.38 51.0526 98.96C51.0526 98.3533 51.2766 97.8587 51.7246 97.476C52.1819 97.084 52.7979 96.888 53.5726 96.888C54.3099 96.888 54.9119 97.0747 55.3786 97.448C55.8546 97.812 56.1299 98.3347 56.2046 99.016H55.0426C54.9959 98.6613 54.8419 98.386 54.5806 98.19C54.3286 97.9847 53.9879 97.882 53.5586 97.882C53.1386 97.882 52.8119 97.9707 52.5786 98.148C52.3546 98.3253 52.2426 98.5587 52.2426 98.848C52.2426 99.128 52.3872 99.3473 52.6766 99.506C52.9752 99.6647 53.3766 99.8 53.8806 99.912C54.3099 100.005 54.7159 100.122 55.0986 100.262C55.4906 100.393 55.8079 100.593 56.0506 100.864C56.3026 101.125 56.4286 101.508 56.4286 102.012C56.4379 102.637 56.1999 103.155 55.7146 103.566C55.2386 103.967 54.5899 104.168 53.7686 104.168ZM64.1237 104.168C63.545 104.168 63.0643 104.07 62.6817 103.874C62.299 103.678 62.0143 103.417 61.8277 103.09C61.641 102.763 61.5477 102.409 61.5477 102.026C61.5477 101.317 61.8183 100.771 62.3597 100.388C62.901 100.005 63.6383 99.814 64.5717 99.814H66.4477V99.73C66.4477 99.1233 66.289 98.666 65.9717 98.358C65.6543 98.0407 65.2297 97.882 64.6977 97.882C64.2403 97.882 63.8437 97.9987 63.5077 98.232C63.181 98.456 62.9757 98.7873 62.8917 99.226H61.6877C61.7343 98.722 61.9023 98.2973 62.1917 97.952C62.4903 97.6067 62.859 97.3453 63.2977 97.168C63.7363 96.9813 64.203 96.888 64.6977 96.888C65.6683 96.888 66.3963 97.1493 66.8817 97.672C67.3763 98.1853 67.6237 98.8713 67.6237 99.73V104H66.5737L66.5037 102.754C66.3077 103.146 66.0183 103.482 65.6357 103.762C65.2623 104.033 64.7583 104.168 64.1237 104.168ZM64.3057 103.174C64.7537 103.174 65.1363 103.057 65.4537 102.824C65.7803 102.591 66.0277 102.287 66.1957 101.914C66.3637 101.541 66.4477 101.149 66.4477 100.738V100.724H64.6697C63.979 100.724 63.489 100.845 63.1997 101.088C62.9197 101.321 62.7797 101.615 62.7797 101.97C62.7797 102.334 62.9103 102.628 63.1717 102.852C63.4423 103.067 63.8203 103.174 64.3057 103.174ZM73.093 104V97.056H74.157L74.241 98.064C74.465 97.6907 74.7636 97.4013 75.137 97.196C75.5103 96.9907 75.9303 96.888 76.397 96.888C76.9476 96.888 77.419 97 77.811 97.224C78.2123 97.448 78.5203 97.7887 78.735 98.246C78.9776 97.826 79.309 97.4947 79.729 97.252C80.1583 97.0093 80.6203 96.888 81.115 96.888C81.9456 96.888 82.6083 97.14 83.103 97.644C83.5976 98.1387 83.845 98.904 83.845 99.94V104H82.683V100.066C82.683 99.3473 82.5383 98.806 82.249 98.442C81.9596 98.078 81.5443 97.896 81.003 97.896C80.443 97.896 79.9763 98.1153 79.603 98.554C79.239 98.9833 79.057 99.5993 79.057 100.402V104H77.881V100.066C77.881 99.3473 77.7363 98.806 77.447 98.442C77.1576 98.078 76.7423 97.896 76.201 97.896C75.6503 97.896 75.1883 98.1153 74.815 98.554C74.451 98.9833 74.269 99.5993 74.269 100.402V104H73.093ZM88.1504 104.168C87.3291 104.168 86.6757 103.921 86.1904 103.426C85.7051 102.922 85.4624 102.152 85.4624 101.116V97.056H86.6384V100.99C86.6384 102.437 87.2311 103.16 88.4164 103.16C89.0231 103.16 89.5224 102.945 89.9144 102.516C90.3157 102.077 90.5164 101.457 90.5164 100.654V97.056H91.6924V104H90.6284L90.5444 102.754C90.3297 103.193 90.0077 103.538 89.5784 103.79C89.1584 104.042 88.6824 104.168 88.1504 104.168ZM93.6281 104V93.92H94.8041V104H93.6281ZM99.4756 104C98.841 104 98.3416 103.846 97.9776 103.538C97.6136 103.23 97.4316 102.675 97.4316 101.872V98.05H96.2276V97.056H97.4316L97.5856 95.39H98.6076V97.056H100.652V98.05H98.6076V101.872C98.6076 102.311 98.6963 102.609 98.8736 102.768C99.051 102.917 99.3636 102.992 99.8116 102.992H100.54V104H99.4756ZM102.86 95.516C102.626 95.516 102.43 95.4413 102.272 95.292C102.122 95.1333 102.048 94.9373 102.048 94.704C102.048 94.48 102.122 94.2933 102.272 94.144C102.43 93.9947 102.626 93.92 102.86 93.92C103.084 93.92 103.275 93.9947 103.434 94.144C103.592 94.2933 103.672 94.48 103.672 94.704C103.672 94.9373 103.592 95.1333 103.434 95.292C103.275 95.4413 103.084 95.516 102.86 95.516ZM102.272 104V97.056H103.448V104H102.272ZM105.355 100.43V99.436H110.899V100.43H105.355ZM112.673 104V97.056H113.737L113.807 98.302C114.031 97.8633 114.353 97.518 114.773 97.266C115.193 97.014 115.669 96.888 116.201 96.888C117.022 96.888 117.676 97.14 118.161 97.644C118.656 98.1387 118.903 98.904 118.903 99.94V104H117.727V100.066C117.727 98.6193 117.13 97.896 115.935 97.896C115.338 97.896 114.838 98.1153 114.437 98.554C114.045 98.9833 113.849 99.5993 113.849 100.402V104H112.673ZM122.995 104.168C122.416 104.168 121.935 104.07 121.553 103.874C121.17 103.678 120.885 103.417 120.699 103.09C120.512 102.763 120.419 102.409 120.419 102.026C120.419 101.317 120.689 100.771 121.231 100.388C121.772 100.005 122.509 99.814 123.443 99.814H125.319V99.73C125.319 99.1233 125.16 98.666 124.843 98.358C124.525 98.0407 124.101 97.882 123.569 97.882C123.111 97.882 122.715 97.9987 122.379 98.232C122.052 98.456 121.847 98.7873 121.763 99.226H120.559C120.605 98.722 120.773 98.2973 121.063 97.952C121.361 97.6067 121.73 97.3453 122.169 97.168C122.607 96.9813 123.074 96.888 123.569 96.888C124.539 96.888 125.267 97.1493 125.753 97.672C126.247 98.1853 126.495 98.8713 126.495 99.73V104H125.445L125.375 102.754C125.179 103.146 124.889 103.482 124.507 103.762C124.133 104.033 123.629 104.168 122.995 104.168ZM123.177 103.174C123.625 103.174 124.007 103.057 124.325 102.824C124.651 102.591 124.899 102.287 125.067 101.914C125.235 101.541 125.319 101.149 125.319 100.738V100.724H123.541C122.85 100.724 122.36 100.845 122.071 101.088C121.791 101.321 121.651 101.615 121.651 101.97C121.651 102.334 121.781 102.628 122.043 102.852C122.313 103.067 122.691 103.174 123.177 103.174ZM130.812 104C130.177 104 129.678 103.846 129.314 103.538C128.95 103.23 128.768 102.675 128.768 101.872V98.05H127.564V97.056H128.768L128.922 95.39H129.944V97.056H131.988V98.05H129.944V101.872C129.944 102.311 130.032 102.609 130.21 102.768C130.387 102.917 130.7 102.992 131.148 102.992H131.876V104H130.812ZM134.196 95.516C133.962 95.516 133.766 95.4413 133.608 95.292C133.458 95.1333 133.384 94.9373 133.384 94.704C133.384 94.48 133.458 94.2933 133.608 94.144C133.766 93.9947 133.962 93.92 134.196 93.92C134.42 93.92 134.611 93.9947 134.77 94.144C134.928 94.2933 135.008 94.48 135.008 94.704C135.008 94.9373 134.928 95.1333 134.77 95.292C134.611 95.4413 134.42 95.516 134.196 95.516ZM133.608 104V97.056H134.784V104H133.608ZM139.995 104.168C139.342 104.168 138.754 104.019 138.231 103.72C137.709 103.421 137.293 103.001 136.985 102.46C136.687 101.909 136.537 101.265 136.537 100.528C136.537 99.7907 136.691 99.1513 136.999 98.61C137.307 98.0593 137.723 97.6347 138.245 97.336C138.777 97.0373 139.37 96.888 140.023 96.888C140.677 96.888 141.265 97.0373 141.787 97.336C142.31 97.6347 142.721 98.0593 143.019 98.61C143.327 99.1513 143.481 99.7907 143.481 100.528C143.481 101.265 143.327 101.909 143.019 102.46C142.711 103.001 142.291 103.421 141.759 103.72C141.237 104.019 140.649 104.168 139.995 104.168ZM139.995 103.16C140.397 103.16 140.77 103.062 141.115 102.866C141.461 102.67 141.741 102.376 141.955 101.984C142.17 101.592 142.277 101.107 142.277 100.528C142.277 99.9493 142.17 99.464 141.955 99.072C141.75 98.68 141.475 98.386 141.129 98.19C140.784 97.994 140.415 97.896 140.023 97.896C139.622 97.896 139.249 97.994 138.903 98.19C138.558 98.386 138.278 98.68 138.063 99.072C137.849 99.464 137.741 99.9493 137.741 100.528C137.741 101.107 137.849 101.592 138.063 101.984C138.278 102.376 138.553 102.67 138.889 102.866C139.235 103.062 139.603 103.16 139.995 103.16ZM145.116 104V97.056H146.18L146.25 98.302C146.474 97.8633 146.796 97.518 147.216 97.266C147.636 97.014 148.112 96.888 148.644 96.888C149.466 96.888 150.119 97.14 150.604 97.644C151.099 98.1387 151.346 98.904 151.346 99.94V104H150.17V100.066C150.17 98.6193 149.573 97.896 148.378 97.896C147.781 97.896 147.282 98.1153 146.88 98.554C146.488 98.9833 146.292 99.5993 146.292 100.402V104H145.116ZM155.438 104.168C154.859 104.168 154.379 104.07 153.996 103.874C153.613 103.678 153.329 103.417 153.142 103.09C152.955 102.763 152.862 102.409 152.862 102.026C152.862 101.317 153.133 100.771 153.674 100.388C154.215 100.005 154.953 99.814 155.886 99.814H157.762V99.73C157.762 99.1233 157.603 98.666 157.286 98.358C156.969 98.0407 156.544 97.882 156.012 97.882C155.555 97.882 155.158 97.9987 154.822 98.232C154.495 98.456 154.29 98.7873 154.206 99.226H153.002C153.049 98.722 153.217 98.2973 153.506 97.952C153.805 97.6067 154.173 97.3453 154.612 97.168C155.051 96.9813 155.517 96.888 156.012 96.888C156.983 96.888 157.711 97.1493 158.196 97.672C158.691 98.1853 158.938 98.8713 158.938 99.73V104H157.888L157.818 102.754C157.622 103.146 157.333 103.482 156.95 103.762C156.577 104.033 156.073 104.168 155.438 104.168ZM155.62 103.174C156.068 103.174 156.451 103.057 156.768 102.824C157.095 102.591 157.342 102.287 157.51 101.914C157.678 101.541 157.762 101.149 157.762 100.738V100.724H155.984C155.293 100.724 154.803 100.845 154.514 101.088C154.234 101.321 154.094 101.615 154.094 101.97C154.094 102.334 154.225 102.628 154.486 102.852C154.757 103.067 155.135 103.174 155.62 103.174ZM160.702 104V93.92H161.878V104H160.702ZM171.221 104.168C170.652 104.168 170.143 104.051 169.695 103.818C169.256 103.585 168.92 103.258 168.687 102.838L168.575 104H167.511V93.92H168.687V98.204C168.911 97.868 169.228 97.5647 169.639 97.294C170.059 97.0233 170.591 96.888 171.235 96.888C171.926 96.888 172.528 97.0467 173.041 97.364C173.554 97.6813 173.951 98.1153 174.231 98.666C174.52 99.2167 174.665 99.842 174.665 100.542C174.665 101.242 174.52 101.867 174.231 102.418C173.951 102.959 173.55 103.389 173.027 103.706C172.514 104.014 171.912 104.168 171.221 104.168ZM171.095 103.146C171.562 103.146 171.972 103.039 172.327 102.824C172.682 102.6 172.962 102.292 173.167 101.9C173.372 101.508 173.475 101.051 173.475 100.528C173.475 100.005 173.372 99.548 173.167 99.156C172.962 98.764 172.682 98.4607 172.327 98.246C171.972 98.022 171.562 97.91 171.095 97.91C170.628 97.91 170.218 98.022 169.863 98.246C169.508 98.4607 169.228 98.764 169.023 99.156C168.818 99.548 168.715 100.005 168.715 100.528C168.715 101.051 168.818 101.508 169.023 101.9C169.228 102.292 169.508 102.6 169.863 102.824C170.218 103.039 170.628 103.146 171.095 103.146ZM176.302 104V97.056H177.366L177.464 98.386C177.679 97.9287 178.005 97.5647 178.444 97.294C178.883 97.0233 179.424 96.888 180.068 96.888V98.12H179.746C179.335 98.12 178.957 98.1947 178.612 98.344C178.267 98.484 177.991 98.7267 177.786 99.072C177.581 99.4173 177.478 99.8933 177.478 100.5V104H176.302ZM183.698 104.168C183.119 104.168 182.639 104.07 182.256 103.874C181.873 103.678 181.589 103.417 181.402 103.09C181.215 102.763 181.122 102.409 181.122 102.026C181.122 101.317 181.393 100.771 181.934 100.388C182.475 100.005 183.213 99.814 184.146 99.814H186.022V99.73C186.022 99.1233 185.863 98.666 185.546 98.358C185.229 98.0407 184.804 97.882 184.272 97.882C183.815 97.882 183.418 97.9987 183.082 98.232C182.755 98.456 182.55 98.7873 182.466 99.226H181.262C181.309 98.722 181.477 98.2973 181.766 97.952C182.065 97.6067 182.433 97.3453 182.872 97.168C183.311 96.9813 183.777 96.888 184.272 96.888C185.243 96.888 185.971 97.1493 186.456 97.672C186.951 98.1853 187.198 98.8713 187.198 99.73V104H186.148L186.078 102.754C185.882 103.146 185.593 103.482 185.21 103.762C184.837 104.033 184.333 104.168 183.698 104.168ZM183.88 103.174C184.328 103.174 184.711 103.057 185.028 102.824C185.355 102.591 185.602 102.287 185.77 101.914C185.938 101.541 186.022 101.149 186.022 100.738V100.724H184.244C183.553 100.724 183.063 100.845 182.774 101.088C182.494 101.321 182.354 101.615 182.354 101.97C182.354 102.334 182.485 102.628 182.746 102.852C183.017 103.067 183.395 103.174 183.88 103.174ZM188.962 104V97.056H190.026L190.096 98.302C190.32 97.8633 190.642 97.518 191.062 97.266C191.482 97.014 191.958 96.888 192.49 96.888C193.311 96.888 193.965 97.14 194.45 97.644C194.945 98.1387 195.192 98.904 195.192 99.94V104H194.016V100.066C194.016 98.6193 193.419 97.896 192.224 97.896C191.627 97.896 191.127 98.1153 190.726 98.554C190.334 98.9833 190.138 99.5993 190.138 100.402V104H188.962ZM200.124 104.168C199.433 104.168 198.826 104.009 198.304 103.692C197.79 103.375 197.389 102.941 197.1 102.39C196.82 101.839 196.68 101.214 196.68 100.514C196.68 99.814 196.824 99.1933 197.114 98.652C197.403 98.1013 197.804 97.672 198.318 97.364C198.831 97.0467 199.438 96.888 200.138 96.888C200.707 96.888 201.211 97.0047 201.65 97.238C202.088 97.4713 202.429 97.798 202.672 98.218V93.92H203.848V104H202.784L202.672 102.852C202.448 103.188 202.126 103.491 201.706 103.762C201.286 104.033 200.758 104.168 200.124 104.168ZM200.25 103.146C200.716 103.146 201.127 103.039 201.482 102.824C201.846 102.6 202.126 102.292 202.322 101.9C202.527 101.508 202.63 101.051 202.63 100.528C202.63 100.005 202.527 99.548 202.322 99.156C202.126 98.764 201.846 98.4607 201.482 98.246C201.127 98.022 200.716 97.91 200.25 97.91C199.792 97.91 199.382 98.022 199.018 98.246C198.663 98.4607 198.383 98.764 198.178 99.156C197.982 99.548 197.884 100.005 197.884 100.528C197.884 101.051 197.982 101.508 198.178 101.9C198.383 102.292 198.663 102.6 199.018 102.824C199.382 103.039 199.792 103.146 200.25 103.146ZM206.479 95.516C206.245 95.516 206.049 95.4413 205.891 95.292C205.741 95.1333 205.667 94.9373 205.667 94.704C205.667 94.48 205.741 94.2933 205.891 94.144C206.049 93.9947 206.245 93.92 206.479 93.92C206.703 93.92 206.894 93.9947 207.053 94.144C207.211 94.2933 207.291 94.48 207.291 94.704C207.291 94.9373 207.211 95.1333 207.053 95.292C206.894 95.4413 206.703 95.516 206.479 95.516ZM205.891 104V97.056H207.067V104H205.891ZM209.114 104V97.056H210.178L210.248 98.302C210.472 97.8633 210.794 97.518 211.214 97.266C211.634 97.014 212.11 96.888 212.642 96.888C213.464 96.888 214.117 97.14 214.602 97.644C215.097 98.1387 215.344 98.904 215.344 99.94V104H214.168V100.066C214.168 98.6193 213.571 97.896 212.376 97.896C211.779 97.896 211.28 98.1153 210.878 98.554C210.486 98.9833 210.29 99.5993 210.29 100.402V104H209.114ZM219.87 101.816C219.478 101.816 219.119 101.765 218.792 101.662L218.092 102.32C218.195 102.395 218.321 102.46 218.47 102.516C218.629 102.563 218.853 102.609 219.142 102.656C219.431 102.693 219.837 102.735 220.36 102.782C221.293 102.847 221.961 103.062 222.362 103.426C222.763 103.79 222.964 104.266 222.964 104.854C222.964 105.255 222.852 105.638 222.628 106.002C222.413 106.366 222.077 106.665 221.62 106.898C221.172 107.131 220.593 107.248 219.884 107.248C219.259 107.248 218.703 107.164 218.218 106.996C217.733 106.837 217.355 106.59 217.084 106.254C216.813 105.927 216.678 105.512 216.678 105.008C216.678 104.747 216.748 104.462 216.888 104.154C217.028 103.855 217.289 103.571 217.672 103.3C217.467 103.216 217.289 103.127 217.14 103.034C217 102.931 216.869 102.819 216.748 102.698V102.376L217.938 101.2C217.387 100.733 217.112 100.117 217.112 99.352C217.112 98.8947 217.219 98.4793 217.434 98.106C217.649 97.7327 217.961 97.4387 218.372 97.224C218.783 97 219.282 96.888 219.87 96.888C220.271 96.888 220.635 96.944 220.962 97.056H223.524V97.938L222.222 97.994C222.493 98.386 222.628 98.8387 222.628 99.352C222.628 99.8093 222.516 100.225 222.292 100.598C222.077 100.971 221.765 101.27 221.354 101.494C220.953 101.709 220.458 101.816 219.87 101.816ZM219.87 100.85C220.365 100.85 220.757 100.724 221.046 100.472C221.345 100.211 221.494 99.8373 221.494 99.352C221.494 98.876 221.345 98.512 221.046 98.26C220.757 97.9987 220.365 97.868 219.87 97.868C219.366 97.868 218.965 97.9987 218.666 98.26C218.377 98.512 218.232 98.876 218.232 99.352C218.232 99.8373 218.377 100.211 218.666 100.472C218.965 100.724 219.366 100.85 219.87 100.85ZM217.826 104.896C217.826 105.363 218.022 105.708 218.414 105.932C218.806 106.165 219.296 106.282 219.884 106.282C220.463 106.282 220.925 106.156 221.27 105.904C221.625 105.652 221.802 105.316 221.802 104.896C221.802 104.597 221.681 104.336 221.438 104.112C221.195 103.897 220.747 103.771 220.094 103.734C219.581 103.697 219.137 103.65 218.764 103.594C218.381 103.799 218.129 104.019 218.008 104.252C217.887 104.495 217.826 104.709 217.826 104.896ZM225.257 104.07C225.023 104.07 224.827 103.995 224.669 103.846C224.519 103.687 224.445 103.496 224.445 103.272C224.445 103.048 224.519 102.861 224.669 102.712C224.827 102.553 225.023 102.474 225.257 102.474C225.481 102.474 225.667 102.553 225.817 102.712C225.975 102.861 226.055 103.048 226.055 103.272C226.055 103.496 225.975 103.687 225.817 103.846C225.667 103.995 225.481 104.07 225.257 104.07Z" fill="black"/>
</g>
<defs>
<filter id="filter0_d_289_847" x="0" y="0" width="342" height="376" filterUnits="userSpaceOnUse" color-interpolation-filters="sRGB">
<feFlood flood-opacity="0" result="BackgroundImageFix"/>
<feColorMatrix in="SourceAlpha" type="matrix" values="0 0 0 0 0 0 0 0 0 0 0 0 0 0 0 0 0 0 127 0" result="hardAlpha"/>
<feOffset dy="4"/>
<feGaussianBlur stdDeviation="4"/>
<feComposite in2="hardAlpha" operator="out"/>
<feColorMatrix type="matrix" values="0 0 0 0 0 0 0 0 0 0 0 0 0 0 0 0 0 0 0.11 0"/>
<feBlend mode="normal" in2="BackgroundImageFix" result="effect1_dropShadow_289_847"/>
<feBlend mode="normal" in="SourceGraphic" in2="effect1_dropShadow_289_847" result="shape"/>
</filter>
<clipPath id="clip0_289_847">
<rect width="266" height="34" fill="white" transform="translate(38 300)"/>
</clipPath>
<clipPath id="clip1_289_847">
<rect width="266" height="34" fill="white" transform="translate(38 242)"/>
</clipPath>
<clipPath id="clip2_289_847">
<rect width="266" height="34" fill="white" transform="translate(38 184)"/>
</clipPath>
<clipPath id="clip3_289_847">
<rect width="266" height="34" fill="white" transform="translate(38 126)"/>
</clipPath>
</defs>
</svg>
