<svg width="85" height="85" viewBox="0 0 85 85" fill="none" xmlns="http://www.w3.org/2000/svg">
<circle cx="42.6397" cy="42.8076" r="41.9033" fill="#FCB900"/>
<path fill-rule="evenodd" clip-rule="evenodd" d="M56.069 52.2376C56.069 52.9736 55.473 53.571 54.7357 53.571C53.9983 53.571 53.4023 52.9736 53.4023 52.2376C53.4023 50.0323 51.6077 48.2376 49.4023 48.2376C48.4917 48.2376 47.6263 48.5496 46.9277 49.103C47.653 50.431 48.069 51.9536 48.069 53.571C48.069 54.307 47.473 54.9043 46.7357 54.9043C45.9983 54.9043 45.4023 54.307 45.4023 53.571C45.4023 49.895 42.4117 46.9043 38.7357 46.9043C35.0597 46.9043 32.069 49.895 32.069 53.571C32.069 54.307 31.473 54.9043 30.7357 54.9043C29.9983 54.9043 29.4023 54.307 29.4023 53.571C29.4023 48.4243 33.5903 44.2376 38.7357 44.2376C41.305 44.2376 43.633 45.2816 45.3223 46.9656C46.481 46.0696 47.9077 45.571 49.4023 45.571C53.0783 45.571 56.069 48.5616 56.069 52.2376ZM49.4023 38.9043C50.1383 38.9043 50.7357 39.503 50.7357 40.2376C50.7357 40.9723 50.1383 41.571 49.4023 41.571C48.6663 41.571 48.069 40.9723 48.069 40.2376C48.069 39.503 48.6663 38.9043 49.4023 38.9043ZM49.4023 44.2376C51.6077 44.2376 53.4023 42.443 53.4023 40.2376C53.4023 38.0323 51.6077 36.2376 49.4023 36.2376C47.197 36.2376 45.4023 38.0323 45.4023 40.2376C45.4023 42.443 47.197 44.2376 49.4023 44.2376ZM38.7357 33.571C40.2063 33.571 41.4023 34.767 41.4023 36.2376C41.4023 37.7083 40.2063 38.9043 38.7357 38.9043C37.265 38.9043 36.069 37.7083 36.069 36.2376C36.069 34.767 37.265 33.571 38.7357 33.571ZM38.7357 41.571C41.677 41.571 44.069 39.179 44.069 36.2376C44.069 33.2963 41.677 30.9043 38.7357 30.9043C35.7943 30.9043 33.4023 33.2963 33.4023 36.2376C33.4023 39.179 35.7943 41.571 38.7357 41.571Z" fill="#2C2003"/>
</svg>
