<svg width="8" height="8" viewBox="0 0 8 8" fill="none" xmlns="http://www.w3.org/2000/svg">
<path d="M1.54 6.04C1.88 5.78 2.26 5.575 2.68 5.425C3.1 5.275 3.54 5.2 4 5.2C4.46 5.2 4.9 5.275 5.32 5.425C5.74 5.575 6.12 5.78 6.46 6.04C6.69333 5.76667 6.875 5.45667 7.005 5.11C7.135 4.76333 7.2 4.39333 7.2 4C7.2 3.11333 6.88833 2.35833 6.265 1.735C5.64167 1.11167 4.88667 0.8 4 0.8C3.11333 0.8 2.35833 1.11167 1.735 1.735C1.11167 2.35833 0.8 3.11333 0.8 4C0.8 4.39333 0.865 4.76333 0.995 5.11C1.125 5.45667 1.30667 5.76667 1.54 6.04ZM4 4.4C3.60667 4.4 3.275 4.265 3.005 3.995C2.735 3.725 2.6 3.39333 2.6 3C2.6 2.60667 2.735 2.275 3.005 2.005C3.275 1.735 3.60667 1.6 4 1.6C4.39333 1.6 4.725 1.735 4.995 2.005C5.265 2.275 5.4 2.60667 5.4 3C5.4 3.39333 5.265 3.725 4.995 3.995C4.725 4.265 4.39333 4.4 4 4.4ZM4 8C3.44667 8 2.92667 7.895 2.44 7.685C1.95333 7.475 1.53 7.19 1.17 6.83C0.81 6.47 0.525 6.04667 0.315 5.56C0.105 5.07333 0 4.55333 0 4C0 3.44667 0.105 2.92667 0.315 2.44C0.525 1.95333 0.81 1.53 1.17 1.17C1.53 0.81 1.95333 0.525 2.44 0.315C2.92667 0.105 3.44667 0 4 0C4.55333 0 5.07333 0.105 5.56 0.315C6.04667 0.525 6.47 0.81 6.83 1.17C7.19 1.53 7.475 1.95333 7.685 2.44C7.895 2.92667 8 3.44667 8 4C8 4.55333 7.895 5.07333 7.685 5.56C7.475 6.04667 7.19 6.47 6.83 6.83C6.47 7.19 6.04667 7.475 5.56 7.685C5.07333 7.895 4.55333 8 4 8ZM4 7.2C4.35333 7.2 4.68667 7.14833 5 7.045C5.31333 6.94167 5.6 6.79333 5.86 6.6C5.6 6.40667 5.31333 6.25833 5 6.155C4.68667 6.05167 4.35333 6 4 6C3.64667 6 3.31333 6.05167 3 6.155C2.68667 6.25833 2.4 6.40667 2.14 6.6C2.4 6.79333 2.68667 6.94167 3 7.045C3.31333 7.14833 3.64667 7.2 4 7.2ZM4 3.6C4.17333 3.6 4.31667 3.54333 4.43 3.43C4.54333 3.31667 4.6 3.17333 4.6 3C4.6 2.82667 4.54333 2.68333 4.43 2.57C4.31667 2.45667 4.17333 2.4 4 2.4C3.82667 2.4 3.68333 2.45667 3.57 2.57C3.45667 2.68333 3.4 2.82667 3.4 3C3.4 3.17333 3.45667 3.31667 3.57 3.43C3.68333 3.54333 3.82667 3.6 4 3.6Z" fill="#EC9E85"/>
</svg>
