<svg width="64" height="64" viewBox="0 0 64 64" fill="none" xmlns="http://www.w3.org/2000/svg">
<g id="airbnb">
<g id="Airbnb">
<path id="Path" d="M32 4C16.5562 4 4 16.5562 4 32C4 47.4437 16.5562 60 32 60C47.4437 60 60 47.4437 60 32C60 16.5562 47.4437 4 32 4Z" fill="#FF5A5F"/>
<path id="vector" d="M32 39.3734C30.1643 37.0643 29.0845 35.0402 28.7245 33.3084C28.3646 31.9013 28.5086 30.7828 29.1205 29.953C29.7684 28.9788 30.7402 28.5098 32 28.5098C33.2598 28.5098 34.2317 28.9788 34.8796 29.953C35.4915 30.7828 35.6355 31.9013 35.2755 33.3084C34.8796 35.0763 33.7998 37.0968 32 39.3734ZM42.0497 44.7132C38.9902 46.0482 35.963 43.9195 33.3714 41.0331C37.6584 35.6536 38.4502 31.4683 36.6109 28.7587C35.5311 27.2073 33.9833 26.4496 32 26.4496C28.0047 26.4496 25.8054 29.8411 26.6693 33.7774C27.1732 35.9061 28.505 38.3271 30.6287 41.0331C29.0358 42.8024 26.946 44.8094 24.4376 45.0379C20.8022 45.5791 17.955 42.0433 19.2508 38.3957L28.469 19.2661C29.2558 17.8281 30.2268 16.5962 31.9964 16.5962C33.2922 16.5962 34.3001 17.3539 34.732 17.9673L44.7421 38.3957C45.7228 40.864 44.4791 43.6617 42.0497 44.7132ZM46.693 37.6741L38.1227 19.8073C36.5029 16.488 35.3511 14.5 32 14.5C28.6886 14.5 27.2812 16.8091 25.8414 19.8073L17.3071 37.6741C15.4714 42.7288 19.2508 47.1667 23.8257 47.1667C24.1137 47.1667 24.3996 47.1306 24.6896 47.1306C27.0652 46.8419 29.5164 45.3266 32 42.617C34.4837 45.323 36.9349 46.8419 39.3105 47.1306C39.6005 47.1306 39.8864 47.1667 40.1744 47.1667C44.7493 47.1703 48.5287 42.7288 46.693 37.6741Z" fill="white"/>
</g>
</g>
</svg>
