<svg width="101" height="32" viewBox="0 0 101 32" fill="none" xmlns="http://www.w3.org/2000/svg">
<path d="M52.731 9.78128C52.731 10.6822 52.0053 11.4079 51.1044 11.4079C50.2035 11.4079 49.4778 10.6822 49.4778 9.78128C49.4778 8.88038 50.1785 8.15465 51.1044 8.15465C52.0303 8.17968 52.731 8.90541 52.731 9.78128ZM46.0243 13.0596C46.0243 13.2097 46.0243 13.46 46.0243 13.46C46.0243 13.46 45.2485 12.459 43.5969 12.459C40.8692 12.459 38.742 14.536 38.742 17.4139C38.742 20.2668 40.8441 22.3689 43.5969 22.3689C45.2736 22.3689 46.0243 21.3428 46.0243 21.3428V21.7683C46.0243 21.9685 46.1745 22.1186 46.3747 22.1186H48.4017V12.7092C48.4017 12.7092 46.5498 12.7092 46.3747 12.7092C46.1745 12.7092 46.0243 12.8844 46.0243 13.0596ZM46.0243 19.0906C45.6489 19.6411 44.8982 20.1166 43.9973 20.1166C42.3957 20.1166 41.1695 19.1156 41.1695 17.4139C41.1695 15.7122 42.3957 14.7112 43.9973 14.7112C44.8732 14.7112 45.674 15.2117 46.0243 15.7372V19.0906ZM49.9032 12.7092H52.3056V22.1186H49.9032V12.7092ZM85.7891 12.459C84.1374 12.459 83.3616 13.46 83.3616 13.46V8.17968H80.9592V22.1186C80.9592 22.1186 82.8111 22.1186 82.9863 22.1186C83.1865 22.1186 83.3366 21.9434 83.3366 21.7683V21.3428C83.3366 21.3428 84.1124 22.3689 85.764 22.3689C88.4918 22.3689 90.6189 20.2668 90.6189 17.4139C90.6189 14.5611 88.4918 12.459 85.7891 12.459ZM85.3887 20.0916C84.4627 20.0916 83.737 19.6161 83.3616 19.0656V15.7122C83.737 15.2117 84.5378 14.6862 85.3887 14.6862C86.9903 14.6862 88.2165 15.6872 88.2165 17.3889C88.2165 19.0906 86.9903 20.0916 85.3887 20.0916ZM79.708 16.538V22.1436H77.3056V16.8133C77.3056 15.2618 76.8051 14.6361 75.4537 14.6361C74.728 14.6361 73.9773 15.0115 73.5018 15.5621V22.1186H71.0994V12.7092H73.0013C73.2015 12.7092 73.3516 12.8844 73.3516 13.0596V13.46C74.0523 12.7342 74.9783 12.459 75.9042 12.459C76.9552 12.459 77.8311 12.7593 78.5318 13.3599C79.3827 14.0606 79.708 14.9615 79.708 16.538ZM65.2686 12.459C63.6169 12.459 62.8411 13.46 62.8411 13.46V8.17968H60.4387V22.1186C60.4387 22.1186 62.2906 22.1186 62.4658 22.1186C62.666 22.1186 62.8161 21.9434 62.8161 21.7683V21.3428C62.8161 21.3428 63.5919 22.3689 65.2435 22.3689C67.9713 22.3689 70.0984 20.2668 70.0984 17.4139C70.1234 14.5611 67.9963 12.459 65.2686 12.459ZM64.8682 20.0916C63.9422 20.0916 63.2165 19.6161 62.8411 19.0656V15.7122C63.2165 15.2117 64.0173 14.6862 64.8682 14.6862C66.4698 14.6862 67.696 15.6872 67.696 17.3889C67.696 19.0906 66.4698 20.0916 64.8682 20.0916ZM58.3616 12.459C59.0874 12.459 59.4627 12.5841 59.4627 12.5841V14.8113C59.4627 14.8113 57.4607 14.1356 56.2095 15.5621V22.1436H53.8071V12.7092C53.8071 12.7092 55.6589 12.7092 55.8341 12.7092C56.0343 12.7092 56.1845 12.8844 56.1845 13.0596V13.46C56.6349 12.9344 57.6109 12.459 58.3616 12.459ZM33.4117 21.2678C33.2866 20.9675 33.1614 20.6421 33.0363 20.3669C32.8361 19.9164 32.6359 19.491 32.4607 19.0906L32.4357 19.0656C30.709 15.3118 28.8571 11.508 26.9052 7.75425L26.8301 7.6041C26.6299 7.22873 26.4297 6.82833 26.2295 6.42793C25.9793 5.97748 25.729 5.502 25.3286 5.05155C24.5278 4.05055 23.3767 3.5 22.1504 3.5C20.8992 3.5 19.7731 4.05055 18.9472 5.0015C18.5719 5.45195 18.2966 5.92743 18.0463 6.37788C17.8461 6.77828 17.6459 7.17868 17.4457 7.55405L17.3707 7.7042C15.4437 11.458 13.5669 15.2618 11.8401 19.0155L11.8151 19.0656C11.6399 19.466 11.4397 19.8914 11.2395 20.3418C11.1144 20.6171 10.9893 20.9174 10.8642 21.2427C10.5388 22.1687 10.4387 23.0445 10.5639 23.9454C10.8391 25.8223 12.0904 27.3989 13.8171 28.0996C14.4678 28.3749 15.1434 28.5 15.8441 28.5C16.0443 28.5 16.2946 28.475 16.4948 28.4499C17.3206 28.3498 18.1715 28.0746 18.9973 27.5991C20.0233 27.0235 20.9993 26.1977 22.1004 24.9965C23.2015 26.1977 24.2025 27.0235 25.2035 27.5991C26.0293 28.0746 26.8802 28.3498 27.706 28.4499C27.9062 28.475 28.1564 28.5 28.3566 28.5C29.0573 28.5 29.758 28.3749 30.3837 28.0996C32.1354 27.3989 33.3616 25.7973 33.6369 23.9454C33.8371 23.0696 33.737 22.1937 33.4117 21.2678ZM22.1254 22.5691C20.7741 20.8674 19.8982 19.2658 19.5979 17.9144C19.4728 17.3388 19.4477 16.8383 19.5228 16.3879C19.5729 15.9875 19.723 15.6371 19.9232 15.3368C20.3987 14.6612 21.1995 14.2357 22.1254 14.2357C23.0513 14.2357 23.8772 14.6361 24.3276 15.3368C24.5278 15.6371 24.678 15.9875 24.728 16.3879C24.8031 16.8383 24.7781 17.3639 24.6529 17.9144C24.3526 19.2407 23.4768 20.8423 22.1254 22.5691ZM32.1104 23.7452C31.9352 25.0465 31.0593 26.1727 29.8331 26.6732C29.2325 26.9234 28.5819 26.9985 27.9312 26.9234C27.3056 26.8483 26.68 26.6481 26.0293 26.2728C25.1284 25.7723 24.2275 24.9965 23.1765 23.8453C24.8281 21.8183 25.8291 19.9665 26.2045 18.3148C26.3797 17.539 26.4047 16.8383 26.3296 16.1877C26.2295 15.5621 26.0043 14.9865 25.6539 14.486C24.8782 13.3599 23.5769 12.7092 22.1254 12.7092C20.674 12.7092 19.3727 13.3849 18.5969 14.486C18.2465 14.9865 18.0213 15.5621 17.9212 16.1877C17.8211 16.8383 17.8461 17.5641 18.0463 18.3148C18.4217 19.9665 19.4477 21.8433 21.0744 23.8704C20.0483 25.0215 19.1224 25.7973 18.2215 26.2978C17.5709 26.6732 16.9452 26.8734 16.3196 26.9484C15.6439 27.0235 14.9933 26.9234 14.4177 26.6982C13.1915 26.1977 12.3156 25.0716 12.1404 23.7703C12.0654 23.1446 12.1154 22.519 12.3657 21.8183C12.4407 21.5681 12.5659 21.3178 12.691 21.0175C12.8662 20.6171 13.0664 20.1917 13.2666 19.7663L13.2916 19.7162C15.0183 15.9875 16.8702 12.1837 18.7971 8.47998L18.8722 8.32983C19.0724 7.95445 19.2726 7.55405 19.4728 7.17868C19.673 6.77828 19.8982 6.4029 20.1735 6.07758C20.699 5.47698 21.3997 5.15165 22.1755 5.15165C22.9512 5.15165 23.6519 5.47698 24.1775 6.07758C24.4527 6.4029 24.678 6.77828 24.8782 7.17868C25.0784 7.55405 25.2786 7.95445 25.4788 8.32983L25.5538 8.47998C27.4557 12.2087 29.3076 16.0125 31.0343 19.7412V19.7663C31.2345 20.1667 31.4097 20.6171 31.6099 21.0175C31.735 21.3178 31.8601 21.5681 31.9352 21.8183C32.1354 22.469 32.2105 23.0946 32.1104 23.7452Z" fill="#697681"/>
</svg>
