<svg width="44" height="53" viewBox="0 0 44 53" fill="none" xmlns="http://www.w3.org/2000/svg">
<path d="M41.7448 17.9819C41.4389 18.2193 36.0375 21.2629 36.0375 28.0305C36.0375 35.8584 42.9106 38.6277 43.1163 38.6962C43.0847 38.865 42.0244 42.4888 39.4925 46.1812C37.2349 49.4305 34.877 52.6745 31.2901 52.6745C27.7032 52.6745 26.7801 50.591 22.6394 50.591C18.6041 50.591 17.1694 52.7431 13.8884 52.7431C10.6075 52.7431 8.31818 49.7365 5.68604 46.0441C2.63718 41.7082 0.173828 34.9722 0.173828 28.5791C0.173828 18.3248 6.84123 12.8864 13.4031 12.8864C16.8898 12.8864 19.7962 15.1757 21.9853 15.1757C24.0689 15.1757 27.3182 12.7493 31.2848 12.7493C32.7882 12.7493 38.1896 12.8864 41.7448 17.9819ZM29.4017 8.40809C31.0422 6.46168 32.2027 3.76096 32.2027 1.06024C32.2027 0.685729 32.171 0.305941 32.1024 0C29.4334 0.100222 26.2579 1.77762 24.3431 3.99833C22.8398 5.70738 21.4367 8.40809 21.4367 11.1457C21.4367 11.5572 21.5053 11.9686 21.5369 12.1005C21.7057 12.1321 21.98 12.1691 22.2543 12.1691C24.6491 12.1691 27.661 10.5655 29.4017 8.40809Z" fill="black"/>
</svg>
