<svg width="85" height="85" viewBox="0 0 85 85" fill="none" xmlns="http://www.w3.org/2000/svg">
<circle cx="42.8252" cy="42.8076" r="41.9033" fill="#02A0FC"/>
<path fill-rule="evenodd" clip-rule="evenodd" d="M45.2783 51.2394C45.2057 51.2394 45.131 51.2362 45.0562 51.2286C44.1029 51.1343 43.3554 50.4616 43.1495 49.5137L40.243 36.089L37.2497 43.0028C37.0775 43.3993 36.6864 43.6561 36.2552 43.6561H33.0052C32.4061 43.6561 31.9219 43.1707 31.9219 42.5727C31.9219 41.9737 32.4061 41.4894 33.0052 41.4894H35.5445L38.2594 35.218C38.644 34.334 39.4911 33.8194 40.4542 33.9158C41.4075 34.0101 42.155 34.6828 42.3609 35.6307L45.2675 49.0554L48.2607 42.1416C48.433 41.7451 48.823 41.4894 49.2552 41.4894H52.5052C53.1043 41.4894 53.5885 41.9737 53.5885 42.5727C53.5885 43.1707 53.1043 43.6561 52.5052 43.6561H49.9659L47.251 49.9264C46.8968 50.7422 46.1374 51.2394 45.2783 51.2394Z" fill="white"/>
</svg>
