<svg width="8" height="8" viewBox="0 0 8 8" fill="none" xmlns="http://www.w3.org/2000/svg">
<path d="M0.8 2.28571H6.4V1.52381H0.8V2.28571ZM0.8 7.61905C0.58 7.61905 0.391667 7.54444 0.235 7.39524C0.0783333 7.24603 0 7.06667 0 6.85714V1.52381C0 1.31429 0.0783333 1.13492 0.235 0.985714C0.391667 0.836508 0.58 0.761905 0.8 0.761905H1.2V0H2V0.761905H5.2V0H6V0.761905H6.4C6.62 0.761905 6.80833 0.836508 6.965 0.985714C7.12167 1.13492 7.2 1.31429 7.2 1.52381V3.68571C7.07333 3.62857 6.94333 3.58095 6.81 3.54286C6.67667 3.50476 6.54 3.47619 6.4 3.45714V3.04762H0.8V6.85714H3.32C3.36667 6.99683 3.42167 7.13016 3.485 7.25714C3.54833 7.38413 3.62333 7.50476 3.71 7.61905H0.8ZM6 8C5.44667 8 4.975 7.81429 4.585 7.44286C4.195 7.07143 4 6.62222 4 6.09524C4 5.56825 4.195 5.11905 4.585 4.74762C4.975 4.37619 5.44667 4.19048 6 4.19048C6.55333 4.19048 7.025 4.37619 7.415 4.74762C7.805 5.11905 8 5.56825 8 6.09524C8 6.62222 7.805 7.07143 7.415 7.44286C7.025 7.81429 6.55333 8 6 8ZM6.67 7L6.95 6.73333L6.2 6.01905V4.95238H5.8V6.17143L6.67 7Z" fill="#EC9E85"/>
</svg>
