<svg width="56" height="56" viewBox="0 0 56 56" fill="none" xmlns="http://www.w3.org/2000/svg">
<circle cx="28" cy="28" r="28" fill="#FFB200"/>
<mask id="mask0_640_4905" style="mask-type:alpha" maskUnits="userSpaceOnUse" x="16" y="16" width="24" height="24">
<rect x="16" y="16" width="24" height="24" fill="#D9D9D9"/>
</mask>
<g mask="url(#mask0_640_4905)">
<path d="M35.95 37C33.8667 37 31.8083 36.5458 29.775 35.6375C27.7417 34.7292 25.8917 33.4417 24.225 31.775C22.5583 30.1083 21.2708 28.2583 20.3625 26.225C19.4542 24.1917 19 22.1333 19 20.05C19 19.75 19.1 19.5 19.3 19.3C19.5 19.1 19.75 19 20.05 19H24.1C24.3333 19 24.5417 19.0792 24.725 19.2375C24.9083 19.3958 25.0167 19.5833 25.05 19.8L25.7 23.3C25.7333 23.5667 25.725 23.7917 25.675 23.975C25.625 24.1583 25.5333 24.3167 25.4 24.45L22.975 26.9C23.3083 27.5167 23.7042 28.1125 24.1625 28.6875C24.6208 29.2625 25.125 29.8167 25.675 30.35C26.1917 30.8667 26.7333 31.3458 27.3 31.7875C27.8667 32.2292 28.4667 32.6333 29.1 33L31.45 30.65C31.6 30.5 31.7958 30.3875 32.0375 30.3125C32.2792 30.2375 32.5167 30.2167 32.75 30.25L36.2 30.95C36.4333 31.0167 36.625 31.1375 36.775 31.3125C36.925 31.4875 37 31.6833 37 31.9V35.95C37 36.25 36.9 36.5 36.7 36.7C36.5 36.9 36.25 37 35.95 37ZM22.025 25L23.675 23.35L23.25 21H21.025C21.1083 21.6833 21.225 22.3583 21.375 23.025C21.525 23.6917 21.7417 24.35 22.025 25ZM30.975 33.95C31.625 34.2333 32.2875 34.4583 32.9625 34.625C33.6375 34.7917 34.3167 34.9 35 34.95V32.75L32.65 32.275L30.975 33.95Z" fill="#1C1B1F"/>
</g>
</svg>
