<svg width="126" height="98" viewBox="0 0 126 98" fill="none" xmlns="http://www.w3.org/2000/svg">
<path fill-rule="evenodd" clip-rule="evenodd" d="M31.7684 58.6253C32.4099 58.1881 33.7217 56.6231 34.409 56.2614C35.9374 55.4572 42.746 53.8762 42.9674 53.7828C43.3046 53.6406 45.495 53.1434 46.7712 52.8295C49.7678 52.0919 60.5068 47.3283 63.3374 46.1069C63.6987 47.0578 66.6818 51.2552 66.1701 51.6854C64.4853 53.1017 61.4652 54.8651 59.5135 55.88C57.935 56.7008 56.2631 57.3802 54.5752 57.9347C52.6588 58.5646 51.3436 59.2398 49.4337 59.8839C47.5547 60.5178 49.8003 62.5001 50.7653 62.9097C51.8476 63.3692 53.5241 63.6024 54.63 64.0006C52.6829 67.0269 51.0476 70.6999 50.7205 74.325C50.6417 75.1974 49.9767 75.9973 48.8949 75.736C48.3368 75.6013 43.1863 74.9153 42.3465 74.7238C36.74 73.4452 26.6752 66.7496 29.2671 59.8839C29.8608 60.1582 31.2164 59.0015 31.7684 58.6253Z" fill="#70B7FE"/>
<path fill-rule="evenodd" clip-rule="evenodd" d="M34.9049 22.1985C35.3237 22.1632 36.4067 21.3265 35.8384 20.9033C35.2652 20.4764 34.8532 21.9072 34.9049 22.1985ZM13.087 25.4073C13.1965 25.3879 13.1487 24.7889 12.9764 24.7123C12.4322 24.4708 12.3863 25.3786 12.373 25.6215C12.3565 25.9281 12.3181 26.7917 12.9797 26.5549C13.3552 26.4205 13.1221 25.637 13.087 25.4073ZM45.206 28.2062C45.1913 28.741 46.2717 29.7694 46.6744 29.1525C47.0133 28.6343 45.2338 27.1416 45.206 28.2062ZM7.0075 16.145C7.32051 16.9436 8.86865 15.8553 8.92622 15.2696C9.04425 14.0701 6.99129 15.347 7.0075 16.145ZM19.9234 19.5878C20.6444 19.5286 21.593 18.612 22.2883 18.2696C22.7587 18.0379 24.0389 17.7617 24.1781 17.2356C24.2993 16.7784 22.1272 17.7569 21.9417 17.8439C21.0897 18.243 20.3215 18.6981 19.9234 19.5878ZM74.0468 13.2672C74.6214 12.8228 75.32 12.5362 76.0566 12.555C76.4245 12.5644 77.1919 12.7945 77.2207 12.1583C77.2677 11.124 74.0189 12.3855 73.5112 12.5884C73.6898 12.8149 73.8683 13.041 74.0468 13.2672ZM38.1982 53.5799C37.7767 52.8799 37.0185 52.4751 36.4482 51.8779C36.6572 52.8586 36.1861 53.7308 35.8623 54.626C36.6412 54.2773 37.4195 53.9287 38.1982 53.5799ZM111.408 68.5039C111.641 67.7263 111.873 66.9531 112.145 66.1875C112.449 65.3301 112.6 65.256 111.872 64.6565C111.269 65.7977 110.665 66.939 110.061 68.0804C110.491 68.2631 110.939 68.4409 111.408 68.5039ZM48.9158 12.2181C48.1164 11.317 44.3696 11.2604 44.8332 13.2492C44.9951 13.9436 45.9162 13.2059 46.4932 13.044C47.0659 12.8833 48.6876 12.862 48.9158 12.2181ZM48.7784 24.9761C48.6815 24.7461 48.488 23.9161 48.2009 23.8507C47.9211 23.7869 46.8172 24.6575 46.6097 24.7904C45.5747 25.4536 44.5657 26.1672 43.557 26.8703C43.9432 26.8703 44.2939 26.7327 44.6778 26.7298C45.134 26.7258 45.4612 26.9133 45.9059 26.8064C46.8616 26.5769 47.9707 25.5179 48.7784 24.9761ZM49.814 4.41424C49.9037 4.00207 54.5881 5.23937 55.1511 5.46593C55.4578 5.58916 57.0404 6.41179 56.7003 5.17196C56.5067 4.46581 54.678 3.92751 54.092 3.73398C52.6021 3.24222 51.0313 2.89243 49.4449 2.97355C49.1369 2.98919 46.8039 3.12382 47.7781 4.06155C48.1138 4.38449 49.317 4.2827 49.814 4.41424ZM50.8395 61.0446C51.7122 61.474 52.6033 61.8024 53.5155 62.1382C53.9208 62.2874 54.5521 62.6779 54.9991 62.5798C55.3653 62.4993 55.4826 61.9417 55.675 61.5685C56.3782 60.203 57.2181 59.1014 58.2593 57.9755C57.7758 57.6229 55.3215 59.1784 54.7141 59.408C54.1061 59.6378 53.5326 59.8694 52.9375 60.144C52.3773 60.4026 51.2719 60.6339 50.8395 61.0446ZM66.2925 49.4046C67.5645 48.829 68.7701 47.8084 69.8132 46.8945C71.011 45.8453 72.0848 44.7456 72.9616 43.3878C72.434 43.4147 71.2691 45.112 71.256 43.2641C71.2493 42.3216 72.541 41.3931 72.942 40.5188C71.9447 39.9557 71.0305 43.3202 69.8862 42.5047C68.7838 41.7189 70.5232 39.0171 70.8584 38.1646C70.2117 37.7344 66.5276 42.5499 65.9944 43.166C65.6609 43.5517 64.8722 44.0652 64.6839 44.5151C64.5718 44.783 64.5557 45.6329 64.61 45.8792C64.7228 46.3944 65.2943 47.0113 65.5488 47.491C65.8708 48.0983 66.1513 48.7294 66.2925 49.4046ZM118.876 66.766C117.776 65.2134 118.912 64.5363 119.807 63.2477C120.522 62.2169 121.18 61.0807 121.634 59.9295C122.768 57.0505 123.791 54.3739 124.351 51.3283C123.58 51.6802 123.098 53.0192 122.713 53.7248C122.194 54.6734 121.738 55.669 121.162 56.5881C120.084 58.3079 119.025 60.1425 117.653 61.6332C117.032 62.3088 116.506 63.0688 115.788 63.6775C115.461 63.9556 114.834 64.1839 114.593 64.5316C114.365 64.8599 114.62 65.0697 114.533 65.4619C114.444 65.8642 114.037 66.2932 113.863 66.6805C113.634 67.1893 113.42 67.6994 113.164 68.1969C112.885 68.7395 112.808 69.0233 112.733 69.5535C112.651 70.1334 112.903 70.1935 112.397 70.7278C113.314 71.1324 114.232 71.5369 115.149 71.9415C115.459 72.0782 115.769 72.2146 116.078 72.3512C116.144 72.2288 116.209 72.1065 116.274 71.9841C116.526 71.7392 116.758 71.1353 116.902 70.8117C117.505 69.4619 118.186 68.1066 118.876 66.766ZM30.2729 60.2485C27.6675 67.1076 36.8227 72.883 42.4583 74.1603C43.2389 74.3371 44.0007 74.5686 44.7777 74.7587C45.6249 74.9657 46.3772 74.9245 47.223 75.0112C47.8957 75.0801 48.2164 75.5999 48.8504 75.7432C49.9098 75.9825 49.8451 75.1863 49.9209 74.3333C50.2426 70.7161 52.0886 67.2261 54.0424 64.2079C53.1499 63.8886 52.2656 63.5401 51.3845 63.1906C50.6306 62.8913 49.4763 62.0501 48.6657 62.0056C48.0663 61.9729 47.1529 62.4847 46.5707 62.7094C45.6012 63.0835 44.6288 63.4022 43.6183 63.6573C41.8513 64.1035 39.885 64.7116 38.0566 64.7577C37.5293 64.771 36.0833 65.0165 35.7041 64.6908C34.9808 64.0695 35.9846 63.5518 36.5902 63.33C40.1991 62.0085 44.0309 61.4466 47.65 60.0917C49.5124 59.3944 51.3555 58.6157 53.2296 57.9287C54.8451 57.3366 56.5371 56.8124 58.0983 56.084C60.16 55.1224 62.2306 53.9245 64.0159 52.5133C64.3733 52.2309 65.122 51.8114 65.3668 51.4022C65.5826 51.0419 65.5556 51.4012 65.5108 50.9644C65.4787 50.6507 65.0948 50.2255 64.9369 49.9291C64.3485 48.8239 63.8168 47.6887 63.3698 46.5191C60.5219 47.7407 57.8126 49.4032 55.0067 50.7086C52.1824 52.0226 48.9967 52.9495 45.9753 53.6888C44.6894 54.0034 43.211 54.1029 42.0317 54.7247C41.5306 54.9887 41.0352 55.2943 40.4985 55.4471C40.3399 55.7512 40.184 55.8108 40.0302 55.6259C39.9339 55.5178 39.8094 55.4721 39.6566 55.4889C39.3284 55.5446 38.9935 55.6995 38.6866 55.8187C37.1327 56.4211 35.6447 57.1754 34.1695 57.9451C33.4703 58.3097 32.753 58.6689 32.0839 59.0853C31.7252 59.3086 31.4038 59.5337 31.1103 59.8402C30.7584 60.2078 30.8423 60.5099 30.2729 60.2485ZM88.8978 19.5232C89.5562 19.5339 90.1563 19.1772 90.8429 19.1972C91.9225 19.2284 92.7771 20.0654 93.4037 20.8727C94.6436 22.4699 94.3275 24.3967 93.7046 26.1842C93.4066 27.0384 92.9974 27.8585 92.4863 28.6062C92.0336 29.2682 91.2245 29.8944 90.9086 30.6314C90.3877 31.8471 91.4387 31.3301 92.0823 31.0706C92.8913 30.7438 93.6499 30.3378 94.3367 29.7908C97.3977 27.353 99.7261 23.9644 100.506 20.0728C100.887 18.1742 100.857 15.9546 99.5347 14.4049C98.3255 12.9879 96.2382 12.5249 94.4539 12.7877C92.5251 13.0718 90.7771 13.8888 89.2065 14.9404C88.7504 15.246 88.3327 15.5796 87.9044 15.9213C87.3424 16.3697 87.0056 16.3813 87.1463 17.084C87.2507 17.6064 87.5352 18.1478 87.7185 18.6491C88.0617 19.5879 87.9365 19.8309 88.8978 19.5232ZM90.9969 35.7096L90.8636 35.9373C91.7821 35.981 92.6374 35.1709 93.4199 34.7754C94.4364 34.2614 95.3391 33.5602 96.2299 32.8522C97.8007 31.6033 99.3921 30.1959 100.561 28.5563C103.183 24.8812 105.563 20.2217 104.848 15.562C104.077 10.54 99.6848 8.60681 95.0043 9.27163C92.895 9.5712 91.0119 10.5129 89.1242 11.469C88.1727 11.9509 87.3697 12.5762 86.498 13.1813C86.0457 13.4956 85.6329 13.5364 85.6034 14.0857C85.5811 14.4997 86.2969 15.436 86.4903 15.8111C88.8604 13.3933 91.4146 11.3931 94.9939 11.2695C99.2521 11.1224 101.77 15.1599 101.751 19.0262C101.733 22.8179 100.098 26.4652 97.4907 29.1902C96.306 30.4286 95.1764 31.4223 93.7215 32.3262C92.9963 32.7767 92.4614 33.1813 91.6506 33.4804C91.077 33.6921 91.1368 33.5806 90.9905 34.1115C90.8661 34.562 90.9931 35.2418 90.9969 35.7096ZM67.8592 87.224C67.8037 87.9073 67.6649 88.5801 67.5103 89.2465C67.4548 89.4858 67.1422 90.2414 67.1971 90.5105C67.2876 90.9552 67.1671 90.6693 67.5568 90.9012C67.9632 91.1435 68.4365 91.1289 68.8815 91.2024C69.1562 91.2479 70.1627 91.7215 70.332 91.6468C70.6279 91.516 70.6186 91.0549 70.9433 90.8721C71.3857 90.6229 72.0377 90.8364 72.455 91.0314C73.5709 91.5517 74.3374 92.6291 75.417 93.2188C77.3344 94.266 79.6095 94.8457 81.7485 95.0849C82.9074 95.2145 84.0932 95.4419 85.2376 95.1704C86.1393 94.9565 87.3112 94.9761 87.8013 94.0087C83.4454 92.8108 76.797 91.3448 75.0747 86.346C74.1385 87.1949 72.5738 86.7377 71.4425 86.6205C70.1977 86.4917 69.0854 86.5216 67.947 85.9543C67.8638 86.4003 67.8383 86.7705 67.8592 87.224ZM29.2923 56.2643C31.3428 56.3881 33.2868 55.4177 34.5486 53.7805C34.8593 53.3773 35.1778 52.9657 35.3643 52.488C35.4048 52.3669 35.445 52.2457 35.4854 52.1247C35.6812 51.7904 35.5955 51.6326 35.2285 51.6515C35.0217 51.3679 34.4974 51.2725 34.6466 50.7585C34.7588 50.3707 35.1734 50.3644 35.5337 50.2424C35.3542 49.9409 35.2469 49.7896 34.9901 49.5216C34.3227 50.1219 33.1115 51.3003 32.6425 49.921C32.4172 49.2588 32.8137 48.6259 32.7155 47.9873C32.6751 47.7231 32.3403 47.0483 32.1461 46.8904C31.1124 46.0488 29.6236 46.3971 28.5269 46.8925C27.771 47.2339 27.6083 47.3941 27.4851 48.1768C27.3599 48.9726 27.2436 49.7682 27.1047 50.5617C27.5583 50.3254 27.6409 49.8148 27.9367 49.4471C28.0475 49.6488 28.1583 49.8508 28.2695 50.0525C28.4256 49.965 28.5714 49.9695 28.7066 50.0665C28.9255 50.403 28.7878 50.9021 28.7205 51.2548C29.4504 51.1868 29.7588 52.001 29.023 52.3308C28.2608 52.6724 27.9171 51.7411 27.8912 51.1378C27.6068 51.4775 27.3147 51.2957 27.1164 51.4702C26.9184 51.6447 26.8404 52.0084 26.7699 52.4068C26.654 53.0612 26.3577 54.0055 26.6319 54.662C27.039 55.6372 28.3371 56.1446 29.2923 56.2643ZM88.7097 24.9432C88.0313 25.8867 86.8745 27.1218 86.6325 28.2618C87.3799 27.8233 88.9599 25.7132 89.3669 27.394C89.6006 28.3589 88.4022 29.5086 88.1077 30.4428C89.2862 30.055 90.1256 28.8406 90.861 27.9034C91.7987 26.7084 92.756 25.1332 92.9953 23.6136C93.1889 22.384 92.3359 21.2379 91.0685 21.1174C90.4211 21.0558 89.745 21.1586 89.1196 21.3088C88.8343 21.3771 88.4089 21.462 88.1543 21.6148C87.8347 21.8068 87.791 22.2561 87.4898 21.8823C87.0898 22.6363 86.6898 23.3902 86.2899 24.1439C86.6879 23.9995 87.5003 23.3864 87.9353 23.4497C88.5706 23.5425 88.7012 24.4653 88.7097 24.9432ZM25.1834 6.48551C23.4047 6.53794 21.5455 6.91671 19.8616 7.47977C19.4434 7.61971 17.6793 8.11742 18.0509 8.83892C18.2964 9.31581 19.6203 8.64192 20.0205 8.52954C21.7359 8.04782 23.5021 7.73016 25.2591 7.44025C25.6845 7.37007 27.1277 7.37701 27.2021 6.81936C27.2934 6.13892 25.6857 6.48474 25.1834 6.48551ZM73.5928 84.0946C72.6287 84.2124 71.703 84.1684 70.738 84.0502C69.9258 83.9509 69.0987 83.6184 68.2907 83.6184C68.2907 84.4833 68.232 84.4888 69.1446 84.6739C69.7816 84.8032 70.4277 84.8758 71.0715 84.9659C72.2049 85.1243 73.4631 85.5693 74.6105 85.3406C74.5827 85.1904 74.4948 84.1768 74.3759 84.0765C74.309 84.0202 73.6901 84.0956 73.5928 84.0946ZM58.0107 20.093C58.2803 20.2648 58.9 20.9498 59.2211 20.9619C59.1065 20.1689 58.2218 18.7882 57.2058 19.2782C56.9568 19.3985 56.4339 19.9967 56.6705 20.2607C56.7968 20.4018 57.6804 20.094 58.0107 20.093ZM48.611 27.1474C48.6208 27.0092 48.6308 26.8709 48.641 26.7329C48.2682 26.952 47.8067 27.0558 47.5417 27.4089C47.8598 27.5499 48.1776 27.691 48.4959 27.8321C48.5342 27.6039 48.5727 27.3756 48.611 27.1474ZM77.9711 48.2003C79.7325 48.8171 81.3473 49.641 82.6438 51.0393C83.7645 52.2486 84.2912 54.3792 84.5647 55.9643C85.2416 59.8867 83.9354 63.5223 83.0742 67.2745C82.6372 69.178 81.985 71.0097 81.3742 72.864C80.8409 74.4832 80.3837 76.1789 79.6476 77.7185C79.0235 79.024 78.2261 80.3111 77.6771 81.6653C77.3816 82.3941 76.9028 84.8951 75.7813 84.1097C75.4753 84.9099 75.4009 84.8417 75.7281 85.3975C75.9649 85.7998 76.768 86.3585 77.1471 86.6861C78.157 87.5594 79.4362 88.2792 80.6211 88.8906C82.7913 90.0106 85.1175 90.8486 87.3524 91.8697C88.3405 92.3215 89.412 92.855 89.1902 94.1476C89.0044 95.2311 88.3776 96.0528 87.3997 96.5348C86.4815 96.9876 85.1684 97.3371 84.1583 97.4791C83.5591 97.5634 83.4217 97.3141 82.9331 97.2278C82.3893 97.132 81.7548 97.3174 81.1938 97.3126C78.6757 97.2906 76.4711 96.657 74.4361 95.1968C73.7089 94.6749 72.6386 93.2594 71.6869 93.2595C71.2005 93.2595 71.3031 93.5551 70.8753 93.7285C70.3472 93.9423 69.4373 93.5386 68.9182 93.4438C67.8122 93.2419 66.6876 93.0369 65.9511 92.0843C65.1548 91.0549 65.4379 89.7796 65.78 88.6364C66.1657 87.3477 66.8147 86.0403 67.0904 84.732C67.1576 84.4138 67.2195 83.8206 67.1513 83.4969C67.0452 82.9946 66.5381 82.6949 66.5228 82.1509C66.5181 81.9855 66.7549 81.7673 66.7964 81.5965C66.8878 81.2214 66.8736 80.8322 66.9113 80.4505C66.9785 79.7695 67.1337 79.1171 67.2409 78.4441C67.4844 76.9128 67.9646 75.5467 68.4295 74.0712C68.8804 72.6392 69.3097 71.5735 70.1816 70.3335C70.633 69.6915 72.1431 67.4035 71.4056 66.7451C70.3964 68.7276 69.2162 70.2737 67.6715 71.8519C66.4903 73.0591 65.3352 74.6819 63.8566 75.5416C62.231 76.4869 60.2444 77.043 58.4492 77.5429C57.5954 77.7805 56.8869 78.3076 55.9664 78.4051C54.9689 78.5105 53.9536 78.3862 52.9765 78.1637C52.7016 78.1012 51.9083 77.6785 51.6595 77.7054C51.2929 77.7453 50.7655 78.3988 50.3632 78.5187C49.3839 78.8109 48.7152 78.2529 47.9724 77.7372C47.1662 77.1774 46.9223 77.0383 45.9921 76.9709C44.8527 76.8886 43.7447 76.4869 42.624 76.241C40.6536 75.8087 38.9788 74.9326 37.1879 74.0154C35.1349 72.9644 33.3789 71.515 31.8314 69.8026C29.5567 67.2852 26.3887 60.3096 30.1047 57.8672C27.9171 57.5702 25.9136 56.6148 25.6469 54.1389C25.5075 52.8433 25.7698 51.4081 26.0956 50.1593C26.2443 49.589 26.4215 49.0224 26.5914 48.458C26.7193 48.2675 26.787 48.059 26.794 47.8323C26.8725 47.5387 26.7594 47.3923 26.4545 47.3937C25.8784 46.72 25.4451 46.1253 25.3288 45.1687C25.2921 44.8656 25.2592 44.4009 25.475 44.1431C25.5747 44.0395 25.6952 43.9703 25.8358 43.9355C26.1735 43.9549 26.2689 43.7885 26.1221 43.4366C26.2861 42.9381 26.0429 42.5496 26.6608 42.3416C26.8588 42.3837 27.0559 42.4298 27.2523 42.4797C27.5029 42.594 27.6659 42.5112 27.7417 42.2321C28.3238 42.0043 28.0553 41.6675 28.8462 41.9606C29.3248 42.138 29.7801 42.4434 30.1287 42.8155C30.5659 42.5348 29.5715 40.8001 29.5384 40.2466C29.4597 38.9419 29.9991 37.8633 30.7009 36.7917C32.0649 34.7092 33.9688 32.9185 35.8463 31.3073C39.4424 28.2218 43.2204 25.2843 47.2809 22.826C45.6058 21.6626 43.6488 21.3473 41.6556 21.888C39.8181 22.3865 38.3286 23.2918 36.6372 24.0837C35.0702 24.817 33.4069 25.1183 32.9073 23.117C32.3475 20.8753 34.1335 20.043 35.7355 19.0378C35.3355 18.7395 34.0186 18.9527 33.5206 18.988C32.4111 19.0665 31.3501 19.317 30.272 19.5385C29.755 19.6446 29.28 19.6206 28.7677 19.7247C28.0062 19.8792 27.2111 20.0524 26.4406 20.2726C24.6077 20.7968 22.7883 21.5924 21.2044 22.6644C19.8355 23.5905 18.8857 24.8982 17.7828 26.1026C16.525 27.4758 15.3197 28.827 13.4549 29.3297C12.5817 29.5652 11.5574 29.7788 10.9384 28.9989C10.3624 28.2737 10.3302 27.3997 10.3492 26.513C10.3908 24.5543 11.337 22.4379 12.4376 20.8374C13.6323 19.1 15.2325 18.1051 16.7444 16.7067C14.5591 16.8629 12.4472 18.0148 10.4375 18.8111C10.0146 18.9787 9.58769 19.1671 9.16242 19.3221C8.70898 19.4875 8.40862 19.3862 7.97414 19.4619C6.98277 19.6349 6.13112 20.0528 5.16675 19.3866C3.3422 18.1265 5.17018 15.563 6.42642 14.7763C8.17613 13.6808 9.9562 12.7584 11.8839 11.977C10.8403 10.845 11.7315 9.22964 12.6934 8.42663C13.9104 7.41051 15.4602 6.82825 16.9267 6.28432C18.0864 5.8541 19.2255 5.44105 20.4303 5.18215C21.6969 4.91009 23.1778 4.49437 24.463 4.53425C25.6683 4.57165 26.737 4.35931 27.9577 4.32534C28.9734 4.2971 29.9915 4.32153 31.007 4.29521C33.7394 4.22461 36.4819 4.40891 39.1524 4.60541C37.0366 -1.58171 50.9731 0.328993 53.9464 1.13715C56.6485 1.87168 59.7445 2.72371 62.0142 4.46652C62.9757 5.20467 63.8889 6.04393 64.7421 6.90513C66.0007 8.17575 66.6975 9.83977 67.3632 11.4822C69.0519 10.655 70.6664 9.75354 72.5141 9.34334C74.2722 8.9532 76.0731 8.42434 77.8415 8.12958C79.186 7.9054 81.1376 7.75335 82.2691 8.70269C83.4981 9.73388 84.1384 11.3386 84.872 12.7128C88.395 9.36986 92.3247 6.93107 97.3478 7.09325C102.263 7.25198 105.495 11.4966 106.091 16.0961C106.747 21.1644 104.49 26.4602 101.43 30.3851C100.057 32.1452 98.6373 33.8452 96.7903 35.1584C95.8744 35.8093 94.9081 36.5224 93.9039 37.0306C93.403 37.284 92.8555 37.5129 92.3298 37.7079C92.0925 37.796 91.8482 37.8842 91.6014 37.944C90.8968 38.1149 91.0336 37.8867 90.7716 38.5035C90.559 39.0043 90.5851 39.866 90.494 40.4156C90.39 41.0438 90.3282 41.6807 90.1763 42.3004C89.9131 43.3745 89.6391 44.4222 89.3095 45.4711C88.6854 47.4562 87.8456 49.457 86.8169 51.2678C87.6893 51.6467 88.911 51.6849 89.8433 51.7997C90.8522 51.9238 91.8627 52.1849 92.9108 52.478C95.0109 53.0651 96.8876 53.5608 98.8846 54.44C100.958 55.3526 102.806 56.7154 104.802 57.8C106.638 58.7975 108.493 60.0468 110.198 61.2441C110.604 61.5289 110.855 61.7765 111.178 62.1374C111.508 62.5059 111.614 62.578 112.008 62.8973C112.186 63.0412 112.704 63.7674 112.907 63.7941C113.271 63.8423 113.215 63.5706 113.501 63.1914C114.098 62.3997 114.93 61.7863 115.522 60.9745C116.016 60.2975 116.532 59.6121 117.06 59.03C118.338 57.6213 119.397 56.0598 120.305 54.3711C120.778 53.4919 121.276 52.6552 121.79 51.8254C122.301 50.9993 123.21 49.909 124.228 49.9578C124.146 49.5372 123.886 49.4671 124.335 49.2099C124.624 49.0442 125.187 49.3113 125.41 49.4795C126.001 49.9253 126.026 50.7898 125.989 51.4393C125.893 53.113 125.543 54.7652 125.055 56.3478C124.468 58.2503 123.732 59.9287 122.93 61.7445C122.291 63.191 121.498 65.1038 119.908 65.7639C120.975 67.2885 120.463 68.5308 119.749 70.1494C119.227 71.3328 118.538 72.5554 117.489 73.3385C116.306 74.2211 115.023 73.4723 113.786 72.8889C113.039 72.5364 110.754 71.7047 111.219 70.6202C110.648 70.5441 110.289 70.1294 109.77 70.0019C109.22 69.8668 109.314 70.0901 108.732 70.1739C108.286 70.2381 107.618 69.8385 107.198 69.6954C106.497 69.4568 105.797 69.2119 105.096 68.9706C103.124 68.2912 101.185 67.6223 99.1926 67.078C95.4863 66.0654 91.7344 65.4909 88.0412 64.5866C87.3009 64.4054 86.5648 64.2305 85.794 64.0852C85.6348 64.0553 84.8089 64.0092 84.7086 63.8388C84.5329 63.5403 85.0731 61.8694 85.1194 61.5289C85.4239 59.2936 85.3244 56.8466 84.8956 54.6369C84.7175 53.7182 83.9221 52.5287 83.929 51.632C83.9338 51.0304 84.4668 50.3736 84.7798 49.8287C85.5539 48.4814 86.365 47.0257 86.9385 45.6237C87.8164 43.4788 88.3542 41.0577 88.7421 38.7606C88.944 37.563 89.1791 36.2647 89.234 35.0533C89.2761 34.1298 89.2002 33.1612 89.3343 32.2154C88.8232 32.2639 88.1 32.5287 87.6397 32.2453C87.0584 31.8876 86.9023 30.8663 86.9765 30.2563C84.986 30.6037 85.0521 28.7162 85.1754 27.24C81.578 27.24 86.185 21.8944 86.7606 20.7465C87.0251 20.2188 87.0173 20.8115 86.9005 19.9954C86.8492 19.6366 86.604 19.2389 86.4652 18.909C86.1629 18.1889 85.836 17.4797 85.4869 16.781C84.7493 15.3053 83.9137 13.8795 83.0018 12.5046C82.1809 13.0766 81.441 13.7537 80.7555 14.4802C81.1952 13.3301 82.5388 11.9054 81.9641 10.5995C81.4315 9.38895 79.6525 9.47289 78.6019 9.69419C75.7471 10.2961 73.0091 11.1727 70.2895 12.1877C71.1319 12.6709 72.4217 12.2977 73.2588 11.9283C74.2952 11.4708 75.4099 10.9908 76.527 10.7484C77.5012 10.5371 78.7807 10.6092 78.4991 11.9215C78.2709 12.9847 77.231 14.0086 76.5448 14.8037C75.033 16.5552 73.1372 17.9111 71.2751 19.2659C69.2734 20.7222 67.3446 22.3046 65.3176 23.7187C61.6535 26.2753 57.7137 28.4971 53.9279 30.8834C51.9607 32.1234 49.7316 33.1212 47.5981 34.0402C45.2512 35.0511 43.0011 36.1334 40.5663 36.9319C39.2141 37.3754 37.8738 37.7403 36.5451 38.245C35.7123 38.5612 34.262 39.1948 33.7117 38.2559C32.5942 36.349 36.6384 33.8412 37.7467 32.6753C38.5112 33.4179 34.741 36.1848 35.0361 37.2659C35.2679 38.1155 36.1648 37.0184 36.5979 36.7869C37.2977 36.4126 38.1265 36.2245 38.8299 35.7974C40.2725 34.9216 41.9829 33.9116 42.3123 32.101C42.0831 31.8591 42.0859 31.6359 42.3209 31.4311C42.4255 31.3068 42.5085 31.1702 42.5696 31.0213C42.6723 30.7367 42.7135 30.3804 42.7684 30.0787C42.9309 29.187 42.5232 28.3522 42.9042 27.4795C40.6808 29.1641 38.5438 31.067 36.4333 32.8906C34.5402 34.5264 32.5649 36.6684 31.8692 39.1093C31.7802 39.422 31.6321 39.7768 31.6483 40.1069C31.6799 40.7549 31.7446 40.6151 32.2666 40.8234C32.7887 41.0319 33.549 41.0139 34.1104 41.036C34.4304 41.0484 35.8597 40.7095 35.5756 41.4118C35.4118 41.8167 34.421 41.8015 34.0662 41.8388C33.1758 41.9328 32.693 41.8364 33.1148 42.8015C33.3039 43.2341 33.687 43.5271 33.9875 43.8619C34.8238 44.7933 35.2781 46.2219 35.936 47.3162C36.6855 48.5629 37.5096 49.7484 38.385 50.9095C38.7462 51.3885 39.229 52.2889 39.7299 52.6307C40.1975 52.9499 39.6473 52.9236 40.424 52.7938C40.7626 52.7375 41.0694 52.5173 41.3933 52.4384C43.3297 51.9667 45.3202 51.4349 47.3227 50.8526C49.8842 50.1077 52.5723 49.4726 55.0161 48.4001C57.2054 47.4389 59.3785 46.2947 61.5907 45.3214C62.2368 45.0374 62.882 44.849 63.3841 44.3261C63.9902 43.6952 64.492 42.8691 65.0509 42.1909C66.0016 41.0371 66.8779 39.8637 67.9011 38.7703C68.6629 37.9568 70.0128 36.4445 71.0874 36.1197C73.1294 35.5028 72.0363 38.613 71.7724 39.3991C72.2525 39.5081 72.5047 38.8923 73.0681 39.0695C73.7426 39.2816 73.8124 40.1786 73.8968 40.7407C73.9192 40.8905 73.7165 41.1704 73.7781 41.3039C73.7991 41.3494 74.2392 41.6097 74.3241 41.7303C74.6323 42.1685 74.5717 42.7013 74.4549 43.1739C73.8506 45.6217 71.7027 47.4091 70.1231 49.2147C70.8298 49.081 71.3537 48.6783 72.0208 48.4787C72.6469 48.2914 73.2764 48.3011 73.9075 48.2474C74.5683 48.1912 75.2029 47.9439 75.879 47.9314C76.5884 47.9182 77.2676 48.1202 77.9711 48.2003Z" fill="black"/>
<path fill-rule="evenodd" clip-rule="evenodd" d="M3.26154 26.1833C2.87199 26.4379 2.76219 26.6877 2.74874 27.2751C2.74336 27.516 2.75997 28.4147 3.09666 28.3808C3.41263 28.3491 3.26154 26.4923 3.26154 26.1833ZM1.24927 27.6471C1.43078 25.7645 2.11954 23.8503 3.7398 22.6773C4.1405 22.3872 4.59378 22.3975 5.03294 22.2145C5.29687 22.1046 5.71385 21.5934 6.01349 21.6539C7.11648 21.877 5.84219 23.3426 5.65558 23.7281C5.07728 24.9226 5.11633 25.9721 5.13361 27.2607C5.14676 28.24 5.35024 29.8909 4.85653 30.7773C4.33026 31.7211 3.18879 31.1081 2.55163 30.5496C1.7475 29.8443 1.14017 28.7213 1.24927 27.6471Z" fill="black"/>
<path fill-rule="evenodd" clip-rule="evenodd" d="M20.6121 33.2103C20.6121 34.2608 21.4647 33.5496 21.4343 32.8023C21.3896 31.7023 20.5722 32.3797 20.6121 33.2103ZM25.1449 27.4028C24.2118 28.242 23.4919 28.7129 23.3121 30.0034C23.1759 30.9809 23.3113 31.9491 23.317 32.9337C23.3268 34.5842 21.994 36.3194 20.5597 34.4274C19.5135 33.0475 19.8888 30.8776 20.7419 29.4906C21.1896 28.7631 21.8287 28.0432 22.5669 27.5898C23.1222 27.2485 24.6842 26.577 25.1449 27.4028Z" fill="black"/>
<path fill-rule="evenodd" clip-rule="evenodd" d="M12.1124 52.8398C12.0043 53.0958 11.7502 54.1409 12.2685 53.9045C12.7259 53.6957 12.4295 53.0029 12.1124 52.8398ZM9.37433 49.6131C9.29436 49.2201 9.32693 46.7565 10.0056 46.9413C10.5386 47.0861 10.6266 48.3472 10.8437 48.7861C11.6524 50.4205 13.5083 51.4383 14.1483 53.1252C14.8627 55.009 12.7028 55.0675 11.5567 54.3047C10.1997 53.4014 9.41459 51.1896 9.37433 49.6131Z" fill="black"/>
<path fill-rule="evenodd" clip-rule="evenodd" d="M7.71059 39.5115C8.00505 39.1138 8.03487 38.9014 7.86696 38.5496C7.65233 38.7831 7.69039 39.1167 7.71059 39.5115ZM7.92371 41.2902C6.38835 41.4621 6.3115 38.6328 6.57439 37.6613C6.7838 36.8876 7.23393 36.0563 7.6974 35.4259C7.79097 35.2986 8.67861 34.1556 8.85256 34.1528C9.52035 34.1422 9.33691 34.8967 9.26478 35.1776C9.03792 36.0625 8.94806 36.802 9.00907 37.783C9.07461 38.8328 9.57174 41.3251 7.92371 41.2902Z" fill="black"/>
<path fill-rule="evenodd" clip-rule="evenodd" d="M77.6338 16.7873C75.4385 18.6284 73.3544 20.6216 70.9672 22.232C69.7991 23.0201 68.578 23.7173 67.4124 24.5183C66.8188 24.9262 66.2132 25.2914 65.5546 25.5912C64.9728 25.8562 64.5925 25.8907 65.0752 25.2619C65.3978 24.8418 66.121 24.5492 66.5605 24.2506C67.2368 23.7907 67.8756 23.2806 68.5871 22.8727C69.8413 22.1531 71.088 21.5722 72.2441 20.6897C73.2704 19.9067 74.3291 19.1422 75.3085 18.3099C75.7286 17.9531 77.1212 16.3146 77.6338 16.7873Z" fill="black"/>
<path fill-rule="evenodd" clip-rule="evenodd" d="M77.6781 23.4352C78.6654 24.2797 76.1953 26.5933 75.6319 27.1176C75.0379 27.6707 74.3837 28.164 73.7376 28.6538C73.5102 28.8264 72.2695 29.981 71.9545 29.8878C71.3332 29.7039 72.149 28.9547 72.3611 28.7595C73.0472 28.1269 73.7479 27.5129 74.4187 26.8633C75.0237 26.2779 75.6789 25.7359 76.2639 25.1316C76.7379 24.642 77.1361 23.8125 77.6781 23.4352Z" fill="black"/>
<path fill-rule="evenodd" clip-rule="evenodd" d="M4.53416 57.478C4.27639 56.8807 3.81473 57.5438 4.04878 57.8422C4.27012 58.1245 4.50119 57.5928 4.53416 57.478ZM3.02271 56.2985C3.16089 55.4203 3.48025 54.9322 4.3042 55.6819C4.87037 56.197 6.00907 57.6619 5.90102 58.4605C5.75919 59.5079 4.60551 59.2107 4.00747 58.663C3.39447 58.1016 3.12385 57.0774 3.02271 56.2985Z" fill="black"/>
<path fill-rule="evenodd" clip-rule="evenodd" d="M4.8284 73.5844C3.81905 73.5076 2.95793 72.7326 2.5293 71.8245C2.16865 71.0608 1.8273 69.8298 3.09432 70.2312C3.9201 70.4929 7.10342 73.7075 4.8284 73.5844Z" fill="black"/>
<path fill-rule="evenodd" clip-rule="evenodd" d="M17.0609 68.6055C16.2808 68.7832 15.5093 68.2694 15.0296 67.6901C14.7312 67.3293 14.0366 66.0645 14.3865 65.5439C14.8743 64.8177 15.6108 66.2773 15.8649 66.5663C16.2634 67.0188 17.5665 67.8841 17.0609 68.6055Z" fill="black"/>
<path fill-rule="evenodd" clip-rule="evenodd" d="M17.7632 48.8551C17.1517 48.5713 16.5841 48.2297 16.3382 47.5521C16.1818 47.1205 16.0504 45.8263 16.7449 45.8322C17.5481 45.8393 19.3874 48.7255 17.7632 48.8551Z" fill="black"/>
<path fill-rule="evenodd" clip-rule="evenodd" d="M13.4767 35.3898C14.2954 35.3749 14.4893 35.8264 14.603 36.4751C14.6804 36.9154 15.0554 38.4099 14.666 38.7161C14.1095 39.1535 13.2242 38.1512 13.0453 37.7577C12.6765 36.9475 13.1864 36.1507 13.4767 35.3898Z" fill="black"/>
<path fill-rule="evenodd" clip-rule="evenodd" d="M27.5439 80.2023C27.9425 80.3837 28.8494 80.7859 28.5029 81.41C28.1405 82.0626 27.1002 81.4284 26.7117 81.1431C26.549 81.0237 25.5154 80.2421 25.5587 79.9801C25.6498 79.4231 27.0745 80.15 27.5439 80.2023Z" fill="black"/>
<path fill-rule="evenodd" clip-rule="evenodd" d="M1.28149 39.444C1.55388 40.1261 1.8605 42.4694 0.426106 41.204C-0.0116242 40.8177 -0.0776886 40.3355 0.0731268 39.8052C0.291202 39.0368 0.608565 39.1892 1.28149 39.444Z" fill="black"/>
<path fill-rule="evenodd" clip-rule="evenodd" d="M77.2953 30.7177C76.9776 30.0687 77.7618 29.6502 78.1809 29.2319C78.4545 28.9587 79.6049 27.4771 79.9821 27.5608C80.758 27.733 77.6768 30.4283 77.2953 30.7177Z" fill="black"/>
<path fill-rule="evenodd" clip-rule="evenodd" d="M13.4661 77.7218C14.2146 77.6017 14.3892 78.433 14.8714 78.7954C15.0781 78.9509 15.788 79.0875 15.6452 79.4175C15.2701 80.284 13.4294 78.3044 13.4661 77.7218Z" fill="black"/>
<path fill-rule="evenodd" clip-rule="evenodd" d="M19.7864 58.0875C20.3008 57.8721 21.7856 59.0288 21.3592 59.5286C20.722 60.2762 19.8227 58.4965 19.7864 58.0875Z" fill="black"/>
<path fill-rule="evenodd" clip-rule="evenodd" d="M30.6297 74.8226C30.2547 74.8598 28.6722 74.3624 29.2585 73.6964C29.6702 73.2286 30.7642 74.3991 30.6297 74.8226Z" fill="black"/>
<path fill-rule="evenodd" clip-rule="evenodd" d="M11.6795 71.6269C11.3072 71.7757 9.96452 71.4695 10.3866 70.8864C10.7888 70.3313 11.68 71.166 11.6795 71.6269Z" fill="black"/>
<path fill-rule="evenodd" clip-rule="evenodd" d="M22.6719 74.1425C23.1072 74.0973 23.4216 74.3597 23.4963 74.8041C22.9519 74.8817 22.784 74.7523 22.6719 74.1425Z" fill="black"/>
<path fill-rule="evenodd" clip-rule="evenodd" d="M79.2825 9.62476C79.4663 9.62558 79.6499 9.62654 79.8321 9.62737C79.648 9.6264 79.4654 9.62558 79.2825 9.62476Z" fill="black"/>
<path fill-rule="evenodd" clip-rule="evenodd" d="M76.3969 47.8926C76.122 47.8929 75.8472 47.8934 75.5725 47.8937C75.8475 47.8931 76.1223 47.8929 76.3969 47.8926Z" fill="black"/>
<path fill-rule="evenodd" clip-rule="evenodd" d="M38.9047 3.09924C38.892 3.37437 38.8794 3.64949 38.8665 3.92367C38.8788 3.64831 38.8917 3.37365 38.9047 3.09924Z" fill="black"/>
<path fill-rule="evenodd" clip-rule="evenodd" d="M124.05 49.8168C124.138 50.1225 124.009 50.1732 123.664 49.9687C123.793 49.918 123.921 49.8675 124.05 49.8168Z" fill="black"/>
<path fill-rule="evenodd" clip-rule="evenodd" d="M116.244 73.7927C116.382 73.7935 116.52 73.7945 116.657 73.7953C116.518 73.7945 116.381 73.7935 116.244 73.7927Z" fill="black"/>
<path fill-rule="evenodd" clip-rule="evenodd" d="M90.1375 51.6752C89.907 51.8508 89.6778 51.8756 89.4504 51.6659C89.6795 51.6692 89.9084 51.6722 90.1375 51.6752Z" fill="black"/>
<path fill-rule="evenodd" clip-rule="evenodd" d="M84.9936 28.2443C84.9878 28.4736 84.9819 28.7028 84.9758 28.9313C84.9816 28.7017 84.9877 28.4729 84.9936 28.2443Z" fill="black"/>
<path fill-rule="evenodd" clip-rule="evenodd" d="M96.8704 7.04279C96.6413 7.04265 96.4121 7.04238 96.1833 7.0421C96.4125 6.95636 96.6416 6.98453 96.8704 7.04279Z" fill="black"/>
<path fill-rule="evenodd" clip-rule="evenodd" d="M35.313 4.29061C35.1299 4.27509 34.9465 4.25942 34.7634 4.2439C34.9465 4.25942 35.1296 4.27509 35.313 4.29061Z" fill="black"/>
<path fill-rule="evenodd" clip-rule="evenodd" d="M38.336 4.5083C38.1528 4.57659 37.9697 4.61699 37.7864 4.50926C37.9697 4.50899 38.1528 4.50858 38.336 4.5083Z" fill="black"/>
<path fill-rule="evenodd" clip-rule="evenodd" d="M21.9849 4.88464C21.7557 4.93122 21.5268 4.9778 21.2979 5.02397C21.527 4.9778 21.756 4.93122 21.9849 4.88464Z" fill="black"/>
<path fill-rule="evenodd" clip-rule="evenodd" d="M85.1315 60.8092C85.1252 60.9469 85.1188 61.0844 85.1128 61.2214C85.1193 61.0836 85.1253 60.9463 85.1315 60.8092Z" fill="black"/>
<path fill-rule="evenodd" clip-rule="evenodd" d="M9.40845 49.6794C9.4112 49.7712 9.41381 49.863 9.41628 49.9543C9.41326 49.8622 9.41106 49.7708 9.40845 49.6794Z" fill="black"/>
<path fill-rule="evenodd" clip-rule="evenodd" d="M124.901 49.1864L124.214 49.19C124.442 49.0193 124.671 49.041 124.901 49.1864Z" fill="black"/>
<path fill-rule="evenodd" clip-rule="evenodd" d="M77.9085 48.2132C77.7251 48.183 77.5419 48.1528 77.3589 48.1226C77.5419 48.1528 77.7253 48.183 77.9085 48.2132Z" fill="black"/>
<path fill-rule="evenodd" clip-rule="evenodd" d="M27.6184 80.1814C27.3894 80.1369 27.1605 80.0921 26.9314 80.0476L27.6184 80.1814Z" fill="black"/>
<path fill-rule="evenodd" clip-rule="evenodd" d="M73.8613 40.7482C73.857 40.6106 73.8528 40.4731 73.8486 40.3359C73.8528 40.4735 73.857 40.6109 73.8613 40.7482Z" fill="black"/>
<path fill-rule="evenodd" clip-rule="evenodd" d="M69.252 93.5719C69.3439 93.5775 69.4359 93.5832 69.5268 93.5887C69.4344 93.583 69.3431 93.5774 69.252 93.5719Z" fill="black"/>
<path fill-rule="evenodd" clip-rule="evenodd" d="M6.18311 19.7885C6.32106 19.792 6.45901 19.7957 6.59532 19.7994C6.45668 19.7957 6.31989 19.792 6.18311 19.7885Z" fill="black"/>
<path fill-rule="evenodd" clip-rule="evenodd" d="M25.9694 6.53345C25.648 6.534 25.327 6.53455 25.0076 6.5351C25.3296 6.53455 25.6495 6.534 25.9694 6.53345Z" fill="black"/>
<path fill-rule="evenodd" clip-rule="evenodd" d="M90.8867 34.8397C90.8908 35.0691 90.8954 35.2984 90.8999 35.5267C90.8958 35.2973 90.8917 35.0684 90.8867 34.8397Z" fill="black"/>
<path fill-rule="evenodd" clip-rule="evenodd" d="M74.0611 84.035C73.8772 84.0323 73.6938 84.0293 73.5115 84.0262C73.6956 84.0287 73.8783 84.032 74.0611 84.035Z" fill="black"/>
<path fill-rule="evenodd" clip-rule="evenodd" d="M93.5725 11.2327C93.8473 11.2022 94.122 11.1717 94.3969 11.1412C94.1331 11.3745 93.8483 11.2193 93.5725 11.2327Z" fill="black"/>
<path fill-rule="evenodd" clip-rule="evenodd" d="M72.5497 84.1069C72.4118 84.1017 72.2742 84.0966 72.1375 84.0917C72.2758 84.0969 72.4127 84.1018 72.5497 84.1069Z" fill="black"/>
<path fill-rule="evenodd" clip-rule="evenodd" d="M67.7988 86.5039C67.8057 86.7334 67.8127 86.9626 67.8197 87.1909C67.813 86.9611 67.8058 86.7325 67.7988 86.5039Z" fill="black"/>
<path fill-rule="evenodd" clip-rule="evenodd" d="M88.7634 19.67C88.9467 19.653 89.1299 19.6359 89.313 19.619C89.1458 19.7479 88.9495 19.6725 88.7634 19.67Z" fill="black"/>
<path fill-rule="evenodd" clip-rule="evenodd" d="M57.2979 20.0693C57.5265 19.8745 57.7555 19.8957 57.9849 20.0671C57.7558 20.0677 57.5269 20.0685 57.2979 20.0693Z" fill="black"/>
<path fill-rule="evenodd" clip-rule="evenodd" d="M48.7 27.0077C48.7065 26.9161 48.713 26.8244 48.72 26.7329C48.7137 26.8247 48.7068 26.9162 48.7 27.0077Z" fill="black"/>
<path fill-rule="evenodd" clip-rule="evenodd" d="M88.6919 24.397C88.6938 24.5805 88.6956 24.764 88.6977 24.9466C88.6959 24.7626 88.694 24.5799 88.6919 24.397Z" fill="black"/>
<path fill-rule="evenodd" clip-rule="evenodd" d="M28.0695 53.1189C28.371 53.2211 28.9774 53.5299 29.3287 53.4889C29.61 53.4561 29.8418 53.1142 30.113 53.1146C30.8433 53.1156 30.7078 53.9598 30.355 54.413C29.4007 55.6389 27.2683 54.3096 28.0695 53.1189Z" fill="black"/>
<path fill-rule="evenodd" clip-rule="evenodd" d="M31.0503 48.7177C32.0462 48.9747 31.5502 51.1654 30.713 51.316C29.7272 51.4935 29.5555 49.7122 29.7502 49.0683C30.2575 49.3698 29.9434 50.4451 30.5827 50.1479C30.9893 49.9587 30.9275 49.084 31.0503 48.7177Z" fill="black"/>
</svg>
