<svg width="80" height="80" viewBox="0 0 80 80" fill="none" xmlns="http://www.w3.org/2000/svg">
<rect width="80" height="80" fill="white"/>
<path d="M39.9309 28.5178C40.5923 27.4378 41.6896 26.3078 42.8713 25.8299C44.9051 24.9045 47.6312 25.3025 49.2906 26.7668C50.8963 28.2215 51.7109 30.2154 51.3266 32.4445C51.7204 32.3719 52.118 32.1197 52.5349 31.9763C55.0275 31.2727 57.6637 32.0356 59.262 34.1728C60.4624 35.6984 60.7761 38.0687 60.0555 39.9117C59.698 40.8387 59.088 41.6722 58.295 42.3835L58.375 42.4638C60.694 42.5764 62.973 44.3773 63.6763 46.5853C64.439 48.8125 63.7681 51.1924 62.1394 52.8213C60.8088 54.1366 59.0977 54.5917 57.1957 54.5534H22.6646C19.8294 54.6145 17.6386 53.3584 16.4591 50.8372C15.5337 48.6729 15.9907 45.9049 17.7188 44.2552C18.8084 43.1157 20.1735 42.6491 21.6455 42.4141C19.9786 40.8675 19.1755 38.7514 19.6439 36.4821C19.9786 34.6432 21.5461 32.7811 23.3468 32.1388C24.9334 31.5079 27.0824 31.6187 28.5354 32.475L28.587 32.4119C28.1493 29.9094 29.2581 27.6518 31.3339 26.2677C33.1846 25.0157 36.1439 25.048 37.956 26.3789C38.7706 26.8776 39.4415 27.7341 39.9309 28.5178Z" fill="white"/>
<path d="M49.707 29.4529C50.449 30.9498 50.0132 32.9112 49.2388 34.2551L43.2476 47.7345L43.1957 47.7976L41.0301 34.1233C40.8563 32.8102 42.2592 32.25 43.0851 31.6191C43.0431 31.4261 42.8308 31.4356 42.6972 31.3458L40.6728 31.3246L40.6113 31.2634C40.6228 29.5659 41.5367 27.9983 43.0851 27.1744C44.7027 26.2397 46.9811 26.4938 48.3843 27.6925C48.954 28.2008 49.4339 28.7913 49.707 29.4529Z" fill="#645FAA"/>
<path d="M38.6682 28.9841C39.1578 29.8903 39.4408 30.9189 39.2686 32.0581L36.8255 47.715C36.8388 47.734 36.816 47.7551 36.7966 47.7645L36.1639 46.5048L30.0407 32.8305C29.471 31.0698 29.9988 29.2289 31.2814 27.9669C32.5736 26.6556 34.6995 26.3 36.3895 27.0112C37.2843 27.3975 38.1388 28.1088 38.6682 28.9841Z" fill="#C9234A"/>
<path d="M58.5693 35.5758C59.3931 36.9807 59.2079 39.1067 58.2918 40.4105C57.7244 41.3262 56.7874 41.7831 55.994 42.3834L43.3064 51.0928H43.2773L43.419 50.6762L50.1445 35.4956C51.152 33.7062 53.0752 32.8001 55.1092 33.0734C56.5028 33.3278 57.8964 34.2338 58.5693 35.5758Z" fill="#0089CF"/>
<path d="M29.7478 35.4958L36.7465 51.0913H36.6339L22.5238 41.3665C21.0879 40.1565 20.4993 38.3442 20.9867 36.5128C21.3519 35.1402 22.4912 33.8576 23.8466 33.3488C26.0659 32.5364 28.5662 33.4004 29.7478 35.4958Z" fill="#F36F21"/>
<path d="M62.2508 46.5851C62.9541 48.0705 62.6771 50.1046 61.6715 51.368C60.6739 52.5783 59.3393 53.2397 57.7735 53.1976L42.7285 53.2072L55.332 44.4385C56.5635 43.6451 58.4351 43.5014 59.779 44.1438C60.8168 44.5511 61.7938 45.5681 62.2508 46.5851Z" fill="#0DB14B"/>
<path d="M17.6986 46.5851C16.9972 48.0705 17.2723 50.1046 18.2798 51.368C19.2776 52.5783 20.6081 53.2397 22.1759 53.1976L37.2209 53.2072L24.6172 44.4385C23.386 43.6451 21.5147 43.5014 20.1725 44.1438C19.1342 44.5511 18.1575 45.5681 17.6986 46.5851Z" fill="#FDB913"/>
</svg>
