<svg width="80" height="80" viewBox="0 0 80 80" fill="none" xmlns="http://www.w3.org/2000/svg">
<rect x="0.5" y="0.5" width="79" height="79" fill="white"/>
<rect x="0.5" y="0.5" width="79" height="79" stroke="#DDDDDD"/>
<path d="M16.2761 35.8707C15.2776 38.9912 17.7428 42.8295 22.5172 46.3245C18.9598 43.2352 17.2123 40.021 18.1173 37.3373C19.9584 31.7203 32.4718 30.2537 46.0774 34.4352C49.8221 35.5898 53.2547 36.5884 56.2505 38.1799C52.8803 36.1827 48.7923 34.5288 44.2675 33.1246C30.6307 28.943 18.1173 30.2537 16.2761 35.8707Z" fill="#06357A"/>
<path d="M31.4116 49.0079C26.4187 46.1682 23.5478 42.5172 24.3279 39.5214C24.8896 37.4307 27.1676 35.9328 30.4442 35.3711C26.2938 35.7144 23.0797 37.3058 22.4244 39.7399C21.613 42.8916 24.7336 46.6675 30.1009 49.6008L31.4116 49.0079Z" fill="#00929F"/>
<path d="M30.9117 41.5187C31.7855 38.8662 36.7784 37.93 44.2053 40.2704C47.5443 41.3314 50.4152 42.7981 52.2251 44.3896C50.4152 43.0477 47.9188 41.8307 45.0479 40.957C38.5883 38.991 32.6281 39.5215 31.7543 42.2052C31.3486 43.4846 32.16 45.0137 33.8451 46.4804C31.6295 44.7952 30.4437 42.9853 30.9117 41.5187Z" fill="#F15D22"/>
<path d="M47.1391 46.7925C46.4837 48.4152 43.0199 48.0407 40.0554 47.0109C38.5263 46.4804 37.2469 45.7315 36.4355 44.9826C37.2469 45.6379 38.6199 46.1684 39.7121 46.5116C42.6767 47.479 45.6412 47.1669 46.0781 46.262C46.9206 44.5145 44.1745 43.4535 42.6767 43.0166C43.8937 43.2662 44.4554 43.5471 45.2979 43.9216C47.0766 44.9513 47.4823 46.0123 47.1391 46.7925Z" fill="#FFD200"/>
<path d="M63.9904 47.8224C61.4003 43.7657 55.9705 39.4593 48.1379 36.8381C41.3039 34.5289 33.4713 33.343 28.416 33.6863C33.2529 33.8423 38.6202 34.6225 45.2046 36.682C53.5053 39.2721 59.2159 43.7345 61.8372 47.916C61.8372 47.916 62.3365 47.8848 62.8045 47.8536C63.5223 47.76 63.9904 47.8224 63.9904 47.8224Z" fill="#C1D82F"/>
</svg>
