<svg width="80" height="80" viewBox="0 0 80 80" fill="none" xmlns="http://www.w3.org/2000/svg">
<g filter="url(#filter0_d_619_11625)">
<circle cx="40" cy="36" r="24" fill="white"/>
</g>
<path d="M34 41.3847V30H46V39.3333H36.0513L34 41.3847ZM40 37.6153C40.1164 37.6153 40.2138 37.576 40.292 37.4973C40.3707 37.4187 40.41 37.3213 40.41 37.2053C40.41 37.0889 40.3707 36.9913 40.292 36.9127C40.2138 36.834 40.1164 36.7947 40 36.7947C39.8836 36.7947 39.7862 36.834 39.708 36.9127C39.6293 36.9913 39.59 37.0889 39.59 37.2053C39.59 37.3213 39.6293 37.4187 39.708 37.4973C39.7862 37.576 39.8836 37.6153 40 37.6153ZM39.6667 35.6413H40.3333V31.59H39.6667V35.6413Z" fill="#223645"/>
<defs>
<filter id="filter0_d_619_11625" x="0" y="0" width="80" height="80" filterUnits="userSpaceOnUse" color-interpolation-filters="sRGB">
<feFlood flood-opacity="0" result="BackgroundImageFix"/>
<feColorMatrix in="SourceAlpha" type="matrix" values="0 0 0 0 0 0 0 0 0 0 0 0 0 0 0 0 0 0 127 0" result="hardAlpha"/>
<feOffset dy="4"/>
<feGaussianBlur stdDeviation="8"/>
<feComposite in2="hardAlpha" operator="out"/>
<feColorMatrix type="matrix" values="0 0 0 0 0.133333 0 0 0 0 0.211765 0 0 0 0 0.270588 0 0 0 0.13 0"/>
<feBlend mode="normal" in2="BackgroundImageFix" result="effect1_dropShadow_619_11625"/>
<feBlend mode="normal" in="SourceGraphic" in2="effect1_dropShadow_619_11625" result="shape"/>
</filter>
</defs>
</svg>
