<svg width="80" height="80" viewBox="0 0 80 80" fill="none" xmlns="http://www.w3.org/2000/svg">
<g filter="url(#filter0_d_619_11613)">
<circle cx="40" cy="36" r="24" fill="white"/>
</g>
<path fill-rule="evenodd" clip-rule="evenodd" d="M43.25 29C43.4489 29 43.6397 29.079 43.7803 29.2197C43.921 29.3603 44 29.5511 44 29.75V31H46C46.2652 31 46.5196 31.1054 46.7071 31.2929C46.8946 31.4804 47 31.7348 47 32V42C47 42.2652 46.8946 42.5196 46.7071 42.7071C46.5196 42.8946 46.2652 43 46 43H34C33.7348 43 33.4804 42.8946 33.2929 42.7071C33.1054 42.5196 33 42.2652 33 42V32C33 31.7348 33.1054 31.4804 33.2929 31.2929C33.4804 31.1054 33.7348 31 34 31H36V29.75C36 29.5511 36.079 29.3603 36.2197 29.2197C36.3603 29.079 36.5511 29 36.75 29C36.9489 29 37.1397 29.079 37.2803 29.2197C37.421 29.3603 37.5 29.5511 37.5 29.75V31H42.5V29.75C42.5 29.5511 42.579 29.3603 42.7197 29.2197C42.8603 29.079 43.0511 29 43.25 29ZM34.5 35.5V41.5H45.5V35.5H34.5ZM34.5 34H45.5V32.5H34.5V34ZM42.28 36.97C42.4205 37.1106 42.4993 37.3012 42.4993 37.5C42.4993 37.6988 42.4205 37.8894 42.28 38.03L40.03 40.28C39.8894 40.4205 39.6988 40.4993 39.5 40.4993C39.3012 40.4993 39.1106 40.4205 38.97 40.28L37.72 39.03C37.6463 38.9613 37.5872 38.8785 37.5462 38.7865C37.5052 38.6945 37.4832 38.5952 37.4814 38.4945C37.4796 38.3938 37.4982 38.2938 37.5359 38.2004C37.5736 38.107 37.6297 38.0222 37.701 37.951C37.7722 37.8797 37.857 37.8236 37.9504 37.7859C38.0438 37.7482 38.1438 37.7296 38.2445 37.7314C38.3452 37.7332 38.4445 37.7552 38.5365 37.7962C38.6285 37.8372 38.7113 37.8963 38.78 37.97L39.5 38.69L41.22 36.97C41.3606 36.8295 41.5512 36.7507 41.75 36.7507C41.9488 36.7507 42.1394 36.8295 42.28 36.97Z" fill="#223645"/>
<defs>
<filter id="filter0_d_619_11613" x="0" y="0" width="80" height="80" filterUnits="userSpaceOnUse" color-interpolation-filters="sRGB">
<feFlood flood-opacity="0" result="BackgroundImageFix"/>
<feColorMatrix in="SourceAlpha" type="matrix" values="0 0 0 0 0 0 0 0 0 0 0 0 0 0 0 0 0 0 127 0" result="hardAlpha"/>
<feOffset dy="4"/>
<feGaussianBlur stdDeviation="8"/>
<feComposite in2="hardAlpha" operator="out"/>
<feColorMatrix type="matrix" values="0 0 0 0 0.133333 0 0 0 0 0.211765 0 0 0 0 0.270588 0 0 0 0.13 0"/>
<feBlend mode="normal" in2="BackgroundImageFix" result="effect1_dropShadow_619_11613"/>
<feBlend mode="normal" in="SourceGraphic" in2="effect1_dropShadow_619_11613" result="shape"/>
</filter>
</defs>
</svg>
