<svg width="164" height="47" viewBox="0 0 164 47" fill="none" xmlns="http://www.w3.org/2000/svg">
<g filter="url(#filter0_d_502_4965)">
<rect x="24.2695" width="27.6782" height="30.2478" rx="5" transform="rotate(47.4138 24.2695 0)" fill="#FF6AC2"/>
<path d="M26 5C36 15.1667 44 35 7 23.5" stroke="white" stroke-width="2" stroke-linecap="round"/>
</g>
<path d="M59.9858 16.5653C59.9176 15.8778 59.625 15.3437 59.108 14.9631C58.5909 14.5824 57.8892 14.392 57.0028 14.392C56.4006 14.392 55.892 14.4773 55.4773 14.6477C55.0625 14.8125 54.7443 15.0426 54.5227 15.3381C54.3068 15.6335 54.1989 15.9688 54.1989 16.3438C54.1875 16.6562 54.2528 16.929 54.3949 17.1619C54.5426 17.3949 54.7443 17.5966 55 17.767C55.2557 17.9318 55.5511 18.0767 55.8864 18.2017C56.2216 18.321 56.5795 18.4233 56.9602 18.5085L58.5284 18.8835C59.2898 19.054 59.9886 19.2812 60.625 19.5653C61.2614 19.8494 61.8125 20.1989 62.2784 20.6136C62.7443 21.0284 63.1051 21.517 63.3608 22.0795C63.6222 22.642 63.7557 23.2869 63.7614 24.0142C63.7557 25.0824 63.483 26.0085 62.9432 26.7926C62.4091 27.571 61.6364 28.1761 60.625 28.608C59.6193 29.0341 58.4063 29.2472 56.9858 29.2472C55.5767 29.2472 54.3494 29.0312 53.304 28.5994C52.2642 28.1676 51.4517 27.5284 50.8665 26.6818C50.2869 25.8295 49.983 24.7756 49.9545 23.5199H53.5256C53.5653 24.1051 53.733 24.5937 54.0284 24.9858C54.3295 25.3722 54.7301 25.6648 55.2301 25.8636C55.7358 26.0568 56.3068 26.1534 56.9432 26.1534C57.5682 26.1534 58.1108 26.0625 58.571 25.8807C59.0369 25.6989 59.3977 25.446 59.6534 25.1222C59.9091 24.7983 60.0369 24.4261 60.0369 24.0057C60.0369 23.6136 59.9205 23.2841 59.6875 23.017C59.4602 22.75 59.125 22.5227 58.6818 22.3352C58.2443 22.1477 57.7074 21.9773 57.071 21.8239L55.1705 21.3466C53.6989 20.9886 52.5369 20.429 51.6847 19.6676C50.8324 18.9062 50.4091 17.8807 50.4148 16.5909C50.4091 15.5341 50.6903 14.6108 51.2585 13.821C51.8324 13.0312 52.6193 12.4148 53.6193 11.9716C54.6193 11.5284 55.7557 11.3068 57.0284 11.3068C58.3239 11.3068 59.4545 11.5284 60.4205 11.9716C61.392 12.4148 62.1477 13.0312 62.6875 13.821C63.2273 14.6108 63.5057 15.5256 63.5227 16.5653H59.9858ZM69.9084 29.2472C69.0732 29.2472 68.3288 29.1023 67.6754 28.8125C67.022 28.517 66.505 28.0824 66.1243 27.5085C65.7493 26.929 65.5618 26.2074 65.5618 25.3438C65.5618 24.6165 65.6953 24.0057 65.9624 23.5114C66.2294 23.017 66.593 22.6193 67.0533 22.3182C67.5135 22.017 68.0362 21.7898 68.6214 21.6364C69.2124 21.483 69.8317 21.375 70.4794 21.3125C71.2408 21.233 71.8544 21.1591 72.3203 21.0909C72.7862 21.017 73.1243 20.9091 73.3345 20.767C73.5447 20.625 73.6499 20.4148 73.6499 20.1364V20.0852C73.6499 19.5455 73.4794 19.1278 73.1385 18.8324C72.8033 18.5369 72.326 18.3892 71.7067 18.3892C71.0533 18.3892 70.5334 18.5341 70.147 18.8239C69.7607 19.108 69.505 19.4659 69.38 19.8977L66.022 19.625C66.1925 18.8295 66.5277 18.142 67.0277 17.5625C67.5277 16.9773 68.1726 16.5284 68.9624 16.2159C69.7578 15.8977 70.6783 15.7386 71.7237 15.7386C72.451 15.7386 73.147 15.8239 73.8118 15.9943C74.4822 16.1648 75.076 16.429 75.593 16.7869C76.1158 17.1449 76.5277 17.6051 76.8288 18.1676C77.13 18.7244 77.2805 19.392 77.2805 20.1705V29H73.8374V27.1847H73.7351C73.5249 27.5938 73.2436 27.9545 72.8913 28.267C72.5391 28.5739 72.1158 28.8153 71.6214 28.9915C71.1271 29.1619 70.5561 29.2472 69.9084 29.2472ZM70.9482 26.7415C71.4822 26.7415 71.9538 26.6364 72.3629 26.4261C72.772 26.2102 73.093 25.9205 73.326 25.5568C73.5589 25.1932 73.6754 24.7812 73.6754 24.321V22.9318C73.5618 23.0057 73.4055 23.0739 73.2067 23.1364C73.0135 23.1932 72.7947 23.2472 72.5504 23.2983C72.3061 23.3437 72.0618 23.3864 71.8175 23.4261C71.5732 23.4602 71.3516 23.4915 71.1527 23.5199C70.7266 23.5824 70.3544 23.6818 70.0362 23.8182C69.718 23.9545 69.4709 24.1392 69.2947 24.3722C69.1186 24.5994 69.0305 24.8835 69.0305 25.2244C69.0305 25.7188 69.2095 26.0966 69.5675 26.358C69.9311 26.6136 70.3913 26.7415 70.9482 26.7415ZM90.9893 19.642L87.6655 19.8466C87.6087 19.5625 87.4865 19.3068 87.299 19.0795C87.1115 18.8466 86.8643 18.6619 86.5575 18.5256C86.2564 18.3835 85.8956 18.3125 85.4751 18.3125C84.9126 18.3125 84.4382 18.4318 84.0518 18.6705C83.6655 18.9034 83.4723 19.2159 83.4723 19.608C83.4723 19.9205 83.5973 20.1847 83.8473 20.4006C84.0973 20.6165 84.5263 20.7898 85.1342 20.9205L87.5036 21.3977C88.7763 21.6591 89.7251 22.0795 90.3501 22.6591C90.9751 23.2386 91.2876 24 91.2876 24.9432C91.2876 25.8011 91.0348 26.554 90.5291 27.2017C90.0291 27.8494 89.3416 28.3551 88.4666 28.7188C87.5973 29.0767 86.5945 29.2557 85.4581 29.2557C83.7251 29.2557 82.3445 28.8949 81.3161 28.1733C80.2933 27.446 79.6939 26.4574 79.5178 25.2074L83.0888 25.0199C83.1967 25.5483 83.4581 25.9517 83.8729 26.2301C84.2876 26.5028 84.8189 26.6392 85.4666 26.6392C86.103 26.6392 86.6143 26.517 87.0007 26.2727C87.3928 26.0227 87.5916 25.7017 87.5973 25.3097C87.5916 24.9801 87.4524 24.7102 87.1797 24.5C86.907 24.2841 86.4865 24.1193 85.9183 24.0057L83.6513 23.554C82.3729 23.2983 81.4212 22.8551 80.7962 22.2244C80.1768 21.5937 79.8672 20.7898 79.8672 19.8125C79.8672 18.9716 80.0945 18.2472 80.549 17.6392C81.0092 17.0312 81.6541 16.5625 82.4837 16.233C83.3189 15.9034 84.2962 15.7386 85.4155 15.7386C87.0689 15.7386 88.37 16.0881 89.3189 16.7869C90.2734 17.4858 90.8303 18.4375 90.9893 19.642ZM104.466 19.642L101.142 19.8466C101.085 19.5625 100.963 19.3068 100.776 19.0795C100.588 18.8466 100.341 18.6619 100.034 18.5256C99.733 18.3835 99.3722 18.3125 98.9517 18.3125C98.3892 18.3125 97.9148 18.4318 97.5284 18.6705C97.142 18.9034 96.9489 19.2159 96.9489 19.608C96.9489 19.9205 97.0739 20.1847 97.3239 20.4006C97.5739 20.6165 98.0028 20.7898 98.6108 20.9205L100.98 21.3977C102.253 21.6591 103.202 22.0795 103.827 22.6591C104.452 23.2386 104.764 24 104.764 24.9432C104.764 25.8011 104.511 26.554 104.006 27.2017C103.506 27.8494 102.818 28.3551 101.943 28.7188C101.074 29.0767 100.071 29.2557 98.9347 29.2557C97.2017 29.2557 95.821 28.8949 94.7926 28.1733C93.7699 27.446 93.1705 26.4574 92.9943 25.2074L96.5653 25.0199C96.6733 25.5483 96.9347 25.9517 97.3494 26.2301C97.7642 26.5028 98.2955 26.6392 98.9432 26.6392C99.5795 26.6392 100.091 26.517 100.477 26.2727C100.869 26.0227 101.068 25.7017 101.074 25.3097C101.068 24.9801 100.929 24.7102 100.656 24.5C100.384 24.2841 99.9631 24.1193 99.3949 24.0057L97.1278 23.554C95.8494 23.2983 94.8977 22.8551 94.2727 22.2244C93.6534 21.5937 93.3438 20.7898 93.3438 19.8125C93.3438 18.9716 93.571 18.2472 94.0256 17.6392C94.4858 17.0312 95.1307 16.5625 95.9602 16.233C96.7955 15.9034 97.7727 15.7386 98.892 15.7386C100.545 15.7386 101.847 16.0881 102.795 16.7869C103.75 17.4858 104.307 18.4375 104.466 19.642ZM107.119 29V11.5455H110.809V25.9574H118.292V29H107.119ZM124.401 29.2472C123.565 29.2472 122.821 29.1023 122.168 28.8125C121.514 28.517 120.997 28.0824 120.616 27.5085C120.241 26.929 120.054 26.2074 120.054 25.3438C120.054 24.6165 120.188 24.0057 120.455 23.5114C120.722 23.017 121.085 22.6193 121.545 22.3182C122.006 22.017 122.528 21.7898 123.114 21.6364C123.705 21.483 124.324 21.375 124.972 21.3125C125.733 21.233 126.347 21.1591 126.812 21.0909C127.278 21.017 127.616 20.9091 127.827 20.767C128.037 20.625 128.142 20.4148 128.142 20.1364V20.0852C128.142 19.5455 127.972 19.1278 127.631 18.8324C127.295 18.5369 126.818 18.3892 126.199 18.3892C125.545 18.3892 125.026 18.5341 124.639 18.8239C124.253 19.108 123.997 19.4659 123.872 19.8977L120.514 19.625C120.685 18.8295 121.02 18.142 121.52 17.5625C122.02 16.9773 122.665 16.5284 123.455 16.2159C124.25 15.8977 125.17 15.7386 126.216 15.7386C126.943 15.7386 127.639 15.8239 128.304 15.9943C128.974 16.1648 129.568 16.429 130.085 16.7869C130.608 17.1449 131.02 17.6051 131.321 18.1676C131.622 18.7244 131.773 19.392 131.773 20.1705V29H128.33V27.1847H128.227C128.017 27.5938 127.736 27.9545 127.384 28.267C127.031 28.5739 126.608 28.8153 126.114 28.9915C125.619 29.1619 125.048 29.2472 124.401 29.2472ZM125.44 26.7415C125.974 26.7415 126.446 26.6364 126.855 26.4261C127.264 26.2102 127.585 25.9205 127.818 25.5568C128.051 25.1932 128.168 24.7812 128.168 24.321V22.9318C128.054 23.0057 127.898 23.0739 127.699 23.1364C127.506 23.1932 127.287 23.2472 127.043 23.2983C126.798 23.3437 126.554 23.3864 126.31 23.4261C126.065 23.4602 125.844 23.4915 125.645 23.5199C125.219 23.5824 124.847 23.6818 124.528 23.8182C124.21 23.9545 123.963 24.1392 123.787 24.3722C123.611 24.5994 123.523 24.8835 123.523 25.2244C123.523 25.7188 123.702 26.0966 124.06 26.358C124.423 26.6136 124.884 26.7415 125.44 26.7415ZM138.22 21.4318V29H134.589V15.9091H138.05V18.2188H138.203C138.493 17.4574 138.979 16.8551 139.661 16.4119C140.342 15.9631 141.169 15.7386 142.141 15.7386C143.05 15.7386 143.842 15.9375 144.518 16.3352C145.195 16.733 145.72 17.3011 146.095 18.0398C146.47 18.7727 146.658 19.6477 146.658 20.6648V29H143.027V21.3125C143.033 20.5114 142.828 19.8864 142.413 19.4375C141.999 18.983 141.428 18.7557 140.7 18.7557C140.212 18.7557 139.78 18.8608 139.405 19.071C139.036 19.2812 138.746 19.5881 138.536 19.9915C138.331 20.3892 138.226 20.8693 138.22 21.4318ZM154.343 29.2131C153.349 29.2131 152.448 28.9574 151.641 28.446C150.84 27.929 150.204 27.1705 149.732 26.1705C149.266 25.1648 149.033 23.9318 149.033 22.4716C149.033 20.9716 149.275 19.7244 149.758 18.7301C150.241 17.7301 150.883 16.983 151.684 16.4886C152.491 15.9886 153.374 15.7386 154.335 15.7386C155.067 15.7386 155.678 15.8636 156.167 16.1136C156.661 16.358 157.059 16.6648 157.36 17.0341C157.667 17.3977 157.9 17.7557 158.059 18.108H158.17V11.5455H161.792V29H158.212V26.9034H158.059C157.888 27.267 157.647 27.6278 157.335 27.9858C157.028 28.3381 156.627 28.6307 156.133 28.8636C155.644 29.0966 155.048 29.2131 154.343 29.2131ZM155.494 26.3239C156.079 26.3239 156.573 26.1648 156.977 25.8466C157.386 25.5227 157.698 25.071 157.914 24.4915C158.136 23.9119 158.246 23.233 158.246 22.4545C158.246 21.6761 158.138 21 157.923 20.4261C157.707 19.8523 157.394 19.4091 156.985 19.0966C156.576 18.7841 156.079 18.6278 155.494 18.6278C154.897 18.6278 154.394 18.7898 153.985 19.1136C153.576 19.4375 153.266 19.8864 153.056 20.4602C152.846 21.0341 152.741 21.6989 152.741 22.4545C152.741 23.2159 152.846 23.8892 153.056 24.4744C153.272 25.054 153.582 25.5085 153.985 25.8381C154.394 26.1619 154.897 26.3239 155.494 26.3239Z" fill="#262729"/>
<defs>
<filter id="filter0_d_502_4965" x="0.0644531" y="2.06445" width="44.8691" height="44.7178" filterUnits="userSpaceOnUse" color-interpolation-filters="sRGB">
<feFlood flood-opacity="0" result="BackgroundImageFix"/>
<feColorMatrix in="SourceAlpha" type="matrix" values="0 0 0 0 0 0 0 0 0 0 0 0 0 0 0 0 0 0 127 0" result="hardAlpha"/>
<feOffset dy="4"/>
<feGaussianBlur stdDeviation="2"/>
<feComposite in2="hardAlpha" operator="out"/>
<feColorMatrix type="matrix" values="0 0 0 0 0 0 0 0 0 0 0 0 0 0 0 0 0 0 0.25 0"/>
<feBlend mode="normal" in2="BackgroundImageFix" result="effect1_dropShadow_502_4965"/>
<feBlend mode="normal" in="SourceGraphic" in2="effect1_dropShadow_502_4965" result="shape"/>
</filter>
</defs>
</svg>
