<svg width="64" height="64" viewBox="0 0 64 64" fill="none" xmlns="http://www.w3.org/2000/svg">
<path fill-rule="evenodd" clip-rule="evenodd" d="M30.0235 25.1205C29.8235 24.9893 29.6236 24.8582 29.4247 24.7261C28.5855 25.2651 27.7489 25.8067 26.9123 26.3482C25.3384 27.367 23.7645 28.3858 22.174 29.388C21.6002 27.649 20.3633 26.2525 18.6187 25.709C17.3879 25.3255 15.8614 25.3756 14.2829 25.4273C13.3311 25.4585 12.3604 25.4904 11.4242 25.4282V37.1391C12.3826 37.0945 13.3348 37.1216 14.2574 37.1478C15.2512 37.1761 16.2108 37.2034 17.107 37.1391C19.8782 36.9398 21.553 35.253 22.2581 33.0107C23.4455 33.7876 24.6128 34.5847 25.7802 35.3817C27.006 36.2186 28.2317 37.0556 29.4807 37.8692C30.2832 37.3555 31.091 36.8294 31.8998 36.3027C33.4506 35.2926 35.0054 34.28 36.5352 33.3476V37.1391H44.4578V33.4038C43.9891 33.3968 43.5096 33.4005 43.0301 33.4043C42.2493 33.4104 41.4685 33.4165 40.7344 33.376V25.4282H36.5352V29.4162C36.0156 29.7485 35.4974 30.0822 34.9791 30.4159C33.5934 31.3081 32.2077 32.2003 30.7964 33.0669C30.6858 32.9946 30.5706 32.9271 30.4554 32.8595C30.2527 32.7406 30.0499 32.6217 29.8727 32.4771C30.6666 31.9624 31.4522 31.4393 32.2379 30.9162C33.3087 30.2032 34.3796 29.4902 35.4716 28.7982C34.6896 28.2066 33.8554 27.6674 33.008 27.1412C31.2647 28.2604 29.5147 29.3725 27.7646 30.4847C27.6181 30.5778 27.4716 30.6709 27.3251 30.764C27.1823 30.6544 27.0296 30.5547 26.877 30.4549C26.7245 30.3553 26.5721 30.2557 26.4294 30.1462C27.2113 29.6464 27.9887 29.1419 28.7661 28.6374C29.8585 27.9285 30.951 27.2196 32.0562 26.5234C31.4066 26.0276 30.715 25.574 30.0235 25.1205ZM15.4273 33.4039V29.1914C15.4249 29.1516 15.4228 29.1119 15.4552 29.1071C16.6675 29.0293 17.5412 29.1549 18.0587 29.753C18.8341 30.6496 18.6571 32.3322 17.7787 33.0109C17.2463 33.4224 16.5752 33.4154 15.7148 33.4064C15.6213 33.4054 15.5254 33.4044 15.4273 33.4039Z" fill="#0083CA"/>
<path d="M49.7485 25.4282H45.5494C45.5168 25.4329 45.5189 25.4723 45.5211 25.512L45.5211 37.1392H53.4437V33.4039H49.7485V25.4282Z" fill="#0083CA"/>
<path fill-rule="evenodd" clip-rule="evenodd" d="M32.8677 4H31.132C22.7455 4.46318 16.6638 7.70218 12.2079 12.1726C7.77247 16.6223 4.4556 22.6285 4.0335 31.1014C4.0382 31.1341 4.02746 31.1514 4.00549 31.1576V32.8426C4.44631 41.3479 7.74519 47.2922 12.2078 51.7993C16.6704 56.3067 22.6908 59.5213 31.132 59.9999H32.8396C41.4489 59.575 47.1523 56.2353 51.7919 51.8275C56.2085 47.1871 59.5656 41.4839 59.9942 32.8426V31.1576C59.5534 22.6522 56.2546 16.7078 51.7919 12.2007C47.3293 7.69358 41.3099 4.47759 32.8677 4ZM21.1381 9.70106C22.4901 9.03033 23.9818 8.46289 25.6451 8.01605C27.321 7.56583 29.1575 7.32267 31.1044 7.22967C35.0645 7.04053 38.7621 7.92221 41.6024 9.11134C44.5297 10.3369 47.0139 12.0326 49.0769 14.026C53.2461 18.0548 56.4054 23.3378 56.7752 31.1293C56.9706 35.2424 56.0668 38.6377 54.8716 41.5768C52.5083 47.3869 48.2443 51.5978 42.8338 54.327C40.0732 55.7195 36.7411 56.5866 32.8958 56.7703C28.8869 56.9619 25.3269 56.1072 22.4539 54.8888C16.644 52.4248 12.4458 48.3707 9.68831 42.8686C8.29199 40.082 7.40806 36.813 7.22495 32.9267C6.93454 26.7625 8.93994 22.0615 11.256 18.4072C13.629 14.6633 17.0227 11.7426 21.1381 9.70106Z" fill="#0083CA"/>
</svg>
