<svg width="126" height="100" viewBox="0 0 126 100" fill="none" xmlns="http://www.w3.org/2000/svg">
<path fill-rule="evenodd" clip-rule="evenodd" d="M77.1891 26.4129C78.7204 25.5532 79.6144 24.012 80.4993 22.4864C80.6324 22.2569 80.7652 22.0279 80.9 21.8016C80.9903 21.6501 81.0889 21.4938 81.1895 21.3346V21.3345C81.4551 20.9138 81.7341 20.4718 81.908 20.039C81.9842 19.8497 82.0501 19.5721 82.1165 19.2914C82.1949 18.9604 82.2743 18.6252 82.3727 18.4267C82.5878 17.9931 84.2206 17.7957 85.3326 17.6613C85.6998 17.6169 86.0104 17.5795 86.1942 17.5424C88.1487 17.1502 90.4848 16.915 92.0821 18.4452C92.4617 18.8088 92.8869 19.1443 93.3137 19.4808C93.8252 19.8842 94.3389 20.2893 94.7785 20.7466C95.4844 21.4811 96.4349 22.7165 96.7702 23.6977C95.0496 24.0293 92.1907 25.0451 91.5056 26.8507C88.9835 24.5356 87.9189 28.3916 87.3602 30.415C87.3262 30.5385 87.294 30.6552 87.2635 30.7632C85.8898 30.1688 85.9612 28.3601 86.0135 27.0357V27.0356C86.0209 26.85 86.0279 26.674 86.0304 26.5121C86.0341 26.272 86.0704 26.0219 86.1061 25.7778C86.2252 24.9597 86.3344 24.2108 85.1657 24.1448C84.0319 24.0811 82.9307 24.5428 81.908 24.9752C80.6321 25.5148 79.2935 26.3219 78.263 27.249L77.1891 26.4129ZM74.7109 22.8063C74.7107 22.8503 74.7101 22.8942 74.7097 22.938C74.7057 23.3281 74.7019 23.7169 74.8204 24.0929C74.8889 24.3103 74.8901 24.6281 74.8911 24.9333C74.8918 25.1545 74.8925 25.3692 74.9189 25.5342C73.8113 25.1971 71.7534 24.6969 70.6225 25.1517C69.5415 25.5863 69.4054 27.5965 69.3672 28.5742C69.3576 28.8213 69.3922 29.118 69.4282 29.4259C69.4892 29.9485 69.5539 30.5037 69.4129 30.9051C69.3041 31.2146 69.3076 31.3061 69.3149 31.3284C69.2961 31.3174 69.2113 31.3142 68.9005 31.5385C68.762 31.6383 68.6114 31.7177 68.4598 31.7975C68.2793 31.8925 68.0978 31.9882 67.9348 32.1196C67.5012 32.4693 67.3532 32.8563 67.1755 33.3205C67.1297 33.4403 67.0819 33.5653 67.0266 33.6961C66.7652 34.3156 66.0686 34.8662 65.2911 34.8437C65.39 34.6644 65.495 34.487 65.5997 34.3101C66.1565 33.3692 66.705 32.4424 66.2859 31.3224C65.9174 30.3374 66.5437 29.1848 67.0568 28.2409L67.0869 28.1856C67.1182 28.1277 67.2079 27.999 67.3281 27.8263C67.8634 27.0576 69.0054 25.4179 68.3173 25.2785C67.8282 25.1793 66.773 27.2216 66.3828 27.9767C66.3365 28.0664 66.2995 28.1381 66.2741 28.1856C65.604 27.7325 65.303 27.1741 65.8188 26.4917C66.0011 26.2503 66.2027 26.0252 66.4046 25.7994C66.6415 25.5349 66.8788 25.2697 67.0869 24.977C67.2703 24.7189 67.4524 24.446 67.637 24.1698C68.082 23.5032 68.541 22.8158 69.0665 22.2629C70.3725 20.8894 72.652 19.9543 74.5324 19.9459C74.4902 20.481 74.5514 20.9951 74.6132 21.5161C74.6632 21.9368 74.7137 22.3619 74.7109 22.8063ZM69.3194 31.3345C69.32 31.3336 69.319 31.3308 69.3149 31.3284C69.3167 31.334 69.3188 31.3352 69.3194 31.3345ZM80.0145 44.7518C80.3851 43.9732 80.7089 43.2927 80.9 42.9489C82.0557 40.8693 83.2002 38.8073 84.2837 36.6892C83.4244 37.0168 82.6967 37.5191 81.9593 38.0281C81.848 38.1048 81.7366 38.1816 81.6244 38.2581C81.236 38.523 80.8122 38.7621 80.3862 39.0024C79.7467 39.3634 79.1021 39.7272 78.5645 40.185C78.4428 40.2886 78.3443 40.4033 78.2503 40.5129C78.0358 40.7628 77.8454 40.9845 77.4583 40.9807C77.1937 40.9781 76.8189 40.7049 76.4839 40.4604C76.2888 40.3181 76.1071 40.1855 75.9684 40.122C75.6954 39.9971 75.4703 39.8335 75.2475 39.6717C74.9965 39.4894 74.7485 39.3094 74.4386 39.1893C74.2459 39.1145 74.0884 39.0896 73.9432 39.0666C73.6979 39.0277 73.488 38.9944 73.2035 38.7355C73.0202 39.8192 70.473 39.3088 68.8205 38.9776C68.2718 38.8676 67.8217 38.7775 67.5896 38.772C67.5013 38.77 67.4098 38.7673 67.3157 38.7645C66.4901 38.7405 65.4639 38.7107 64.7445 39.0196C64.1934 39.2561 63.5421 39.7905 62.977 40.2541C62.7587 40.4333 62.5534 40.6017 62.3717 40.7385C61.475 41.4126 60.8358 42.2721 60.1757 43.2053C59.3288 44.4026 60.5936 44.2871 61.5063 44.2038C61.5691 44.198 61.6304 44.1924 61.6892 44.1875C63.7693 44.0108 65.7905 44.3611 67.7958 44.8363C69.5866 45.2606 71.2156 45.9122 72.9301 46.6005C73.2477 46.7279 73.8249 47.0276 74.476 47.3656C75.8031 48.0544 77.4372 48.9028 77.8054 48.7772C78.1558 48.6575 79.1985 46.4665 80.0145 44.7518Z" fill="#E35C30"/>
<path fill-rule="evenodd" clip-rule="evenodd" d="M91.6368 31.2593C92.3587 31.2224 93.0776 31.3836 93.7995 31.3134C93.1726 30.7674 92.5459 30.2215 91.919 29.6756C91.6422 30.1619 91.6219 30.7151 91.6368 31.2593ZM74.508 20.0359C72.6393 20.0442 70.3598 20.9828 69.0617 22.3536C68.3739 23.0801 67.8055 24.0557 67.2237 24.8719C66.8337 25.4196 66.4527 25.9481 65.9791 26.4294C65.2885 27.1308 65.4863 27.2911 66.2643 27.8193C66.5106 27.3578 67.8163 24.8906 68.3635 25.0016C69.195 25.1704 67.5891 27.7764 67.4137 28.1011C66.8943 29.0617 66.0553 30.4034 66.4323 31.4165C66.9296 32.7538 66.2085 33.5159 65.5822 34.6555C66.2399 34.6745 66.3046 34.4181 66.5313 33.8572C66.8223 33.1364 67.1399 32.5342 67.7554 32.0359C68.232 31.6499 69.0117 31.4875 69.2356 31.0215C69.5126 30.4455 69.3388 29.3083 69.3612 28.6675C69.3952 27.6938 69.3978 25.3923 70.4706 24.9597C71.5947 24.5065 73.6158 24.9336 74.7146 25.2693C74.5774 24.4113 74.1447 23.851 74.1506 22.8975C74.157 21.8994 74.4318 21.009 74.508 20.0359ZM60.152 35.9585C61.1295 35.649 62.0562 35.3229 63.0619 35.1121C64.1143 34.8913 64.1847 34.6387 64.7779 33.7362C65.2277 33.052 65.7733 32.5187 65.6459 31.6809C65.5642 31.1434 65.27 30.8816 65.3584 30.2771C65.4133 29.9025 65.5882 29.4936 65.7144 29.1373C65.8694 28.7003 66.1903 28.2046 65.444 28.1831C65.0318 28.171 65.0116 28.3885 64.7327 28.7536C64.2179 29.428 63.6254 30.0404 63.0775 30.6873C62.1261 31.8104 61.1171 33.0054 60.0551 34.0449C58.8859 35.1887 57.8768 36.5682 57.121 38.0325C56.9814 38.3029 56.1328 39.8957 56.4949 40.208C56.8273 40.4949 58.6766 39.8259 59.0137 39.7477C60.4693 39.4098 62.1213 39.2892 63.4964 38.6756C64.197 38.3628 65.7431 37.9897 66.2965 37.5059C66.8108 37.0563 66.7877 35.9668 66.4892 35.333C65.6537 35.8528 59.6134 37.8138 60.152 35.9585ZM78.337 27.0199C79.3123 26.1388 80.4652 25.4321 81.6696 24.9084C82.7468 24.44 84.085 23.9178 85.2836 23.9991C86.7767 24.1003 86.1528 25.3031 86.1474 26.3273C86.1405 27.6865 85.5448 29.6443 87.1676 30.3495C87.6973 28.4676 88.8139 24.0176 91.4888 26.4834C92.1724 24.674 94.6106 24.0615 96.3275 23.7292C96.0163 22.815 95.071 21.9875 94.4159 21.3013C93.5963 20.443 92.9493 19.437 92.1282 18.5949C90.5062 16.9318 87.5676 17.4658 85.514 17.8805C84.8287 18.0187 82.8415 18.1923 82.5095 18.6958C82.3012 19.0115 82.4175 19.7828 82.2631 20.1689C82.0504 20.7007 81.687 21.1938 81.3955 21.685C80.3318 23.4775 79.2496 25.2817 77.4293 26.3081L78.337 27.0199ZM84.2896 36.6767C83.3265 37.0462 82.618 37.6642 81.7638 38.1845C80.7281 38.8155 79.5135 39.4064 78.584 40.1857C78.2439 40.4708 78.0528 40.9631 77.5834 40.9951C77.175 41.0229 76.5528 40.5485 76.1907 40.3827C75.5834 40.1038 75.0034 39.6814 74.3931 39.433C73.8915 39.2288 73.6694 39.2705 73.2355 38.8734C72.9921 40.3222 68.5638 38.968 67.6348 38.9459C66.7754 38.9254 65.5962 39.0273 64.7964 39.3727C64.0343 39.7019 63.4383 40.4262 62.7859 40.9197C61.8917 41.5965 61.0385 42.281 60.38 43.2178C59.4767 44.5023 60.8395 44.1388 61.7483 44.0612C63.8227 43.8838 65.8407 44.378 67.8405 44.8548C69.628 45.2809 71.3934 45.7921 73.1046 46.4832C74.0669 46.8719 75.0797 47.2292 75.9848 47.7344C76.462 48.0008 77.2359 48.653 77.7835 48.465C78.2855 48.2927 78.7859 46.8533 79.0903 46.2784C79.6815 45.1624 80.3035 44.0653 80.9139 42.9603C82.0669 40.8729 83.2088 38.803 84.2896 36.6767ZM72.4384 64.3033C73.0319 63.9625 73.9995 64.0543 74.6557 63.9114C75.3974 63.7501 76.1431 63.487 76.8502 63.2129C77.5664 62.9354 78.243 62.6514 78.8975 62.3041C79.1967 62.1453 79.5956 61.989 79.8721 61.7686C80.095 61.5909 80.1762 61.2609 80.3818 61.0999C80.9179 60.6794 81.0754 60.9432 81.1473 60.1322C81.2253 59.2512 80.731 58.7523 80.1157 58.0929C79.5648 57.5029 78.8492 56.9929 78.1571 56.5778C77.8509 56.3943 77.5238 56.1877 77.2114 56.0125C76.7386 55.7471 76.105 55.306 75.857 55.8755C76.3736 56.0074 76.4876 56.6672 76.0212 56.9043C75.7652 57.0345 75.3775 56.8432 75.0888 56.9816C74.6431 57.1954 74.2143 57.7916 73.8328 58.1127C72.5804 59.1671 71.3827 59.5625 69.7435 59.6472C66.3183 59.8238 62.7316 59.4331 59.3723 58.9255C58.5077 58.7947 57.6446 58.9363 56.772 58.9051C55.9229 58.8749 55.0376 58.6891 54.203 58.5457C52.5954 58.2695 50.9009 58.0422 49.3183 57.636C47.4043 57.1445 45.4836 56.5088 43.6866 55.6855C41.9629 54.8956 40.0146 53.5907 38.0784 53.4901C38.9047 54.299 40.1427 54.6107 41.1365 55.1435C41.9487 55.5787 43.2189 55.8582 43.7321 56.5755C44.0661 57.0423 44.2337 57.8998 44.4861 58.4472C44.7651 59.0529 45.0226 59.6684 45.281 60.2833C45.5405 60.9019 45.8108 61.5209 46.0215 62.1581C46.1521 62.5533 46.2083 63.3728 46.5165 63.6431C47.0081 64.0745 48.6535 64.2659 49.3161 64.4093C50.5531 64.6774 51.9641 64.6418 53.2258 64.6603C53.7473 64.668 54.2728 64.7391 54.771 64.7487C55.4707 64.7622 55.404 64.6411 55.3941 64.0336C55.3883 63.6688 55.3956 63.0055 55.8835 63.3058C56.2159 63.5106 55.9872 64.4173 55.9256 64.7395C58.7107 65.0169 61.6165 65.1564 64.3883 65.0636C67.1142 64.9722 69.7457 64.6208 72.4384 64.3033ZM85.0158 57.9103C85.5073 54.3814 86.1061 50.7937 86.7764 47.3105C87.4538 43.7908 88.2683 40.3029 89.1843 36.7963C88.5793 36.6515 87.9741 36.507 87.369 36.3624C87.3465 37.1013 87.0967 37.743 86.9901 38.4785C86.8431 39.4936 86.562 40.4793 86.3939 41.4911C86.0742 43.4143 85.4819 45.2962 84.9602 47.1718C84.4284 49.0837 84.2506 51.0536 83.7621 52.9753C83.3594 54.5584 83.1536 56.3022 82.9287 57.9297C82.3832 61.8781 81.6059 65.8342 81.0143 69.7846C80.4595 73.4883 80.4039 77.2672 80.4358 81.0054C80.4554 83.2878 80.8036 85.5636 80.7855 87.849C80.7809 88.4139 80.8285 88.9771 80.8578 89.5411C80.8785 89.9389 80.6647 91.0422 80.8461 91.3755C80.9608 91.5864 81.4539 91.7811 81.6284 92.0741C81.9044 92.5378 81.9626 93.0921 82.406 93.4428C82.7654 91.9933 82.5956 90.08 82.5171 88.6005C82.4411 87.175 82.5886 85.7018 82.6177 84.2545C82.6745 81.4152 82.8249 78.6175 82.9705 75.7769C83.1301 72.6616 83.5839 69.4706 84.0271 66.3788C84.4302 63.5675 84.6991 60.7064 85.0158 57.9103ZM71.8625 13.6558C71.6676 13.6375 71.4728 13.6194 71.2779 13.6013C71.307 14.0119 71.2203 14.677 71.5097 14.8912C71.7291 15.0535 72.1732 15.0002 72.4391 15.052C73.3106 15.2224 74.3206 15.365 75.1857 15.0545C75.522 14.9339 75.306 14.7451 75.7689 14.8235C76.3265 14.9183 76.1229 15.0066 76.284 15.3544C76.408 15.6228 76.4718 16.0797 76.6126 16.4021C76.801 16.8333 77.183 17.6052 77.0197 18.1032C76.861 18.5874 76.2689 18.7337 76.0173 19.2819C75.8302 19.6896 75.8743 20.2821 75.7771 20.7311C75.6474 21.3298 75.4834 21.9264 75.4109 22.5362C75.3198 23.3046 75.351 24.2061 76.303 24.3252C77.1865 24.436 77.8182 24.1521 78.4106 23.5086C79.5422 22.2802 80.8341 20.5463 81.4989 19.0011C81.5765 18.8206 81.7676 18.5194 81.741 18.3261C81.6883 17.9439 81.6653 18.3308 81.5442 18.0653C81.4285 17.8115 81.247 17.5812 81.1403 17.2996C80.7565 16.2877 80.4844 15.2271 80.3306 14.1559C80.2607 13.6707 80.2373 13.1914 80.2494 12.7014C80.2532 12.5341 80.3537 12.0318 80.2938 11.9172C80.2328 11.8011 79.9144 11.7476 79.8152 11.6324C79.6312 11.4188 79.3152 10.8159 79.1114 10.656C78.8607 10.4597 78.2998 10.6153 78.1979 10.2245C78.035 9.59937 81.8905 8.58102 80.0893 7.74674C78.7445 7.12385 76.6818 10.2726 76.2116 7.79491C76.1301 7.36573 76.2854 6.78315 76.0971 6.38983C75.8889 5.95511 75.3226 5.7926 74.927 5.58106C74.4222 5.31135 73.9122 5.03415 73.4216 4.73875C73.085 4.53629 72.6002 3.99867 72.242 3.94943C72.3831 4.67918 72.1128 5.4025 72.1082 6.13082C72.8841 5.92086 73.418 5.91641 74.1838 6.28975C74.5485 6.46741 75.9226 7.47578 75.2264 7.9608C74.6624 7.62741 74.0591 7.33826 73.4304 7.14222C73.1823 7.06481 72.8727 6.95957 72.609 6.95422C71.9967 6.9419 72.083 7.00594 71.8531 7.46758C71.6315 7.91228 71.6791 9.07209 71.1926 9.35608C70.6896 9.64974 71.0775 9.2387 70.648 9.3336C70.403 9.38783 70.1361 9.56999 69.9117 9.67286C70.2191 10.0065 70.8393 10.311 71.043 10.6814C71.3404 11.2216 71.2373 12.3387 71.2838 12.9297C71.673 12.7904 72.0827 12.7847 72.4773 12.6813C72.848 12.5838 73.3624 12.1624 73.4011 12.782C73.4443 13.4724 72.3527 13.6558 71.8625 13.6558ZM76.9281 31.8357C76.9584 31.239 76.9916 30.6425 77.058 30.0482C77.1028 29.6492 77.4817 28.492 77.2675 28.1415C77.0347 27.7602 76.2542 27.736 75.8784 27.6445C75.1585 27.4689 74.4679 27.3252 73.736 27.2093C73.0629 27.1027 72.4287 27.0803 71.7505 27.0494C71.0118 27.016 70.8288 26.8201 70.6655 27.634C70.5372 28.274 70.3649 28.9406 70.3411 29.5959C70.3185 30.211 70.5044 30.7449 69.8948 31.1594C71.2333 31.1594 72.9766 29.9677 74.198 31.0333C75.9453 32.5572 72.9047 32.9962 72.1028 33.3326C72.7694 33.6566 73.7588 33.911 74.0726 34.6508C74.4246 35.4802 73.9138 35.8328 73.132 35.8992C73.2055 36.2188 73.487 36.4264 73.5708 36.8108C73.6936 37.3743 73.2953 37.1877 73.8035 37.6237C74.4727 38.1975 75.8503 38.5812 76.6709 38.9467C76.8632 39.0327 77.0577 39.1133 77.2543 39.1888C77.5618 39.4623 77.7887 39.4103 77.9354 39.0323C78.3564 38.7658 78.7312 38.1713 79.1046 37.8255C79.9354 37.0559 80.8524 36.3806 81.8399 35.8249C81.4305 35.6554 80.941 36.0385 80.5482 35.8521C80.2308 35.7014 80.3504 35.4271 80.1603 35.2218C80.2365 34.954 80.156 34.8561 79.9189 34.928C79.8003 34.9407 79.6901 34.9205 79.588 34.8679C79.3894 34.6217 79.3001 34.5411 79.2869 34.161C79.273 33.7577 79.5066 33.6154 79.5963 33.2925C79.8876 33.094 79.8811 32.8989 79.5764 32.7076C79.4511 32.5028 79.3829 32.2808 79.3715 32.0411C79.3136 31.1516 80.1255 30.793 80.7447 30.3225C79.636 30.2006 79.6783 28.9002 80.4455 28.3318C81.2407 27.7424 82.9242 27.9837 83.8858 28.1167C84.0857 28.1441 84.6259 28.402 84.8281 28.2376C84.9521 28.1368 84.8646 27.2848 84.8702 27.1344C84.8833 26.793 84.9663 26.3859 84.9118 26.0462C84.798 25.335 85.0392 25.6932 84.5273 25.6734C83.3089 25.6262 81.7573 26.6898 80.6853 27.1913C79.4855 27.7526 78.7144 27.8389 78.7019 29.2307C78.6899 30.5484 78.3204 31.8615 78.1591 33.1584C78.0885 33.7247 78.0382 36.6671 77.0016 35.5813C76.5998 35.16 76.8572 34.5124 76.887 33.993C76.9277 33.2783 76.9036 32.5524 76.9281 31.8357ZM9.89943 75.949C10.4927 76.0543 11.4587 75.7137 12.1058 75.678C13.2373 75.6158 14.4025 75.508 15.5111 75.2726C16.3784 75.0883 17.3666 74.9262 17.8343 74.0867C18.2525 73.3365 18.4002 72.397 18.6254 71.5781C18.745 71.1435 19.0536 70.5131 19.0534 70.0635C19.0533 69.4787 18.9745 69.5939 18.3648 69.2738C17.5931 68.869 16.8422 68.3047 16.0097 68.075C15.7579 68.0257 15.5059 67.9776 15.2537 67.9304C14.9275 67.7411 14.7435 67.8342 14.7008 68.2092C14.3824 68.5449 14.1958 69.1637 13.9286 69.5562C13.3196 70.4514 12.5964 71.0614 11.6515 71.5776C9.95122 72.5063 8.367 73.223 6.54596 73.8303C5.54236 74.1648 4.61694 74.6343 3.63599 75.0033C2.8501 75.2988 1.7655 75.3886 1.16182 76.0466C0.480679 76.7888 1.52763 77.0587 2.10954 77.5604C2.58635 77.9716 2.59563 78.066 3.24785 77.8664C3.73376 77.7177 4.16455 77.4333 4.63113 77.2405C6.22954 76.5803 8.16409 76.141 9.89943 75.949ZM46.4285 87.7219C45.8328 87.5931 45.237 87.4642 44.6414 87.3355C45.2271 88.4292 46.4593 90.0295 45.575 91.2953C45.2444 91.7681 44.6947 91.903 44.2036 92.1428C43.6092 92.4333 43.0604 92.8052 42.4985 93.1512C40.1814 94.578 37.8266 96.0247 35.3851 97.2489C36.1494 97.4957 37.3246 97.6664 38.1118 97.4514C39.0284 97.201 39.8772 96.6262 40.8182 96.3749C42.5066 95.9244 44.2837 95.5406 45.999 95.3094C47.401 95.1206 50.9106 95.5474 50.7402 93.4389C50.5783 91.4369 49.3825 89.5269 49.0267 87.5478C48.1535 87.7418 47.3206 87.7078 46.4285 87.7219ZM81.9354 55.6799C82.6143 52.3474 83.02 48.9583 83.8208 45.6498C84.2204 43.9993 84.5019 42.3261 84.8923 40.6752C85.0739 39.9072 85.2111 39.1315 85.3879 38.3648C85.5671 37.5887 85.9525 36.8724 86.0407 36.07C85.3918 36.2306 85.2417 37.7167 85.0451 38.2757C84.6842 39.3013 84.2908 40.2869 83.8272 41.2689C83.0902 42.8297 82.3083 44.3355 81.4769 45.8488C80.6003 47.4449 79.6745 48.9797 78.5793 50.4373C78.2195 50.9163 77.7312 51.2916 77.4993 51.8169C77.1346 52.6434 76.9812 53.6283 76.633 54.4883C76.8783 54.6128 77.512 54.6438 77.8128 54.7032C78.3725 54.8136 78.7645 54.9118 79.302 55.1779C80.2488 55.6467 81.0443 56.2023 81.677 57.0457C81.8359 56.6128 81.8773 56.138 81.9354 55.6799ZM55.5439 81.1058C55.5327 77.8963 55.4872 74.6595 55.5398 71.4739C55.5543 70.5893 55.6264 69.6349 55.7546 68.7572C55.8351 68.2054 56.3091 67.0325 55.9975 66.768C55.7312 66.5418 54.3258 66.6908 53.9808 66.6827C53.312 66.6673 52.6451 66.6375 51.9748 66.5871C51.9748 67.7766 52.4395 69.1272 52.6554 70.3038C52.8566 71.4013 53.0221 72.505 53.1882 73.6076C53.5478 75.9952 53.6501 78.4158 54.0404 80.8098C54.3942 82.9804 54.8608 85.142 55.1181 87.3124C55.2593 88.5037 55.5449 89.6278 55.767 90.8184C55.8829 91.4393 56.3057 93.9966 56.8381 94.2481C56.9508 93.3307 56.4909 92.223 56.4085 91.2954C56.3236 90.3377 56.2576 89.3735 56.1024 88.4108C55.9201 87.2806 55.828 86.1225 55.758 84.9783C55.7153 84.2782 55.7024 83.5802 55.6418 82.8805C55.5981 82.3728 55.406 81.6035 55.5439 81.1058ZM72.2694 38.189C72.2915 37.8395 71.387 37.8536 71.2186 37.4519C70.8767 36.6361 71.6557 36.783 72.1346 36.6986C71.9639 36.2449 68.7662 36.4101 69.5113 35.1856C70.0281 34.3359 71.9878 35.6364 72.5115 34.829C72.8557 34.2988 71.9189 34.2257 71.5473 34.1726C70.9883 34.0924 69.6712 34.3514 69.7145 33.6259C69.7691 32.7144 72.3297 32.0852 73.048 31.8175C72.9684 31.1933 69.8866 32.0806 69.4407 32.3336C68.4312 32.9062 67.6578 33.9338 67.5096 35.0758C67.3371 36.4044 68.011 37.4509 69.3381 37.777C69.8914 37.9129 70.3004 37.9281 70.8123 38.1324C71.1493 38.2668 72.2396 38.6019 72.4705 38.2628C72.4034 38.2382 72.3365 38.2136 72.2694 38.189ZM90.3608 29.9245C90.4117 29.3571 90.8894 28.2889 90.339 27.9162C89.5689 27.3944 89.2499 28.2542 89.0754 28.7707C88.8619 29.4012 87.9649 30.9447 88.7493 31.3376C88.9316 31.429 89.7965 31.3227 89.949 31.2624C90.374 31.3731 90.5109 31.214 90.3608 30.7847V29.9245ZM71.5659 75.7465C71.5175 74.1958 72.2119 72.3313 72.6054 70.8123C73.0515 69.0913 73.2865 67.3361 73.7591 65.634C73.2334 65.6974 72.7029 65.7491 72.1834 65.8545C71.4748 65.9985 71.462 65.9758 71.513 66.671C71.5889 67.7149 71.4894 68.7383 71.4355 69.7819C71.3275 71.8713 71.5906 73.995 71.4156 76.0711C71.5717 76.1107 71.6217 76.0025 71.5659 75.7465ZM91.1861 35.1029C92.8887 35.3635 94.5205 35.9033 96.0698 36.6285C96.9238 37.0282 97.8644 37.4578 98.8188 37.6175C99.879 37.795 101.004 37.7117 102.086 37.7801C102.468 37.8042 103.471 37.9897 103.844 37.7652C104.212 37.5427 104.183 37.1658 104.201 36.7165C104.245 35.5607 103.722 34.4292 103.252 33.3922C102.848 32.5026 102.543 31.8233 101.917 31.0581C101.113 30.0752 100.413 29.0146 99.6598 27.9887C99.0919 27.2155 98.5183 26.4533 97.9395 25.681C97.5256 25.1279 97.5452 24.9376 96.9211 24.9995C96.3067 25.0605 95.6881 25.4237 95.1093 25.6161C94.2503 25.9019 93.2101 26.0587 92.4267 26.5156C91.9203 26.811 91.8977 26.8653 91.9035 27.3808C91.9091 27.861 92.064 28.4467 92.3511 28.8223C92.9479 29.6021 93.937 30.0149 94.7858 30.404C95.2769 30.6289 95.7013 30.9481 96.1385 31.2584C96.6094 31.593 97.5596 31.7901 97.92 32.1715C98.9693 33.2822 97.0592 33.0627 96.5255 33.0293C95.3738 32.9567 94.2283 32.9678 93.0681 32.967C91.8017 32.9661 90.5454 32.9072 89.2969 32.9484C88.5655 32.9725 87.7265 32.6016 87.2528 31.9834C87.0233 31.6838 86.9339 31.4008 86.634 31.09C86.2409 30.6832 85.899 30.2546 85.4208 29.9397C84.6383 29.4245 83.2164 29.133 82.2848 29.3253C82.6184 29.3718 84.1872 29.9059 83.4966 30.5772C83.4125 30.659 82.4033 30.7124 82.1841 30.8132C81.7882 30.9949 81.2893 31.2592 81.0572 31.643C81.7332 31.5297 84.2401 31.3986 82.9612 32.6957C82.6474 33.0141 81.7459 33.3318 82.513 33.6703C82.6891 33.7481 83.0417 33.638 83.2684 33.7081C83.6056 33.8125 83.8811 34.0916 84.197 34.2404C85.0927 34.663 86.3275 34.9235 87.2623 34.831C88.555 34.7027 89.9022 34.9336 91.1861 35.1029ZM56.9051 74.1834C56.9492 76.0466 56.8819 77.9207 56.9217 79.7925C56.9641 81.7914 57.2206 83.7503 57.3428 85.7292C57.4526 87.5025 57.692 89.2423 57.8865 91.0073C57.9985 92.0239 58.1275 92.996 58.2994 94.005C58.4606 94.9491 58.4882 95.7811 57.3594 96.0349C55.2015 96.5205 54.8661 93.416 54.4491 92.1079C53.8266 90.1558 53.4273 88.1064 53.1188 86.0826C52.5446 82.3137 51.7809 78.5973 51.483 74.7962C51.2995 72.4557 51.0335 70.1392 50.8825 67.8008C50.8528 67.3425 50.9697 66.6366 50.5673 66.4324C50.3253 66.31 49.6587 66.3089 49.3532 66.22C48.502 65.9724 47.7169 65.6079 46.8864 65.2295C47.4758 68.3115 47.6705 71.3782 48.1126 74.4872C48.3472 76.1368 48.7961 77.8462 49.1852 79.47C49.5883 81.1524 49.6778 82.9641 50.1428 84.6099C50.3477 85.3354 50.5211 85.631 50.2238 86.3756C49.8592 87.2895 50.1011 87.5082 50.5584 88.4058C51.3997 90.0573 52.0419 92.0062 51.8993 93.8679C51.7829 95.3884 50.6342 96.1845 49.211 96.5947C47.4308 97.1076 45.5668 97.047 43.7758 97.6296C42.2156 98.137 40.6302 98.5121 39.115 99.1821C38.504 99.4521 37.9235 99.7726 37.2451 99.8223C36.3146 99.8898 35.6871 99.3499 34.8084 99.2374C34.2591 99.1672 33.4549 99.4292 33.1385 98.8534C32.8876 98.397 33.1714 97.4009 33.4864 97.0335C34.3709 96.0009 36.1425 95.1011 37.3354 94.4918C38.7103 93.7895 40.0407 92.9104 41.3146 92.004C42.0867 91.4545 42.8741 90.9272 43.6457 90.3767C44.1561 90.0123 44.3501 90.01 44.298 89.4311C44.2564 88.9695 44.0484 88.5217 44.0119 88.0491C43.9841 87.687 44.111 87.1933 43.9398 86.9571C43.814 86.7829 43.3415 86.6598 43.1558 86.5279C42.4764 86.0463 42.322 85.4505 42.0135 84.7179C41.3127 83.0539 40.5076 81.4368 39.831 79.7595C38.378 76.1583 37.4914 72.3715 36.2869 68.6966C35.0564 64.9423 33.9561 61.0011 33.2784 57.106C32.3715 57.382 31.5157 58.6031 30.7934 59.2073C29.8178 60.0239 28.818 60.8135 27.8612 61.6525C26.2929 63.0277 24.7049 64.3652 23.4088 66.0123C22.7843 66.8055 22.2731 67.6592 21.7078 68.4926C21.3813 68.974 21.0768 69.519 20.7232 69.977C20.6665 70.0505 20.6648 70.2015 20.6036 70.2641C20.469 70.4016 20.2117 70.2184 20.1254 70.3091C19.5925 70.8663 19.5994 72.4485 19.4334 73.1838C19.2046 74.1972 18.9476 75.3623 18.1564 76.0607C16.9341 77.1393 14.6802 77.3065 13.1334 77.3625C11.1484 77.4343 9.22275 77.9875 7.33942 78.5816C6.46097 78.8586 5.6055 79.1828 4.72378 79.4517C4.21665 79.6068 3.63813 79.9156 3.09654 79.8561C2.44341 79.7846 1.92771 79.2351 1.44929 78.8265C0.683925 78.1731 -0.0246821 77.5291 0.000659782 76.4569C0.027605 75.3221 0.642351 74.4656 1.61078 73.9019C3.48305 72.812 5.57712 72.1135 7.59525 71.3603C8.36856 71.0716 9.03063 70.752 9.77002 70.3634C10.8149 69.814 12.0176 69.3656 12.9447 68.6403C13.218 68.4263 14.2226 67.7705 14.3082 67.4323C14.3194 67.3882 14.0684 66.8719 14.0672 66.79C14.0648 66.5793 14.1895 66.3511 14.2663 66.1708C14.7492 65.0357 15.5591 63.9425 16.1783 62.8721C17.3123 60.9113 18.4507 58.9403 19.7655 57.0962C22.3872 53.4197 25.3323 49.8197 28.511 46.6104C30.0606 45.0458 31.3996 43.2711 32.971 41.7282C33.5937 41.1171 34.2509 40.6193 35.018 40.2226C35.8732 39.7805 36.8331 39.6938 37.8132 39.5587C40.1885 39.2318 42.1722 39.9344 44.4021 40.5458C46.5104 41.1238 48.6209 41.6113 50.7409 42.2133C53.069 42.8744 55.3734 43.5085 57.6941 44.2291C58.9343 44.614 60.2099 44.8503 61.4558 45.2197C62.0558 45.3974 64.3239 46.5112 64.8241 46.1453C63.2483 45.4059 61.6342 44.7321 59.9484 44.2858C59.4519 44.1544 59.1348 44.2999 59.1532 43.7297C59.1633 43.4189 59.5128 42.9991 59.6385 42.7432C59.9397 42.1305 60.2808 41.5316 60.5755 40.917C59.5068 41.2205 56.6342 42.2708 55.8288 41.1851C54.9861 40.0485 55.6896 37.8204 56.2179 36.7077C57.5968 33.803 59.9418 31.3791 62.2269 29.1894C62.7212 28.716 63.7867 28.0978 64.0502 27.4948C64.1302 27.3114 63.9558 27.0421 64.1366 26.804C64.2441 26.6623 64.6758 26.5655 64.8483 26.4128C65.4766 25.8566 65.9779 24.6863 66.412 23.9571C66.8667 23.1935 67.2764 22.3665 67.8478 21.6813C68.7824 20.5609 69.7473 19.3733 71.2606 19.1112C72.0028 18.9828 72.7911 19.0513 73.5024 18.7949C74.3627 18.4849 75.1802 17.9965 76.0488 17.6754C75.8333 17.2324 75.6586 16.5278 75.2405 16.4794C74.8379 16.4327 74.2475 16.7788 73.7867 16.7763C73.1138 16.7726 72.5394 16.665 71.89 16.5367C71.1712 16.3946 70.9345 16.4204 70.6724 15.6407C70.3977 14.824 70.467 13.8753 70.4692 13.0269C70.4702 12.6124 70.5525 12.0978 70.5172 11.6909C70.4643 11.0777 70.3451 11.0542 69.8645 10.6643C69.264 10.1771 68.5237 9.53253 69.2593 8.68609C69.6568 8.22872 70.4735 8.58441 70.8255 8.09298C71.1841 7.59245 71.1668 6.33506 71.276 5.74713C70.1707 6.29046 70.5759 4.25926 70.5758 3.77052C70.5755 3.05931 70.0989 1.78034 70.7851 1.18867C71.1039 0.913966 71.3407 1.14122 71.7052 0.983351C72.1213 0.803191 72.3832 0.330663 72.8258 0.147467C73.7053 -0.21677 74.6035 0.22186 75.5065 0.149439C76.5425 0.0664889 77.56 -0.0936928 78.6016 0.0725476C79.0951 0.151042 79.3028 0.33851 79.7204 0.548652C80.122 0.750748 80.5294 0.806043 80.9654 0.936087C81.3536 1.05186 81.6939 1.11036 81.9561 1.44856C82.1634 1.71614 82.0789 2.16618 82.2882 2.39682C82.4947 2.62407 82.9032 2.59107 83.1492 2.86096C83.3855 3.11997 83.5268 3.54807 83.6497 3.87041C83.8156 4.30458 83.835 4.46762 84.1272 4.8151C84.3819 5.11833 84.7485 5.36219 84.9611 5.70807C85.4618 6.52343 85.4746 7.70251 85.3148 8.61973C85.2605 8.93207 84.8078 9.73941 84.8786 10.0052C84.946 10.2582 85.3706 10.1916 85.5628 10.3517C85.729 10.4899 85.8751 11.1058 86.0061 11.1434C86.289 11.2246 86.6381 10.6657 86.8526 10.5818C87.2252 10.4361 87.3812 10.2867 87.5876 10.836C87.7406 11.2435 87.5275 11.7967 87.4152 12.1856C87.2725 12.6808 87.1147 13.2772 86.7364 13.6517C86.2917 14.0918 85.9357 13.8512 85.4451 14.0883C84.7096 14.4436 84.9266 15.5546 84.0217 15.8721C83.1595 16.1746 82.2094 15.2228 81.5572 14.7852C81.6923 15.8474 82.2008 16.871 81.9568 17.9596C83.94 17.1826 85.9015 16.0798 88.0628 15.8369C89.1649 15.7129 90.2783 15.5662 91.3185 16.0237C92.5364 16.5592 93.2825 17.7404 94.1067 18.7219C95.6557 20.5665 97.2452 22.3593 98.7319 24.2633C100.096 26.0099 101.245 28.0335 102.746 29.669C104.268 31.3273 105.417 34.018 105.25 36.3143C105.236 36.5216 105.075 36.9926 105.1 37.2161C105.12 37.3873 105.275 37.6044 105.273 37.7425C105.264 38.2072 105.111 38.4748 104.668 38.7325C103.9 39.1797 102.756 39.406 101.888 39.517C100.735 39.6645 99.3231 39.6804 98.1695 39.5229C96.9799 39.3602 95.9341 38.6943 94.84 38.2919C93.8804 37.9387 92.9167 37.7182 91.9082 37.4929C91.352 37.3686 90.7362 37.0245 90.3924 37.3575C90.0768 37.6636 90.0113 39.234 89.9378 39.6516C89.1399 44.1778 88.1918 48.5507 87.3521 53.0537C86.4004 58.1579 85.7496 63.26 85.0878 68.4074C84.4862 73.0866 84.2896 77.8185 84.155 82.4933C84.0908 84.7233 84.0815 86.9293 84.0951 89.1611C84.1028 90.4109 84.7275 94.5825 82.8748 94.7423C81.7861 94.8363 80.9152 93.2754 80.6234 92.4242C80.1851 91.1452 79.9568 89.768 79.8869 88.4244C79.7455 85.7045 79.5602 82.9826 79.4504 80.2616C79.3316 77.3137 79.4828 74.3114 79.7251 71.3732C79.969 68.4154 80.5836 65.5006 80.772 62.5384C80.2066 63.3453 80.0256 63.497 79.0838 63.8483C78.0982 64.2164 77.1501 64.6516 76.1555 64.9946C75.8173 65.1113 75.2893 65.1844 75.0119 65.3755C74.5001 65.7279 74.8364 65.3279 74.6729 66.014C74.4984 66.747 74.4655 67.6269 74.4191 68.38C74.2013 71.9146 73.2221 75.424 72.7704 78.9399C72.6614 79.7887 72.817 83.3923 71.3561 82.2566C70.231 81.382 70.2533 78.6348 70.0932 77.348C69.8801 75.6327 69.9989 73.8691 70.0325 72.1434C70.0709 70.1781 70.104 68.1167 70.5729 66.1977C69.7338 66.0542 68.5667 66.4454 67.7222 66.5112C66.9909 66.5681 66.2621 66.6043 65.5349 66.6443C63.8009 66.7395 62.0146 66.8154 60.2512 66.7813C59.9301 66.7751 57.8329 66.4815 57.5649 66.7182C57.4778 66.7951 57.4511 67.8526 57.4349 67.9818C57.3732 68.4676 57.2895 68.953 57.227 69.4361C57.0278 70.9808 56.848 72.6394 56.9051 74.1834Z" fill="#32302F"/>
<path fill-rule="evenodd" clip-rule="evenodd" d="M88.0498 88.8627C89.3734 89.3799 90.7779 89.5676 92.1126 90.0388C93.3057 90.4601 94.4139 91.0264 95.5888 91.4545C95.6575 90.9095 95.6941 89.9866 95.4927 89.4729C95.2078 88.7455 94.4579 88.7277 93.7195 88.4686C91.9223 87.8381 90.0319 87.7051 88.2477 86.9686C88.5532 87.5566 88.4169 88.3351 88.0498 88.8627ZM110.896 86.9606C108.038 87.0445 105.306 87.7097 102.489 88.121C101.118 88.3211 99.7461 88.4997 98.374 88.6864C97.846 88.7582 96.8837 88.6737 96.4999 89.1307C96.1817 89.5094 96.5304 90.8018 96.3891 91.3567C96.9668 91.3994 97.9926 90.8597 98.6196 90.7703C99.5961 90.6315 100.56 90.437 101.546 90.3751C103.109 90.2766 104.644 90.1929 106.204 90.019C107.79 89.8422 109.325 89.5135 110.924 89.3935C111.701 89.335 112.014 89.4808 112.059 88.6602C112.077 88.3394 112.121 87.8025 112.031 87.486C112.175 87.0971 112.048 86.9084 111.649 86.9195C111.395 86.8909 111.145 86.9047 110.896 86.9606ZM105.368 84.342C106.141 84.2695 106.917 84.1655 107.692 84.1219C107.849 84.113 108.646 84.1611 108.776 84.0149C108.96 83.8083 108.755 83.0523 108.721 82.8185C108.606 82.0232 108.479 81.5606 107.612 81.5589C106.879 81.5571 106.121 81.712 105.392 81.7834C102.081 82.1079 98.7873 82.2448 95.513 82.8611C95.7124 83.7099 95.9385 84.5855 95.7002 85.4534C97.2709 85.5345 98.9953 85.2322 100.53 84.9222C102.099 84.6054 103.764 84.448 105.368 84.342ZM100.127 76.3509C98.9445 76.3562 97.6943 76.8772 96.5271 76.761C96.5097 76.9782 96.8833 76.798 96.9864 77.0012C97.2068 77.0018 97.2835 77.0736 97.2163 77.2173C97.2204 77.3152 97.1703 77.3727 97.0659 77.3893C97.0144 77.3938 96.9629 77.3982 96.9116 77.4026C96.6859 77.41 96.6489 77.5621 96.8008 77.8597C96.7355 78.2283 96.8335 78.6965 96.8476 79.0665C98.9452 78.7811 100.983 78.4841 103.096 78.3567C104.093 78.2967 105.089 78.2968 106.085 78.2148C107.181 78.1244 108.377 78.3181 109.449 78.1129C110.022 78.0031 109.962 78.0108 109.92 77.266C109.894 76.8135 109.904 76.2763 109.535 75.9463C108.92 75.395 107.519 75.7136 106.783 75.733C104.567 75.7916 102.314 75.9975 100.127 76.3509ZM101.338 86.9873C104.507 86.6995 107.652 86.0691 110.839 86.0691C110.614 85.8441 110.123 85.786 109.842 85.6632C109.523 85.5232 109.221 85.2251 108.908 85.1027C108.281 84.8572 107.643 85.1983 106.999 85.3457C105.446 85.7015 103.852 85.7135 102.295 86.0626C100.687 86.4231 99.0572 86.7557 97.4188 86.939C96.6386 87.0263 95.8016 87.2032 95.0307 86.9972C94.9683 86.9525 94.9053 86.9077 94.8429 86.8631C94.7755 86.5762 94.5884 86.4996 94.2817 86.6333C93.892 86.5591 93.396 86.6548 93.0038 86.6646C92.9878 86.8213 94.4369 87.3126 94.7132 87.4344C95.3789 87.7275 95.8303 87.9421 96.5413 87.8165C98.1423 87.5337 99.717 87.1961 101.338 86.9873ZM90.1911 77.7227C90.3149 78.2055 90.835 77.9858 91.2827 78.039C91.8836 78.1103 92.4814 78.3176 93.0634 78.4738C94.1203 78.7578 95.1776 79.0379 96.23 79.3382C96.1886 78.9131 96.2826 77.9455 96.058 77.5684C95.8222 77.1731 94.7048 76.9998 94.1845 76.8792C92.8727 76.5757 91.4716 76.7484 90.1391 76.8122C90.1627 77.1154 90.1802 77.4187 90.1911 77.7227ZM102.791 80.7429C104.035 80.6375 105.281 80.5555 106.529 80.5116C107.956 80.4617 106.919 80.2337 106.889 79.3634C105.013 79.6625 103.121 79.7216 101.252 79.9773C99.7028 80.1894 97.8575 80.7431 96.2777 80.4456C95.5325 80.3055 94.7716 80.2514 93.9789 80.1721C93.231 80.0973 92.5253 79.749 91.7867 79.6624C90.9573 79.5652 90.1101 80.0313 89.2851 80.1545C88.9355 80.2067 88.8542 80.4438 88.689 80.023C88.5179 79.5864 89.0083 79.2296 89.2014 78.9686C89.4268 78.6636 89.3332 79.1587 89.4585 78.6825C89.4935 78.5491 89.3985 78.2138 89.381 78.0701C89.3367 77.7067 89.2225 77.3124 89.2048 76.9497C89.1883 76.6166 89.1855 76.108 89.5472 75.9136C89.7678 75.795 89.9243 75.968 90.1167 75.9345C91.6186 75.6733 93.3852 75.6518 94.9084 75.904C96.5596 76.1771 97.9808 75.4539 99.6083 75.1606C101.518 74.8165 103.447 74.765 105.373 74.6196C107.019 74.4954 110.028 73.8509 110.655 75.9541C110.833 76.55 111.091 78.1906 110.613 78.6975C109.986 79.3634 108.534 79.1509 107.723 79.324C107.845 79.6689 108.206 79.9036 108.081 80.3145C109.217 80.3682 109.418 81.4416 109.596 82.4436C109.78 83.4804 109.421 83.8925 110.412 84.4324C111.793 85.1848 113.256 85.9447 113.229 87.7366C113.215 88.6376 113.114 89.9964 112.189 90.4638C111.284 90.9211 109.811 90.8438 108.813 91.0098C106.882 91.3314 104.944 91.7087 103 91.9019C100.931 92.1075 98.8277 92.2763 96.7551 92.3681C95.626 92.4185 94.6505 92.589 93.5599 92.2091C92.4876 91.8354 91.4387 91.5626 90.3324 91.2852C89.2403 91.0116 85.8969 90.6431 86.8711 88.7753C87.0269 88.4764 87.5598 88.2388 87.6458 87.9563C87.7846 87.5004 87.3158 87.1446 87.3354 86.7327C87.3711 85.979 88.2215 85.8845 88.8086 85.8845C87.8022 85.2551 89.1499 84.5099 89.1419 83.9755C89.1277 83.034 87.9568 82.4229 87.8906 81.6337C87.7295 79.7131 93.8222 81.7129 94.76 82.1283C94.0382 83.1986 90.6895 82.2725 89.6922 82.1102C89.8283 82.4676 89.9584 82.7889 89.9977 83.1548C90.0296 83.4529 89.9157 83.7937 90.02 84.0938C90.1846 84.5683 90.1789 84.4775 90.7616 84.6069C91.1927 84.7025 91.6189 84.8131 92.0486 84.9145C92.7087 85.0702 93.7469 85.4881 94.4009 85.4652C94.9745 85.4452 94.8612 85.6231 94.9663 84.986C95.0229 84.6437 94.9264 84.2797 94.8687 83.9443C94.7482 83.2413 94.572 82.576 95.1859 82.0717C95.7713 81.5907 97.0051 81.3617 97.7231 81.1921C99.3166 80.8157 101.156 80.7235 102.791 80.7429Z" fill="black"/>
<path fill-rule="evenodd" clip-rule="evenodd" d="M110.375 68.7457C108.644 68.4557 106.886 68.3843 105.135 68.4722C105.23 68.9055 105.324 69.3387 105.42 69.7718C107.06 69.3493 108.724 69.1017 110.375 68.7457ZM96.3023 72.1069C95.6083 72.0561 96.0912 72.3664 96.2626 72.8207C96.4731 73.3788 96.428 74.0844 96.4764 74.6718C98.507 73.8975 100.87 73.4443 103.029 73.1837C104.053 73.0602 105.091 73.0248 106.121 72.972C106.425 72.9564 107.524 73.0838 107.747 72.879C107.912 72.7268 107.796 71.8868 107.637 71.7013C106.773 70.694 103.433 71.5638 102.224 71.6541C100.243 71.8021 98.2976 72.1561 96.3023 72.1069ZM99.1864 69.4075C100.984 69.5802 102.721 69.5637 104.519 69.8332C104.382 68.6902 104.545 68.3985 103.249 68.3378C102.093 68.2839 100.942 68.2402 99.7915 68.2407C97.2053 68.2422 94.6251 68.1928 92.036 68.1928V69.3543C94.4306 69.1091 96.7871 69.552 99.1864 69.4075ZM90.5402 73.6789C91.6749 73.6741 92.7475 74.1022 93.8823 74.2131C94.5616 74.2795 94.3481 74.3638 94.8194 74.7049C95.5532 75.2362 95.7647 74.9531 95.6727 74.2313C95.3608 71.7893 92.2691 72.3369 90.4876 72.2012C90.6046 72.7835 90.3354 73.2773 89.939 73.6789H90.5402ZM102.806 70.5438C101.173 70.5702 99.5394 70.663 97.9186 70.6291C97.1931 70.6139 96.2532 70.4701 95.5422 70.5939C95.0213 70.6844 94.5857 70.9497 94.0144 71.0484C94.8536 71.5003 95.279 71.1949 96.1612 71.0921C97.0427 70.9895 97.9372 70.9915 98.8223 70.9378C100.276 70.8498 101.825 70.5016 103.257 70.5964C103.283 70.3947 103.133 70.3771 102.806 70.5438ZM89.86 75.8324C89.1111 75.8307 90.1415 74.979 90.2767 74.8946C89.4476 74.8946 89.2469 74.3973 89.4871 73.5984C89.7134 72.846 89.8808 73.0763 89.3114 72.4497C88.8828 71.9779 88.8179 71.6303 89.3232 71.1027C89.8374 70.5661 90.8789 70.7179 91.3345 70.2749C92.1102 69.5209 91.1092 68.0192 92.184 67.4416C92.9106 67.0514 94.0818 67.0996 94.8839 67.0172C95.6592 66.9375 96.4618 66.9221 97.2423 66.9115C98.9436 66.8882 100.711 67.1736 102.405 67.3306C103.022 67.3877 103.716 67.6373 104.325 67.6377C104.945 67.6384 105.595 67.5001 106.236 67.5161C106.981 67.5348 107.698 67.4799 108.466 67.6021C109.055 67.6959 110.428 67.7451 110.878 68.1826C112.377 69.6404 108.823 70.3098 108.211 70.4735C108.834 71.1553 108.808 72.0566 108.714 72.9149C109.01 72.9149 109.521 72.786 109.674 73.1183C109.865 73.5308 109.16 73.638 108.993 73.6861C108.034 73.9631 106.912 73.8872 105.924 73.9878C103.948 74.1888 101.997 74.3048 100.042 74.6791C99.0889 74.8614 98.1418 75.0872 97.1897 75.2647C97.0254 75.2955 96.8601 75.32 96.694 75.3386C96.4392 75.3169 96.3569 75.4767 96.4467 75.819C96.1824 75.9482 95.1971 75.6265 94.8924 75.5773C93.1483 75.2943 91.5879 75.4118 89.86 75.8324Z" fill="black"/>
<path fill-rule="evenodd" clip-rule="evenodd" d="M125.079 92.768C123.954 93.6532 122.908 94.4887 121.69 95.2579C122.551 95.2311 125.415 93.8576 125.079 92.768ZM124.639 91.3251C124.026 90.7975 123.416 90.8514 122.656 90.6915C121.956 90.5442 121.276 90.2907 120.577 90.1218C120.029 89.9894 119.487 89.8104 118.941 89.6852C118.169 89.5084 118.093 89.7031 117.384 90.1071C114.869 91.5406 112.054 92.5266 109.405 93.6901C110.183 94.3749 111.932 94.4044 112.905 94.6228C113.614 94.782 114.29 94.9999 114.97 95.2521C115.603 95.4872 116.623 96.0276 117.29 96.0457C117.854 96.0608 118.312 95.5063 118.797 95.2077C119.435 94.8145 120.071 94.4284 120.714 94.0451C122.075 93.2341 123.348 92.2403 124.639 91.3251ZM113.273 97.1314C112.982 96.852 112.108 96.8642 111.744 96.779C111.027 96.6114 110.32 96.4373 109.594 96.3114C108.414 96.1074 106.551 96.0162 106.423 94.4861C106.317 93.2146 107.853 92.913 108.751 92.4822C110.103 91.8342 111.481 91.2362 112.867 90.6647C114.166 90.1292 115.484 89.6761 116.807 89.2133C117.065 89.123 117.274 89.1355 117.485 88.9289C117.651 88.7661 117.6 88.4498 117.782 88.2795C118.198 87.8896 118.739 88.0948 119.24 88.1948C120.378 88.4217 121.56 88.7197 122.644 89.1406C123.772 89.5781 124.78 89.6695 125.051 90.9475C125.627 90.677 126.061 90.6377 125.992 91.4323C125.972 91.6659 125.802 91.9199 125.761 92.1607C125.702 92.5157 125.806 92.8898 125.747 93.2459C125.531 94.54 123.786 95.4987 122.705 96.0069C121.372 96.6334 119.651 97.5592 118.163 97.6815C116.576 97.8119 114.847 97.1889 113.273 97.1314Z" fill="black"/>
<path fill-rule="evenodd" clip-rule="evenodd" d="M93.081 75.6607C92.6081 75.6637 92.1349 75.6666 91.6621 75.6696C92.134 75.5809 92.6073 75.5799 93.081 75.6607Z" fill="black"/>
<path fill-rule="evenodd" clip-rule="evenodd" d="M65.412 25.6211C65.2701 25.8575 65.1284 26.0939 64.9863 26.3306C65.0347 26.0258 65.1428 25.7645 65.412 25.6211Z" fill="black"/>
<path fill-rule="evenodd" clip-rule="evenodd" d="M93.082 82.4453C93.3664 82.4479 93.6506 82.45 93.9334 82.4527C93.6485 82.4506 93.3654 82.448 93.082 82.4453Z" fill="black"/>
<path fill-rule="evenodd" clip-rule="evenodd" d="M93.9334 75.6697C93.6495 75.667 93.3655 75.6644 93.082 75.6617C93.3668 75.5841 93.6507 75.5868 93.9334 75.6697Z" fill="black"/>
<path fill-rule="evenodd" clip-rule="evenodd" d="M105.225 35.4099C105.217 35.126 105.209 34.8421 105.201 34.5586C105.209 34.8427 105.217 35.1262 105.225 35.4099Z" fill="black"/>
<path fill-rule="evenodd" clip-rule="evenodd" d="M56.9785 78.2602C56.9727 78.0237 56.9668 77.787 56.9609 77.5508C56.9669 77.7876 56.9727 78.0238 56.9785 78.2602Z" fill="black"/>
<path fill-rule="evenodd" clip-rule="evenodd" d="M90.102 15.7344C89.8655 15.7515 89.629 15.7686 89.3926 15.7857C89.6291 15.7686 89.8656 15.7515 90.102 15.7344Z" fill="black"/>
<path fill-rule="evenodd" clip-rule="evenodd" d="M84.0817 85.0715C84.0746 84.882 84.0674 84.6923 84.0605 84.5039C84.0675 84.6936 84.0746 84.8826 84.0817 85.0715Z" fill="black"/>
<path fill-rule="evenodd" clip-rule="evenodd" d="M84.363 77.8371C84.3579 77.6478 84.3528 77.4584 84.3477 77.2695C84.3529 77.4588 84.358 77.648 84.363 77.8371Z" fill="black"/>
<path fill-rule="evenodd" clip-rule="evenodd" d="M79.5195 81.1016C79.5263 81.291 79.5333 81.4806 79.54 81.6691C79.5332 81.4794 79.5263 81.2907 79.5195 81.1016Z" fill="black"/>
<path fill-rule="evenodd" clip-rule="evenodd" d="M65.8379 66.5606C65.9804 66.5587 66.1225 66.5567 66.2636 66.5547C66.1208 66.5567 65.9794 66.5587 65.8379 66.5606Z" fill="black"/>
<path fill-rule="evenodd" clip-rule="evenodd" d="M106.986 73.9442C107.129 73.9381 107.271 73.9319 107.412 73.9258C107.269 73.932 107.128 73.9381 106.986 73.9442Z" fill="black"/>
<path fill-rule="evenodd" clip-rule="evenodd" d="M79.8027 85.6406C79.811 85.8301 79.8191 86.0196 79.8271 86.2082C79.8191 86.0182 79.811 85.8295 79.8027 85.6406Z" fill="black"/>
<path fill-rule="evenodd" clip-rule="evenodd" d="M95.0111 84.6484C95.0016 84.838 94.9919 85.0274 94.9824 85.216C94.9919 85.0264 95.0016 84.8374 95.0111 84.6484Z" fill="black"/>
<path fill-rule="evenodd" clip-rule="evenodd" d="M78.6563 0.100478C78.456 0.0749372 78.2553 0.0496093 78.0547 0.0240688C78.2536 0.0700417 78.4714 -0.100441 78.6563 0.100478Z" fill="black"/>
<path fill-rule="evenodd" clip-rule="evenodd" d="M70.0321 72.8711C70.0267 73.0605 70.0212 73.2499 70.0156 73.4387C70.0209 73.2488 70.0265 73.06 70.0321 72.8711Z" fill="black"/>
<path fill-rule="evenodd" clip-rule="evenodd" d="M57.8359 90.1808C57.8262 89.9916 57.8163 89.8023 57.8066 89.6133C57.8164 89.8026 57.8262 89.9917 57.8359 90.1808Z" fill="black"/>
<path fill-rule="evenodd" clip-rule="evenodd" d="M103.723 74.2236C103.865 74.2207 104.007 74.2175 104.148 74.2148C104.006 74.218 103.864 74.2208 103.723 74.2236Z" fill="black"/>
<path fill-rule="evenodd" clip-rule="evenodd" d="M55.5488 39.8086C55.55 39.9982 55.5511 40.1876 55.5519 40.3762C55.5507 40.1865 55.5498 39.9976 55.5488 39.8086Z" fill="black"/>
<path fill-rule="evenodd" clip-rule="evenodd" d="M52.5726 82.375C52.572 82.5644 52.5713 82.7541 52.5703 82.9426C52.5709 82.7529 52.5717 82.5639 52.5726 82.375Z" fill="black"/>
<path fill-rule="evenodd" clip-rule="evenodd" d="M87.9361 81.2422C87.931 81.4316 87.926 81.6212 87.9206 81.8098C87.8429 81.6152 87.8517 81.4266 87.9361 81.2422Z" fill="black"/>
<path fill-rule="evenodd" clip-rule="evenodd" d="M84.2155 80.3918C84.2139 80.2024 84.2125 80.0131 84.2109 79.8242C84.2125 80.0141 84.2139 80.2028 84.2155 80.3918Z" fill="black"/>
<path fill-rule="evenodd" clip-rule="evenodd" d="M113.23 97.1992C113.373 97.2032 113.515 97.207 113.656 97.211C113.513 97.2072 113.372 97.2032 113.23 97.1992Z" fill="black"/>
<path fill-rule="evenodd" clip-rule="evenodd" d="M108.121 79.1886C108.216 79.1869 108.311 79.1853 108.405 79.1836C108.309 79.1853 108.215 79.1869 108.121 79.1886Z" fill="black"/>
<path fill-rule="evenodd" clip-rule="evenodd" d="M49.3159 80.5311C49.3102 80.3893 49.3044 80.2471 49.2988 80.1055C49.3046 80.2476 49.3103 80.3895 49.3159 80.5311Z" fill="black"/>
<path fill-rule="evenodd" clip-rule="evenodd" d="M107.412 80.4258C107.289 80.5505 107.13 80.4769 106.986 80.4848C107.128 80.4651 107.27 80.4455 107.412 80.4258Z" fill="black"/>
<path fill-rule="evenodd" clip-rule="evenodd" d="M90.5266 75.8867C90.3393 75.9753 90.1498 75.9875 89.959 75.8928C90.1483 75.8908 90.3374 75.8888 90.5266 75.8867Z" fill="black"/>
<path fill-rule="evenodd" clip-rule="evenodd" d="M102.872 80.747C102.683 80.7455 102.494 80.7439 102.305 80.7422C102.494 80.7439 102.683 80.7455 102.872 80.747Z" fill="black"/>
<path fill-rule="evenodd" clip-rule="evenodd" d="M51.5833 75.1406C51.5799 75.2829 51.5761 75.425 51.5723 75.5663C51.5758 75.4238 51.5795 75.2821 51.5833 75.1406Z" fill="black"/>
<path fill-rule="evenodd" clip-rule="evenodd" d="M84.2012 82.8007C84.2086 82.6585 84.2158 82.5163 84.223 82.375C84.2158 82.5175 84.2086 82.6591 84.2012 82.8007Z" fill="black"/>
<path fill-rule="evenodd" clip-rule="evenodd" d="M103.724 74.6211C103.535 74.637 103.345 74.6529 103.156 74.6688C103.346 74.6529 103.535 74.637 103.724 74.6211Z" fill="black"/>
<path fill-rule="evenodd" clip-rule="evenodd" d="M56.9747 74.1483C56.9708 74.0062 56.9669 73.864 56.9629 73.7227C56.9669 73.8651 56.9708 74.0067 56.9747 74.1483Z" fill="black"/>
<path fill-rule="evenodd" clip-rule="evenodd" d="M80.6819 63.2227C80.6707 63.3648 80.6595 63.5069 80.6484 63.6483C80.6596 63.5062 80.6709 63.3645 80.6819 63.2227Z" fill="black"/>
<path fill-rule="evenodd" clip-rule="evenodd" d="M106.562 67.5166C106.372 67.6148 106.183 67.6025 105.994 67.5156C106.183 67.5159 106.373 67.5163 106.562 67.5166Z" fill="black"/>
<path fill-rule="evenodd" clip-rule="evenodd" d="M84.0837 87.203C84.0752 87.0608 84.0668 86.919 84.0586 86.7773C84.0668 86.9197 84.0752 87.0613 84.0837 87.203Z" fill="black"/>
<path fill-rule="evenodd" clip-rule="evenodd" d="M84.0804 88.3358C84.0744 88.1938 84.0683 88.0518 84.0625 87.9102C84.0686 88.0523 84.0746 88.1939 84.0804 88.3358Z" fill="black"/>
<path fill-rule="evenodd" clip-rule="evenodd" d="M57.25 69.6054C57.2521 69.4633 57.254 69.321 57.256 69.1797C57.2538 69.3221 57.252 69.4636 57.25 69.6054Z" fill="black"/>
<path fill-rule="evenodd" clip-rule="evenodd" d="M97.6211 92.2422C97.716 92.2395 97.8111 92.2368 97.9049 92.2344C97.8094 92.2374 97.7153 92.2396 97.6211 92.2422Z" fill="black"/>
<path fill-rule="evenodd" clip-rule="evenodd" d="M51.8726 93.4452C51.8649 93.3032 51.8573 93.1611 51.8496 93.0195C51.8574 93.1616 51.8649 93.3035 51.8726 93.4452Z" fill="black"/>
<path fill-rule="evenodd" clip-rule="evenodd" d="M82.582 94.6484C82.6771 94.6504 82.7722 94.6523 82.8658 94.6544C82.7705 94.6524 82.6762 94.6504 82.582 94.6484Z" fill="black"/>
<path fill-rule="evenodd" clip-rule="evenodd" d="M82.6406 82.5192C82.6487 82.0934 82.6565 81.6677 82.6645 81.2422C82.6564 81.668 82.6486 82.0935 82.6406 82.5192Z" fill="black"/>
<path fill-rule="evenodd" clip-rule="evenodd" d="M71.5762 66.9102C71.581 67.2415 71.5858 67.5728 71.5909 67.9034C71.5861 67.5718 71.5811 67.2409 71.5762 66.9102Z" fill="black"/>
<path fill-rule="evenodd" clip-rule="evenodd" d="M47.1079 87.6953C46.8711 87.6982 46.6338 87.701 46.3984 87.7041C46.636 87.7013 46.8719 87.6983 47.1079 87.6953Z" fill="black"/>
<path fill-rule="evenodd" clip-rule="evenodd" d="M66.5473 59.4681C66.3102 59.4643 66.0733 59.4604 65.8379 59.457C66.0756 59.4609 66.3115 59.4646 66.5473 59.4681Z" fill="black"/>
<path fill-rule="evenodd" clip-rule="evenodd" d="M63.5676 59.3164C63.3777 59.3195 63.188 59.3228 63 59.3258C63.1904 59.3226 63.379 59.3195 63.5676 59.3164Z" fill="black"/>
<path fill-rule="evenodd" clip-rule="evenodd" d="M48.2433 87.6984C48.0536 87.6973 47.8639 87.6963 47.6758 87.6953C47.8662 87.6964 48.0548 87.6973 48.2433 87.6984Z" fill="black"/>
<path fill-rule="evenodd" clip-rule="evenodd" d="M73.7832 15.2173C74.0196 15.2009 74.2563 15.1844 74.4927 15.168C74.2561 15.1844 74.0196 15.2009 73.7832 15.2173Z" fill="black"/>
<path fill-rule="evenodd" clip-rule="evenodd" d="M76.9629 31.8618C76.9717 31.6253 76.9805 31.3887 76.9893 31.1523C76.9803 31.389 76.9717 31.6254 76.9629 31.8618Z" fill="black"/>
<path fill-rule="evenodd" clip-rule="evenodd" d="M59.1698 58.8906C59.0275 58.8922 58.885 58.8937 58.7441 58.8952C58.887 58.8939 59.0283 58.8922 59.1698 58.8906Z" fill="black"/>
<path fill-rule="evenodd" clip-rule="evenodd" d="M55.9062 64.6875C56.0955 64.7028 56.2847 64.7183 56.4738 64.7336C56.2845 64.7183 56.0955 64.7028 55.9062 64.6875Z" fill="black"/>
<path fill-rule="evenodd" clip-rule="evenodd" d="M55.5469 71.8762C55.5499 71.6867 55.5531 71.4976 55.5558 71.3086C55.5528 71.4982 55.5499 71.6872 55.5469 71.8762Z" fill="black"/>
<path fill-rule="evenodd" clip-rule="evenodd" d="M71.7969 64.3134C71.986 64.2949 72.1753 64.2764 72.3644 64.2578C72.1752 64.2764 71.986 64.2949 71.7969 64.3134Z" fill="black"/>
<path fill-rule="evenodd" clip-rule="evenodd" d="M84.7637 60.9504C84.775 60.7611 84.7862 60.5715 84.7974 60.3828C84.7862 60.5724 84.7749 60.7614 84.7637 60.9504Z" fill="black"/>
<path fill-rule="evenodd" clip-rule="evenodd" d="M67.9667 59.6057C67.8244 59.6043 67.6819 59.6028 67.541 59.6016C67.6839 59.6028 67.8254 59.6043 67.9667 59.6057Z" fill="black"/>
<path fill-rule="evenodd" clip-rule="evenodd" d="M55.5619 82.5194C55.5548 82.3772 55.548 82.2352 55.541 82.0938C55.548 82.2359 55.5548 82.3777 55.5619 82.5194Z" fill="black"/>
<path fill-rule="evenodd" clip-rule="evenodd" d="M71.4693 75.2812C71.7794 76.0503 71.6053 75.5057 71.6133 75.6832C71.3491 75.7187 71.301 75.5846 71.4693 75.2812Z" fill="black"/>
<path fill-rule="evenodd" clip-rule="evenodd" d="M58.4589 58.9022C58.3167 58.8971 58.1741 58.892 58.0332 58.8867C58.1764 58.8918 58.3174 58.8969 58.4589 58.9022Z" fill="black"/>
<path fill-rule="evenodd" clip-rule="evenodd" d="M87.4629 44.4933C87.4718 44.3041 87.481 44.1148 87.4898 43.9258C87.4808 44.1152 87.4718 44.3043 87.4629 44.4933Z" fill="black"/>
<path fill-rule="evenodd" clip-rule="evenodd" d="M55.5522 81.0988C55.5518 80.9095 55.5512 80.7204 55.5508 80.5312C55.5512 80.721 55.5516 80.91 55.5522 81.0988Z" fill="black"/>
<path fill-rule="evenodd" clip-rule="evenodd" d="M55.5352 76.8436C55.5449 76.7016 55.5549 76.5596 55.5647 76.418C55.5549 76.5601 55.5449 76.702 55.5352 76.8436Z" fill="black"/>
<path fill-rule="evenodd" clip-rule="evenodd" d="M85.0449 58.2538C85.0581 58.1118 85.0715 57.9697 85.0847 57.8281C85.0715 57.9703 85.0581 58.1122 85.0449 58.2538Z" fill="black"/>
<path fill-rule="evenodd" clip-rule="evenodd" d="M53.6875 77.2695C53.7001 77.4117 53.7129 77.5539 53.7255 77.6952C53.7128 77.5532 53.7001 77.4114 53.6875 77.2695Z" fill="black"/>
<path fill-rule="evenodd" clip-rule="evenodd" d="M53.4004 76.1328C53.4144 76.2748 53.4283 76.417 53.4424 76.5585C53.4283 76.4162 53.4144 76.2744 53.4004 76.1328Z" fill="black"/>
<path fill-rule="evenodd" clip-rule="evenodd" d="M81.7852 56.6952C81.7958 56.5533 81.8063 56.4113 81.8169 56.2695C81.8062 56.4117 81.7957 56.5535 81.7852 56.6952Z" fill="black"/>
<path fill-rule="evenodd" clip-rule="evenodd" d="M9.36523 75.9431C9.55423 75.9282 9.74352 75.9132 9.9328 75.8984C9.74309 75.9132 9.55409 75.9282 9.36523 75.9431Z" fill="black"/>
<path fill-rule="evenodd" clip-rule="evenodd" d="M80.5321 79.3984C80.5265 79.5406 80.5209 79.6831 80.5156 79.8241C80.5212 79.6815 80.5267 79.54 80.5321 79.3984Z" fill="black"/>
<path fill-rule="evenodd" clip-rule="evenodd" d="M82.7773 79.8241C82.7878 79.6822 82.7983 79.54 82.809 79.3984C82.7983 79.5406 82.7878 79.6824 82.7773 79.8241Z" fill="black"/>
<path fill-rule="evenodd" clip-rule="evenodd" d="M81.9199 56.1288C81.9348 55.9868 81.95 55.8449 81.9648 55.7031C81.9499 55.8453 81.9348 55.9871 81.9199 56.1288Z" fill="black"/>
<path fill-rule="evenodd" clip-rule="evenodd" d="M10.5 75.8059C10.6893 75.7873 10.8786 75.7686 11.0676 75.75C10.8786 75.7686 10.689 75.7873 10.5 75.8059Z" fill="black"/>
<path fill-rule="evenodd" clip-rule="evenodd" d="M70.6627 59.4609C70.5678 59.4619 70.4726 59.4631 70.3789 59.4641C70.4744 59.4631 70.5685 59.4619 70.6627 59.4609Z" fill="black"/>
<path fill-rule="evenodd" clip-rule="evenodd" d="M55.5522 75.5663C55.5518 75.4241 55.5512 75.2821 55.5508 75.1406C55.5512 75.2829 55.5518 75.4244 55.5522 75.5663Z" fill="black"/>
<path fill-rule="evenodd" clip-rule="evenodd" d="M83.0892 75.2811C83.0388 75.1344 83.0141 74.9898 83.1113 74.8555C83.104 74.9976 83.0966 75.1394 83.0892 75.2811Z" fill="black"/>
<path fill-rule="evenodd" clip-rule="evenodd" d="M80.6722 72.5859C80.6682 72.728 80.664 72.8701 80.6602 73.0116C80.6643 72.8693 80.6682 72.7275 80.6722 72.5859Z" fill="black"/>
<path fill-rule="evenodd" clip-rule="evenodd" d="M80.7949 86.6328C80.8037 86.7747 80.8127 86.917 80.8215 87.0585C80.8127 86.9163 80.8037 86.7744 80.7949 86.6328Z" fill="black"/>
<path fill-rule="evenodd" clip-rule="evenodd" d="M91.2363 35.0273C91.3784 35.0476 91.5203 35.0678 91.662 35.0879C91.52 35.0676 91.3782 35.0474 91.2363 35.0273Z" fill="black"/>
<path fill-rule="evenodd" clip-rule="evenodd" d="M90.6699 35.0394C90.8603 35.0509 91.0695 34.9594 91.2375 35.0935L90.6699 35.0394Z" fill="black"/>
<path fill-rule="evenodd" clip-rule="evenodd" d="M70.6621 34.8906L71.2297 34.94C71.0403 34.9235 70.8514 34.9071 70.6621 34.8906Z" fill="black"/>
<path fill-rule="evenodd" clip-rule="evenodd" d="M61.2969 64.957C61.4863 64.9579 61.6753 64.9587 61.8644 64.9596C61.6744 65.051 61.4853 65.0599 61.2969 64.957Z" fill="black"/>
<path fill-rule="evenodd" clip-rule="evenodd" d="M56.1339 88.7616C56.1233 88.6193 56.1125 88.4773 56.1016 88.3359C56.1125 88.4783 56.1233 88.6199 56.1339 88.7616Z" fill="black"/>
<path fill-rule="evenodd" clip-rule="evenodd" d="M76.832 35.1288C76.8342 34.9866 76.8361 34.8447 76.8383 34.7031C76.8361 34.8454 76.8342 34.9872 76.832 35.1288Z" fill="black"/>
<path fill-rule="evenodd" clip-rule="evenodd" d="M64.8438 65.0185C65.033 65.0033 65.2222 64.9881 65.4113 64.9727C65.222 64.9881 65.033 65.0033 64.8438 65.0185Z" fill="black"/>
<path fill-rule="evenodd" clip-rule="evenodd" d="M80.9453 90.0391C80.9483 90.1811 80.9517 90.3231 80.9548 90.4647C80.9517 90.3223 80.9483 90.1808 80.9453 90.0391Z" fill="black"/>
<path fill-rule="evenodd" clip-rule="evenodd" d="M83.9102 67.7616C83.9232 67.6196 83.9363 67.4775 83.949 67.3359C83.9361 67.4781 83.9231 67.6197 83.9102 67.7616Z" fill="black"/>
<path fill-rule="evenodd" clip-rule="evenodd" d="M90.4395 29.8788C90.4504 29.7366 90.4612 29.5947 90.4718 29.4531C90.4612 29.5953 90.4502 29.7371 90.4395 29.8788Z" fill="black"/>
<path fill-rule="evenodd" clip-rule="evenodd" d="M76.9727 17.6758C76.9754 17.8178 76.9779 17.96 76.9809 18.1015C76.9782 17.9591 76.9755 17.8174 76.9727 17.6758Z" fill="black"/>
<path fill-rule="evenodd" clip-rule="evenodd" d="M71.9395 15.0273C72.1286 15.0431 72.318 15.059 72.507 15.0746C72.3179 15.0588 72.1286 15.0431 71.9395 15.0273Z" fill="black"/>
<path fill-rule="evenodd" clip-rule="evenodd" d="M43.5605 95.6728C43.7498 95.6542 43.9388 95.6358 44.1281 95.6172C43.9388 95.6358 43.7498 95.6544 43.5605 95.6728Z" fill="black"/>
<path fill-rule="evenodd" clip-rule="evenodd" d="M37.3184 97.5202C37.5078 97.4226 37.6968 97.4504 37.8859 97.5209C37.6968 97.5206 37.5074 97.5205 37.3184 97.5202Z" fill="black"/>
<path fill-rule="evenodd" clip-rule="evenodd" d="M110.96 86.8398C110.77 86.8441 110.581 86.8485 110.393 86.8529C110.583 86.8486 110.771 86.8441 110.96 86.8398Z" fill="black"/>
<path fill-rule="evenodd" clip-rule="evenodd" d="M108.121 84.0267C108.358 84.0087 108.594 83.9907 108.831 83.9727C108.61 84.1113 108.358 84.0087 108.121 84.0267Z" fill="black"/>
<path fill-rule="evenodd" clip-rule="evenodd" d="M105.426 84.317C105.662 84.2998 105.899 84.2828 106.135 84.2656C105.899 84.2828 105.662 84.2998 105.426 84.317Z" fill="black"/>
<path fill-rule="evenodd" clip-rule="evenodd" d="M103.156 86.7299C103.345 86.7132 103.535 86.6966 103.724 86.6797C103.535 86.6964 103.346 86.7132 103.156 86.7299Z" fill="black"/>
<path fill-rule="evenodd" clip-rule="evenodd" d="M104.148 81.8789C104.006 81.8799 103.864 81.8809 103.723 81.8815C103.866 81.8803 104.007 81.8796 104.148 81.8789Z" fill="black"/>
<path fill-rule="evenodd" clip-rule="evenodd" d="M107.695 89.6964C107.884 89.6805 108.074 89.6643 108.263 89.6484C108.086 89.7725 107.887 89.7011 107.695 89.6964Z" fill="black"/>
<path fill-rule="evenodd" clip-rule="evenodd" d="M96.7701 76.7407C96.7224 76.8573 96.4717 76.8424 96.487 76.7227C96.5812 76.7286 96.6756 76.7347 96.7701 76.7407Z" fill="black"/>
<path fill-rule="evenodd" clip-rule="evenodd" d="M90.1641 77.2695C90.1699 77.4114 90.1757 77.5536 90.1814 77.6952C90.1755 77.553 90.1699 77.4111 90.1641 77.2695Z" fill="black"/>
<path fill-rule="evenodd" clip-rule="evenodd" d="M109.541 78.0227C109.683 78.0203 109.825 78.018 109.967 78.0156C109.827 78.1158 109.684 78.1018 109.541 78.0227Z" fill="black"/>
<path fill-rule="evenodd" clip-rule="evenodd" d="M104.149 75.918C104.054 75.9194 103.959 75.9208 103.865 75.9219C103.961 75.9207 104.055 75.9194 104.149 75.918Z" fill="black"/>
<path fill-rule="evenodd" clip-rule="evenodd" d="M100.459 84.8851C100.648 84.8674 100.838 84.8498 101.027 84.832C100.837 84.8498 100.648 84.8674 100.459 84.8851Z" fill="black"/>
<path fill-rule="evenodd" clip-rule="evenodd" d="M102.445 90.2796C102.635 90.2104 102.824 90.1867 103.013 90.2813C102.824 90.2808 102.634 90.2802 102.445 90.2796Z" fill="black"/>
<path fill-rule="evenodd" clip-rule="evenodd" d="M102.146 70.7216L101.879 70.6294C102.21 70.6253 102.541 70.6212 102.872 70.6172C102.873 70.6173 102.184 70.7246 102.146 70.7216Z" fill="black"/>
<path fill-rule="evenodd" clip-rule="evenodd" d="M90.6699 73.6816C90.906 73.5871 91.1426 73.6056 91.3794 73.6791C91.1428 73.6799 90.9065 73.6808 90.6699 73.6816Z" fill="black"/>
<path fill-rule="evenodd" clip-rule="evenodd" d="M105 71.3789C104.858 71.3806 104.715 71.3823 104.574 71.384C104.717 71.3822 104.858 71.3806 105 71.3789Z" fill="black"/>
<path fill-rule="evenodd" clip-rule="evenodd" d="M102.02 69.5117C102.256 69.5272 102.493 69.5427 102.729 69.5583C102.493 69.5425 102.256 69.5272 102.02 69.5117Z" fill="black"/>
<path fill-rule="evenodd" clip-rule="evenodd" d="M99.3242 69.3711C99.5135 69.3866 99.7026 69.4022 99.8918 69.4176C99.7025 69.402 99.5134 69.3866 99.3242 69.3711Z" fill="black"/>
<path fill-rule="evenodd" clip-rule="evenodd" d="M96.6275 72.0919C96.5325 72.0899 96.4377 72.0879 96.3438 72.0859C96.4391 72.0879 96.5333 72.0899 96.6275 72.0919Z" fill="black"/>
<path fill-rule="evenodd" clip-rule="evenodd" d="M99.608 70.6778C99.5129 70.6719 99.418 70.666 99.3242 70.6602C99.4196 70.666 99.5138 70.6719 99.608 70.6778Z" fill="black"/>
<path fill-rule="evenodd" clip-rule="evenodd" d="M97.7643 70.6758C97.6692 70.6731 97.5741 70.6704 97.4805 70.668C97.5758 70.6707 97.67 70.6732 97.7643 70.6758Z" fill="black"/>
<path fill-rule="evenodd" clip-rule="evenodd" d="M102.871 70.5435C102.871 70.5803 103.298 70.3938 103.297 70.5672L102.871 70.5435Z" fill="black"/>
<path fill-rule="evenodd" clip-rule="evenodd" d="M50.9395 61.5301C51.0931 60.9031 51.0513 60.4125 51.5985 60.8132C51.8988 61.0332 52.394 62.1488 52.3564 62.5267C52.3101 62.9928 52.0976 63.1785 51.6588 63.0302C51.1546 62.8594 50.9545 61.9992 50.9395 61.5301Z" fill="black"/>
<path fill-rule="evenodd" clip-rule="evenodd" d="M78.5842 57.7226C79.855 57.7226 79.3005 59.0749 78.2413 59.1052C77.7546 59.1192 77.0543 59.0231 77.2121 58.3716C77.2964 58.0238 78.5312 57.555 78.5842 57.7226Z" fill="black"/>
<path fill-rule="evenodd" clip-rule="evenodd" d="M64.9545 60.3828C65.8718 60.8267 64.5812 62.7755 63.7477 62.2931C62.6804 61.6756 64.5773 60.6609 64.9545 60.3828Z" fill="black"/>
<path fill-rule="evenodd" clip-rule="evenodd" d="M62.7217 62.2266C63.0219 62.554 64.375 63.6644 63.6292 64.1109C62.712 64.6599 62.0139 62.8475 62.7217 62.2266Z" fill="black"/>
<path fill-rule="evenodd" clip-rule="evenodd" d="M47.3462 61.3759C47.0478 60.7988 47.4585 59.2886 48.3697 59.5646C49.2866 59.8426 47.8508 61.2226 47.3462 61.3759Z" fill="black"/>
<path fill-rule="evenodd" clip-rule="evenodd" d="M67.5886 61.7089C68.1836 61.4694 68.0702 62.178 68.1602 62.4066C68.262 62.6663 68.7859 63.2988 68.6545 63.5752C68.4595 63.9854 67.9934 63.7239 67.7403 63.4577C67.2966 62.9908 67.3281 62.2419 67.5886 61.7089Z" fill="black"/>
<path fill-rule="evenodd" clip-rule="evenodd" d="M58.5218 62.3669C58.026 62.3669 56.8422 60.9372 57.5378 60.6973C58.401 60.3996 59.1228 62.4719 58.5218 62.3669Z" fill="black"/>
<path fill-rule="evenodd" clip-rule="evenodd" d="M75.657 60.1016C76.1112 60.2135 76.7123 61.4993 76.0278 61.6485C75.2701 61.8138 75.1349 60.4571 75.657 60.1016Z" fill="black"/>
<path fill-rule="evenodd" clip-rule="evenodd" d="M72.9043 62.5127C72.548 61.8268 72.4603 60.3585 73.33 61.537C73.5184 61.7923 73.7128 61.689 73.616 62.1101C73.5315 62.4778 73.1939 62.5127 72.9043 62.5127Z" fill="black"/>
<path fill-rule="evenodd" clip-rule="evenodd" d="M54.1428 58.9648C54.5057 59.5113 54.3986 61.2246 53.6401 60.2112C53.3174 59.7804 53.5396 58.9853 54.1428 58.9648Z" fill="black"/>
<path fill-rule="evenodd" clip-rule="evenodd" d="M72.3919 7.47092C73.0963 7.28908 73.2652 8.94963 72.8544 9.13267C72.2793 9.38883 72.3514 7.74869 72.3919 7.47092Z" fill="black"/>
<path fill-rule="evenodd" clip-rule="evenodd" d="M116.941 91.8341C116.287 91.7959 115.372 91.6175 116.362 91.1537C116.99 90.8597 117.924 90.8393 118.588 90.9599C119.045 91.043 119.731 91.422 119.033 91.9134C118.625 92.2007 117.438 91.8481 116.941 91.8341Z" fill="black"/>
<path fill-rule="evenodd" clip-rule="evenodd" d="M116.209 93.0181C116.02 92.9968 115.831 92.9754 115.643 92.9544C115.794 92.6793 116.234 92.6215 116.209 93.0181Z" fill="black"/>
<path fill-rule="evenodd" clip-rule="evenodd" d="M117.061 91.8047C117.25 91.8088 117.44 91.8132 117.628 91.8172C117.438 91.8131 117.249 91.8088 117.061 91.8047Z" fill="black"/>
</svg>
