<svg width="84" height="84" viewBox="0 0 84 84" fill="none" xmlns="http://www.w3.org/2000/svg">
<rect width="84" height="84" rx="42" fill="#FF6AC2"/>
<path d="M41.7761 32.5926H34.8879C33.6198 32.5926 32.5918 33.6206 32.5918 34.8887V48.6651C32.5918 49.9332 33.6198 50.9612 34.8879 50.9612H48.6643C49.9324 50.9612 50.9604 49.9332 50.9604 48.6651V41.7769M49.1398 37.6603L50.3863 36.4138C51.283 35.5171 51.283 34.0633 50.3863 33.1667C49.4896 32.27 48.0358 32.27 47.1392 33.1667L45.8927 34.4132M49.1398 37.6603L42.21 44.5902C41.8895 44.9108 41.4812 45.1293 41.0367 45.2182L37.6595 45.8936L38.3349 42.5164C38.4238 42.0719 38.6423 41.6637 38.9628 41.3431L45.8927 34.4132M49.1398 37.6603L45.8927 34.4132" stroke="white" stroke-width="1.72205" stroke-linecap="round" stroke-linejoin="round"/>
</svg>
