<svg width="126" height="98" viewBox="0 0 126 98" fill="none" xmlns="http://www.w3.org/2000/svg">
<path fill-rule="evenodd" clip-rule="evenodd" d="M31.7676 58.6278C32.4092 58.1905 33.721 56.6255 34.4083 56.2639C35.9366 55.4596 42.7453 53.8786 42.9667 53.7852C43.3039 53.643 45.4942 53.1459 46.7704 52.8319C49.7671 52.0943 60.5061 47.3308 63.3366 46.1094C63.698 47.0602 66.6811 51.2577 66.1694 51.6879C64.4845 53.1041 61.4645 54.8675 59.5128 55.8824C57.9343 56.7033 56.2624 57.3826 54.5745 57.9372C52.6581 58.567 51.3429 59.2422 49.4329 59.8864C47.5539 60.5202 49.7995 62.5026 50.7645 62.9122C51.8469 63.3717 53.5233 63.6048 54.6293 64.003C52.6821 67.0294 51.0469 70.7023 50.7197 74.3275C50.641 75.1999 49.976 75.9997 48.8942 75.7385C48.336 75.6037 43.1856 74.9178 42.3457 74.7262C36.7392 73.4477 26.6745 66.7521 29.2663 59.8864C29.8601 60.1606 31.2157 59.004 31.7676 58.6278Z" fill="#E35C30"/>
<path fill-rule="evenodd" clip-rule="evenodd" d="M34.9047 22.1996C35.3235 22.1643 36.4065 21.3276 35.8382 20.9044C35.2649 20.4775 34.853 21.9083 34.9047 22.1996ZM13.0867 25.4084C13.1962 25.389 13.1484 24.7899 12.9761 24.7134C12.432 24.4719 12.3861 25.3797 12.3728 25.6226C12.3563 25.9292 12.3178 26.7928 12.9794 26.556C13.3549 26.4216 13.1219 25.6381 13.0867 25.4084ZM45.2058 28.2073C45.1911 28.7421 46.2715 29.7705 46.6742 29.1536C47.013 28.6354 45.2335 27.1427 45.2058 28.2073ZM7.00726 16.1461C7.32027 16.9447 8.8684 15.8564 8.92598 15.2707C9.04401 14.0711 6.99104 15.3481 7.00726 16.1461ZM19.9232 19.5889C20.6441 19.5297 21.5928 18.6131 22.288 18.2706C22.7585 18.039 24.0387 17.7628 24.1779 17.2367C24.2991 16.7795 22.127 17.758 21.9415 17.845C21.0895 18.2441 20.3212 18.6992 19.9232 19.5889ZM74.0466 13.2683C74.6212 12.8239 75.3198 12.5373 76.0564 12.5561C76.4242 12.5655 77.1916 12.7956 77.2205 12.1594C77.2675 11.1251 74.0187 12.3866 73.511 12.5895C73.6896 12.816 73.8681 13.0421 74.0466 13.2683ZM38.198 53.581C37.7764 52.881 37.0182 52.4762 36.448 51.879C36.657 52.8597 36.1858 53.7319 35.8621 54.6271C36.6409 54.2784 37.4193 53.9298 38.198 53.581ZM111.408 68.505C111.64 67.7274 111.873 66.9542 112.145 66.1886C112.449 65.3312 112.6 65.2571 111.872 64.6576C111.268 65.7988 110.665 66.9401 110.061 68.0815C110.491 68.2642 110.939 68.442 111.408 68.505ZM48.9155 12.2192C48.1161 11.3181 44.3694 11.2615 44.833 13.2503C44.9948 13.9447 45.916 13.207 46.493 13.0451C47.0657 12.8844 48.6873 12.8631 48.9155 12.2192ZM48.7781 24.9772C48.6813 24.7472 48.4878 23.9172 48.2006 23.8518C47.9209 23.788 46.817 24.6586 46.6095 24.7915C45.5744 25.4547 44.5655 26.1683 43.5568 26.8714C43.943 26.8714 44.2937 26.7338 44.6776 26.7309C45.1338 26.7269 45.4609 26.9144 45.9057 26.8075C46.8613 26.578 47.9705 25.519 48.7781 24.9772ZM49.8138 4.41534C49.9035 4.00317 54.5879 5.24047 55.1508 5.46703C55.4575 5.59026 57.0402 6.41289 56.7001 5.17306C56.5065 4.46691 54.6778 3.92861 54.0917 3.73508C52.6018 3.24332 51.031 2.89353 49.4447 2.97465C49.1366 2.99029 46.8036 3.12492 47.7778 4.06265C48.1135 4.38559 49.3168 4.2838 49.8138 4.41534ZM50.8392 61.0457C51.712 61.4751 52.6031 61.8035 53.5153 62.1393C53.9205 62.2885 54.5519 62.679 54.9989 62.5809C55.365 62.5004 55.4824 61.9428 55.6748 61.5696C56.378 60.2041 57.2178 59.1025 58.2591 57.9766C57.7755 57.624 55.3212 59.1795 54.7139 59.4091C54.1059 59.6389 53.5323 59.8705 52.9372 60.1451C52.377 60.4037 51.2716 60.635 50.8392 61.0457ZM66.2923 49.4057C67.5642 48.8301 68.7698 47.8095 69.813 46.8956C71.0108 45.8464 72.0846 44.7467 72.9614 43.3889C72.4337 43.4158 71.2688 45.1131 71.2558 43.2652C71.249 42.3227 72.5408 41.3942 72.9417 40.5199C71.9444 39.9568 71.0303 43.3213 69.886 42.5058C68.7836 41.72 70.523 39.0182 70.8581 38.1657C70.2115 37.7355 66.5274 42.551 65.9941 43.1671C65.6606 43.5528 64.8719 44.0663 64.6837 44.5162C64.5716 44.7841 64.5555 45.634 64.6098 45.8803C64.7226 46.3955 65.294 47.0124 65.5485 47.4921C65.8706 48.0994 66.151 48.7305 66.2923 49.4057ZM118.876 66.7671C117.776 65.2145 118.912 64.5374 119.807 63.2488C120.522 62.218 121.18 61.0818 121.633 59.9306C122.767 57.0516 123.791 54.375 124.351 51.3294C123.58 51.6813 123.098 53.0203 122.713 53.7259C122.194 54.6745 121.738 55.6701 121.162 56.5892C120.083 58.309 119.025 60.1436 117.653 61.6343C117.031 62.3099 116.505 63.0699 115.788 63.6786C115.461 63.9567 114.834 64.185 114.593 64.5327C114.365 64.861 114.62 65.0708 114.533 65.463C114.444 65.8653 114.037 66.2943 113.863 66.6816C113.633 67.1904 113.42 67.7005 113.164 68.198C112.884 68.7406 112.808 69.0244 112.733 69.5546C112.651 70.1345 112.903 70.1946 112.397 70.7289C113.314 71.1335 114.232 71.538 115.149 71.9426C115.459 72.0793 115.768 72.2157 116.078 72.3523C116.143 72.2299 116.209 72.1076 116.274 71.9852C116.526 71.7403 116.758 71.1364 116.902 70.8128C117.505 69.463 118.186 68.1077 118.876 66.7671ZM30.2726 60.2496C27.6673 67.1087 36.8224 72.8841 42.4581 74.1614C43.2387 74.3382 44.0004 74.5697 44.7775 74.7598C45.6247 74.9668 46.377 74.9256 47.2227 75.0123C47.8955 75.0812 48.2162 75.601 48.8501 75.7443C49.9095 75.9836 49.8448 75.1874 49.9207 74.3344C50.2423 70.7172 52.0884 67.2272 54.0421 64.209C53.1497 63.8897 52.2653 63.5412 51.3843 63.1917C50.6304 62.8924 49.476 62.0512 48.6655 62.0067C48.0661 61.974 47.1526 62.4858 46.5705 62.7105C45.6009 63.0846 44.6285 63.4033 43.618 63.6584C41.851 64.1046 39.8848 64.7127 38.0563 64.7588C37.5291 64.7721 36.083 65.0176 35.7038 64.6919C34.9805 64.0706 35.9844 63.5529 36.5899 63.3311C40.1989 62.0096 44.0307 61.4477 47.6498 60.0928C49.5122 59.3955 51.3553 58.6168 53.2294 57.9298C54.8448 57.3377 56.5368 56.8135 58.098 56.0851C60.1598 55.1235 62.2303 53.9256 64.0156 52.5144C64.373 52.232 65.1217 51.8125 65.3666 51.4033C65.5823 51.043 65.5554 51.4023 65.5106 50.9655C65.4784 50.6518 65.0945 50.2266 64.9367 49.9302C64.3483 48.8251 63.8165 47.6898 63.3696 46.5202C60.5217 47.7418 57.8124 49.4043 55.0064 50.7097C52.1822 52.0237 48.9965 52.9506 45.9751 53.6899C44.6891 54.0045 43.2108 54.104 42.0314 54.7258C41.5303 54.9898 41.035 55.2954 40.4983 55.4482C40.3397 55.7523 40.1838 55.8119 40.03 55.627C39.9337 55.5189 39.8092 55.4732 39.6564 55.49C39.3281 55.5457 38.9933 55.7006 38.6863 55.8198C37.1324 56.4222 35.6445 57.1765 34.1693 57.9462C33.47 58.3108 32.7528 58.67 32.0836 59.0864C31.725 59.3097 31.4036 59.5348 31.1101 59.8413C30.7582 60.2089 30.842 60.511 30.2726 60.2496ZM88.8976 19.5243C89.556 19.535 90.1561 19.1783 90.8427 19.1983C91.9222 19.2295 92.7769 20.0665 93.4035 20.8738C94.6434 22.471 94.3272 24.3978 93.7044 26.1853C93.4064 27.0395 92.9972 27.8596 92.486 28.6073C92.0334 29.2693 91.2242 29.8955 90.9083 30.6325C90.3874 31.8482 91.4385 31.3312 92.0821 31.0717C92.8911 30.7449 93.6497 30.3389 94.3364 29.7919C97.3974 27.3541 99.7259 23.9655 100.506 20.0739C100.886 18.1753 100.857 15.9557 99.5345 14.406C98.3253 12.9889 96.238 12.526 94.4537 12.7888C92.5249 13.0729 90.7768 13.8899 89.2063 14.9415C88.7501 15.2471 88.3324 15.5807 87.9041 15.9224C87.3421 16.3708 87.0054 16.3824 87.1461 17.0851C87.2505 17.6075 87.5349 18.1489 87.7182 18.6502C88.0615 19.589 87.9363 19.832 88.8976 19.5243ZM90.9967 35.7107L90.8634 35.9384C91.7818 35.9821 92.6372 35.172 93.4197 34.7765C94.4362 34.2625 95.3388 33.5613 96.2296 32.8533C97.8004 31.6044 99.3918 30.197 100.561 28.5574C103.182 24.8823 105.563 20.2228 104.848 15.5631C104.077 10.5411 99.6845 8.60791 95.0041 9.27273C92.8948 9.5723 91.0117 10.514 89.124 11.4701C88.1725 11.952 87.3695 12.5773 86.4978 13.1824C86.0455 13.4967 85.6327 13.5375 85.6031 14.0868C85.5809 14.5008 86.2966 15.4371 86.4901 15.8122C88.8602 13.3944 91.4144 11.3942 94.9937 11.2706C99.2518 11.1235 101.77 15.161 101.751 19.0273C101.733 22.819 100.097 26.4663 97.4904 29.1913C96.3057 30.4297 95.1761 31.4234 93.7213 32.3273C92.9961 32.7778 92.4612 33.1824 91.6503 33.4815C91.0768 33.6932 91.1366 33.5816 90.9902 34.1126C90.8659 34.5631 90.9928 35.2429 90.9967 35.7107ZM67.859 87.2251C67.8035 87.9084 67.6647 88.5812 67.5101 89.2476C67.4546 89.4869 67.142 90.2425 67.1968 90.5116C67.2874 90.9563 67.1669 90.6704 67.5566 90.9023C67.963 91.1446 68.4362 91.13 68.8813 91.2035C69.1559 91.249 70.1624 91.7226 70.3317 91.6479C70.6277 91.5171 70.6183 91.056 70.943 90.8732C71.3855 90.624 72.0375 90.8375 72.4548 91.0325C73.5706 91.5528 74.3372 92.6302 75.4168 93.2199C77.3341 94.2671 79.6093 94.8468 81.7483 95.086C82.9071 95.2156 84.0929 95.443 85.2374 95.1715C86.139 94.9576 87.311 94.9772 87.8011 94.0098C83.4452 92.8119 76.7967 91.3459 75.0745 86.3471C74.1382 87.196 72.5736 86.7388 71.4422 86.6216C70.1975 86.4928 69.0852 86.5227 67.9468 85.9554C67.8635 86.4014 67.8381 86.7715 67.859 87.2251ZM29.2921 56.2654C31.3426 56.3892 33.2866 55.4188 34.5484 53.7816C34.859 53.3784 35.1776 52.9668 35.364 52.4891C35.4045 52.368 35.4448 52.2468 35.4852 52.1258C35.681 51.7915 35.5953 51.6337 35.2283 51.6526C35.0215 51.369 34.4971 51.2736 34.6463 50.7596C34.7586 50.3718 35.1732 50.3655 35.5334 50.2435C35.354 49.942 35.2467 49.7907 34.9899 49.5227C34.3225 50.123 33.1113 51.3014 32.6423 49.9221C32.417 49.2599 32.8135 48.627 32.7153 47.9884C32.6749 47.7242 32.34 47.0494 32.1459 46.8915C31.1122 46.0499 29.6234 46.3982 28.5266 46.8936C27.7708 47.235 27.6081 47.3952 27.4848 48.1779C27.3596 48.9737 27.2434 49.7693 27.1045 50.5628C27.5581 50.3265 27.6406 49.8159 27.9365 49.4482C28.0472 49.6499 28.1581 49.8519 28.2693 50.0536C28.4253 49.9661 28.5711 49.9706 28.7063 50.0676C28.9252 50.4041 28.7875 50.9032 28.7202 51.2559C29.4501 51.1879 29.7586 52.0021 29.0228 52.3319C28.2606 52.6735 27.9168 51.7422 27.891 51.1389C27.6066 51.4786 27.3144 51.2968 27.1162 51.4713C26.9182 51.6458 26.8401 52.0095 26.7696 52.4079C26.6538 53.0623 26.3574 54.0066 26.6317 54.6631C27.0388 55.6383 28.3369 56.1457 29.2921 56.2654ZM88.7094 24.9443C88.0311 25.8878 86.8743 27.1229 86.6323 28.2629C87.3796 27.8244 88.9597 25.7143 89.3667 27.3951C89.6004 28.36 88.4019 29.5097 88.1075 30.4439C89.286 30.0561 90.1254 28.8417 90.8608 27.9045C91.7985 26.7095 92.7557 25.1343 92.9951 23.6147C93.1887 22.3851 92.3357 21.239 91.0683 21.1185C90.4208 21.0569 89.7448 21.1597 89.1193 21.3099C88.8341 21.3782 88.4087 21.4631 88.1541 21.6159C87.8345 21.8079 87.7908 22.2572 87.4896 21.8834C87.0896 22.6374 86.6896 23.3913 86.2896 24.145C86.6877 24.0006 87.5 23.3875 87.935 23.4508C88.5704 23.5436 88.7009 24.4664 88.7094 24.9443ZM25.1831 6.4866C23.4044 6.53904 21.5452 6.91781 19.8613 7.48086C19.4432 7.62081 17.6791 8.11852 18.0506 8.84002C18.2962 9.31691 19.62 8.64302 20.0203 8.53064C21.7357 8.04892 23.5019 7.73126 25.2589 7.44135C25.6843 7.37117 27.1274 7.37811 27.2019 6.82046C27.2931 6.14001 25.6855 6.48583 25.1831 6.4866ZM73.5926 84.0957C72.6284 84.2135 71.7027 84.1695 70.7377 84.0513C69.9255 83.952 69.0985 83.6195 68.2904 83.6195C68.2904 84.4844 68.2318 84.4899 69.1444 84.675C69.7814 84.8043 70.4275 84.8769 71.0712 84.967C72.2047 85.1254 73.4629 85.5704 74.6102 85.3417C74.5825 85.1915 74.4945 84.1779 74.3757 84.0776C74.3088 84.0213 73.6899 84.0967 73.5926 84.0957ZM58.0105 20.0941C58.2801 20.2659 58.8998 20.9509 59.2209 20.963C59.1063 20.17 58.2216 18.7894 57.2056 19.2793C56.9566 19.3996 56.4336 19.9978 56.6703 20.2618C56.7965 20.4029 57.6802 20.0951 58.0105 20.0941ZM48.6108 27.1485C48.6205 27.0103 48.6306 26.872 48.6407 26.7339C48.268 26.9531 47.8064 27.0569 47.5415 27.41C47.8596 27.551 48.1774 27.6921 48.4956 27.8332C48.534 27.605 48.5724 27.3767 48.6108 27.1485ZM77.9709 48.2014C79.7323 48.8182 81.347 49.6421 82.6436 51.0404C83.7643 52.2497 84.2909 54.3803 84.5645 55.9654C85.2414 59.8878 83.9352 63.5234 83.0739 67.2756C82.637 69.1791 81.9847 71.0108 81.374 72.8651C80.8407 74.4843 80.3834 76.18 79.6473 77.7196C79.0233 79.0251 78.2259 80.3121 77.6768 81.6664C77.3814 82.3952 76.9025 84.8962 75.7811 84.1108C75.4751 84.9109 75.4007 84.8428 75.7279 85.3986C75.9646 85.8009 76.7678 86.3596 77.1469 86.6872C78.1568 87.5605 79.436 88.2803 80.6208 88.8917C82.791 90.0117 85.1173 90.8497 87.3522 91.8708C88.3402 92.3226 89.4117 92.8561 89.19 94.1487C89.0042 95.2322 88.3773 96.0539 87.3994 96.5359C86.4813 96.9887 85.1681 97.3382 84.1581 97.4802C83.5588 97.5645 83.4214 97.3152 82.9328 97.2289C82.3891 97.1331 81.7546 97.3185 81.1936 97.3137C78.6755 97.2917 76.4708 96.6581 74.4359 95.1979C73.7087 94.676 72.6383 93.2605 71.6867 93.2606C71.2002 93.2606 71.3029 93.5562 70.875 93.7296C70.347 93.9434 69.4371 93.5397 68.918 93.4449C67.812 93.243 66.6873 93.038 65.9508 92.0854C65.1546 91.056 65.4376 89.7807 65.7798 88.6375C66.1655 87.3488 66.8144 86.0414 67.0902 84.7331C67.1574 84.4149 67.2192 83.8217 67.1511 83.498C67.045 82.9957 66.5378 82.696 66.5226 82.152C66.5179 81.9866 66.7547 81.7684 66.7962 81.5976C66.8875 81.2225 66.8734 80.8333 66.911 80.4516C66.9782 79.7706 67.1335 79.1182 67.2407 78.4452C67.4841 76.9139 67.9644 75.5478 68.4292 74.0723C68.8802 72.6403 69.3094 71.5746 70.1814 70.3346C70.6328 69.6926 72.1428 67.4046 71.4054 66.7462C70.3962 68.7287 69.216 70.2747 67.6713 71.853C66.49 73.0602 65.335 74.683 63.8564 75.5427C62.2307 76.488 60.2442 77.0441 58.449 77.544C57.5951 77.7816 56.8867 78.3087 55.9662 78.4062C54.9686 78.5116 53.9534 78.3873 52.9763 78.1648C52.7013 78.1023 51.9081 77.6796 51.6592 77.7065C51.2927 77.7464 50.7653 78.3999 50.363 78.5198C49.3837 78.812 48.7149 78.254 47.9721 77.7383C47.166 77.1785 46.9221 77.0394 45.9919 76.972C44.8525 76.8897 43.7445 76.4881 42.6238 76.2421C40.6534 75.8098 38.9786 74.9337 37.1876 74.0165C35.1347 72.9655 33.3787 71.5161 31.8312 69.8037C29.5565 67.2863 26.3885 60.3107 30.1044 57.8683C27.9168 57.5713 25.9133 56.6159 25.6466 54.14C25.5073 52.8444 25.7696 51.4092 26.0954 50.1604C26.2441 49.5901 26.4213 49.0235 26.5911 48.4591C26.7191 48.2686 26.7868 48.0601 26.7938 47.8334C26.8723 47.5398 26.7592 47.3934 26.4543 47.3948C25.8781 46.7211 25.4449 46.1264 25.3285 45.1698C25.2918 44.8667 25.259 44.402 25.4747 44.1442C25.5745 44.0406 25.695 43.9714 25.8355 43.9366C26.1733 43.956 26.2686 43.7896 26.1219 43.4377C26.2858 42.9392 26.0426 42.5507 26.6605 42.3427C26.8585 42.3848 27.0557 42.4309 27.2521 42.4808C27.5027 42.5951 27.6656 42.5123 27.7415 42.2332C28.3235 42.0054 28.055 41.6686 28.8459 41.9617C29.3245 42.1391 29.7799 42.4445 30.1285 42.8166C30.5657 42.5359 29.5713 40.8012 29.5382 40.2477C29.4595 38.943 29.9989 37.8644 30.7006 36.7928C32.0646 34.7103 33.9685 32.9196 35.846 31.3084C39.4422 28.2229 43.2201 25.2854 47.2807 22.8271C45.6056 21.6637 43.6486 21.3484 41.6554 21.8891C39.8178 22.3876 38.3284 23.2929 36.6369 24.0848C35.07 24.8181 33.4067 25.1194 32.9071 23.1181C32.3473 20.8764 34.1333 20.0441 35.7353 19.0389C35.3353 18.7406 34.0184 18.9538 33.5203 18.9891C32.4109 19.0676 31.3499 19.3181 30.2718 19.5396C29.7547 19.6457 29.2797 19.6217 28.7675 19.7258C28.006 19.8803 27.2108 20.0535 26.4404 20.2737C24.6074 20.7979 22.788 21.5935 21.2042 22.6655C19.8352 23.5916 18.8855 24.8993 17.7825 26.1037C16.5247 27.4769 15.3194 28.8281 13.4547 29.3308C12.5815 29.5663 11.5571 29.7799 10.9381 29C10.3621 28.2748 10.33 27.4008 10.3489 26.5141C10.3906 24.5554 11.3367 22.439 12.4374 20.8385C13.6321 19.1011 15.2323 18.1062 16.7442 16.7078C14.5589 16.864 12.447 18.0159 10.4373 18.8122C10.0144 18.9798 9.58744 19.1682 9.16217 19.3232C8.70874 19.4886 8.40837 19.3873 7.9739 19.463C6.98252 19.636 6.13088 20.0539 5.1665 19.3877C3.34196 18.1276 5.16994 15.5641 6.42617 14.7774C8.17588 13.6819 9.95596 12.7595 11.8836 11.9781C10.84 10.8461 11.7312 9.23074 12.6932 8.42773C13.9102 7.41161 15.46 6.82935 16.9265 6.28542C18.0862 5.8552 19.2253 5.44215 20.43 5.18325C21.6966 4.91119 23.1776 4.49547 24.4627 4.53535C25.6681 4.57275 26.7368 4.3604 27.9575 4.32644C28.9732 4.2982 29.9912 4.32263 31.0068 4.2963C33.7392 4.22571 36.4817 4.41001 39.1521 4.60651C37.0364 -1.58062 50.9729 0.330092 53.9462 1.13825C56.6483 1.87277 59.7443 2.72481 62.0139 4.46762C62.9755 5.20577 63.8887 6.04503 64.7418 6.90622C66.0004 8.17685 66.6972 9.84087 67.363 11.4833C69.0517 10.6561 70.6662 9.75464 72.5138 9.34444C74.2719 8.9543 76.0729 8.42544 77.8413 8.13068C79.1858 7.9065 81.1374 7.75445 82.2689 8.70379C83.4978 9.73497 84.1381 11.3397 84.8717 12.7139C88.3948 9.37096 92.3244 6.93217 97.3475 7.09434C102.263 7.25307 105.495 11.4977 106.091 16.0972C106.747 21.1655 104.49 26.4613 101.429 30.3862C100.057 32.1463 98.6371 33.8463 96.7901 35.1595C95.8741 35.8104 94.9079 36.5235 93.9036 37.0317C93.4028 37.2851 92.8552 37.514 92.3295 37.709C92.0922 37.7971 91.8479 37.8853 91.6011 37.9451C90.8965 38.116 91.0334 37.8878 90.7713 38.5046C90.5588 39.0054 90.5849 39.8671 90.4938 40.4167C90.3898 41.0449 90.3279 41.6818 90.1761 42.3015C89.9128 43.3756 89.6389 44.4233 89.3092 45.4722C88.6851 47.4573 87.8453 49.4581 86.8167 51.2689C87.6891 51.6478 88.9108 51.686 89.843 51.8008C90.852 51.9249 91.8625 52.186 92.9106 52.4791C95.0107 53.0662 96.8874 53.5619 98.8844 54.4411C100.958 55.3537 102.806 56.7165 104.802 57.8011C106.638 58.7986 108.493 60.0479 110.198 61.2452C110.604 61.53 110.855 61.7776 111.178 62.1385C111.508 62.507 111.613 62.5791 112.008 62.8984C112.186 63.0423 112.704 63.7685 112.907 63.7952C113.271 63.8434 113.215 63.5717 113.501 63.1925C114.097 62.4008 114.929 61.7874 115.522 60.9756C116.016 60.2986 116.531 59.6132 117.059 59.0311C118.337 57.6224 119.396 56.0609 120.305 54.3722C120.778 53.493 121.276 52.6563 121.79 51.8265C122.301 51.0004 123.21 49.9101 124.228 49.9589C124.146 49.5383 123.886 49.4682 124.335 49.211C124.624 49.0453 125.187 49.3124 125.41 49.4806C126 49.9263 126.026 50.7909 125.989 51.4404C125.893 53.1141 125.543 54.7663 125.054 56.3489C124.468 58.2514 123.732 59.9298 122.93 61.7456C122.291 63.1921 121.497 65.1049 119.907 65.765C120.975 67.2896 120.462 68.5319 119.749 70.1505C119.227 71.3339 118.538 72.5565 117.489 73.3396C116.306 74.2222 115.023 73.4734 113.786 72.89C113.039 72.5375 110.754 71.7058 111.219 70.6213C110.648 70.5452 110.289 70.1305 109.769 70.003C109.219 69.8679 109.314 70.0912 108.732 70.175C108.286 70.2392 107.618 69.8396 107.198 69.6965C106.496 69.4579 105.797 69.213 105.096 68.9717C103.123 68.2923 101.184 67.6234 99.1923 67.0791C95.4861 66.0665 91.7341 65.492 88.041 64.5877C87.3006 64.4065 86.5646 64.2315 85.7937 64.0863C85.6346 64.0564 84.8087 64.0103 84.7084 63.8399C84.5326 63.5414 85.0729 61.8705 85.1192 61.53C85.4237 59.2947 85.3242 56.8477 84.8954 54.638C84.7173 53.7193 83.9219 52.5298 83.9287 51.633C83.9335 51.0315 84.4665 50.3747 84.7795 49.8298C85.5537 48.4825 86.3648 47.0268 86.9383 45.6248C87.8162 43.4799 88.354 41.0588 88.7419 38.7617C88.9437 37.564 89.1788 36.2659 89.2338 35.0544C89.2758 34.1309 89.2 33.1623 89.3341 32.2165C88.8229 32.265 88.0998 32.5298 87.6395 32.2464C87.0581 31.8887 86.902 30.8674 86.9762 30.2574C84.9858 30.6048 85.0519 28.7172 85.1751 27.2411C81.5777 27.2411 86.1848 21.8955 86.7604 20.7476C87.0249 20.2199 87.017 20.8126 86.9002 19.9965C86.849 19.6377 86.6037 19.24 86.465 18.9101C86.1627 18.19 85.8358 17.4808 85.4866 16.7821C84.749 15.3064 83.9135 13.8806 83.0015 12.5057C82.1807 13.0777 81.4408 13.7548 80.7552 14.4813C81.1949 13.3312 82.5386 11.9065 81.9639 10.6006C81.4313 9.39005 79.6523 9.47399 78.6017 9.69529C75.7468 10.2972 73.0089 11.1738 70.2893 12.1888C71.1317 12.672 72.4215 12.2988 73.2586 11.9294C74.295 11.4719 75.4097 10.9919 76.5267 10.7495C77.5009 10.5382 78.7804 10.6103 78.4989 11.9226C78.2707 12.9858 77.2308 14.0097 76.5446 14.8048C75.0327 16.5563 73.137 17.9122 71.2749 19.267C69.2731 20.7233 67.3444 22.3057 65.3174 23.7198C61.6532 26.2764 57.7134 28.4982 53.9277 30.8845C51.9604 32.1245 49.7313 33.1223 47.5978 34.0413C45.251 35.0522 43.0008 36.1345 40.566 36.933C39.2138 37.3765 37.8736 37.7414 36.5449 38.2461C35.7121 38.5623 34.2617 39.1959 33.7114 38.257C32.5939 36.3501 36.6382 33.8423 37.7465 32.6764C38.511 33.419 34.7407 36.1859 35.0359 37.267C35.2677 38.1166 36.1645 37.0195 36.5976 36.788C37.2974 36.4137 38.1263 36.2256 38.8296 35.7985C40.2722 34.9227 41.9827 33.9127 42.312 32.1021C42.0828 31.8602 42.0857 31.637 42.3207 31.4322C42.4252 31.3079 42.5082 31.1713 42.5694 31.0224C42.672 30.7378 42.7132 30.3815 42.7682 30.0798C42.9306 29.1881 42.5229 28.3533 42.904 27.4806C40.6806 29.1652 38.5436 31.0681 36.433 32.8917C34.54 34.5275 32.5647 36.6695 31.869 39.1104C31.7799 39.4231 31.6318 39.7779 31.648 40.108C31.6796 40.756 31.7444 40.6162 32.2664 40.8245C32.7885 41.033 33.5488 41.015 34.1102 41.0371C34.4302 41.0495 35.8595 40.7106 35.5753 41.4129C35.4116 41.8178 34.4207 41.8026 34.066 41.8399C33.1756 41.9339 32.6927 41.8375 33.1146 42.8026C33.3036 43.2352 33.6867 43.5282 33.9872 43.863C34.8236 44.7944 35.2779 46.223 35.9358 47.3173C36.6853 48.564 37.5093 49.7495 38.3847 50.9106C38.746 51.3896 39.2288 52.29 39.7296 52.6318C40.1972 52.951 39.6471 52.9247 40.4238 52.7949C40.7624 52.7386 41.0692 52.5183 41.3931 52.4395C43.3295 51.9678 45.3199 51.436 47.3225 50.8537C49.884 50.1088 52.572 49.4737 55.0159 48.4012C57.2052 47.44 59.3782 46.2958 61.5904 45.3225C62.2365 45.0385 62.8818 44.8501 63.3839 44.3272C63.9899 43.6963 64.4917 42.8702 65.0507 42.192C66.0014 41.0382 66.8776 39.8648 67.9009 38.7714C68.6627 37.9579 70.0125 36.4456 71.0872 36.1208C73.1291 35.5039 72.0361 38.6141 71.7721 39.4002C72.2522 39.5092 72.5045 38.8934 73.0679 39.0706C73.7424 39.2827 73.8122 40.1797 73.8965 40.7418C73.9189 40.8916 73.7163 41.1715 73.7778 41.305C73.7989 41.3505 74.239 41.6108 74.3239 41.7314C74.6321 42.1696 74.5715 42.7024 74.4547 43.175C73.8504 45.6228 71.7025 47.4102 70.1229 49.2158C70.8295 49.0821 71.3535 48.6794 72.0206 48.4798C72.6467 48.2925 73.2762 48.3022 73.9073 48.2485C74.568 48.1923 75.2027 47.945 75.8787 47.9325C76.5882 47.9193 77.2673 48.1213 77.9709 48.2014Z" fill="#32302F"/>
<path fill-rule="evenodd" clip-rule="evenodd" d="M3.26129 26.1828C2.87175 26.4374 2.76195 26.6872 2.7485 27.2746C2.74311 27.5155 2.75972 28.4142 3.09642 28.3803C3.41238 28.3486 3.26129 26.4918 3.26129 26.1828ZM1.24903 27.6466C1.43054 25.764 2.11929 23.8498 3.73956 22.6768C4.14026 22.3867 4.59354 22.397 5.0327 22.214C5.29663 22.1041 5.71361 21.5929 6.01325 21.6534C7.11623 21.8765 5.84194 23.3421 5.65533 23.7276C5.07704 24.9221 5.11609 25.9716 5.13336 27.2602C5.14651 28.2395 5.34999 29.8904 4.85628 30.7768C4.33001 31.7206 3.18855 31.1077 2.55139 30.5491C1.74726 29.8438 1.13993 28.7208 1.24903 27.6466Z" fill="black"/>
<path fill-rule="evenodd" clip-rule="evenodd" d="M20.6123 33.2105C20.6123 34.261 21.4649 33.5498 21.4345 32.8026C21.3899 31.7025 20.5725 32.3799 20.6123 33.2105ZM25.1452 27.403C24.212 28.2423 23.4922 28.7132 23.3123 30.0037C23.1762 30.9812 23.3115 31.9493 23.3173 32.934C23.327 34.5845 21.9942 36.3196 20.56 34.4277C19.5138 33.0477 19.889 30.8778 20.7422 29.4909C21.1898 28.7633 21.8289 28.0434 22.5672 27.59C23.1224 27.2487 24.6844 26.5772 25.1452 27.403Z" fill="black"/>
<path fill-rule="evenodd" clip-rule="evenodd" d="M12.1126 52.842C12.0045 53.098 11.7504 54.1431 12.2687 53.9067C12.7262 53.6979 12.4298 53.0051 12.1126 52.842ZM9.37458 49.6153C9.29461 49.2223 9.32717 46.7587 10.0058 46.9435C10.5388 47.0883 10.6269 48.3494 10.844 48.7883C11.6526 50.4227 13.5085 51.4405 14.1486 53.1274C14.8629 55.0112 12.7031 55.0697 11.557 54.3069C10.2 53.4036 9.41484 51.1918 9.37458 49.6153Z" fill="black"/>
<path fill-rule="evenodd" clip-rule="evenodd" d="M7.70986 39.5111C8.00432 39.1134 8.03413 38.901 7.86622 38.5493C7.6516 38.7827 7.68966 39.1163 7.70986 39.5111ZM7.92297 41.2898C6.38761 41.4617 6.31076 38.6324 6.57366 37.6609C6.78306 36.8872 7.2332 36.0559 7.69667 35.4255C7.79024 35.2983 8.67787 34.1552 8.85183 34.1525C9.51962 34.1419 9.33618 34.8964 9.26404 35.1772C9.03719 36.0621 8.94733 36.8016 9.00833 37.7827C9.07387 38.8325 9.571 41.3247 7.92297 41.2898Z" fill="black"/>
<path fill-rule="evenodd" clip-rule="evenodd" d="M77.6341 16.788C75.4388 18.6291 73.3546 20.6223 70.9675 22.2327C69.7994 23.0209 68.5783 23.7181 67.4127 24.519C66.8191 24.9269 66.2134 25.2922 65.5548 25.592C64.9731 25.8569 64.5927 25.8914 65.0754 25.2626C65.398 24.8426 66.1212 24.5499 66.5608 24.2513C67.2371 23.7914 67.8759 23.2814 68.5873 22.8734C69.8416 22.1538 71.0883 21.5729 72.2444 20.6905C73.2706 19.9074 74.3294 19.1429 75.3088 18.3106C75.7288 17.9538 77.1214 16.3154 77.6341 16.788Z" fill="black"/>
<path fill-rule="evenodd" clip-rule="evenodd" d="M77.6774 23.4375C78.6646 24.282 76.1945 26.5956 75.6312 27.1199C75.0372 27.673 74.383 28.1663 73.7369 28.6561C73.5095 28.8287 72.2687 29.9833 71.9538 29.8902C71.3325 29.7062 72.1482 28.957 72.3604 28.7618C73.0464 28.1292 73.7472 27.5153 74.418 26.8656C75.023 26.2803 75.6781 25.7382 76.2632 25.1339C76.7371 24.6443 77.1353 23.8148 77.6774 23.4375Z" fill="black"/>
<path fill-rule="evenodd" clip-rule="evenodd" d="M4.53489 57.4774C4.27712 56.8801 3.81547 57.5432 4.04951 57.8415C4.27085 58.1239 4.50193 57.5922 4.53489 57.4774ZM3.02344 56.2979C3.16163 55.4196 3.48098 54.9316 4.30493 55.6813C4.8711 56.1964 6.0098 57.6613 5.90175 58.4599C5.75992 59.5073 4.60624 59.2101 4.0082 58.6624C3.3952 58.101 3.12458 57.0767 3.02344 56.2979Z" fill="black"/>
<path fill-rule="evenodd" clip-rule="evenodd" d="M4.82913 73.584C3.81978 73.5072 2.95867 72.7323 2.53003 71.8242C2.16939 71.0605 1.82803 69.8295 3.09505 70.2308C3.92083 70.4926 7.10415 73.7071 4.82913 73.584Z" fill="black"/>
<path fill-rule="evenodd" clip-rule="evenodd" d="M17.0616 68.6058C16.2815 68.7834 15.51 68.2697 15.0303 67.6904C14.7319 67.3295 14.0373 66.0647 14.3873 65.5441C14.8751 64.8179 15.6116 66.2776 15.8656 66.5665C16.2641 67.019 17.5672 67.8844 17.0616 68.6058Z" fill="black"/>
<path fill-rule="evenodd" clip-rule="evenodd" d="M17.7624 48.855C17.151 48.5712 16.5834 48.2296 16.3374 47.5519C16.1811 47.1204 16.0497 45.8261 16.7441 45.8321C17.5474 45.8392 19.3867 48.7254 17.7624 48.855Z" fill="black"/>
<path fill-rule="evenodd" clip-rule="evenodd" d="M13.4765 35.391C14.2951 35.3761 14.489 35.8277 14.6028 36.4763C14.6801 36.9166 15.0551 38.4111 14.6657 38.7173C14.1092 39.1548 13.2239 38.1524 13.045 37.7589C12.6762 36.9487 13.1861 36.1519 13.4765 35.391Z" fill="black"/>
<path fill-rule="evenodd" clip-rule="evenodd" d="M27.5432 80.2046C27.9418 80.386 28.8487 80.7882 28.5021 81.4123C28.1398 82.0649 27.0995 81.4307 26.7109 81.1454C26.5482 81.026 25.5147 80.2445 25.558 79.9824C25.6491 79.4254 27.0738 80.1523 27.5432 80.2046Z" fill="black"/>
<path fill-rule="evenodd" clip-rule="evenodd" d="M1.28149 39.4454C1.55388 40.1275 1.8605 42.4708 0.426106 41.2055C-0.0116242 40.8192 -0.0776886 40.3369 0.0731268 39.8067C0.291202 39.0383 0.608565 39.1907 1.28149 39.4454Z" fill="black"/>
<path fill-rule="evenodd" clip-rule="evenodd" d="M77.2946 30.7189C76.9769 30.0699 77.7611 29.6514 78.1801 29.2331C78.4537 28.96 79.6042 27.4783 79.9814 27.562C80.7573 27.7342 77.676 30.4295 77.2946 30.7189Z" fill="black"/>
<path fill-rule="evenodd" clip-rule="evenodd" d="M13.4654 77.7227C14.2138 77.6026 14.3885 78.4339 14.8706 78.7962C15.0774 78.9518 15.7872 79.0884 15.6445 79.4184C15.2694 80.2849 13.4287 78.3053 13.4654 77.7227Z" fill="black"/>
<path fill-rule="evenodd" clip-rule="evenodd" d="M19.7871 58.0889C20.3016 57.8736 21.7863 59.0303 21.36 59.53C20.7227 60.2776 19.8234 58.498 19.7871 58.0889Z" fill="black"/>
<path fill-rule="evenodd" clip-rule="evenodd" d="M30.629 74.8245C30.254 74.8618 28.6715 74.3644 29.2578 73.6984C29.6695 73.2305 30.7635 74.4011 30.629 74.8245Z" fill="black"/>
<path fill-rule="evenodd" clip-rule="evenodd" d="M11.6787 71.6276C11.3065 71.7764 9.96378 71.4703 10.3859 70.8871C10.7881 70.332 11.6793 71.1667 11.6787 71.6276Z" fill="black"/>
<path fill-rule="evenodd" clip-rule="evenodd" d="M22.6719 74.1418C23.1072 74.0965 23.4216 74.359 23.4963 74.8034C22.9519 74.881 22.784 74.7516 22.6719 74.1418Z" fill="black"/>
<path fill-rule="evenodd" clip-rule="evenodd" d="M79.2832 9.625C79.4671 9.62582 79.6506 9.62679 79.8328 9.62761C79.6487 9.62665 79.4661 9.62582 79.2832 9.625Z" fill="black"/>
<path fill-rule="evenodd" clip-rule="evenodd" d="M38.9054 3.10156C38.8927 3.37669 38.8801 3.65181 38.8672 3.92599C38.8796 3.65063 38.8925 3.37597 38.9054 3.10156Z" fill="black"/>
<path fill-rule="evenodd" clip-rule="evenodd" d="M124.05 49.8164C124.137 50.1221 124.009 50.1728 123.664 49.9684C123.792 49.9177 123.921 49.8671 124.05 49.8164Z" fill="black"/>
<path fill-rule="evenodd" clip-rule="evenodd" d="M116.244 73.793C116.382 73.7938 116.52 73.7948 116.656 73.7956C116.518 73.7948 116.381 73.7938 116.244 73.793Z" fill="black"/>
<path fill-rule="evenodd" clip-rule="evenodd" d="M90.1382 51.6773C89.9078 51.8529 89.6786 51.8776 89.4512 51.668C89.6802 51.6713 89.9091 51.6743 90.1382 51.6773Z" fill="black"/>
<path fill-rule="evenodd" clip-rule="evenodd" d="M84.9943 28.2461C84.9885 28.4754 84.9826 28.7046 84.9766 28.9331C84.9823 28.7035 84.9884 28.4747 84.9943 28.2461Z" fill="black"/>
<path fill-rule="evenodd" clip-rule="evenodd" d="M96.8706 7.04316C96.6416 7.04302 96.4124 7.04274 96.1836 7.04247C96.4128 6.95673 96.6418 6.9849 96.8706 7.04316Z" fill="black"/>
<path fill-rule="evenodd" clip-rule="evenodd" d="M35.3133 4.29281C35.1301 4.27728 34.9467 4.26162 34.7637 4.24609C34.9467 4.26162 35.1299 4.27728 35.3133 4.29281Z" fill="black"/>
<path fill-rule="evenodd" clip-rule="evenodd" d="M38.3367 4.50781C38.1536 4.5761 37.9704 4.6165 37.7871 4.50877C37.9704 4.5085 38.1536 4.50809 38.3367 4.50781Z" fill="black"/>
<path fill-rule="evenodd" clip-rule="evenodd" d="M21.9839 4.88672C21.7547 4.9333 21.5258 4.97988 21.2969 5.02605C21.5261 4.97988 21.755 4.9333 21.9839 4.88672Z" fill="black"/>
<path fill-rule="evenodd" clip-rule="evenodd" d="M85.132 60.8086C85.1256 60.9463 85.1193 61.0838 85.1133 61.2208C85.1197 61.083 85.1258 60.9457 85.132 60.8086Z" fill="black"/>
<path fill-rule="evenodd" clip-rule="evenodd" d="M9.4082 49.6797C9.41095 49.7715 9.41356 49.8633 9.41604 49.9545C9.41301 49.8624 9.41081 49.7711 9.4082 49.6797Z" fill="black"/>
<path fill-rule="evenodd" clip-rule="evenodd" d="M124.9 49.1871L124.213 49.1907C124.441 49.0201 124.67 49.0418 124.9 49.1871Z" fill="black"/>
<path fill-rule="evenodd" clip-rule="evenodd" d="M77.909 48.2157C77.7256 48.1855 77.5424 48.1552 77.3594 48.125C77.5424 48.1552 77.7258 48.1855 77.909 48.2157Z" fill="black"/>
<path fill-rule="evenodd" clip-rule="evenodd" d="M27.6187 80.1807C27.3896 80.1362 27.1607 80.0914 26.9316 80.0469L27.6187 80.1807Z" fill="black"/>
<path fill-rule="evenodd" clip-rule="evenodd" d="M73.8603 40.7482C73.856 40.6106 73.8518 40.4731 73.8477 40.3359C73.8518 40.4735 73.856 40.6109 73.8603 40.7482Z" fill="black"/>
<path fill-rule="evenodd" clip-rule="evenodd" d="M69.252 93.5742C69.3439 93.5799 69.4359 93.5855 69.5268 93.591C69.4344 93.5853 69.3431 93.5797 69.252 93.5742Z" fill="black"/>
<path fill-rule="evenodd" clip-rule="evenodd" d="M6.18359 19.7891C6.32155 19.7926 6.4595 19.7963 6.59581 19.8001C6.45717 19.7963 6.32038 19.7926 6.18359 19.7891Z" fill="black"/>
<path fill-rule="evenodd" clip-rule="evenodd" d="M90.8867 34.8398C90.8908 35.0692 90.8954 35.2985 90.8999 35.5269C90.8958 35.2974 90.8917 35.0685 90.8867 34.8398Z" fill="black"/>
<path fill-rule="evenodd" clip-rule="evenodd" d="M74.0613 84.0361C73.8775 84.0334 73.6941 84.0304 73.5117 84.0273C73.6958 84.0298 73.8786 84.0331 74.0613 84.0361Z" fill="black"/>
<path fill-rule="evenodd" clip-rule="evenodd" d="M93.5723 11.2321C93.8471 11.2016 94.1217 11.1711 94.3967 11.1406C94.1329 11.3739 93.848 11.2187 93.5723 11.2321Z" fill="black"/>
<path fill-rule="evenodd" clip-rule="evenodd" d="M72.5489 84.109C72.4111 84.1038 72.2734 84.0987 72.1367 84.0938C72.2751 84.099 72.4119 84.1039 72.5489 84.109Z" fill="black"/>
<path fill-rule="evenodd" clip-rule="evenodd" d="M67.7988 86.5039C67.8057 86.7334 67.8127 86.9626 67.8197 87.1909C67.813 86.9611 67.8058 86.7325 67.7988 86.5039Z" fill="black"/>
<path fill-rule="evenodd" clip-rule="evenodd" d="M88.7637 19.6721C88.947 19.655 89.1301 19.638 89.3133 19.6211C89.1461 19.75 88.9497 19.6745 88.7637 19.6721Z" fill="black"/>
<path fill-rule="evenodd" clip-rule="evenodd" d="M57.2969 20.0722C57.5255 19.8773 57.7546 19.8985 57.9839 20.07C57.7548 20.0705 57.5259 20.0713 57.2969 20.0722Z" fill="black"/>
<path fill-rule="evenodd" clip-rule="evenodd" d="M48.6992 27.0092C48.7058 26.9175 48.7123 26.8259 48.7193 26.7344C48.713 26.8262 48.7061 26.9177 48.6992 27.0092Z" fill="black"/>
<path fill-rule="evenodd" clip-rule="evenodd" d="M88.6914 24.3984C88.6933 24.582 88.6951 24.7654 88.6972 24.9481C88.6954 24.7641 88.6935 24.5813 88.6914 24.3984Z" fill="black"/>
<path fill-rule="evenodd" clip-rule="evenodd" d="M28.069 53.1214C28.3705 53.2237 28.9769 53.5324 29.3282 53.4915C29.6095 53.4586 29.8413 53.1168 30.1125 53.1172C30.8428 53.1181 30.7073 53.9624 30.3545 54.4155C29.4002 55.6414 27.2678 54.3122 28.069 53.1214Z" fill="black"/>
<path fill-rule="evenodd" clip-rule="evenodd" d="M31.0506 48.7188C32.0465 48.9758 31.5504 51.1665 30.7132 51.3171C29.7275 51.4946 29.5557 49.7133 29.7504 49.0694C30.2577 49.3709 29.9436 50.4462 30.583 50.149C30.9896 49.9598 30.9277 49.0851 31.0506 48.7188Z" fill="black"/>
</svg>
