<svg width="85" height="85" viewBox="0 0 85 85" fill="none" xmlns="http://www.w3.org/2000/svg">
<circle cx="42.4561" cy="42.8076" r="41.9033" fill="#FF3A29"/>
<path d="M43.03 34.1981H36.1418C34.8737 34.1981 33.8457 35.2261 33.8457 36.4942V50.2706C33.8457 51.5387 34.8737 52.5667 36.1418 52.5667H49.9182C51.1863 52.5667 52.2143 51.5387 52.2143 50.2706V43.3824M50.3938 39.2658L51.6402 38.0193C52.5369 37.1226 52.5369 35.6688 51.6402 34.7721C50.7435 33.8755 49.2897 33.8755 48.3931 34.7722L47.1466 36.0186M50.3938 39.2658L43.4639 46.1957C43.1434 46.5163 42.7351 46.7347 42.2906 46.8236L38.9134 47.4991L39.5888 44.1219C39.6777 43.6774 39.8962 43.2691 40.2167 42.9486L47.1466 36.0186M50.3938 39.2658L47.1466 36.0186" stroke="white" stroke-width="1.72205" stroke-linecap="round" stroke-linejoin="round"/>
</svg>
