<svg width="64" height="64" viewBox="0 0 64 64" fill="none" xmlns="http://www.w3.org/2000/svg">
<g clip-path="url(#clip0_363_8973)">
<rect width="64" height="64" fill="#6BAD44"/>
<path d="M29.3644 57.8315V64.0003H35.4052V57.7606C35.4052 56.5552 35.7605 55.6334 37.1818 55.2079C39.2428 54.6407 44.2175 53.4353 46.4917 50.5991C46.6338 50.3864 47.8419 49.0392 47.6998 47.2665C47.6287 45.2103 45.6389 16.068 45.6389 16.139C45.6389 15.5009 45.0703 14.9336 44.3596 14.9336H42.2276C41.8723 14.9336 41.517 15.1463 41.3037 15.359C41.0906 15.5717 41.0195 15.8554 41.0195 16.139V16.4226L42.583 42.0904C42.583 42.7286 42.0144 43.2958 41.3037 43.2958H36.0448C35.3341 43.2958 34.7655 42.7286 34.7655 42.0904V16.4226C34.7655 15.7844 34.197 15.2172 33.4863 15.2172H31.2832C30.5726 15.2172 30.004 15.7844 30.004 16.4226V42.0904C30.004 42.7286 29.4355 43.2958 28.7248 43.2958H23.4659C22.7552 43.2958 22.1866 42.7286 22.1866 42.0904L23.7501 16.4226V16.139C23.7501 15.8554 23.6791 15.5718 23.4659 15.359C23.2526 15.0754 22.8973 14.9336 22.542 14.9336H20.41C19.6993 14.9336 19.1307 15.5009 19.1307 16.139C19.1307 16.139 17.1407 45.4939 17.0698 47.3374C16.9987 49.0392 18.0647 50.4572 18.2779 50.67C20.6021 53.4807 25.2994 54.6898 27.5278 55.2634L27.5878 55.2788C28.867 55.6333 29.3644 56.5552 29.3644 57.8315Z" fill="white"/>
</g>
<defs>
<clipPath id="clip0_363_8973">
<rect width="64" height="64" fill="white"/>
</clipPath>
</defs>
</svg>
