<svg width="80" height="80" viewBox="0 0 80 80" fill="none" xmlns="http://www.w3.org/2000/svg">
<rect width="80" height="80" fill="#190D39"/>
<path d="M57.1048 43.6791H30.9557C31.546 48.7923 34.7896 53.0209 41.5735 53.0209C45.31 53.0209 48.3566 51.9392 50.6175 50.1692C51.9936 49.0882 53.1734 48.2021 54.9435 48.2021C57.892 48.2021 59.6628 50.0703 59.6628 52.5274C59.6628 55.2804 57.4988 57.15 55.4349 58.4266C52.1906 60.4918 47.8652 62.3586 41.0814 62.3586C26.3346 62.3586 18.666 52.1348 18.666 39.8458C18.666 26.8691 28.0072 17.333 40.8844 17.333C53.1734 17.333 61.3327 26.9679 61.3327 39.8458C61.3327 41.7141 60.1535 43.6791 57.1048 43.6791ZM40.8837 26.7709C35.4767 26.7709 31.7409 30.3097 31.1506 35.3242H50.1247C49.24 30.8012 46.0937 26.7709 40.8837 26.7709Z" fill="white"/>
</svg>
