<svg width="59" height="55" viewBox="0 0 59 55" fill="none" xmlns="http://www.w3.org/2000/svg">
<g opacity="0.68" clip-path="url(#clip0_203_741)">
<circle cx="29.5656" cy="29.2472" r="25.0324" fill="#343130"/>
<path d="M23.6655 19.3645C23.6655 19.6681 23.6394 20.1741 23.3272 20.503C22.989 20.8066 22.4686 20.832 22.1564 20.832C20.4001 20.832 17.9637 20.4135 16.3024 21.0597C18.8378 16.7462 23.7493 13.8799 23.7175 14.1271C23.4835 15.8339 23.6655 17.6477 23.6655 19.3645ZM28.9211 38.9477C28.9211 36.8477 30.6903 35.1272 32.8758 35.1272C33.5262 35.1272 34.0466 35.6332 34.0466 36.2658C34.0466 36.6959 33.8124 37.0501 33.4481 37.2525C33.0514 37.484 32.502 37.376 32.1473 37.6826C31.8871 37.885 31.6789 38.214 31.6789 38.5682C31.6789 38.9477 31.835 39.3019 32.0952 39.5549C32.5635 40.0104 33.188 40.2634 33.8644 40.2634C35.6336 40.2634 37.0646 38.8718 37.0646 37.1513C37.0646 35.6079 35.9979 34.2417 34.5929 33.6344C32.4607 32.5977 29.1984 33.1877 28.9471 29.9404C28.556 31.6579 27.6933 34.7224 25.3566 34.7224C18.2978 35.1302 15.7536 29.7088 15.2617 23.9693C15.2617 22.7296 16.0423 21.8946 17.0309 21.7681C18.8001 21.7681 20.5693 21.7681 22.3386 21.7681C23.2492 21.7681 23.7695 21.5404 24.1078 21.2368C24.5501 20.832 24.6541 20.25 24.6541 19.5669C24.6541 17.7874 24.6541 15.0508 24.6541 14.2283C24.6541 13.1541 25.6428 12.5078 26.9177 12.5078C27.6687 12.5078 28.3735 12.5328 29.1032 12.7102C30.6903 13.0897 31.0285 14.6584 31.0285 14.6584C31.0285 14.6584 34.0205 15.1645 35.5296 15.4175C36.9606 15.6705 40.499 15.8982 41.1754 19.3645C42.7625 27.6127 41.7999 35.6079 41.7218 35.6079C40.603 43.4007 33.9425 43.0212 33.9425 43.0212C31.5213 43.0212 28.9211 41.4545 28.9211 38.9477ZM36.7264 25.5127C35.8678 25.4368 35.1393 25.7657 34.8791 26.3982C34.5104 27.2946 38.3135 28.04 38.3135 26.8031C38.2094 26.0946 37.585 25.6139 36.7264 25.5127Z" fill="white"/>
</g>
<defs>
<clipPath id="clip0_203_741">
<rect width="57.2168" height="54.2514" fill="white" transform="translate(0.957031 0.640625)"/>
</clipPath>
</defs>
</svg>
