<svg width="59" height="55" viewBox="0 0 59 55" fill="none" xmlns="http://www.w3.org/2000/svg">
<g clip-path="url(#clip0_186_4081)">
<circle cx="29.5652" cy="29.2494" r="25.0324" fill="#00A82D"/>
<path d="M23.6647 19.3651C23.6647 19.6687 23.6387 20.1748 23.3265 20.5037C22.9882 20.8073 22.4679 20.8326 22.1557 20.8326C20.3993 20.8326 17.9629 20.4141 16.3017 21.0603C18.837 16.7468 23.7485 13.8806 23.7167 14.1277C23.4827 15.8346 23.6647 17.6483 23.6647 19.3651ZM28.9203 38.9483C28.9203 36.8483 30.6895 35.1278 32.875 35.1278C33.5254 35.1278 34.0458 35.6339 34.0458 36.2664C34.0458 36.6965 33.8116 37.0507 33.4474 37.2532C33.0507 37.4846 32.5012 37.3766 32.1465 37.6833C31.8863 37.8857 31.6782 38.2146 31.6782 38.5688C31.6782 38.9483 31.8343 39.3026 32.0945 39.5556C32.5628 40.011 33.1872 40.264 33.8637 40.264C35.6329 40.264 37.0639 38.8724 37.0639 37.152C37.0639 35.6086 35.9971 34.2423 34.5922 33.6351C32.4599 32.5983 29.1976 33.1883 28.9463 29.9411C28.5552 31.6586 27.6926 34.723 25.3559 34.723C18.297 35.1308 15.7528 29.7094 15.2609 23.97C15.2609 22.7302 16.0415 21.8952 17.0302 21.7687C18.7994 21.7687 20.5686 21.7687 22.3378 21.7687C23.2484 21.7687 23.7688 21.541 24.107 21.2374C24.5493 20.8326 24.6534 20.2507 24.6534 19.5675C24.6534 17.788 24.6534 15.0515 24.6534 14.2289C24.6534 13.1547 25.642 12.5085 26.9169 12.5085C27.6679 12.5085 28.3728 12.5335 29.1024 12.7109C30.6895 13.0904 31.0277 14.6591 31.0277 14.6591C31.0277 14.6591 34.0198 15.1651 35.5288 15.4181C36.9598 15.6711 40.4982 15.8988 41.1747 19.3651C42.7617 27.6133 41.7991 35.6086 41.721 35.6086C40.6023 43.4014 33.9417 43.0219 33.9417 43.0219C31.5206 43.0219 28.9203 41.4552 28.9203 38.9483ZM36.7256 25.5133C35.867 25.4374 35.1385 25.7664 34.8784 26.3989C34.5097 27.2952 38.3127 28.0406 38.3127 26.8037C38.2086 26.0953 37.5842 25.6145 36.7256 25.5133Z" fill="white"/>
</g>
<defs>
<clipPath id="clip0_186_4081">
<rect width="57.2168" height="54.2514" fill="white" transform="translate(0.956589 0.640961)"/>
</clipPath>
</defs>
</svg>
