<svg width="77" height="32" viewBox="0 0 77 32" fill="none" xmlns="http://www.w3.org/2000/svg">
<path d="M0 0H16.6667V10.6384H8.33333L0 0ZM0 10.6384H8.33333L16.6667 21.2769H0V10.6384ZM0 21.2769H8.33333V31.9153L0 21.2769Z" fill="#697681"/>
<path d="M26.0706 8.39269H32.8075V11.1257H28.6205V14.9236H32.8075V17.5963H28.6205V22.4592H26.0706V8.39269ZM34.1927 12.7733H36.6011V14.8029C36.7269 14.1054 36.9843 13.57 37.3724 13.1953C37.7705 12.8064 38.2124 12.6126 38.6947 12.6126C38.9467 12.6126 39.1568 12.6399 39.3241 12.6929V15.5466C39.0839 15.5097 38.8422 15.4897 38.6001 15.4863C37.939 15.4863 37.4411 15.7603 37.1048 16.3098C36.7696 16.8457 36.6011 17.6493 36.6011 18.7216V22.4592H34.1938V12.7733H34.1927ZM43.1261 22.7205C42.3918 22.7205 41.7513 22.4991 41.2057 22.0571C40.6704 21.6152 40.2449 20.9878 39.978 20.2484C39.6947 19.4721 39.5521 18.5936 39.5521 17.6162C39.5521 16.6515 39.7001 15.7803 39.9936 15.0039C40.2689 14.2539 40.7058 13.6197 41.2529 13.1753C41.8085 12.7333 42.4436 12.5119 43.1578 12.5119C43.6927 12.5119 44.1708 12.6599 44.5902 12.9543C45.0096 13.2498 45.3245 13.6518 45.5346 14.1599V12.7733H47.927V22.4592H45.5346V21.0924C45.3245 21.5748 44.9993 21.9695 44.5585 22.2781C44.1178 22.5765 43.6252 22.7283 43.1261 22.7205ZM43.8189 20.1681C44.3957 20.1681 44.8418 19.9272 45.1567 19.4449C45.4717 18.9625 45.6291 18.3526 45.6291 17.6162C45.6291 16.8929 45.4717 16.2899 45.1567 15.8075C44.8418 15.3252 44.3957 15.0842 43.8189 15.0842C43.2725 15.0842 42.8325 15.3184 42.4966 15.7876C42.1714 16.2568 42.0086 16.8657 42.0086 17.6162C42.0086 18.3668 42.1714 18.9825 42.4966 19.4648C42.8325 19.934 43.2733 20.1681 43.8189 20.1681ZM49.6115 12.7733H52.0199V14.1799C52.1884 13.6834 52.4606 13.2814 52.8381 12.9743C53.227 12.6672 53.678 12.5119 54.192 12.5119C55.3884 12.5119 56.181 13.1076 56.5688 14.3006C56.7823 13.7599 57.1163 13.3126 57.5292 13.0147C57.9707 12.6754 58.4778 12.5017 58.9929 12.5119C60.7875 12.5119 61.6846 13.8241 61.6846 16.4505V22.4592H59.2605V17.0132C59.2605 16.3575 59.166 15.8752 58.9772 15.5666C58.7881 15.259 58.5049 15.1042 58.127 15.1042C57.7179 15.1042 57.403 15.2853 57.1826 15.6469C56.9623 15.9954 56.8521 16.6043 56.8521 17.4755V22.4592H54.428V16.9932C54.428 16.3371 54.3338 15.8611 54.1447 15.5666C53.967 15.259 53.6883 15.1042 53.3112 15.1042C52.8911 15.1042 52.5708 15.2853 52.3505 15.6469C52.1301 15.9954 52.0199 16.6043 52.0199 17.4755V22.4592H49.6122V12.7733H49.6115ZM70.7321 17.1139C70.7321 17.5286 70.7107 17.9779 70.668 18.4602H65.0653C65.0867 19.09 65.254 19.5714 65.569 19.9073C65.8839 20.2416 66.3098 20.4096 66.8439 20.4096C67.5893 20.4096 68.0617 20.1209 68.2607 19.5451H70.6219C70.506 20.4967 70.0969 21.2662 69.3938 21.8561C68.7014 22.4319 67.8512 22.7205 66.8439 22.7205C65.543 22.7205 64.5197 22.2713 63.7743 21.3738C63.04 20.4757 62.6725 19.2239 62.6725 17.6162C62.6725 16.5712 62.8402 15.6669 63.1761 14.9032C63.5006 14.1405 64.0008 13.5233 64.6085 13.1349C65.2281 12.7202 65.9468 12.5119 66.7661 12.5119C67.542 12.5119 68.229 12.7061 68.8273 13.095C69.4358 13.4839 69.9032 14.0261 70.228 14.7226C70.5643 15.4201 70.7321 16.2169 70.7321 17.1139ZM68.3541 16.5513C68.3438 15.9083 68.2024 15.4186 67.929 15.0842C67.6568 14.7499 67.2625 14.5819 66.7486 14.5819C66.2346 14.5819 65.8255 14.7625 65.5209 15.1246C65.2273 15.4731 65.0752 15.9482 65.0642 16.5513H68.3541ZM71.7939 12.7733H74.2023V14.8029C74.3282 14.1054 74.5855 13.57 74.9736 13.1953C75.3503 12.8166 75.8162 12.6112 76.2959 12.6126C76.5475 12.6126 76.758 12.6399 76.9253 12.6929V15.5466C76.6852 15.5097 76.4434 15.4897 76.2013 15.4863C75.5402 15.4863 75.0423 15.7603 74.706 16.3098C74.3697 16.8457 74.2023 17.6493 74.2023 18.7216V22.4592H71.7939V12.7733Z" fill="#697681"/>
</svg>
