<svg width="58" height="58" viewBox="0 0 58 58" fill="none" xmlns="http://www.w3.org/2000/svg">
<path d="M4.62281 31.1353C3.22729 29.7398 3.22729 27.4772 4.62281 26.0817L26.0817 4.62281C27.4772 3.22729 29.7398 3.22729 31.1353 4.62281L52.5942 26.0817C53.9898 27.4772 53.9898 29.7398 52.5942 31.1353L31.1353 52.5942C29.7398 53.9898 27.4772 53.9898 26.0817 52.5942L4.62281 31.1353Z" fill="#F9C242"/>
<path d="M21.7238 9.05078L19.5508 11.2238L25.1632 16.8363C24.9362 17.3234 24.8094 17.8666 24.8094 18.4394C24.8094 20.0658 25.8313 21.4535 27.268 21.9956V35.725C25.8313 36.267 24.8094 37.6547 24.8094 39.2811C24.8094 41.3796 26.5106 43.0807 28.609 43.0807C30.7074 43.0807 32.4085 41.3796 32.4085 39.2811C32.4085 37.8066 31.5686 36.5283 30.3411 35.8985V22.0142L35.7062 27.3792C35.4902 27.8564 35.37 28.3862 35.37 28.9441C35.37 31.0425 37.0711 32.7436 39.1695 32.7436C41.268 32.7436 42.9691 31.0425 42.9691 28.9441C42.9691 26.8457 41.268 25.1445 39.1695 25.1445C38.7617 25.1445 38.369 25.2088 38.0008 25.3277L32.2388 19.5658C32.3491 19.2099 32.4085 18.8316 32.4085 18.4394C32.4085 16.341 30.7074 14.6399 28.609 14.6399C28.2168 14.6399 27.8386 14.6993 27.4827 14.8096L21.7238 9.05078Z" fill="white"/>
</svg>
