<svg width="58" height="58" viewBox="0 0 58 58" fill="none" xmlns="http://www.w3.org/2000/svg">
<path d="M4.62274 31.1352C3.22722 29.7397 3.22722 27.4771 4.62274 26.0816L26.0816 4.62269C27.4772 3.22717 29.7397 3.22717 31.1353 4.62269L52.5942 26.0816C53.9897 27.4771 53.9897 29.7397 52.5942 31.1352L31.1353 52.5941C29.7397 53.9896 27.4772 53.9896 26.0816 52.5941L4.62274 31.1352Z" fill="#EE513B"/>
<path d="M21.7233 9.05035L19.5502 11.2234L25.1627 16.8359C24.9357 17.323 24.8089 17.8662 24.8089 18.439C24.8089 20.0654 25.8307 21.4531 27.2674 21.9952V35.7246C25.8307 36.2666 24.8089 37.6543 24.8089 39.2807C24.8089 41.3791 26.51 43.0802 28.6084 43.0802C30.7069 43.0802 32.408 41.3791 32.408 39.2807C32.408 37.8062 31.5681 36.5279 30.3406 35.898V22.0138L35.7056 27.3788C35.4897 27.856 35.3694 28.3858 35.3694 28.9437C35.3694 31.0421 37.0705 32.7432 39.169 32.7432C41.2674 32.7432 42.9685 31.0421 42.9685 28.9437C42.9685 26.8452 41.2674 25.1441 39.169 25.1441C38.7612 25.1441 38.3684 25.2084 38.0002 25.3273L32.2383 19.5653C32.3486 19.2095 32.408 18.8312 32.408 18.439C32.408 16.3406 30.7069 14.6395 28.6084 14.6395C28.2163 14.6395 27.838 14.6989 27.4821 14.8092L21.7233 9.05035Z" fill="white"/>
</svg>
