<svg width="80" height="80" viewBox="0 0 80 80" fill="none" xmlns="http://www.w3.org/2000/svg">
<rect width="80" height="80" fill="#0372CF"/>
<path d="M33.2763 24H24.2251C20.8639 24 18.666 26.2766 18.666 29.4395V41.7087C18.666 44.8699 20.8639 47.0201 24.2251 47.0201H28.3639V48.0312C28.2346 50.4358 26.9406 51.6996 23.5789 51.826H21.5104V56H23.5789C29.6561 56 33.147 53.2179 33.2763 48.0312V28.0476V24ZM28.3639 42.8461H25.6483C24.3543 42.8461 23.5789 42.0879 23.5789 40.9487V30.1978C23.5789 29.0603 24.3543 28.3004 25.5191 28.3004H28.3639V42.8461ZM61.3327 29.4395V47.0201H56.4203V30.1978C56.4203 29.0603 55.6449 28.3004 54.4801 28.3004H51.6354V47.0201H46.723V28.3004H41.9398V47.0201H37.0256V24H55.7741C59.265 24 61.3327 26.1502 61.3327 29.4395ZM61.3327 56H37.0256V51.826H61.3327V56Z" fill="white"/>
</svg>
