<svg width="85" height="85" viewBox="0 0 85 85" fill="none" xmlns="http://www.w3.org/2000/svg">
<circle cx="42.4562" cy="42.8081" r="41.9033" fill="#0693E3"/>
<path d="M43.0302 34.1979H36.142C34.8739 34.1979 33.8459 35.2258 33.8459 36.4939V50.2704C33.8459 51.5384 34.8739 52.5664 36.142 52.5664H49.9184C51.1865 52.5664 52.2145 51.5384 52.2145 50.2704V43.3821M50.394 39.2655L51.6404 38.019C52.5371 37.1224 52.5371 35.6686 51.6404 34.7719C50.7438 33.8752 49.29 33.8752 48.3933 34.7719L47.1468 36.0184M50.394 39.2655L43.4641 46.1955C43.1436 46.516 42.7353 46.7345 42.2908 46.8234L38.9136 47.4988L39.5891 44.1216C39.678 43.6771 39.8964 43.2689 40.217 42.9483L47.1468 36.0184M50.394 39.2655L47.1468 36.0184" stroke="white" stroke-width="1.72205" stroke-linecap="round" stroke-linejoin="round"/>
</svg>
