<svg width="80" height="80" viewBox="0 0 80 80" fill="none" xmlns="http://www.w3.org/2000/svg">
<g filter="url(#filter0_d_619_11619)">
<circle cx="40" cy="36" r="24" fill="white"/>
</g>
<path d="M41.8366 34.6667C42.4806 34.6667 43.0033 35.1893 43.0033 35.8333V38.9993C43.0033 39.7952 42.6872 40.5584 42.1244 41.1211C41.5617 41.6839 40.7985 42 40.0027 42C39.2068 42 38.4436 41.6839 37.8809 41.1211C37.3181 40.5584 37.002 39.7952 37.002 38.9993V35.8333C37.002 35.1893 37.524 34.6667 38.1687 34.6667H41.8366ZM36.7547 34.6667C36.5145 34.9556 36.3701 35.3121 36.3413 35.6867L36.3347 35.8333V38.9993C36.3347 39.564 36.4627 40.0987 36.6907 40.576C36.2955 40.6817 35.8813 40.6951 35.4802 40.6152C35.079 40.5353 34.7016 40.3642 34.3771 40.1151C34.0527 39.866 33.7898 39.5457 33.609 39.1788C33.4281 38.8119 33.334 38.4084 33.334 37.9993V35.8333C33.334 35.5405 33.4441 35.2585 33.6424 35.0431C33.8408 34.8277 34.1129 34.6948 34.4047 34.6707L34.5007 34.6667H36.7547ZM43.2507 34.6667H45.5007C46.1447 34.6667 46.6673 35.1893 46.6673 35.8333V38C46.6674 38.4088 46.5735 38.8121 46.3929 39.1788C46.2123 39.5455 45.9498 39.8658 45.6257 40.1149C45.3016 40.364 44.9245 40.5353 44.5237 40.6155C44.1229 40.6956 43.709 40.6826 43.314 40.5773C43.514 40.1587 43.6367 39.6973 43.664 39.2093L43.67 38.9993V35.8333C43.67 35.39 43.5133 34.9833 43.2507 34.6667ZM40.0007 30C40.5311 30 41.0398 30.2107 41.4149 30.5858C41.7899 30.9609 42.0007 31.4696 42.0007 32C42.0007 32.5304 41.7899 33.0391 41.4149 33.4142C41.0398 33.7893 40.5311 34 40.0007 34C39.4702 34 38.9615 33.7893 38.5864 33.4142C38.2114 33.0391 38.0007 32.5304 38.0007 32C38.0007 31.4696 38.2114 30.9609 38.5864 30.5858C38.9615 30.2107 39.4702 30 40.0007 30ZM44.334 30.6667C44.776 30.6667 45.1999 30.8423 45.5125 31.1548C45.8251 31.4674 46.0007 31.8913 46.0007 32.3333C46.0007 32.7754 45.8251 33.1993 45.5125 33.5118C45.1999 33.8244 44.776 34 44.334 34C43.892 34 43.468 33.8244 43.1555 33.5118C42.8429 33.1993 42.6673 32.7754 42.6673 32.3333C42.6673 31.8913 42.8429 31.4674 43.1555 31.1548C43.468 30.8423 43.892 30.6667 44.334 30.6667ZM35.6673 30.6667C36.1093 30.6667 36.5333 30.8423 36.8458 31.1548C37.1584 31.4674 37.334 31.8913 37.334 32.3333C37.334 32.7754 37.1584 33.1993 36.8458 33.5118C36.5333 33.8244 36.1093 34 35.6673 34C35.2253 34 34.8014 33.8244 34.4888 33.5118C34.1762 33.1993 34.0007 32.7754 34.0007 32.3333C34.0007 31.8913 34.1762 31.4674 34.4888 31.1548C34.8014 30.8423 35.2253 30.6667 35.6673 30.6667Z" fill="#223645"/>
<defs>
<filter id="filter0_d_619_11619" x="0" y="0" width="80" height="80" filterUnits="userSpaceOnUse" color-interpolation-filters="sRGB">
<feFlood flood-opacity="0" result="BackgroundImageFix"/>
<feColorMatrix in="SourceAlpha" type="matrix" values="0 0 0 0 0 0 0 0 0 0 0 0 0 0 0 0 0 0 127 0" result="hardAlpha"/>
<feOffset dy="4"/>
<feGaussianBlur stdDeviation="8"/>
<feComposite in2="hardAlpha" operator="out"/>
<feColorMatrix type="matrix" values="0 0 0 0 0.133333 0 0 0 0 0.211765 0 0 0 0 0.270588 0 0 0 0.13 0"/>
<feBlend mode="normal" in2="BackgroundImageFix" result="effect1_dropShadow_619_11619"/>
<feBlend mode="normal" in="SourceGraphic" in2="effect1_dropShadow_619_11619" result="shape"/>
</filter>
</defs>
</svg>
