<svg width="85" height="85" viewBox="0 0 85 85" fill="none" xmlns="http://www.w3.org/2000/svg">
<circle cx="42.8248" cy="42.8082" r="41.9033" fill="#6A26DA"/>
<path fill-rule="evenodd" clip-rule="evenodd" d="M45.2779 51.24C45.2053 51.24 45.1306 51.2368 45.0558 51.2292C44.1025 51.1349 43.355 50.4622 43.1492 49.5143L40.2426 36.0896L37.2493 43.0034C37.0771 43.3999 36.686 43.6567 36.2548 43.6567H33.0048C32.4058 43.6567 31.9215 43.1714 31.9215 42.5734C31.9215 41.9743 32.4058 41.49 33.0048 41.49H35.5442L38.259 35.2186C38.6436 34.3346 39.4908 33.82 40.4538 33.9164C41.4072 34.0107 42.1547 34.6834 42.3605 35.6314L45.2671 49.056L48.2603 42.1422C48.4326 41.7457 48.8226 41.49 49.2548 41.49H52.5048C53.1039 41.49 53.5882 41.9743 53.5882 42.5734C53.5882 43.1714 53.1039 43.6567 52.5048 43.6567H49.9655L47.2507 49.927C46.8964 50.7428 46.137 51.24 45.2779 51.24Z" fill="white"/>
</svg>
