<svg width="85" height="85" viewBox="0 0 85 85" fill="none" xmlns="http://www.w3.org/2000/svg">
<circle cx="42.6405" cy="42.8082" r="41.9033" fill="#FCB900"/>
<path fill-rule="evenodd" clip-rule="evenodd" d="M56.0705 52.2382C56.0705 52.9742 55.4745 53.5716 54.7372 53.5716C53.9999 53.5716 53.4039 52.9742 53.4039 52.2382C53.4039 50.0329 51.6092 48.2382 49.4039 48.2382C48.4932 48.2382 47.6279 48.5502 46.9292 49.1036C47.6545 50.4316 48.0705 51.9542 48.0705 53.5716C48.0705 54.3076 47.4745 54.9049 46.7372 54.9049C45.9999 54.9049 45.4039 54.3076 45.4039 53.5716C45.4039 49.8956 42.4132 46.9049 38.7372 46.9049C35.0612 46.9049 32.0705 49.8956 32.0705 53.5716C32.0705 54.3076 31.4745 54.9049 30.7372 54.9049C29.9999 54.9049 29.4039 54.3076 29.4039 53.5716C29.4039 48.4249 33.5919 44.2382 38.7372 44.2382C41.3065 44.2382 43.6345 45.2822 45.3239 46.9662C46.4825 46.0702 47.9092 45.5716 49.4039 45.5716C53.0799 45.5716 56.0705 48.5622 56.0705 52.2382ZM49.4039 38.9049C50.1399 38.9049 50.7372 39.5036 50.7372 40.2382C50.7372 40.9729 50.1399 41.5716 49.4039 41.5716C48.6679 41.5716 48.0705 40.9729 48.0705 40.2382C48.0705 39.5036 48.6679 38.9049 49.4039 38.9049ZM49.4039 44.2382C51.6092 44.2382 53.4039 42.4436 53.4039 40.2382C53.4039 38.0329 51.6092 36.2382 49.4039 36.2382C47.1985 36.2382 45.4039 38.0329 45.4039 40.2382C45.4039 42.4436 47.1985 44.2382 49.4039 44.2382ZM38.7372 33.5716C40.2079 33.5716 41.4039 34.7676 41.4039 36.2382C41.4039 37.7089 40.2079 38.9049 38.7372 38.9049C37.2665 38.9049 36.0705 37.7089 36.0705 36.2382C36.0705 34.7676 37.2665 33.5716 38.7372 33.5716ZM38.7372 41.5716C41.6785 41.5716 44.0705 39.1796 44.0705 36.2382C44.0705 33.2969 41.6785 30.9049 38.7372 30.9049C35.7959 30.9049 33.4039 33.2969 33.4039 36.2382C33.4039 39.1796 35.7959 41.5716 38.7372 41.5716Z" fill="white"/>
</svg>
