<svg width="84" height="84" viewBox="0 0 84 84" fill="none" xmlns="http://www.w3.org/2000/svg">
<rect width="84" height="84" rx="42" fill="#FFEFF4"/>
<path d="M41.7765 32.5921H34.8882C33.6202 32.5921 32.5922 33.6201 32.5922 34.8882V48.6646C32.5922 49.9327 33.6201 50.9607 34.8882 50.9607H48.6647C49.9328 50.9607 50.9607 49.9327 50.9607 48.6646V41.7764M49.1402 37.6598L50.3867 36.4133C51.2833 35.5166 51.2833 34.0629 50.3867 33.1662C49.49 32.2695 48.0362 32.2695 47.1395 33.1662L45.8931 34.4127M49.1402 37.6598L42.2104 44.5898C41.8898 44.9103 41.4816 45.1288 41.0371 45.2177L37.6599 45.8931L38.3353 42.5159C38.4242 42.0714 38.6427 41.6632 38.9632 41.3426L45.8931 34.4127M49.1402 37.6598L45.8931 34.4127" stroke="#FF6AC2" stroke-width="1.72205" stroke-linecap="round" stroke-linejoin="round"/>
</svg>
