<svg width="114" height="41" viewBox="0 0 114 41" fill="none" xmlns="http://www.w3.org/2000/svg">
<rect x="22.2695" width="27.6782" height="30.2478" rx="9" transform="rotate(47.4138 22.2695 0)" fill="#E35C30"/>
<path d="M53.4084 18.7464C53.3686 18.3454 53.1979 18.0339 52.8963 17.8118C52.5947 17.5897 52.1854 17.4787 51.6683 17.4787C51.317 17.4787 51.0204 17.5284 50.7784 17.6278C50.5365 17.724 50.3509 17.8582 50.2216 18.0305C50.0956 18.2029 50.0327 18.3984 50.0327 18.6172C50.026 18.7995 50.0642 18.9586 50.147 19.0945C50.2332 19.2304 50.3509 19.348 50.5 19.4474C50.6491 19.5436 50.8215 19.6281 51.017 19.701C51.2126 19.7706 51.4214 19.8303 51.6435 19.88L52.5582 20.0987C53.0024 20.1982 53.41 20.3307 53.7812 20.4964C54.1525 20.6622 54.474 20.866 54.7457 21.108C55.0175 21.3499 55.228 21.6349 55.3771 21.9631C55.5296 22.2912 55.6075 22.6674 55.6108 23.0916C55.6075 23.7147 55.4484 24.255 55.1335 24.7124C54.822 25.1664 54.3712 25.5194 53.7812 25.7713C53.1946 26.0199 52.487 26.1442 51.6584 26.1442C50.8364 26.1442 50.1205 26.0182 49.5107 25.7663C48.9041 25.5144 48.4302 25.1416 48.0888 24.6477C47.7507 24.1506 47.5734 23.5357 47.5568 22.8033H49.6399C49.6631 23.1446 49.7609 23.4297 49.9332 23.6584C50.1089 23.8838 50.3426 24.0545 50.6342 24.1705C50.9292 24.2831 51.2623 24.3395 51.6335 24.3395C51.9981 24.3395 52.3146 24.2865 52.5831 24.1804C52.8549 24.0743 53.0653 23.9268 53.2145 23.7379C53.3636 23.549 53.4382 23.3319 53.4382 23.0866C53.4382 22.858 53.3703 22.6657 53.2344 22.5099C53.1018 22.3542 52.9063 22.2216 52.6477 22.1122C52.3925 22.0028 52.0793 21.9034 51.7081 21.8139L50.5994 21.5355C49.741 21.3267 49.0632 21.0002 48.5661 20.5561C48.0689 20.112 47.822 19.5137 47.8253 18.7614C47.822 18.1449 47.986 17.6063 48.3175 17.1456C48.6522 16.6849 49.1113 16.3253 49.6946 16.0668C50.2779 15.8082 50.9408 15.679 51.6832 15.679C52.4389 15.679 53.0985 15.8082 53.6619 16.0668C54.2287 16.3253 54.6695 16.6849 54.9844 17.1456C55.2992 17.6063 55.4616 18.1399 55.4716 18.7464H53.4084ZM59.1966 26.1442C58.7093 26.1442 58.2752 26.0597 57.894 25.8906C57.5128 25.7183 57.2112 25.4647 56.9892 25.13C56.7704 24.7919 56.661 24.371 56.661 23.8672C56.661 23.4429 56.7389 23.0866 56.8947 22.7983C57.0505 22.5099 57.2626 22.2779 57.5311 22.1023C57.7995 21.9266 58.1045 21.794 58.4458 21.7045C58.7905 21.6151 59.1518 21.5521 59.5297 21.5156C59.9738 21.4692 60.3317 21.4261 60.6035 21.3864C60.8753 21.3433 61.0725 21.2803 61.1951 21.1974C61.3178 21.1146 61.3791 20.992 61.3791 20.8295V20.7997C61.3791 20.4848 61.2797 20.2412 61.0808 20.0689C60.8852 19.8965 60.6068 19.8104 60.2456 19.8104C59.8644 19.8104 59.5611 19.8949 59.3358 20.0639C59.1104 20.2296 58.9612 20.4384 58.8883 20.6903L56.9295 20.5312C57.0289 20.0672 57.2245 19.6662 57.5162 19.3281C57.8078 18.9867 58.184 18.7249 58.6447 18.5426C59.1087 18.357 59.6457 18.2642 60.2555 18.2642C60.6797 18.2642 61.0858 18.3139 61.4735 18.4134C61.8646 18.5128 62.211 18.6669 62.5126 18.8757C62.8175 19.0845 63.0578 19.353 63.2335 19.6811C63.4092 20.0059 63.497 20.3954 63.497 20.8494V26H61.4885V24.9411H61.4288C61.3062 25.1797 61.1421 25.3902 60.9366 25.5724C60.7311 25.7514 60.4842 25.8923 60.1958 25.995C59.9075 26.0945 59.5744 26.1442 59.1966 26.1442ZM59.8031 24.6825C60.1146 24.6825 60.3897 24.6212 60.6284 24.4986C60.867 24.3726 61.0543 24.2036 61.1902 23.9915C61.3261 23.7794 61.394 23.5391 61.394 23.2706V22.4602C61.3277 22.5033 61.2366 22.5431 61.1206 22.5795C61.0079 22.6127 60.8803 22.6442 60.7377 22.674C60.5952 22.7005 60.4527 22.7254 60.3102 22.7486C60.1677 22.7685 60.0384 22.7867 59.9224 22.8033C59.6738 22.8397 59.4567 22.8977 59.2711 22.9773C59.0855 23.0568 58.9413 23.1645 58.8386 23.3004C58.7359 23.433 58.6845 23.5987 58.6845 23.7976C58.6845 24.0859 58.7889 24.3063 58.9977 24.4588C59.2098 24.608 59.4783 24.6825 59.8031 24.6825ZM71.4938 20.5412L69.5549 20.6605C69.5217 20.4948 69.4505 20.3456 69.3411 20.2131C69.2317 20.0772 69.0875 19.9695 68.9086 19.8899C68.7329 19.8071 68.5224 19.7656 68.2772 19.7656C67.949 19.7656 67.6723 19.8352 67.4469 19.9744C67.2215 20.1103 67.1088 20.2926 67.1088 20.5213C67.1088 20.7036 67.1818 20.8577 67.3276 20.9837C67.4734 21.1096 67.7237 21.2107 68.0783 21.2869L69.4604 21.5653C70.2028 21.7178 70.7563 21.9631 71.1209 22.3011C71.4855 22.6392 71.6678 23.0833 71.6678 23.6335C71.6678 24.134 71.5203 24.5732 71.2253 24.951C70.9337 25.3288 70.5326 25.6238 70.0222 25.8359C69.5151 26.0447 68.9301 26.1491 68.2672 26.1491C67.2563 26.1491 66.4509 25.9387 65.851 25.5178C65.2544 25.0935 64.9048 24.5168 64.802 23.7876L66.8851 23.6783C66.9481 23.9865 67.1006 24.2218 67.3425 24.3842C67.5845 24.5433 67.8944 24.6229 68.2722 24.6229C68.6434 24.6229 68.9417 24.5516 69.1671 24.4091C69.3958 24.2633 69.5118 24.076 69.5151 23.8473C69.5118 23.6551 69.4306 23.4976 69.2715 23.375C69.1124 23.2491 68.8671 23.1529 68.5357 23.0866L67.2132 22.8232C66.4675 22.674 65.9123 22.4155 65.5478 22.0476C65.1865 21.6797 65.0059 21.2107 65.0059 20.6406C65.0059 20.1501 65.1384 19.7275 65.4036 19.3729C65.6721 19.0182 66.0482 18.7448 66.5321 18.5526C67.0194 18.3603 67.5894 18.2642 68.2424 18.2642C69.2069 18.2642 69.9659 18.468 70.5194 18.8757C71.0762 19.2834 71.401 19.8385 71.4938 20.5412ZM79.3551 20.5412L77.4162 20.6605C77.383 20.4948 77.3118 20.3456 77.2024 20.2131C77.093 20.0772 76.9489 19.9695 76.7699 19.8899C76.5942 19.8071 76.3838 19.7656 76.1385 19.7656C75.8104 19.7656 75.5336 19.8352 75.3082 19.9744C75.0829 20.1103 74.9702 20.2926 74.9702 20.5213C74.9702 20.7036 75.0431 20.8577 75.1889 20.9837C75.3348 21.1096 75.585 21.2107 75.9396 21.2869L77.3217 21.5653C78.0642 21.7178 78.6177 21.9631 78.9822 22.3011C79.3468 22.6392 79.5291 23.0833 79.5291 23.6335C79.5291 24.134 79.3816 24.5732 79.0866 24.951C78.795 25.3288 78.3939 25.6238 77.8835 25.8359C77.3764 26.0447 76.7914 26.1491 76.1286 26.1491C75.1177 26.1491 74.3123 25.9387 73.7124 25.5178C73.1158 25.0935 72.7661 24.5168 72.6634 23.7876L74.7464 23.6783C74.8094 23.9865 74.9619 24.2218 75.2038 24.3842C75.4458 24.5433 75.7557 24.6229 76.1335 24.6229C76.5047 24.6229 76.803 24.5516 77.0284 24.4091C77.2571 24.2633 77.3731 24.076 77.3764 23.8473C77.3731 23.6551 77.2919 23.4976 77.1328 23.375C76.9737 23.2491 76.7285 23.1529 76.397 23.0866L75.0746 22.8232C74.3288 22.674 73.7737 22.4155 73.4091 22.0476C73.0478 21.6797 72.8672 21.2107 72.8672 20.6406C72.8672 20.1501 72.9998 19.7275 73.2649 19.3729C73.5334 19.0182 73.9096 18.7448 74.3935 18.5526C74.8807 18.3603 75.4508 18.2642 76.1037 18.2642C77.0682 18.2642 77.8272 18.468 78.3807 18.8757C78.9375 19.2834 79.2623 19.8385 79.3551 20.5412ZM80.9025 26V15.8182H83.0552V24.2251H87.4203V26H80.9025ZM90.9837 26.1442C90.4964 26.1442 90.0623 26.0597 89.6811 25.8906C89.3 25.7183 88.9983 25.4647 88.7763 25.13C88.5575 24.7919 88.4482 24.371 88.4482 23.8672C88.4482 23.4429 88.526 23.0866 88.6818 22.7983C88.8376 22.5099 89.0497 22.2779 89.3182 22.1023C89.5866 21.9266 89.8916 21.794 90.233 21.7045C90.5777 21.6151 90.9389 21.5521 91.3168 21.5156C91.7609 21.4692 92.1188 21.4261 92.3906 21.3864C92.6624 21.3433 92.8596 21.2803 92.9822 21.1974C93.1049 21.1146 93.1662 20.992 93.1662 20.8295V20.7997C93.1662 20.4848 93.0668 20.2412 92.8679 20.0689C92.6723 19.8965 92.3939 19.8104 92.0327 19.8104C91.6515 19.8104 91.3482 19.8949 91.1229 20.0639C90.8975 20.2296 90.7483 20.4384 90.6754 20.6903L88.7166 20.5312C88.8161 20.0672 89.0116 19.6662 89.3033 19.3281C89.5949 18.9867 89.9711 18.7249 90.4318 18.5426C90.8958 18.357 91.4328 18.2642 92.0426 18.2642C92.4669 18.2642 92.8729 18.3139 93.2607 18.4134C93.6518 18.5128 93.9981 18.6669 94.2997 18.8757C94.6046 19.0845 94.8449 19.353 95.0206 19.6811C95.1963 20.0059 95.2841 20.3954 95.2841 20.8494V26H93.2756V24.9411H93.2159C93.0933 25.1797 92.9292 25.3902 92.7237 25.5724C92.5182 25.7514 92.2713 25.8923 91.983 25.995C91.6946 26.0945 91.3615 26.1442 90.9837 26.1442ZM91.5902 24.6825C91.9018 24.6825 92.1768 24.6212 92.4155 24.4986C92.6541 24.3726 92.8414 24.2036 92.9773 23.9915C93.1132 23.7794 93.1811 23.5391 93.1811 23.2706V22.4602C93.1148 22.5033 93.0237 22.5431 92.9077 22.5795C92.795 22.6127 92.6674 22.6442 92.5249 22.674C92.3823 22.7005 92.2398 22.7254 92.0973 22.7486C91.9548 22.7685 91.8255 22.7867 91.7095 22.8033C91.4609 22.8397 91.2438 22.8977 91.0582 22.9773C90.8726 23.0568 90.7285 23.1645 90.6257 23.3004C90.523 23.433 90.4716 23.5987 90.4716 23.7976C90.4716 24.0859 90.576 24.3063 90.7848 24.4588C90.9969 24.608 91.2654 24.6825 91.5902 24.6825ZM99.0451 21.5852V26H96.9272V18.3636H98.9457V19.7109H99.0352C99.2042 19.2668 99.4876 18.9155 99.8853 18.657C100.283 18.3951 100.765 18.2642 101.332 18.2642C101.862 18.2642 102.325 18.3802 102.719 18.6122C103.114 18.8442 103.42 19.1757 103.639 19.6065C103.858 20.0341 103.967 20.5445 103.967 21.1378V26H101.849V21.5156C101.852 21.0483 101.733 20.6837 101.491 20.4219C101.249 20.1567 100.916 20.0241 100.492 20.0241C100.207 20.0241 99.9549 20.0855 99.7362 20.2081C99.5207 20.3307 99.3517 20.5097 99.229 20.745C99.1097 20.977 99.0484 21.2571 99.0451 21.5852ZM108.45 26.1243C107.87 26.1243 107.345 25.9751 106.874 25.6768C106.407 25.3752 106.036 24.9328 105.76 24.3494C105.489 23.7628 105.353 23.0436 105.353 22.1918C105.353 21.3168 105.494 20.5893 105.775 20.0092C106.057 19.4259 106.432 18.9901 106.899 18.7017C107.37 18.41 107.885 18.2642 108.445 18.2642C108.873 18.2642 109.229 18.3371 109.514 18.483C109.802 18.6255 110.034 18.8045 110.21 19.0199C110.389 19.232 110.525 19.4408 110.618 19.6463H110.682V15.8182H112.795V26H110.707V24.777H110.618C110.518 24.9891 110.377 25.1996 110.195 25.4084C110.016 25.6139 109.782 25.7846 109.494 25.9205C109.209 26.0563 108.861 26.1243 108.45 26.1243ZM109.121 24.4389C109.463 24.4389 109.751 24.3461 109.986 24.1605C110.225 23.9716 110.407 23.7081 110.533 23.37C110.662 23.032 110.727 22.6359 110.727 22.1818C110.727 21.7277 110.664 21.3333 110.538 20.9986C110.412 20.6638 110.23 20.4053 109.991 20.223C109.753 20.0407 109.463 19.9496 109.121 19.9496C108.773 19.9496 108.48 20.044 108.241 20.233C108.003 20.4219 107.822 20.6837 107.699 21.0185C107.577 21.3532 107.515 21.741 107.515 22.1818C107.515 22.6259 107.577 23.0187 107.699 23.3601C107.825 23.6982 108.006 23.9633 108.241 24.1555C108.48 24.3445 108.773 24.4389 109.121 24.4389Z" fill="white"/>
</svg>
