<svg width="162" height="41" viewBox="0 0 162 41" fill="none" xmlns="http://www.w3.org/2000/svg">
<rect x="22.2695" width="27.6782" height="30.2478" rx="5" transform="rotate(47.4138 22.2695 0)" fill="#F9C242"/>
<path d="M24 5C34 15.1667 42 35 5 23.5" stroke="white" stroke-width="2" stroke-linecap="round"/>
<path d="M57.9858 16.5653C57.9176 15.8778 57.625 15.3437 57.108 14.9631C56.5909 14.5824 55.8892 14.392 55.0028 14.392C54.4006 14.392 53.892 14.4773 53.4773 14.6477C53.0625 14.8125 52.7443 15.0426 52.5227 15.3381C52.3068 15.6335 52.1989 15.9688 52.1989 16.3438C52.1875 16.6562 52.2528 16.929 52.3949 17.1619C52.5426 17.3949 52.7443 17.5966 53 17.767C53.2557 17.9318 53.5511 18.0767 53.8864 18.2017C54.2216 18.321 54.5795 18.4233 54.9602 18.5085L56.5284 18.8835C57.2898 19.054 57.9886 19.2812 58.625 19.5653C59.2614 19.8494 59.8125 20.1989 60.2784 20.6136C60.7443 21.0284 61.1051 21.517 61.3608 22.0795C61.6222 22.642 61.7557 23.2869 61.7614 24.0142C61.7557 25.0824 61.483 26.0085 60.9432 26.7926C60.4091 27.571 59.6364 28.1761 58.625 28.608C57.6193 29.0341 56.4063 29.2472 54.9858 29.2472C53.5767 29.2472 52.3494 29.0312 51.304 28.5994C50.2642 28.1676 49.4517 27.5284 48.8665 26.6818C48.2869 25.8295 47.983 24.7756 47.9545 23.5199H51.5256C51.5653 24.1051 51.733 24.5937 52.0284 24.9858C52.3295 25.3722 52.7301 25.6648 53.2301 25.8636C53.7358 26.0568 54.3068 26.1534 54.9432 26.1534C55.5682 26.1534 56.1108 26.0625 56.571 25.8807C57.0369 25.6989 57.3977 25.446 57.6534 25.1222C57.9091 24.7983 58.0369 24.4261 58.0369 24.0057C58.0369 23.6136 57.9205 23.2841 57.6875 23.017C57.4602 22.75 57.125 22.5227 56.6818 22.3352C56.2443 22.1477 55.7074 21.9773 55.071 21.8239L53.1705 21.3466C51.6989 20.9886 50.5369 20.429 49.6847 19.6676C48.8324 18.9062 48.4091 17.8807 48.4148 16.5909C48.4091 15.5341 48.6903 14.6108 49.2585 13.821C49.8324 13.0312 50.6193 12.4148 51.6193 11.9716C52.6193 11.5284 53.7557 11.3068 55.0284 11.3068C56.3239 11.3068 57.4545 11.5284 58.4205 11.9716C59.392 12.4148 60.1477 13.0312 60.6875 13.821C61.2273 14.6108 61.5057 15.5256 61.5227 16.5653H57.9858ZM67.9084 29.2472C67.0732 29.2472 66.3288 29.1023 65.6754 28.8125C65.022 28.517 64.505 28.0824 64.1243 27.5085C63.7493 26.929 63.5618 26.2074 63.5618 25.3438C63.5618 24.6165 63.6953 24.0057 63.9624 23.5114C64.2294 23.017 64.593 22.6193 65.0533 22.3182C65.5135 22.017 66.0362 21.7898 66.6214 21.6364C67.2124 21.483 67.8317 21.375 68.4794 21.3125C69.2408 21.233 69.8544 21.1591 70.3203 21.0909C70.7862 21.017 71.1243 20.9091 71.3345 20.767C71.5447 20.625 71.6499 20.4148 71.6499 20.1364V20.0852C71.6499 19.5455 71.4794 19.1278 71.1385 18.8324C70.8033 18.5369 70.326 18.3892 69.7067 18.3892C69.0533 18.3892 68.5334 18.5341 68.147 18.8239C67.7607 19.108 67.505 19.4659 67.38 19.8977L64.022 19.625C64.1925 18.8295 64.5277 18.142 65.0277 17.5625C65.5277 16.9773 66.1726 16.5284 66.9624 16.2159C67.7578 15.8977 68.6783 15.7386 69.7237 15.7386C70.451 15.7386 71.147 15.8239 71.8118 15.9943C72.4822 16.1648 73.076 16.429 73.593 16.7869C74.1158 17.1449 74.5277 17.6051 74.8288 18.1676C75.13 18.7244 75.2805 19.392 75.2805 20.1705V29H71.8374V27.1847H71.7351C71.5249 27.5938 71.2436 27.9545 70.8913 28.267C70.5391 28.5739 70.1158 28.8153 69.6214 28.9915C69.1271 29.1619 68.5561 29.2472 67.9084 29.2472ZM68.9482 26.7415C69.4822 26.7415 69.9538 26.6364 70.3629 26.4261C70.772 26.2102 71.093 25.9205 71.326 25.5568C71.5589 25.1932 71.6754 24.7812 71.6754 24.321V22.9318C71.5618 23.0057 71.4055 23.0739 71.2067 23.1364C71.0135 23.1932 70.7947 23.2472 70.5504 23.2983C70.3061 23.3437 70.0618 23.3864 69.8175 23.4261C69.5732 23.4602 69.3516 23.4915 69.1527 23.5199C68.7266 23.5824 68.3544 23.6818 68.0362 23.8182C67.718 23.9545 67.4709 24.1392 67.2947 24.3722C67.1186 24.5994 67.0305 24.8835 67.0305 25.2244C67.0305 25.7188 67.2095 26.0966 67.5675 26.358C67.9311 26.6136 68.3913 26.7415 68.9482 26.7415ZM88.9893 19.642L85.6655 19.8466C85.6087 19.5625 85.4865 19.3068 85.299 19.0795C85.1115 18.8466 84.8643 18.6619 84.5575 18.5256C84.2564 18.3835 83.8956 18.3125 83.4751 18.3125C82.9126 18.3125 82.4382 18.4318 82.0518 18.6705C81.6655 18.9034 81.4723 19.2159 81.4723 19.608C81.4723 19.9205 81.5973 20.1847 81.8473 20.4006C82.0973 20.6165 82.5263 20.7898 83.1342 20.9205L85.5036 21.3977C86.7763 21.6591 87.7251 22.0795 88.3501 22.6591C88.9751 23.2386 89.2876 24 89.2876 24.9432C89.2876 25.8011 89.0348 26.554 88.5291 27.2017C88.0291 27.8494 87.3416 28.3551 86.4666 28.7188C85.5973 29.0767 84.5945 29.2557 83.4581 29.2557C81.7251 29.2557 80.3445 28.8949 79.3161 28.1733C78.2933 27.446 77.6939 26.4574 77.5178 25.2074L81.0888 25.0199C81.1967 25.5483 81.4581 25.9517 81.8729 26.2301C82.2876 26.5028 82.8189 26.6392 83.4666 26.6392C84.103 26.6392 84.6143 26.517 85.0007 26.2727C85.3928 26.0227 85.5916 25.7017 85.5973 25.3097C85.5916 24.9801 85.4524 24.7102 85.1797 24.5C84.907 24.2841 84.4865 24.1193 83.9183 24.0057L81.6513 23.554C80.3729 23.2983 79.4212 22.8551 78.7962 22.2244C78.1768 21.5937 77.8672 20.7898 77.8672 19.8125C77.8672 18.9716 78.0945 18.2472 78.549 17.6392C79.0092 17.0312 79.6541 16.5625 80.4837 16.233C81.3189 15.9034 82.2962 15.7386 83.4155 15.7386C85.0689 15.7386 86.37 16.0881 87.3189 16.7869C88.2734 17.4858 88.8303 18.4375 88.9893 19.642ZM102.466 19.642L99.142 19.8466C99.0852 19.5625 98.9631 19.3068 98.7756 19.0795C98.5881 18.8466 98.3409 18.6619 98.0341 18.5256C97.733 18.3835 97.3722 18.3125 96.9517 18.3125C96.3892 18.3125 95.9148 18.4318 95.5284 18.6705C95.142 18.9034 94.9489 19.2159 94.9489 19.608C94.9489 19.9205 95.0739 20.1847 95.3239 20.4006C95.5739 20.6165 96.0028 20.7898 96.6108 20.9205L98.9801 21.3977C100.253 21.6591 101.202 22.0795 101.827 22.6591C102.452 23.2386 102.764 24 102.764 24.9432C102.764 25.8011 102.511 26.554 102.006 27.2017C101.506 27.8494 100.818 28.3551 99.9432 28.7188C99.0739 29.0767 98.071 29.2557 96.9347 29.2557C95.2017 29.2557 93.821 28.8949 92.7926 28.1733C91.7699 27.446 91.1705 26.4574 90.9943 25.2074L94.5653 25.0199C94.6733 25.5483 94.9347 25.9517 95.3494 26.2301C95.7642 26.5028 96.2955 26.6392 96.9432 26.6392C97.5795 26.6392 98.0909 26.517 98.4773 26.2727C98.8693 26.0227 99.0682 25.7017 99.0739 25.3097C99.0682 24.9801 98.929 24.7102 98.6562 24.5C98.3835 24.2841 97.9631 24.1193 97.3949 24.0057L95.1278 23.554C93.8494 23.2983 92.8977 22.8551 92.2727 22.2244C91.6534 21.5937 91.3438 20.7898 91.3438 19.8125C91.3438 18.9716 91.571 18.2472 92.0256 17.6392C92.4858 17.0312 93.1307 16.5625 93.9602 16.233C94.7955 15.9034 95.7727 15.7386 96.892 15.7386C98.5455 15.7386 99.8466 16.0881 100.795 16.7869C101.75 17.4858 102.307 18.4375 102.466 19.642ZM105.119 29V11.5455H108.809V25.9574H116.292V29H105.119ZM122.401 29.2472C121.565 29.2472 120.821 29.1023 120.168 28.8125C119.514 28.517 118.997 28.0824 118.616 27.5085C118.241 26.929 118.054 26.2074 118.054 25.3438C118.054 24.6165 118.188 24.0057 118.455 23.5114C118.722 23.017 119.085 22.6193 119.545 22.3182C120.006 22.017 120.528 21.7898 121.114 21.6364C121.705 21.483 122.324 21.375 122.972 21.3125C123.733 21.233 124.347 21.1591 124.812 21.0909C125.278 21.017 125.616 20.9091 125.827 20.767C126.037 20.625 126.142 20.4148 126.142 20.1364V20.0852C126.142 19.5455 125.972 19.1278 125.631 18.8324C125.295 18.5369 124.818 18.3892 124.199 18.3892C123.545 18.3892 123.026 18.5341 122.639 18.8239C122.253 19.108 121.997 19.4659 121.872 19.8977L118.514 19.625C118.685 18.8295 119.02 18.142 119.52 17.5625C120.02 16.9773 120.665 16.5284 121.455 16.2159C122.25 15.8977 123.17 15.7386 124.216 15.7386C124.943 15.7386 125.639 15.8239 126.304 15.9943C126.974 16.1648 127.568 16.429 128.085 16.7869C128.608 17.1449 129.02 17.6051 129.321 18.1676C129.622 18.7244 129.773 19.392 129.773 20.1705V29H126.33V27.1847H126.227C126.017 27.5938 125.736 27.9545 125.384 28.267C125.031 28.5739 124.608 28.8153 124.114 28.9915C123.619 29.1619 123.048 29.2472 122.401 29.2472ZM123.44 26.7415C123.974 26.7415 124.446 26.6364 124.855 26.4261C125.264 26.2102 125.585 25.9205 125.818 25.5568C126.051 25.1932 126.168 24.7812 126.168 24.321V22.9318C126.054 23.0057 125.898 23.0739 125.699 23.1364C125.506 23.1932 125.287 23.2472 125.043 23.2983C124.798 23.3437 124.554 23.3864 124.31 23.4261C124.065 23.4602 123.844 23.4915 123.645 23.5199C123.219 23.5824 122.847 23.6818 122.528 23.8182C122.21 23.9545 121.963 24.1392 121.787 24.3722C121.611 24.5994 121.523 24.8835 121.523 25.2244C121.523 25.7188 121.702 26.0966 122.06 26.358C122.423 26.6136 122.884 26.7415 123.44 26.7415ZM136.22 21.4318V29H132.589V15.9091H136.05V18.2188H136.203C136.493 17.4574 136.979 16.8551 137.661 16.4119C138.342 15.9631 139.169 15.7386 140.141 15.7386C141.05 15.7386 141.842 15.9375 142.518 16.3352C143.195 16.733 143.72 17.3011 144.095 18.0398C144.47 18.7727 144.658 19.6477 144.658 20.6648V29H141.027V21.3125C141.033 20.5114 140.828 19.8864 140.413 19.4375C139.999 18.983 139.428 18.7557 138.7 18.7557C138.212 18.7557 137.78 18.8608 137.405 19.071C137.036 19.2812 136.746 19.5881 136.536 19.9915C136.331 20.3892 136.226 20.8693 136.22 21.4318ZM152.343 29.2131C151.349 29.2131 150.448 28.9574 149.641 28.446C148.84 27.929 148.204 27.1705 147.732 26.1705C147.266 25.1648 147.033 23.9318 147.033 22.4716C147.033 20.9716 147.275 19.7244 147.758 18.7301C148.241 17.7301 148.883 16.983 149.684 16.4886C150.491 15.9886 151.374 15.7386 152.335 15.7386C153.067 15.7386 153.678 15.8636 154.167 16.1136C154.661 16.358 155.059 16.6648 155.36 17.0341C155.667 17.3977 155.9 17.7557 156.059 18.108H156.17V11.5455H159.792V29H156.212V26.9034H156.059C155.888 27.267 155.647 27.6278 155.335 27.9858C155.028 28.3381 154.627 28.6307 154.133 28.8636C153.644 29.0966 153.048 29.2131 152.343 29.2131ZM153.494 26.3239C154.079 26.3239 154.573 26.1648 154.977 25.8466C155.386 25.5227 155.698 25.071 155.914 24.4915C156.136 23.9119 156.246 23.233 156.246 22.4545C156.246 21.6761 156.138 21 155.923 20.4261C155.707 19.8523 155.394 19.4091 154.985 19.0966C154.576 18.7841 154.079 18.6278 153.494 18.6278C152.897 18.6278 152.394 18.7898 151.985 19.1136C151.576 19.4375 151.266 19.8864 151.056 20.4602C150.846 21.0341 150.741 21.6989 150.741 22.4545C150.741 23.2159 150.846 23.8892 151.056 24.4744C151.272 25.054 151.582 25.5085 151.985 25.8381C152.394 26.1619 152.897 26.3239 153.494 26.3239Z" fill="#2C2003"/>
</svg>
