<svg width="84" height="84" viewBox="0 0 84 84" fill="none" xmlns="http://www.w3.org/2000/svg">
<rect width="84" height="84" rx="42" fill="#FE79A1"/>
<mask id="mask0_228_785" style="mask-type:alpha" maskUnits="userSpaceOnUse" x="30" y="30" width="24" height="24">
<rect x="30" y="30" width="24" height="24" fill="#D9D9D9"/>
</mask>
<g mask="url(#mask0_228_785)">
<path d="M31 50V47.2C31 46.6333 31.1458 46.1125 31.4375 45.6375C31.7292 45.1625 32.1167 44.8 32.6 44.55C33.6333 44.0333 34.6833 43.6458 35.75 43.3875C36.8167 43.1292 37.9 43 39 43C40.1 43 41.1833 43.1292 42.25 43.3875C43.3167 43.6458 44.3667 44.0333 45.4 44.55C45.8833 44.8 46.2708 45.1625 46.5625 45.6375C46.8542 46.1125 47 46.6333 47 47.2V50H31ZM49 50V47C49 46.2667 48.7958 45.5625 48.3875 44.8875C47.9792 44.2125 47.4 43.6333 46.65 43.15C47.5 43.25 48.3 43.4208 49.05 43.6625C49.8 43.9042 50.5 44.2 51.15 44.55C51.75 44.8833 52.2083 45.2542 52.525 45.6625C52.8417 46.0708 53 46.5167 53 47V50H49ZM39 42C37.9 42 36.9583 41.6083 36.175 40.825C35.3917 40.0417 35 39.1 35 38C35 36.9 35.3917 35.9583 36.175 35.175C36.9583 34.3917 37.9 34 39 34C40.1 34 41.0417 34.3917 41.825 35.175C42.6083 35.9583 43 36.9 43 38C43 39.1 42.6083 40.0417 41.825 40.825C41.0417 41.6083 40.1 42 39 42ZM49 38C49 39.1 48.6083 40.0417 47.825 40.825C47.0417 41.6083 46.1 42 45 42C44.8167 42 44.5833 41.9792 44.3 41.9375C44.0167 41.8958 43.7833 41.85 43.6 41.8C44.05 41.2667 44.3958 40.675 44.6375 40.025C44.8792 39.375 45 38.7 45 38C45 37.3 44.8792 36.625 44.6375 35.975C44.3958 35.325 44.05 34.7333 43.6 34.2C43.8333 34.1167 44.0667 34.0625 44.3 34.0375C44.5333 34.0125 44.7667 34 45 34C46.1 34 47.0417 34.3917 47.825 35.175C48.6083 35.9583 49 36.9 49 38ZM33 48H45V47.2C45 47.0167 44.9542 46.85 44.8625 46.7C44.7708 46.55 44.65 46.4333 44.5 46.35C43.6 45.9 42.6917 45.5625 41.775 45.3375C40.8583 45.1125 39.9333 45 39 45C38.0667 45 37.1417 45.1125 36.225 45.3375C35.3083 45.5625 34.4 45.9 33.5 46.35C33.35 46.4333 33.2292 46.55 33.1375 46.7C33.0458 46.85 33 47.0167 33 47.2V48ZM39 40C39.55 40 40.0208 39.8042 40.4125 39.4125C40.8042 39.0208 41 38.55 41 38C41 37.45 40.8042 36.9792 40.4125 36.5875C40.0208 36.1958 39.55 36 39 36C38.45 36 37.9792 36.1958 37.5875 36.5875C37.1958 36.9792 37 37.45 37 38C37 38.55 37.1958 39.0208 37.5875 39.4125C37.9792 39.8042 38.45 40 39 40Z" fill="white"/>
</g>
</svg>
