<svg width="45" height="45" viewBox="0 0 45 45" fill="none" xmlns="http://www.w3.org/2000/svg">
<circle cx="22.5" cy="22.5" r="22.5" fill="#569ED3" fill-opacity="0.2"/>
<mask id="mask0_801_5658" style="mask-type:alpha" maskUnits="userSpaceOnUse" x="6" y="6" width="33" height="33">
<rect x="6" y="6" width="33" height="33" fill="#D9D9D9"/>
</mask>
<g mask="url(#mask0_801_5658)">
<path d="M19.3145 28.9375L28.9394 22.75L19.3145 16.5625V28.9375ZM22.752 36.5C20.8499 36.5 19.0624 36.1391 17.3895 35.4172C15.7165 34.6953 14.2613 33.7156 13.0238 32.4781C11.7863 31.2406 10.8066 29.7854 10.0848 28.1125C9.36289 26.4396 9.00195 24.6521 9.00195 22.75C9.00195 20.8479 9.36289 19.0604 10.0848 17.3875C10.8066 15.7146 11.7863 14.2594 13.0238 13.0219C14.2613 11.7844 15.7165 10.8047 17.3895 10.0828C19.0624 9.36094 20.8499 9 22.752 9C24.654 9 26.4415 9.36094 28.1145 10.0828C29.7874 10.8047 31.2426 11.7844 32.4801 13.0219C33.7176 14.2594 34.6973 15.7146 35.4191 17.3875C36.141 19.0604 36.5019 20.8479 36.5019 22.75C36.5019 24.6521 36.141 26.4396 35.4191 28.1125C34.6973 29.7854 33.7176 31.2406 32.4801 32.4781C31.2426 33.7156 29.7874 34.6953 28.1145 35.4172C26.4415 36.1391 24.654 36.5 22.752 36.5ZM22.752 33.75C25.8228 33.75 28.4238 32.6844 30.5551 30.5531C32.6863 28.4219 33.7519 25.8208 33.7519 22.75C33.7519 19.6792 32.6863 17.0781 30.5551 14.9469C28.4238 12.8156 25.8228 11.75 22.752 11.75C19.6811 11.75 17.0801 12.8156 14.9488 14.9469C12.8176 17.0781 11.752 19.6792 11.752 22.75C11.752 25.8208 12.8176 28.4219 14.9488 30.5531C17.0801 32.6844 19.6811 33.75 22.752 33.75Z" fill="#223645"/>
</g>
</svg>
