<svg width="24" height="25" viewBox="0 0 24 25" fill="none" xmlns="http://www.w3.org/2000/svg">
<rect x="1.5" y="2.35449" width="21" height="21" rx="4.5" fill="#676769"/>
<rect x="1.5" y="2.35449" width="21" height="21" rx="4.5" fill="#676769"/>
<rect x="1.5" y="2.35449" width="21" height="21" rx="4.5" fill="#676769"/>
<path d="M17.25 8.72949C17.25 9.35081 16.7463 9.85449 16.125 9.85449C15.5037 9.85449 15 9.35081 15 8.72949C15 8.10817 15.5037 7.60449 16.125 7.60449C16.7463 7.60449 17.25 8.10817 17.25 8.72949Z" fill="white"/>
<path fill-rule="evenodd" clip-rule="evenodd" d="M12 16.6045C14.0711 16.6045 15.75 14.9256 15.75 12.8545C15.75 10.7834 14.0711 9.10449 12 9.10449C9.92893 9.10449 8.25 10.7834 8.25 12.8545C8.25 14.9256 9.92893 16.6045 12 16.6045ZM12 15.1045C13.2426 15.1045 14.25 14.0971 14.25 12.8545C14.25 11.6119 13.2426 10.6045 12 10.6045C10.7574 10.6045 9.75 11.6119 9.75 12.8545C9.75 14.0971 10.7574 15.1045 12 15.1045Z" fill="white"/>
<path fill-rule="evenodd" clip-rule="evenodd" d="M4.5 12.5545C4.5 10.0343 4.5 8.77414 4.99047 7.81153C5.4219 6.96481 6.11031 6.27639 6.95704 5.84496C7.91965 5.35449 9.17976 5.35449 11.7 5.35449H12.3C14.8202 5.35449 16.0804 5.35449 17.043 5.84496C17.8897 6.27639 18.5781 6.96481 19.0095 7.81153C19.5 8.77414 19.5 10.0343 19.5 12.5545V13.1545C19.5 15.6747 19.5 16.9348 19.0095 17.8974C18.5781 18.7442 17.8897 19.4326 17.043 19.864C16.0804 20.3545 14.8202 20.3545 12.3 20.3545H11.7C9.17976 20.3545 7.91965 20.3545 6.95704 19.864C6.11031 19.4326 5.4219 18.7442 4.99047 17.8974C4.5 16.9348 4.5 15.6747 4.5 13.1545V12.5545ZM11.7 6.85449H12.3C13.5849 6.85449 14.4583 6.85566 15.1334 6.91082C15.7911 6.96455 16.1274 7.06194 16.362 7.18147C16.9265 7.46909 17.3854 7.92803 17.673 8.49252C17.7926 8.72712 17.8899 9.06343 17.9437 9.72105C17.9988 10.3962 18 11.2696 18 12.5545V13.1545C18 14.4394 17.9988 15.3128 17.9437 15.9879C17.8899 16.6456 17.7926 16.9819 17.673 17.2165C17.3854 17.781 16.9265 18.2399 16.362 18.5275C16.1274 18.647 15.7911 18.7444 15.1334 18.7982C14.4583 18.8533 13.5849 18.8545 12.3 18.8545H11.7C10.4151 18.8545 9.54169 18.8533 8.86656 18.7982C8.20893 18.7444 7.87263 18.647 7.63803 18.5275C7.07354 18.2399 6.6146 17.781 6.32698 17.2165C6.20745 16.9819 6.11006 16.6456 6.05633 15.9879C6.00117 15.3128 6 14.4394 6 13.1545V12.5545C6 11.2696 6.00117 10.3962 6.05633 9.72105C6.11006 9.06343 6.20745 8.72712 6.32698 8.49252C6.6146 7.92803 7.07354 7.46909 7.63803 7.18147C7.87263 7.06194 8.20893 6.96455 8.86656 6.91082C9.54169 6.85566 10.4151 6.85449 11.7 6.85449Z" fill="white"/>
</svg>
