<svg width="24" height="25" viewBox="0 0 24 25" fill="none" xmlns="http://www.w3.org/2000/svg">
<rect x="1.5" y="1.79297" width="21" height="21" rx="4.5" fill="#2B1059"/>
<rect x="1.5" y="1.79297" width="21" height="21" rx="4.5" fill="#2B1059"/>
<rect x="1.5" y="1.79297" width="21" height="21" rx="4.5" fill="#A6B1BE"/>
<path d="M17.25 8.16797C17.25 8.78929 16.7463 9.29297 16.125 9.29297C15.5037 9.29297 15 8.78929 15 8.16797C15 7.54665 15.5037 7.04297 16.125 7.04297C16.7463 7.04297 17.25 7.54665 17.25 8.16797Z" fill="#2E2E52"/>
<path fill-rule="evenodd" clip-rule="evenodd" d="M12 16.043C14.0711 16.043 15.75 14.364 15.75 12.293C15.75 10.2219 14.0711 8.54297 12 8.54297C9.92893 8.54297 8.25 10.2219 8.25 12.293C8.25 14.364 9.92893 16.043 12 16.043ZM12 14.543C13.2426 14.543 14.25 13.5356 14.25 12.293C14.25 11.0503 13.2426 10.043 12 10.043C10.7574 10.043 9.75 11.0503 9.75 12.293C9.75 13.5356 10.7574 14.543 12 14.543Z" fill="#2E2E52"/>
<path fill-rule="evenodd" clip-rule="evenodd" d="M4.5 11.993C4.5 9.47273 4.5 8.21261 4.99047 7.25001C5.4219 6.40328 6.11031 5.71487 6.95704 5.28344C7.91965 4.79297 9.17976 4.79297 11.7 4.79297H12.3C14.8202 4.79297 16.0804 4.79297 17.043 5.28344C17.8897 5.71487 18.5781 6.40328 19.0095 7.25001C19.5 8.21261 19.5 9.47273 19.5 11.993V12.593C19.5 15.1132 19.5 16.3733 19.0095 17.3359C18.5781 18.1827 17.8897 18.8711 17.043 19.3025C16.0804 19.793 14.8202 19.793 12.3 19.793H11.7C9.17976 19.793 7.91965 19.793 6.95704 19.3025C6.11031 18.8711 5.4219 18.1827 4.99047 17.3359C4.5 16.3733 4.5 15.1132 4.5 12.593V11.993ZM11.7 6.29297H12.3C13.5849 6.29297 14.4583 6.29414 15.1334 6.3493C15.7911 6.40303 16.1274 6.50041 16.362 6.61995C16.9265 6.90757 17.3854 7.36651 17.673 7.931C17.7926 8.1656 17.8899 8.5019 17.9437 9.15953C17.9988 9.83466 18 10.7081 18 11.993V12.593C18 13.8778 17.9988 14.7513 17.9437 15.4264C17.8899 16.084 17.7926 16.4203 17.673 16.6549C17.3854 17.2194 16.9265 17.6784 16.362 17.966C16.1274 18.0855 15.7911 18.1829 15.1334 18.2366C14.4583 18.2918 13.5849 18.293 12.3 18.293H11.7C10.4151 18.293 9.54169 18.2918 8.86656 18.2366C8.20893 18.1829 7.87263 18.0855 7.63803 17.966C7.07354 17.6784 6.6146 17.2194 6.32698 16.6549C6.20745 16.4203 6.11006 16.084 6.05633 15.4264C6.00117 14.7513 6 13.8778 6 12.593V11.993C6 10.7081 6.00117 9.83466 6.05633 9.15953C6.11006 8.5019 6.20745 8.1656 6.32698 7.931C6.6146 7.36651 7.07354 6.90757 7.63803 6.61995C7.87263 6.50041 8.20893 6.40303 8.86656 6.3493C9.54169 6.29414 10.4151 6.29297 11.7 6.29297Z" fill="#2E2E52"/>
</svg>
