<svg width="24" height="25" viewBox="0 0 24 25" fill="none" xmlns="http://www.w3.org/2000/svg">
<rect x="1.5" y="2.35547" width="21" height="21" rx="4.5" fill="#2B1059"/>
<rect x="1.5" y="2.35547" width="21" height="21" rx="4.5" fill="#2B1059"/>
<rect x="1.5" y="2.35547" width="21" height="21" rx="4.5" fill="#2E2E52"/>
<path d="M17.25 8.73047C17.25 9.35179 16.7463 9.85547 16.125 9.85547C15.5037 9.85547 15 9.35179 15 8.73047C15 8.10915 15.5037 7.60547 16.125 7.60547C16.7463 7.60547 17.25 8.10915 17.25 8.73047Z" fill="white"/>
<path fill-rule="evenodd" clip-rule="evenodd" d="M12 16.6055C14.0711 16.6055 15.75 14.9265 15.75 12.8555C15.75 10.7844 14.0711 9.10547 12 9.10547C9.92893 9.10547 8.25 10.7844 8.25 12.8555C8.25 14.9265 9.92893 16.6055 12 16.6055ZM12 15.1055C13.2426 15.1055 14.25 14.0981 14.25 12.8555C14.25 11.6128 13.2426 10.6055 12 10.6055C10.7574 10.6055 9.75 11.6128 9.75 12.8555C9.75 14.0981 10.7574 15.1055 12 15.1055Z" fill="white"/>
<path fill-rule="evenodd" clip-rule="evenodd" d="M4.5 12.5555C4.5 10.0352 4.5 8.77511 4.99047 7.81251C5.4219 6.96578 6.11031 6.27737 6.95704 5.84594C7.91965 5.35547 9.17976 5.35547 11.7 5.35547H12.3C14.8202 5.35547 16.0804 5.35547 17.043 5.84594C17.8897 6.27737 18.5781 6.96578 19.0095 7.81251C19.5 8.77511 19.5 10.0352 19.5 12.5555V13.1555C19.5 15.6757 19.5 16.9358 19.0095 17.8984C18.5781 18.7452 17.8897 19.4336 17.043 19.865C16.0804 20.3555 14.8202 20.3555 12.3 20.3555H11.7C9.17976 20.3555 7.91965 20.3555 6.95704 19.865C6.11031 19.4336 5.4219 18.7452 4.99047 17.8984C4.5 16.9358 4.5 15.6757 4.5 13.1555V12.5555ZM11.7 6.85547H12.3C13.5849 6.85547 14.4583 6.85664 15.1334 6.9118C15.7911 6.96553 16.1274 7.06291 16.362 7.18245C16.9265 7.47007 17.3854 7.92901 17.673 8.4935C17.7926 8.7281 17.8899 9.0644 17.9437 9.72203C17.9988 10.3972 18 11.2706 18 12.5555V13.1555C18 14.4403 17.9988 15.3138 17.9437 15.9889C17.8899 16.6465 17.7926 16.9828 17.673 17.2174C17.3854 17.7819 16.9265 18.2409 16.362 18.5285C16.1274 18.648 15.7911 18.7454 15.1334 18.7991C14.4583 18.8543 13.5849 18.8555 12.3 18.8555H11.7C10.4151 18.8555 9.54169 18.8543 8.86656 18.7991C8.20893 18.7454 7.87263 18.648 7.63803 18.5285C7.07354 18.2409 6.6146 17.7819 6.32698 17.2174C6.20745 16.9828 6.11006 16.6465 6.05633 15.9889C6.00117 15.3138 6 14.4403 6 13.1555V12.5555C6 11.2706 6.00117 10.3972 6.05633 9.72203C6.11006 9.0644 6.20745 8.7281 6.32698 8.4935C6.6146 7.92901 7.07354 7.47007 7.63803 7.18245C7.87263 7.06291 8.20893 6.96553 8.86656 6.9118C9.54169 6.85664 10.4151 6.85547 11.7 6.85547Z" fill="white"/>
</svg>
