<svg width="59" height="55" viewBox="0 0 59 55" fill="none" xmlns="http://www.w3.org/2000/svg">
<g clip-path="url(#clip0_186_4096)">
<circle cx="29.4349" cy="29.2494" r="25.0324" fill="#3290E8"/>
<path fill-rule="evenodd" clip-rule="evenodd" d="M40.1629 14.2039H18.7066C16.7572 14.201 15.134 15.7496 15.1306 17.5946V37.9389C15.1306 39.8113 16.7321 41.3296 18.7066 41.3296H40.1629C42.1124 41.3325 43.7355 39.7839 43.739 37.9389V17.5946C43.739 15.7222 42.1383 14.2039 40.1629 14.2039ZM33.2484 19.1769C33.2484 18.6781 33.6761 18.2727 34.2028 18.2727C34.7295 18.2727 35.1564 18.6781 35.1564 19.1769V31.2577C35.1564 31.7565 34.7287 32.1618 34.2028 32.1618C33.698 32.1623 33.2505 31.7379 33.2492 31.2577L33.2484 19.1769ZM28.4804 18.7196C28.4804 18.22 28.9081 17.8154 29.4348 17.8154C29.9615 17.8154 30.3892 18.22 30.3892 18.7196V31.8303C30.3892 32.3299 29.9615 32.7345 29.4348 32.7345C28.9299 32.7349 28.4824 32.3106 28.4811 31.8303L28.4804 18.7196ZM23.7131 19.1769C23.7131 18.6781 24.1408 18.2727 24.6667 18.2727C25.1934 18.2727 25.6203 18.6781 25.6203 19.1769V31.2577C25.6203 31.7565 25.1934 32.1618 24.6667 32.1618C24.1618 32.1623 23.7143 31.7379 23.7131 31.2577V19.1769ZM18.945 20.9853C18.945 20.4857 19.3719 20.0811 19.8986 20.0811C20.4253 20.0811 20.8522 20.4857 20.8522 20.9853V29.1177C20.8522 29.6173 20.4245 30.0219 19.8986 30.0219C19.3787 30.0228 18.9459 29.6098 18.945 29.1177V20.9853ZM39.5919 34.7772C39.4453 34.8978 35.912 37.7075 29.4348 37.7075C22.9575 37.7075 19.4266 34.897 19.2777 34.7765C18.8837 34.4564 18.837 33.8756 19.1747 33.5023C19.5039 33.139 20.1321 33.0924 20.5164 33.4028C20.5719 33.4473 23.7265 35.8992 29.434 35.8992C35.2127 35.8992 38.319 33.4292 38.3491 33.4051C38.733 33.0924 39.3635 33.138 39.6932 33.5023C40.0331 33.8749 39.9871 34.4573 39.5919 34.7772ZM39.9245 29.1185C39.9245 29.6173 39.4968 30.0227 38.9709 30.0227C38.451 30.0235 38.0181 29.6105 38.0173 29.1185V20.9853C38.0173 20.4857 38.4442 20.0811 38.9701 20.0811C39.4968 20.0811 39.9245 20.4857 39.9245 20.9853V29.1185Z" fill="white"/>
</g>
<defs>
<clipPath id="clip0_186_4096">
<rect width="57.2168" height="54.2514" fill="white" transform="translate(0.826538 0.640991)"/>
</clipPath>
</defs>
</svg>
