<svg width="59" height="55" viewBox="0 0 59 55" fill="none" xmlns="http://www.w3.org/2000/svg">
<g opacity="0.68" clip-path="url(#clip0_203_744)">
<circle cx="29.4347" cy="29.2472" r="25.0324" fill="#343130"/>
<path fill-rule="evenodd" clip-rule="evenodd" d="M40.1632 14.2031H18.7069C16.7575 14.2002 15.1343 15.7488 15.1309 17.5938V37.9381C15.1309 39.8105 16.7324 41.3288 18.7069 41.3288H40.1632C42.1127 41.3317 43.7358 39.7831 43.7393 37.9381V17.5938C43.7393 15.7214 42.1386 14.2031 40.1632 14.2031ZM33.2487 19.1762C33.2487 18.6774 33.6764 18.272 34.2031 18.272C34.7298 18.272 35.1567 18.6774 35.1567 19.1762V31.2569C35.1567 31.7557 34.729 32.1611 34.2031 32.1611C33.6983 32.1615 33.2508 31.7372 33.2495 31.2569L33.2487 19.1762ZM28.4807 18.7188C28.4807 18.2192 28.9084 17.8146 29.4351 17.8146C29.9618 17.8146 30.3895 18.2192 30.3895 18.7188V31.8295C30.3895 32.3291 29.9618 32.7337 29.4351 32.7337C28.9302 32.7341 28.4827 32.3098 28.4815 31.8295L28.4807 18.7188ZM23.7134 19.1762C23.7134 18.6774 24.1411 18.272 24.667 18.272C25.1937 18.272 25.6206 18.6774 25.6206 19.1762V31.2569C25.6206 31.7557 25.1937 32.1611 24.667 32.1611C24.1621 32.1615 23.7146 31.7372 23.7134 31.2569V19.1762ZM18.9453 20.9846C18.9453 20.485 19.3722 20.0804 19.8989 20.0804C20.4256 20.0804 20.8525 20.485 20.8525 20.9846V29.117C20.8525 29.6165 20.4248 30.0212 19.8989 30.0212C19.379 30.022 18.9462 29.609 18.9453 29.117V20.9846ZM39.5922 34.7765C39.4456 34.897 35.9123 37.7068 29.4351 37.7068C22.9578 37.7068 19.4269 34.8963 19.278 34.7757C18.884 34.4556 18.8373 33.8749 19.175 33.5015C19.5042 33.1382 20.1324 33.0917 20.5167 33.4021C20.5722 33.4465 23.7268 35.8984 29.4343 35.8984C35.213 35.8984 38.3194 33.4285 38.3494 33.4043C38.7333 33.0916 39.3638 33.1372 39.6935 33.5015C40.0334 33.8741 39.9874 34.4565 39.5922 34.7765ZM39.9248 29.1177C39.9248 29.6165 39.4971 30.0219 38.9712 30.0219C38.4513 30.0227 38.0184 29.6098 38.0176 29.1177V20.9846C38.0176 20.485 38.4445 20.0804 38.9704 20.0804C39.4971 20.0804 39.9248 20.485 39.9248 20.9846V29.1177Z" fill="white"/>
</g>
<defs>
<clipPath id="clip0_203_744">
<rect width="57.2168" height="54.2514" fill="white" transform="translate(0.826172 0.640625)"/>
</clipPath>
</defs>
</svg>
