<svg width="59" height="55" viewBox="0 0 59 55" fill="none" xmlns="http://www.w3.org/2000/svg">
<g opacity="0.68">
<path d="M9.81055 47.976C9.81055 49.0587 10.4763 49.8069 11.6074 49.8069H33.0081C30.136 44.428 26.9205 39.5215 22.918 34.9219C18.7768 37.3837 14.3997 39.5125 9.81055 41.2476V47.976Z" fill="#343130"/>
<path d="M9.81055 14.47C14.3881 16.1995 18.755 18.3221 22.8861 20.775C26.9024 16.1671 30.38 11.1192 33.2593 5.72656H12.0409C10.8088 5.72656 9.81055 6.68235 9.81055 7.86156" fill="#343130"/>
<path d="M22.9181 34.9224C26.4741 32.8088 29.8559 30.4538 33.0228 27.8595C29.8465 25.2577 26.4524 22.8958 22.8876 20.7773C20.7212 23.2634 18.3936 25.6128 15.9375 27.832C18.4059 30.0635 20.7437 32.4247 22.9181 34.9224Z" fill="#343130"/>
<path d="M33.0218 27.8594C29.8552 30.4534 26.4737 32.8081 22.918 34.9216C26.9205 39.5212 30.1359 44.4276 33.008 49.8065L49.0791 49.8066C50.5623 49.8066 51.1105 48.8087 50.5623 47.913C45.9129 40.3191 39.9646 33.5486 33.0218 27.8594Z" fill="#767676"/>
<path d="M33.2589 5.72884C30.381 11.1182 26.9003 16.1701 22.8868 20.7757C26.4515 22.8942 29.8472 25.2561 33.0235 27.8579C40.0709 22.0811 46.0953 15.1934 50.7745 7.46022C51.2391 6.692 50.6438 5.72656 49.7145 5.72656L33.2589 5.72884Z" fill="#D9D9D9"/>
<path d="M9.81055 32.8655C11.9363 31.2794 13.98 29.6016 15.9381 27.8328C13.98 26.0647 11.9363 24.3848 9.81055 22.8008V32.8655Z" fill="#676769"/>
<path d="M9.81055 14.4688C14.3881 16.1983 18.755 18.3209 22.8861 20.7738C20.7197 23.2597 18.3935 25.61 15.9375 27.8291C13.9795 26.0611 11.9363 24.3819 9.81067 22.798L9.81055 14.4688Z" fill="#C3D0C8"/>
<path d="M22.9181 34.9225C20.7438 32.4248 18.4059 30.0635 15.9375 27.832C13.9794 29.6009 11.9363 31.2795 9.81055 32.8655V41.248C14.3997 39.513 18.777 37.3843 22.9181 34.9225Z" fill="#343130"/>
</g>
</svg>
