<svg width="59" height="55" viewBox="0 0 59 55" fill="none" xmlns="http://www.w3.org/2000/svg">
<path d="M9.81006 47.9755C9.81006 49.0581 10.4758 49.8063 11.6069 49.8063H33.0077C30.1355 44.4275 26.92 39.521 22.9175 34.9213C18.7763 37.3832 14.3992 39.512 9.81006 41.247V47.9755Z" fill="#F15713"/>
<path d="M9.81006 14.4705C14.3876 16.2 18.7545 18.3226 22.8856 20.7755C26.9019 16.1676 30.3795 11.1198 33.2589 5.72708H12.0404C10.8083 5.72708 9.81006 6.68287 9.81006 7.86208" fill="#69AAB5"/>
<path d="M22.9175 34.9213C26.4735 32.8077 29.8553 30.4527 33.0221 27.8584C29.8458 25.2566 26.4517 22.8947 22.887 20.7762C20.7206 23.2623 18.393 25.6117 15.9369 27.8309C18.4053 30.0624 20.7431 32.4236 22.9175 34.9213Z" fill="#FFB1A2"/>
<path d="M33.0212 27.8592C29.8546 30.4532 26.4731 32.8079 22.9174 34.9213C26.9199 39.521 30.1354 44.4274 33.0075 49.8063L49.0785 49.8064C50.5618 49.8064 51.1099 48.8085 50.5618 47.9127C45.9124 40.3189 39.9641 33.5484 33.0212 27.8592Z" fill="#F37036"/>
<path d="M33.2574 5.72936C30.3796 11.1188 26.8988 16.1706 22.8853 20.7762C26.4501 22.8947 29.8457 25.2566 33.022 27.8584C40.0694 22.0816 46.0938 15.1939 50.773 7.46074C51.2376 6.69252 50.6423 5.72708 49.713 5.72708L33.2574 5.72936Z" fill="#85B8C1"/>
<path d="M9.81006 32.8643C11.9358 31.2782 13.9796 29.6004 15.9376 27.8316C13.9796 26.0634 11.9358 24.3836 9.81006 22.7996V32.8643Z" fill="#F76F6D"/>
<path d="M9.81006 14.4705C14.3876 16.2 18.7545 18.3226 22.8856 20.7755C20.7192 23.2615 18.393 25.6118 15.937 27.8308C13.979 26.0628 11.9358 24.3836 9.81019 22.7997L9.81006 14.4705Z" fill="#F39D90"/>
<path d="M22.9176 34.9214C20.7433 32.4237 18.4054 30.0625 15.937 27.831C13.9789 29.5998 11.9358 31.2784 9.81006 32.8645V41.2469C14.3992 39.5119 18.7765 37.3833 22.9176 34.9214Z" fill="#FA8176"/>
</svg>
