<svg width="64" height="64" viewBox="0 0 64 64" fill="none" xmlns="http://www.w3.org/2000/svg">
<path fill-rule="evenodd" clip-rule="evenodd" d="M32 60C47.464 60 60 47.464 60 32C60 16.536 47.464 4 32 4C16.536 4 4 16.536 4 32C4 47.464 16.536 60 32 60Z" fill="#2BDE73"/>
<path fill-rule="evenodd" clip-rule="evenodd" d="M28.714 26.9054L34.7616 18.4028C35.905 16.8009 37.3809 16 39.1906 16C40.6668 16 41.9439 16.5081 43.0241 17.5247C44.1031 18.5414 44.6427 19.7582 44.6427 21.1753C44.6427 22.2228 44.3576 23.1472 43.7859 23.9481L38.3331 31.642L45.0001 39.8443C45.6668 40.6607 46 41.6159 46 42.7093C46 44.1576 45.4767 45.4008 44.4287 46.4405C43.3811 47.4806 42.1105 48 40.6191 48C38.9839 48 37.7383 47.4845 36.8807 46.4521L28.714 36.5634V42.0164C28.714 43.5723 28.4365 44.7811 27.8807 45.6438C26.8649 47.2145 25.3887 48 23.4524 48C21.6904 48 20.3247 47.4224 19.357 46.2673C18.4521 45.2044 18 43.7947 18 42.0395V21.8223C18 20.1587 18.4597 18.7882 19.3808 17.7099C20.3489 16.5702 21.682 16 23.3805 16C24.9998 16 26.3488 16.5702 27.4283 17.7099C28.0314 18.3411 28.4123 18.9804 28.5709 19.6274C28.6663 20.0282 28.714 20.7748 28.714 21.8686V26.9054Z" fill="white"/>
</svg>
