<svg width="54" height="29" viewBox="0 0 54 29" fill="none" xmlns="http://www.w3.org/2000/svg">
<path d="M26.7203 28.712C35.049 21.5732 46.7488 14.6326 53.1738 12.134C52.1823 11.4994 50.6355 10.5872 48.8905 9.5957C40.6015 12.3323 30.9243 18.4003 22.2783 25.2616C23.7458 26.3721 25.2925 27.5222 26.7203 28.712Z" fill="#9696A8"/>
<path d="M22.9177 9.31553C21.6883 8.72062 20.3398 8.16538 19.3086 7.68945C16.1754 9.23621 12.0904 11.5762 6.93457 15.2646C8.04506 15.8595 9.23488 16.5734 10.504 17.2873C14.4701 14.3524 18.4758 11.5762 22.9177 9.31553Z" fill="#FE79A1" fill-opacity="0.59"/>
<path d="M30.3325 5.90793C28.8255 5.07506 23.5903 3.1317 19.9812 2.29883C18.9103 2.69543 17.4032 3.29034 16.3721 3.7266C17.6809 4.08355 22.5591 5.39234 26.7234 7.49435C27.7943 6.97876 29.3014 6.34419 30.3325 5.90793Z" fill="#9696A8"/>
<path d="M12.6015 5.38867C7.96127 7.53034 3.08303 10.4652 0.425781 12.1706C1.37763 12.6069 2.32947 12.9638 3.63827 13.5984C9.50801 9.63234 14.1086 7.21305 15.933 6.41984C14.6242 5.94392 13.3947 5.62663 12.6015 5.38867Z" fill="#FE79A1" fill-opacity="0.59"/>
<path d="M33.8241 4.67814C34.8949 4.3212 36.1244 4.00391 37.1952 3.68663C34.1017 2.37783 30.215 0.989717 26.7248 0.117188C26.1696 0.275829 24.5039 0.712094 23.3537 1.06904C24.5435 1.42598 28.4699 2.33817 33.8241 4.67814ZM14.2715 19.5905C15.5406 20.344 16.8891 21.3752 18.1979 22.2477C26.8835 15.5054 35.4501 10.3099 44.8497 7.37505C43.5409 6.70082 42.3907 6.10592 40.9233 5.39203C35.2915 6.8198 25.654 10.6669 14.2715 19.5905Z" fill="#9696A8"/>
</svg>
