<svg width="24" height="25" viewBox="0 0 24 25" fill="none" xmlns="http://www.w3.org/2000/svg">
<rect x="1.5" y="2.35547" width="21" height="21" rx="10.5" fill="white"/>
<path d="M9.46392 8.12458C9.46392 8.82549 8.85639 9.39369 8.10696 9.39369C7.35753 9.39369 6.75 8.82549 6.75 8.12458C6.75 7.42367 7.35753 6.85547 8.10696 6.85547C8.85639 6.85547 9.46392 7.42367 9.46392 8.12458Z" fill="#2E2E52"/>
<path d="M6.93557 10.3265H9.25515V17.3555H6.93557V10.3265Z" fill="#2E2E52"/>
<path d="M12.9897 10.3265H10.6701V17.3555H12.9897C12.9897 17.3555 12.9897 15.1427 12.9897 13.7591C12.9897 12.9287 13.2732 12.0946 14.4046 12.0946C15.6833 12.0946 15.6756 13.1814 15.6696 14.0233C15.6618 15.1238 15.6804 16.2469 15.6804 17.3555H18V13.6458C17.9804 11.277 17.3631 10.1855 15.3325 10.1855C14.1265 10.1855 13.379 10.733 12.9897 11.2283V10.3265Z" fill="#2E2E52"/>
</svg>
