<svg width="24" height="25" viewBox="0 0 24 25" fill="none" xmlns="http://www.w3.org/2000/svg">
<rect x="1.5" y="2.35449" width="21" height="21" rx="10.5" fill="#676769"/>
<path d="M9.46392 8.1236C9.46392 8.82451 8.85639 9.39272 8.10696 9.39272C7.35753 9.39272 6.75 8.82451 6.75 8.1236C6.75 7.42269 7.35753 6.85449 8.10696 6.85449C8.85639 6.85449 9.46392 7.42269 9.46392 8.1236Z" fill="white"/>
<path d="M6.93557 10.3256H9.25515V17.3545H6.93557V10.3256Z" fill="white"/>
<path d="M12.9897 10.3256H10.6701V17.3545H12.9897C12.9897 17.3545 12.9897 15.1417 12.9897 13.7581C12.9897 12.9277 13.2732 12.0936 14.4046 12.0936C15.6833 12.0936 15.6756 13.1804 15.6696 14.0223C15.6618 15.1228 15.6804 16.2459 15.6804 17.3545H18V13.6448C17.9804 11.276 17.3631 10.1846 15.3325 10.1846C14.1265 10.1846 13.379 10.732 12.9897 11.2274V10.3256Z" fill="white"/>
</svg>
