<svg width="24" height="25" viewBox="0 0 24 25" fill="none" xmlns="http://www.w3.org/2000/svg">
<rect x="1.5" y="1.79297" width="21" height="21" rx="10.5" fill="#A6B1BE"/>
<path d="M9.46392 7.56208C9.46392 8.26299 8.85639 8.83119 8.10696 8.83119C7.35753 8.83119 6.75 8.26299 6.75 7.56208C6.75 6.86117 7.35753 6.29297 8.10696 6.29297C8.85639 6.29297 9.46392 6.86117 9.46392 7.56208Z" fill="#2E2E52"/>
<path d="M6.93557 9.76404H9.25515V16.793H6.93557V9.76404Z" fill="#2E2E52"/>
<path d="M12.9897 9.76404H10.6701V16.793H12.9897C12.9897 16.793 12.9897 14.5802 12.9897 13.1966C12.9897 12.3662 13.2732 11.5321 14.4046 11.5321C15.6833 11.5321 15.6756 12.6189 15.6696 13.4608C15.6618 14.5613 15.6804 15.6844 15.6804 16.793H18V13.0833C17.9804 10.7145 17.3631 9.62303 15.3325 9.62303C14.1265 9.62303 13.379 10.1705 12.9897 10.6658V9.76404Z" fill="#2E2E52"/>
</svg>
