<svg width="44" height="49" viewBox="0 0 44 49" fill="none" xmlns="http://www.w3.org/2000/svg">
<path d="M22.0244 0.25C20.2018 0.25 18.7372 1.27183 18.7372 2.51513L19.8441 15.0842C19.9634 15.8334 20.9005 16.4299 22.0074 16.4299C23.1313 16.4299 24.0508 15.8507 24.1871 15.0842L25.2942 2.51513C25.311 1.27183 23.8632 0.25 22.0244 0.25ZM3.93695 10.3325C2.98303 10.3495 1.91034 11.0649 1.22876 12.257C0.3091 13.8408 0.479597 15.612 1.55281 16.2255L12.9976 21.5561C13.713 21.8286 14.6841 21.3179 15.246 20.347C15.8078 19.3761 15.774 18.2862 15.1775 17.7917L4.83988 10.5534C4.55026 10.4004 4.26061 10.3325 3.93695 10.3325ZM40.1116 10.3325C39.7877 10.3325 39.4981 10.4006 39.2256 10.5537L28.888 17.792C28.2916 18.2862 28.2578 19.3761 28.8199 20.3473C29.3814 21.3182 30.352 21.8289 31.0677 21.5564L42.513 16.2258C43.5856 15.6126 43.7386 13.8411 42.8364 12.2575C42.138 11.082 41.0652 10.3668 40.1116 10.3325ZM13.4066 26.921C13.2531 26.921 13.1168 26.9381 12.9805 26.9892L1.53558 32.303C0.462675 32.9335 0.292532 34.6874 1.21206 36.2877C2.13169 37.8724 3.73269 38.6213 4.80587 37.9922L15.1438 30.7535C15.7396 30.2593 15.7737 29.17 15.2119 28.1991C14.7861 27.4145 14.0536 26.921 13.4066 26.921ZM30.6419 26.921C29.9952 26.9381 29.2792 27.4145 28.8199 28.1985C28.2578 29.1694 28.3086 30.2585 28.888 30.753L39.2256 37.9913C40.2987 38.6045 41.9166 37.8551 42.8193 36.2874C43.7218 34.7039 43.5688 32.9333 42.4957 32.3027L31.0507 26.9889C30.9317 26.9381 30.7952 26.921 30.6419 26.921ZM22.0244 32.1327C20.9005 32.1327 19.9807 32.7121 19.8614 33.4783L18.7543 46.047C18.7543 47.2904 20.2018 48.3124 22.0412 48.3124C23.8802 48.3124 25.328 47.2907 25.328 46.047L24.2209 33.4783C24.0678 32.7118 23.1483 32.1327 22.0244 32.1327Z" fill="#9696A8"/>
</svg>
