<svg width="80" height="80" viewBox="0 0 80 80" fill="none" xmlns="http://www.w3.org/2000/svg">
<rect width="80" height="80" fill="#0F2839"/>
<path fill-rule="evenodd" clip-rule="evenodd" d="M16.6006 18.975C16.6244 19.0468 16.6652 19.3538 16.6912 19.6573C16.81 21.0304 17.4874 21.8058 19.6407 23.0356C19.823 23.1395 20.1827 23.3629 20.4404 23.5319C20.6982 23.7009 20.9333 23.8393 20.9629 23.8393C20.9921 23.8393 21.0528 23.872 21.0976 23.9121C21.242 24.0414 21.5341 24.2278 21.789 24.3533L22.0381 24.4756L22.1858 24.2303C22.267 24.0951 22.3533 23.9226 22.3775 23.8466C22.4281 23.6887 22.8808 23.0273 23 22.9367C23.1325 22.8363 22.966 22.5812 22.6552 22.4073C22.5032 22.3223 22.2533 22.1526 22.0999 22.0299C21.9461 21.9069 21.8027 21.8065 21.7807 21.8065C21.7587 21.8065 21.5373 21.6615 21.2893 21.4845C21.0412 21.3071 20.6972 21.0722 20.5253 20.9618C20.3531 20.8516 20.0093 20.6178 19.7613 20.4422C19.5129 20.2665 19.1609 20.025 18.9789 19.9055C18.7969 19.7863 18.6207 19.6678 18.5879 19.6424C18.5546 19.6169 18.4055 19.5204 18.2568 19.4273C18.108 19.3343 17.8809 19.1649 17.7527 19.0513C17.4498 18.7823 16.5172 18.7206 16.6006 18.975ZM62.426 18.9276C62.426 18.9732 62.3722 19.0273 62.3061 19.0475C62.24 19.0677 62.152 19.1151 62.1104 19.1531C61.9581 19.2918 61.3959 19.6783 60.5319 20.2383C60.3337 20.3665 59.5173 20.9252 59.4473 20.9802C59.4144 21.0064 59.1978 21.1555 58.966 21.312C58.7342 21.4685 58.4273 21.6762 58.2836 21.7741C58.1402 21.8717 57.9673 21.9821 57.8994 22.0191C57.8315 22.056 57.7597 22.1093 57.7391 22.1372C57.7189 22.1651 57.5499 22.2843 57.3636 22.4021C56.887 22.7039 56.8783 22.7917 57.2773 23.2876C57.3802 23.4155 57.5398 23.6769 57.6322 23.8685C57.8803 24.3829 57.8853 24.3899 58.0106 24.408C58.0738 24.4171 58.2608 24.3411 58.4255 24.2386C58.5905 24.1362 58.8743 23.9616 59.0562 23.8504C59.2382 23.7393 59.5812 23.5277 59.8184 23.3807C60.0556 23.2336 60.6084 22.891 61.0467 22.6195C62.075 21.9828 62.965 21.1545 62.9679 20.8318C62.9683 20.8088 63.0095 20.7143 63.0593 20.622C63.2109 20.3411 63.3889 19.5723 63.3889 19.1977V18.8443H62.9076C62.5296 18.8443 62.426 18.8621 62.426 18.9276ZM63.5449 22.5328C63.4243 22.6119 63.2517 22.7168 63.1615 22.7659C63.0715 22.8154 62.9167 22.9071 62.8174 22.9701C62.7181 23.0329 62.5487 23.1242 62.4411 23.1723C62.3335 23.2207 62.2454 23.2792 62.2454 23.3029C62.2454 23.3263 62.1032 23.4225 61.9295 23.5162C61.7559 23.61 61.4905 23.7668 61.3399 23.8647C60.9897 24.0923 60.8897 24.155 60.5676 24.3488C60.3401 24.4854 59.8307 24.8001 59.4418 25.044C59.3787 25.0838 59.2321 25.1677 59.1165 25.2312C58.471 25.5838 58.2453 25.787 58.2049 26.0519C58.1836 26.1927 58.1189 26.5774 58.0612 26.9071C57.9416 27.5915 57.9626 27.6455 58.3049 27.5291C58.9905 27.296 62.1375 25.7016 62.5408 25.3831C63.0701 24.9649 63.477 24.3903 63.6536 23.8104C63.8316 23.2266 63.8702 23.036 63.8702 22.7471C63.8702 22.3822 63.8226 22.3509 63.5449 22.5328ZM16.2612 22.4878C16.0005 22.5457 16.1435 23.4821 16.5291 24.246C16.9927 25.1636 17.3779 25.4629 19.2796 26.3854C20.1566 26.8105 20.9149 27.1817 20.9647 27.2103C21.0142 27.2385 21.2174 27.3298 21.416 27.4127C21.6146 27.496 21.8276 27.5905 21.8894 27.6232C22.0728 27.7198 22.1175 27.6048 22.0183 27.2918C21.9681 27.1339 21.9099 26.7698 21.889 26.4823C21.8403 25.8135 21.8637 25.8473 21.1463 25.4058C20.8105 25.1991 20.3411 24.9095 20.1032 24.7624C18.9171 24.0282 18.5171 23.7821 17.9881 23.4619C17.6711 23.2702 17.1891 22.9736 16.9169 22.8029C16.3258 22.4328 16.3843 22.4606 16.2612 22.4878ZM23.9524 23.7236C23.8647 23.8239 23.7928 23.9285 23.7928 23.956C23.7928 23.9832 23.7578 24.04 23.7145 24.0822C23.0538 24.7297 22.9545 26.5265 23.5199 27.6027C23.7979 28.1313 25.0226 29.2284 25.9325 29.7637C26.0141 29.8118 26.0957 29.8968 26.1141 29.9526C26.1329 30.0083 26.1867 30.0543 26.2343 30.0543C26.2816 30.0543 26.3202 30.0805 26.3202 30.1122C26.3202 30.1916 26.252 30.1854 25.9964 30.0822C25.8761 30.0338 25.7122 30.0101 25.6324 30.0292C25.2515 30.1216 25.4205 31.9407 25.8866 32.7618C25.9433 32.8615 26.0484 33.0444 26.1202 33.1685C26.2592 33.4082 26.842 33.9759 27.1178 34.1404C27.2088 34.1944 27.2832 34.2756 27.2832 34.3206C27.2832 34.3656 27.3305 34.4136 27.3886 34.4276C27.4464 34.4415 27.3749 34.4412 27.2298 34.4269C26.8474 34.3893 26.7517 34.6632 26.9467 35.2361C26.9933 35.3731 27.0507 35.5762 27.0738 35.6881C27.2085 36.3349 27.7746 37.1681 28.4418 37.7006L28.922 38.084L28.7343 38.1986C28.5039 38.3394 28.5014 38.2973 28.7711 38.8231C29.3167 39.8857 30.8454 40.8597 32.0026 40.882C32.3387 40.8883 32.3579 40.7733 32.321 38.9699C32.2773 36.8385 32.1773 36.5464 31.4841 36.5224C30.2316 36.4785 29.5835 35.7247 29.8294 34.5973C29.8832 34.3509 29.9399 34.0836 29.9554 34.0038C29.9893 33.8289 30.2045 33.2323 30.3251 32.9785C30.3731 32.8778 30.4125 32.7465 30.4125 32.6865C30.4125 32.6266 30.4522 32.5227 30.5006 32.4558C30.5493 32.3889 30.6053 32.2199 30.6248 32.0798C30.6446 31.94 30.702 31.6682 30.7526 31.4758C30.8941 30.9353 30.758 29.6239 30.5107 29.1493C30.4623 29.0562 30.393 28.9144 30.3572 28.8346C29.8344 27.6734 28.5137 26.3589 26.6214 25.1172C26.5481 25.0691 26.2813 24.8858 26.0282 24.7095C25.7754 24.5331 25.4191 24.2916 25.2371 24.1728C25.0551 24.054 24.798 23.8794 24.6655 23.7846C24.2929 23.5183 24.1424 23.5054 23.9524 23.7236ZM55.259 23.8421C55.0142 24.0031 54.5701 24.3031 54.2722 24.5084C53.9744 24.7137 53.5815 24.9771 53.3996 25.0942C53.2176 25.2113 53.0551 25.3232 53.0385 25.3427C53.0219 25.3626 52.8731 25.4692 52.7078 25.58C52.3124 25.8449 52.3366 25.8271 51.9553 26.1397C51.1538 26.7977 50.2486 27.7623 49.9695 28.2558C49.6236 28.8681 49.4109 29.3535 49.2969 29.793C49.2131 30.1143 49.264 31.9027 49.3615 32.077C49.403 32.1516 49.4731 32.3345 49.5167 32.4837C49.5604 32.6328 49.6684 32.9381 49.7565 33.1615C49.8446 33.3852 49.9431 33.6727 49.9749 33.8006C50.0071 33.9282 50.0731 34.1314 50.1219 34.2519C50.5927 35.4159 49.8222 36.5172 48.5451 36.506C47.8147 36.4997 47.6656 37.0078 47.6948 39.4055L47.7129 40.8866L47.9328 40.9044C48.0537 40.9141 48.2534 40.8814 48.3765 40.8315C48.4996 40.782 48.652 40.7413 48.7152 40.7413C49.7709 40.7413 51.8477 38.6674 51.2574 38.2025L51.083 38.0648L51.2542 37.9366C51.9968 37.3807 52.798 36.3931 52.798 36.0338C52.798 36 52.8497 35.8627 52.9129 35.7285C53.1223 35.2845 53.1475 34.5454 52.9558 34.4614C52.7623 34.376 52.7522 34.2209 52.9334 34.1042C53.3627 33.8268 53.8975 33.2148 54.1116 32.7552C54.1859 32.5952 54.2859 32.3913 54.334 32.3014C54.4578 32.0697 54.5596 30.9231 54.4997 30.4318L54.4502 30.0251L54.2108 30.0397C54.0791 30.0477 53.9624 30.0801 53.9513 30.1122C53.9404 30.1442 53.8592 30.1697 53.7707 30.1686C53.6198 30.1669 53.6176 30.1627 53.7306 30.0996C53.7967 30.063 53.9458 29.939 54.0617 29.824C54.1773 29.7093 54.543 29.4215 54.8741 29.1838C55.5493 28.6994 56.2212 28.0805 56.3566 27.818C56.4061 27.7222 56.4761 27.5915 56.5126 27.5277C57.0015 26.6687 56.961 24.8921 56.4397 24.3042C56.3974 24.2561 56.3454 24.163 56.3248 24.0972C56.2732 23.9323 55.9006 23.549 55.7926 23.549C55.7439 23.549 55.5038 23.6807 55.259 23.8421ZM39.3487 24.7666C37.7575 24.8757 36.6649 25.4016 36.206 26.2787C36.0789 26.5216 36.0027 26.6025 35.8883 26.6161C35.3398 26.6813 34.843 26.9426 34.5766 27.3058C34.2382 27.7675 34.4589 29.456 34.8239 29.1991C35.195 28.9378 36.6144 28.7248 36.6913 28.9189C36.7115 28.9695 36.6909 29.0953 36.6461 29.1984C36.601 29.3019 36.536 29.4908 36.5014 29.6187C36.4324 29.8735 36.2334 30.5056 36.136 30.7802C36.102 30.8761 36.0175 31.1507 35.9486 31.3901C35.8796 31.6299 35.794 31.9041 35.7583 32C35.7229 32.0958 35.655 32.3178 35.6077 32.4938C35.5601 32.6694 35.4954 32.8653 35.4637 32.9294C35.3994 33.0584 35.2557 33.5302 35.1452 33.9749C35.1055 34.1345 35.0409 34.3206 35.0012 34.3886C34.9618 34.4565 34.9113 34.6262 34.8889 34.766C34.8668 34.9061 34.8094 35.0953 34.7618 35.1866C34.7004 35.3037 34.6935 35.3713 34.7383 35.4145C34.821 35.4943 37.9409 35.4727 38.2352 35.3905C38.3709 35.3525 39.2266 35.3441 40.6423 35.3664C41.8504 35.386 43.421 35.4072 44.1327 35.4142L45.4263 35.4267L45.4159 35.2525C45.4036 35.0455 45.2382 34.406 45.1234 34.1199C45.0783 34.008 45.0241 33.825 45.0028 33.7135C44.9815 33.6017 44.9273 33.3926 44.8829 33.2486C44.8382 33.1051 44.745 32.7914 44.6757 32.5516C44.6064 32.3122 44.4977 31.9463 44.4341 31.7386C44.2222 31.0444 44.072 30.4906 44.0716 30.4028C44.0716 30.3547 44.0308 30.2401 43.981 30.1481C43.9315 30.0561 43.8738 29.8731 43.8528 29.7417C43.8323 29.61 43.7878 29.4511 43.7543 29.3884C43.6965 29.2807 43.5745 28.8705 43.382 28.1376C43.2806 27.7515 42.8296 26.5199 42.757 26.43C42.7281 26.3948 42.6863 26.2902 42.6632 26.1975C42.6184 26.0181 42.2115 25.4796 41.9273 25.2242C41.4912 24.8325 40.6261 24.6788 39.3487 24.7666ZM40.8019 25.4361C41.2442 25.5629 41.9663 26.3293 41.9663 26.6722C41.9663 26.7137 42.0042 26.8057 42.0504 26.8764C42.097 26.9472 42.1526 27.0963 42.1743 27.2082C42.1959 27.32 42.2631 27.5553 42.323 27.7309C42.4685 28.1547 42.6444 28.7074 42.8036 29.2409C42.8751 29.4807 42.9625 29.755 42.9975 29.8508C43.065 30.0341 43.1639 30.3736 43.3199 30.9545C43.3712 31.1462 43.4571 31.4358 43.5113 31.5982C43.7705 32.3798 43.5773 32.2951 42.5411 31.1723C42.3285 30.9419 41.9663 30.8175 41.9663 30.9747C41.9663 31.0015 41.9187 31.0779 41.8609 31.1437C41.8031 31.2096 41.6652 31.3702 41.5543 31.5009C41.2839 31.8205 41.2063 31.8045 40.773 31.3389C40.2553 30.782 40.2441 30.782 39.6787 31.3472C39.1764 31.8491 38.9786 31.9031 38.8684 31.5678C38.8468 31.502 38.8089 31.4483 38.784 31.4483C38.7594 31.4483 38.6478 31.3305 38.5363 31.1869C38.2323 30.7952 38.1618 30.8203 37.4813 31.5633C36.7653 32.345 36.6552 32.3425 36.9068 31.5511C36.9707 31.3507 37.0805 30.9907 37.1509 30.7513C37.2209 30.5116 37.3159 30.1979 37.361 30.0543C37.4065 29.9104 37.4603 29.6961 37.4805 29.5776C37.5011 29.4591 37.5719 29.2434 37.6387 29.0984L37.7596 28.8346H38.1777C38.8562 28.8346 38.9508 28.6509 38.7168 27.7891C38.6514 27.5494 38.598 27.3504 38.5973 27.3465C38.5969 27.343 38.7995 27.2685 39.0479 27.181C39.475 27.0308 39.805 26.768 39.6978 26.6645C39.6768 26.644 39.1255 26.6272 38.4734 26.6272C37.2199 26.6272 37.1003 26.6025 37.1902 26.3589C37.4322 25.7013 39.7028 25.121 40.8019 25.4361ZM16.2948 26.477C16.1536 26.8318 16.6548 28.2 17.0866 28.6394C17.1223 28.6757 17.2176 28.7806 17.2982 28.8726C17.8932 29.5511 18.4586 29.7839 21.025 30.4056C21.5879 30.5422 22.2078 30.7025 22.4692 30.7795C22.618 30.8231 22.8483 30.8761 22.9805 30.897C23.113 30.9179 23.3491 30.974 23.5051 31.0214C24.0467 31.1862 24.1164 31.1427 24.172 30.606C24.2362 29.9811 24.4558 30.1376 21.7471 28.8782C21.2669 28.6548 20.5899 28.3415 20.2426 28.1815C19.4688 27.8257 17.8946 27.0949 17.3242 26.8273C17.0924 26.7182 16.7945 26.5847 16.662 26.5297C16.5298 26.4749 16.4009 26.4202 16.3764 26.4077C16.3515 26.3955 16.3146 26.4265 16.2948 26.477ZM63.1481 26.6039C62.9329 26.7105 62.3509 26.9844 61.8544 27.2127C61.358 27.4406 60.5998 27.7909 60.1694 27.9909C59.7394 28.1913 59.0487 28.5119 58.6349 28.7039C55.571 30.1254 55.867 29.9285 55.867 30.5447C55.867 31.1437 55.9111 31.1943 56.3241 31.066C56.4862 31.0158 56.7816 30.9388 56.9802 30.8946C58.063 30.6541 58.2031 30.6185 59.1765 30.3391C59.3917 30.2774 59.6083 30.2272 59.6581 30.2279C59.8589 30.23 61.4446 29.7741 61.5836 29.6741C61.6331 29.6386 61.7956 29.541 61.9447 29.4577C62.7762 28.9921 63.6897 27.6644 63.6897 26.9214C63.6897 26.8276 63.716 26.684 63.7485 26.6021C63.7814 26.5182 63.7836 26.453 63.7536 26.453C63.724 26.453 63.6637 26.4436 63.6196 26.4317C63.5756 26.4199 63.3633 26.4973 63.1481 26.6039ZM37.3517 27.4204C37.7033 27.5486 37.9571 27.8138 37.873 27.9651C37.8138 28.0724 37.7355 28.0801 36.6082 28.0899C35.9475 28.0954 35.346 28.102 35.2716 28.1041C35.108 28.1094 35.1106 27.832 35.2759 27.6535C35.6031 27.2998 36.688 27.1782 37.3517 27.4204ZM61.9747 30.8963C61.7761 30.9329 61.5595 30.9911 61.4934 31.0256C61.4273 31.0601 61.2378 31.1075 61.072 31.1308C60.9067 31.1545 60.7038 31.1991 60.6207 31.2305C60.538 31.2618 60.2539 31.3371 59.9889 31.3981C58.8714 31.6546 58.1478 31.8309 57.7626 31.9407C57.3708 32.0519 56.7494 32.2024 56.4086 32.2686C55.81 32.3847 55.4457 32.6203 55.4457 32.8911C55.4457 32.975 55.3471 33.1807 55.1763 33.4521C54.7582 34.1167 54.7774 34.1495 55.5525 34.1C55.8742 34.0794 56.3274 34.0237 56.5588 33.9763C56.7906 33.9285 57.0885 33.8885 57.221 33.8867C57.3531 33.885 57.6781 33.8445 57.9431 33.7971C58.2078 33.7494 58.6804 33.6835 58.9931 33.6504C60.243 33.519 61.2291 32.9695 61.8685 32.0487C62.1794 31.6006 62.2455 31.4936 62.2455 31.4378C62.2455 31.4033 62.2993 31.2911 62.3646 31.1887C62.5524 30.8952 62.439 30.8102 61.9747 30.8963ZM17.6386 30.9026C17.2989 31.2305 18.6088 32.82 19.5808 33.258C20.2574 33.563 20.3755 33.5961 20.9986 33.6529C21.3492 33.6849 21.7356 33.7372 21.8576 33.7689C21.9796 33.8006 22.3772 33.8533 22.7407 33.8857C23.1043 33.9184 23.5102 33.971 23.6427 34.0028C24.0286 34.0955 25.0927 34.1463 25.1389 34.0742C25.1609 34.04 25.1006 33.8993 25.0049 33.7613C24.8053 33.473 24.546 32.9444 24.4912 32.714C24.446 32.5231 24.0749 32.3471 23.5445 32.2645C23.3498 32.2345 23.1592 32.1909 23.1209 32.1683C23.083 32.1456 22.9003 32.0927 22.7155 32.0508C21.989 31.8867 21.5854 31.7874 21.3258 31.709C21.1766 31.664 20.9196 31.6016 20.7542 31.5703C20.3444 31.4922 19.584 31.3019 19.4002 31.2315C19.3176 31.1995 19.1201 31.1552 18.9616 31.1329C18.8031 31.1103 18.5864 31.0573 18.4803 31.0151C18.2369 30.9186 17.6971 30.8461 17.6386 30.9026ZM20.0126 34.821L19.8729 34.8743L20.0097 35.0636C20.9853 36.4105 22.0713 36.8329 24.3944 36.7691C26.1441 36.721 26.13 36.7311 25.7639 35.7881C25.6368 35.4609 25.2934 35.3525 24.0637 35.2518C23.8322 35.2329 23.399 35.18 23.1011 35.1343C22.8032 35.089 22.2447 35.0249 21.8601 34.9921C21.4756 34.9594 21.0831 34.9085 20.9878 34.8796C20.7123 34.7956 20.1653 34.7625 20.0126 34.821ZM59.357 34.8155C59.1418 34.8374 58.9068 34.874 58.8346 34.897C58.7623 34.9197 58.3291 34.9758 57.8716 35.0211C57.0665 35.1012 56.7133 35.1451 55.506 35.3155C54.3221 35.4825 54.2423 35.5062 54.2423 35.6916C54.2423 35.7533 54.1859 35.9603 54.1173 36.1516C53.9166 36.7116 53.9133 36.7095 54.9749 36.7538C57.3409 36.8524 58.2171 36.6813 59.1588 35.9369C59.5798 35.6037 60.1477 34.9064 60.064 34.8256C59.9903 34.7545 59.9589 34.7538 59.357 34.8155ZM36.6285 36.2903C33.0367 36.3628 33.1432 36.3495 33.3194 36.706C33.4053 36.8799 33.4212 37.1099 33.4212 38.1917C33.4212 39.7264 33.3995 39.6693 33.9985 39.7236C36.2595 39.9282 43.2853 39.9275 45.8264 39.723C46.503 39.6682 46.4795 39.724 46.4795 38.1802C46.4795 37.1884 46.4969 36.9273 46.5734 36.7848C46.7955 36.3701 46.7713 36.3603 45.4263 36.3196C42.722 36.238 39.713 36.2279 36.6285 36.2903ZM26.0195 37.8972C25.8704 37.9233 25.3129 37.9467 24.78 37.9491C23.6066 37.9543 22.8902 38.0073 22.8902 38.0892C22.8902 38.1864 23.3878 38.5938 23.5524 38.6315C23.6351 38.6506 23.7434 38.6991 23.7929 38.7395C24.4915 39.3093 27.2771 39.1776 27.2821 38.5747C27.2865 38.1167 26.6647 37.7832 26.0195 37.8972ZM53.3093 37.877C52.8482 37.9916 52.5774 38.7757 52.9699 38.8594C53.0573 38.8782 53.2847 38.9434 53.475 39.0044C54.547 39.3473 56.2613 38.973 57.0213 38.2297C57.2528 38.0038 57.2358 38.0007 55.3933 37.9505C54.4788 37.9258 53.6631 37.8923 53.5801 37.8763C53.4974 37.8603 53.3757 37.8606 53.3093 37.877ZM33.4948 40.0589C33.4537 40.1073 33.4443 41.1211 33.4663 43.111L33.4995 46.0906L33.771 46.3492C33.9205 46.4914 34.0606 46.6078 34.0823 46.6078C34.1039 46.6078 34.2671 46.7127 34.4455 46.8409C34.7055 47.0281 34.7838 47.0595 34.8437 47.0006C34.9394 46.9061 35.0282 40.2945 34.9351 40.1652C34.8242 40.0112 33.6111 39.9212 33.4948 40.0589ZM45.218 40.0397C44.7093 40.0836 44.7472 39.7979 44.7403 43.6261C44.7331 47.5383 44.6891 47.3348 45.4263 46.8051C45.6249 46.6622 45.8697 46.4949 45.9708 46.4325C46.0715 46.3705 46.2203 46.2342 46.3015 46.1297L46.4492 45.9397L46.468 43.0458C46.4821 40.8817 46.4687 40.131 46.4156 40.069C46.3409 39.9822 45.986 39.9735 45.218 40.0397ZM36.3216 40.2882C36.267 40.3412 36.2493 41.2797 36.2493 44.1565V47.9551L36.445 48.1318C36.648 48.3151 37.0123 48.5576 37.2726 48.6824C37.3553 48.7221 37.4665 48.7852 37.5199 48.8228C37.8217 49.0354 37.8142 49.1473 37.8142 44.575V40.3318L37.6596 40.2753C37.4354 40.1931 36.41 40.2028 36.3216 40.2882ZM42.0414 40.2572C41.9432 40.2955 41.9302 48.8444 42.0281 48.903C42.0624 48.9232 42.2443 48.8399 42.4332 48.7176C42.6216 48.5953 42.8036 48.4817 42.8376 48.4649C43.1268 48.3227 43.3694 48.1353 43.4152 48.0185C43.4947 47.8167 43.4882 40.4747 43.4084 40.3311C43.3474 40.2213 42.2815 40.1635 42.0414 40.2572ZM39.14 40.3889C39.0728 40.5106 39.0475 49.6592 39.1143 49.8265C39.2761 50.2339 40.0079 50.375 40.3564 50.0663L40.582 49.8662L40.5824 47.2058C40.5824 45.7428 40.6001 43.6303 40.6217 42.5116C40.6694 40.0697 40.7427 40.2767 39.8278 40.2767C39.271 40.2767 39.1956 40.2889 39.14 40.3889ZM25.2765 44.7723C24.8999 44.8852 24.8092 45.3912 25.11 45.7003C25.327 45.923 25.0468 46.3754 24.6915 46.3754C24.5857 46.3754 23.1448 47.8063 22.9151 48.1394C22.7855 48.3269 22.6332 48.5493 22.5757 48.6333C22.3631 48.9459 21.876 49.961 21.75 50.3541C21.4778 51.2037 21.4247 51.3501 21.2774 51.661C21.194 51.8366 20.9813 52.1611 20.8044 52.3824C20.4123 52.8734 20.4123 52.8382 20.8022 53.3247C21.2864 53.9286 21.4301 54.1956 21.6569 54.9135C21.8872 55.6439 22.2775 56.5507 22.5443 56.9755C22.8956 57.5355 23.2108 57.9583 23.4907 58.2461C24.0864 58.8581 24.1835 58.9476 24.4735 59.1536C24.6312 59.2651 24.8576 59.4286 24.9768 59.5164C25.0959 59.6042 25.2169 59.6763 25.2454 59.6763C25.3497 59.6763 25.2934 59.9562 25.1468 60.1642C24.8244 60.6235 24.9844 60.9215 25.6054 61.0173C25.8166 61.0501 25.9986 61.1013 26.0094 61.1317C26.0379 61.2097 26.2455 61.1996 26.2737 61.1188C26.2885 61.0752 26.5846 61.0334 27.1059 61.0017C27.5511 60.9745 28.0909 60.9142 28.3061 60.8675C28.5213 60.8208 28.8191 60.7664 28.9683 60.7469C29.5582 60.6696 30.4937 60.3158 30.5981 60.1301C30.8357 59.7084 30.6252 59.4077 29.8106 59.0055C29.1062 58.6577 28.2696 58.074 27.6594 57.5042C26.7297 56.6357 26.5701 56.6012 26.2831 57.2062C26.2 57.3815 26.1116 57.5373 26.0863 57.5523C26.0123 57.5965 25.327 56.8922 25.0439 56.4817C24.0676 55.0647 24.0258 54.2273 24.9197 53.9875C25.2851 53.8896 33.8086 53.9039 33.8934 54.0025C33.9657 54.0868 33.8028 54.4263 33.458 54.9096C33.354 55.0557 33.1923 55.3317 33.0988 55.5233C33.0049 55.715 32.8904 55.9412 32.8439 56.0259C32.7973 56.1109 32.759 56.2154 32.759 56.2583C32.7586 56.3012 32.7225 56.4029 32.6785 56.4841C32.5063 56.803 32.1084 58.2834 32.1452 58.4681C32.2055 58.7678 34.1361 57.2592 34.2318 56.8375C34.2545 56.7382 34.2978 56.6423 34.3285 56.6242C34.3589 56.6058 34.3841 56.5517 34.3841 56.5037C34.3841 56.3855 34.9319 55.256 35.3099 54.5953C35.6146 54.0617 35.958 53.8917 36.6407 53.9356C36.9704 53.9569 37.1069 54.2102 36.8844 54.3883C36.8332 54.4294 36.7909 54.4862 36.7909 54.5148C36.7909 54.5434 36.7032 54.7124 36.5956 54.8905C36.488 55.0686 36.3421 55.3101 36.2714 55.4268C35.4456 56.7908 35.1608 58.0896 35.3157 59.7823C35.3828 60.5141 35.4489 60.5082 36.0991 59.7112C36.1984 59.5896 36.3281 59.4338 36.3869 59.3651C37.2733 58.3371 37.4394 57.96 37.4762 56.8884C37.4932 56.3932 37.5362 55.8966 37.5715 55.7847C37.6069 55.6728 37.6632 55.4003 37.6961 55.179C37.7499 54.8208 37.8506 54.4514 38.0019 54.0569C38.0485 53.9359 38.0893 53.9262 38.5363 53.9262C39.2097 53.9262 39.2407 54.0126 38.9602 55.1166C38.6955 56.1586 38.6973 57.846 38.9641 58.834C38.9984 58.9619 39.0642 59.2101 39.11 59.3857C39.2028 59.7422 39.4021 60.311 39.5274 60.5765C39.5725 60.6723 39.6281 60.8487 39.6512 60.9686C39.6924 61.1836 39.6964 61.1864 39.9762 61.1864H40.2593L40.3856 60.8814C40.4553 60.7138 40.53 60.5113 40.5513 60.4312C40.573 60.3514 40.6264 60.2078 40.6709 60.112C40.7452 59.951 40.8229 59.6924 41.0987 58.6887C41.2258 58.227 41.2843 56.5737 41.1937 56.0172C41.024 54.9765 40.9467 54.5789 40.8846 54.4221C40.738 54.0537 40.9009 53.9262 41.5175 53.9262C41.9746 53.9262 42.0996 54.053 42.1757 54.5949C42.1981 54.7542 42.2541 55.002 42.2999 55.1459C42.3945 55.4421 42.5047 56.3172 42.5447 57.0916C42.5827 57.8182 42.8148 58.3981 43.2773 58.9205C43.3203 58.9689 43.5875 59.2958 43.8716 59.6471C44.1554 59.9987 44.3959 60.2946 44.4056 60.3054C44.6432 60.565 44.797 59.4794 44.6797 58.3674C44.5313 56.9581 44.2753 56.1952 43.6182 55.2024C43.1546 54.5026 42.9842 54.0147 43.1853 53.9624C43.8702 53.7854 44.3944 53.961 44.6631 54.4576C44.7728 54.6605 44.888 54.8654 44.9191 54.9135C44.9497 54.9616 45.0021 55.0661 45.035 55.1459C45.0682 55.2257 45.1202 55.3303 45.1512 55.378C45.2863 55.5882 45.6704 56.4949 45.7239 56.7302C45.7694 56.9302 46.0809 57.2679 46.6297 57.7126C46.8615 57.9001 47.0915 58.0872 47.1414 58.1287C47.8487 58.7176 48.0242 58.5943 47.7487 57.7014C47.6848 57.4937 47.5714 57.1149 47.497 56.8591C47.423 56.6037 47.3302 56.3423 47.2916 56.2785C47.2526 56.2144 47.2013 56.0868 47.1778 55.9945C47.154 55.9021 47.0132 55.6275 46.8648 55.3846C46.4777 54.7507 46.4622 54.727 46.3247 54.5587C46.1625 54.3604 46.03 54.0499 46.0853 53.9969C46.1459 53.938 51.6939 53.9447 51.755 54.0036C51.8626 54.1074 51.8485 58.6803 51.7394 58.9557C51.3397 59.9663 52.1832 60.7525 53.4404 60.5413C54.017 60.4444 53.9881 60.5437 54.0282 58.5145C54.1156 54.067 54.1119 54.1398 54.2502 54.0276C54.3618 53.9373 54.529 53.9262 55.7479 53.9262H57.1199L57.5698 54.1294C59.0595 54.8026 60.3557 53.7579 59.9517 52.2092C59.7574 51.4648 58.7685 51.1403 57.7481 51.4867C57.3705 51.6146 54.4365 51.6645 54.2423 51.546C54.1488 51.4892 54.126 51.0107 54.0289 47.0866L53.9953 45.7359L53.7599 45.6198C52.645 45.0709 51.2596 46.0478 51.747 47.0396C51.8496 47.248 51.8568 51.4271 51.755 51.5254C51.6968 51.5815 47.2692 51.6258 46.9713 51.5731C46.811 51.5449 46.7536 51.4951 46.6828 51.3233C46.6341 51.2055 46.5702 51.0567 46.5406 50.9929C46.5113 50.9291 46.4687 50.8113 46.446 50.7315C46.4236 50.6517 46.3709 50.5472 46.329 50.4991C46.2871 50.4513 46.234 50.3524 46.2109 50.2795C46.1647 50.1325 46.0001 49.9631 45.6914 49.7442C45.4874 49.5993 45.482 49.5989 44.1327 49.5989H42.7787L42.5379 49.7516C42.1433 50.0021 42.0299 50.1645 41.8075 50.7971C41.4999 51.6728 41.6616 51.6028 39.9491 51.6028H38.4922L38.3337 51.3818C38.2464 51.2602 38.1752 51.1288 38.1752 51.0894C38.1752 50.9699 37.6954 50.1321 37.5318 49.9662C37.2737 49.7042 36.8913 49.5881 36.1591 49.5501C34.2061 49.4487 33.7768 49.6752 33.3154 51.0511L33.1403 51.5738L29.1134 51.5909C24.7313 51.6094 24.7616 51.6115 24.4605 51.2804C24.2067 51.0013 24.2872 50.4402 24.6468 49.9833C24.7067 49.907 24.7558 49.8216 24.7558 49.7937C24.7558 49.6934 25.6895 48.5325 25.9094 48.3593L26.0823 48.2231L26.2611 48.604C26.608 49.3424 26.79 49.3132 27.7595 48.3621C28.4426 47.6916 28.9249 47.31 29.3802 47.0783C29.468 47.0337 29.6752 46.9159 29.8406 46.8162C30.0063 46.7169 30.1959 46.6029 30.2619 46.5628C30.328 46.5231 30.4381 46.4628 30.506 46.4287C31.2043 46.0798 30.2363 45.3253 28.691 45.0145C28.4892 44.9737 28.2974 44.9249 28.2649 44.9058C28.0021 44.7486 25.6989 44.6461 25.2765 44.7723ZM36.6469 50.3858C36.8816 50.4956 37.139 50.7517 37.2275 50.964C37.2473 51.0117 37.3607 51.272 37.4788 51.5425C37.842 52.3733 37.7524 52.8807 37.2423 52.8807C36.9664 52.8807 36.5505 52.4245 36.5505 52.122C36.5505 52.0962 36.5212 52.0014 36.4858 51.9115C36.3923 51.676 36.2494 51.876 36.2494 52.2419C36.2494 52.9535 35.2933 53.0797 35.1135 52.3914C35.0348 52.0889 34.9582 52.084 34.9012 52.3782C34.7809 52.9971 33.9007 52.9926 33.9039 52.3733C33.9068 51.8356 34.3148 50.6904 34.5892 50.45C34.8517 50.2199 36.2021 50.1781 36.6469 50.3858ZM45.2238 50.452C45.4422 50.5618 45.6177 50.8201 45.7289 51.1961C45.7527 51.2762 45.7993 51.3745 45.8329 51.4149C45.8954 51.4902 46.0474 52.013 46.0997 52.3339C46.1438 52.6009 45.9076 52.8459 45.6065 52.8459C45.3162 52.8459 45.144 52.6486 44.9786 52.1266C44.7414 51.3766 44.5836 51.3313 44.4901 51.9865C44.393 52.6685 44.3764 52.7106 44.176 52.7922C43.8413 52.9277 43.4705 52.6646 43.4705 52.2907C43.4705 52.0499 43.2347 52.1712 43.1622 52.4496C43.0676 52.812 42.6643 52.9508 42.3407 52.7322C42.1794 52.6232 42.1548 52.1942 42.2953 51.9342C42.3436 51.845 42.4007 51.6753 42.422 51.5568C42.4436 51.4383 42.4964 51.2867 42.5397 51.2201C42.583 51.1532 42.648 50.9919 42.6845 50.8612C42.7329 50.6887 42.8202 50.5737 43.0055 50.4405L43.26 50.2576L44.1287 50.2977C44.8169 50.3297 45.0443 50.3618 45.2238 50.452Z" fill="white" stroke="#002F6C" stroke-width="0.0926828"/>
</svg>
