<svg width="28" height="21" viewBox="0 0 28 21" fill="none" xmlns="http://www.w3.org/2000/svg">
<path d="M0 20.8892V15.392C0 13.7225 0.295218 11.9512 0.885653 10.0781C1.49645 8.18466 2.37192 6.36245 3.51207 4.61151C4.67259 2.8402 6.06723 1.30303 7.69602 0L11.6051 3.17614C10.3224 5.00852 9.20265 6.92235 8.24574 8.91761C7.30919 10.8925 6.84091 13.0099 6.84091 15.2699V20.8892H0ZM15.6364 20.8892V15.392C15.6364 13.7225 15.9316 11.9512 16.522 10.0781C17.1328 8.18466 18.0083 6.36245 19.1484 4.61151C20.3089 2.8402 21.7036 1.30303 23.3324 0L27.2415 3.17614C25.9588 5.00852 24.839 6.92235 23.8821 8.91761C22.9455 10.8925 22.4773 13.0099 22.4773 15.2699V20.8892H15.6364Z" fill="white"/>
</svg>
