<svg width="126" height="100" viewBox="0 0 126 100" fill="none" xmlns="http://www.w3.org/2000/svg">
<path fill-rule="evenodd" clip-rule="evenodd" d="M77.1891 26.4115C78.7204 25.5518 79.6144 24.0105 80.4993 22.4849C80.6324 22.2555 80.7652 22.0265 80.9 21.8001C80.9903 21.6486 81.0889 21.4924 81.1895 21.3332V21.333C81.4551 20.9123 81.7341 20.4703 81.908 20.0376C81.9842 19.8483 82.0501 19.5706 82.1165 19.2899C82.1949 18.9589 82.2743 18.6237 82.3727 18.4252C82.5878 17.9916 84.2206 17.7942 85.3326 17.6599C85.6998 17.6155 86.0104 17.578 86.1942 17.541C88.1487 17.1488 90.4848 16.9135 92.0821 18.4437C92.4617 18.8074 92.8869 19.1428 93.3137 19.4794C93.8252 19.8828 94.3389 20.2879 94.7785 20.7452C95.4844 21.4796 96.4349 22.7151 96.7702 23.6962C95.0496 24.0278 92.1907 25.0436 91.5056 26.8492C88.9835 24.5341 87.9189 28.3902 87.3602 30.4135C87.3262 30.537 87.294 30.6538 87.2635 30.7617C85.8898 30.1674 85.9612 28.3587 86.0135 27.0342V27.0341C86.0209 26.8485 86.0279 26.6726 86.0304 26.5107C86.0341 26.2706 86.0704 26.0204 86.1061 25.7764C86.2252 24.9582 86.3344 24.2093 85.1657 24.1433C84.0319 24.0796 82.9307 24.5413 81.908 24.9737C80.6321 25.5133 79.2935 26.3204 78.263 27.2475L77.1891 26.4115ZM74.7109 22.8049C74.7107 22.8489 74.7101 22.8927 74.7097 22.9366C74.7057 23.3266 74.7019 23.7154 74.8204 24.0914C74.8889 24.3088 74.8901 24.6266 74.8911 24.9318C74.8918 25.153 74.8925 25.3677 74.9189 25.5327C73.8113 25.1956 71.7534 24.6954 70.6225 25.1502C69.5415 25.5848 69.4054 27.595 69.3672 28.5728C69.3576 28.8198 69.3922 29.1165 69.4282 29.4244C69.4892 29.947 69.5539 30.5022 69.4129 30.9036C69.3041 31.2131 69.3076 31.3046 69.3149 31.3269C69.2961 31.316 69.2113 31.3127 68.9005 31.537C68.762 31.6368 68.6114 31.7163 68.4598 31.796C68.2793 31.8911 68.0978 31.9867 67.9348 32.1181C67.5012 32.4679 67.3532 32.8548 67.1755 33.3191C67.1297 33.4388 67.0819 33.5638 67.0266 33.6947C66.7652 34.3141 66.0686 34.8647 65.2911 34.8423C65.39 34.6629 65.495 34.4856 65.5997 34.3086C66.1565 33.3677 66.705 32.4409 66.2859 31.3209C65.9174 30.3359 66.5437 29.1833 67.0568 28.2395L67.0869 28.1841C67.1182 28.1262 67.2079 27.9975 67.3281 27.8249C67.8634 27.0561 69.0054 25.4164 68.3173 25.2771C67.8282 25.1779 66.773 27.2201 66.3828 27.9753C66.3365 28.0649 66.2995 28.1366 66.2741 28.1841C65.604 27.7311 65.303 27.1726 65.8188 26.4902C66.0011 26.2489 66.2027 26.0237 66.4046 25.7979C66.6415 25.5335 66.8788 25.2683 67.0869 24.9755C67.2703 24.7174 67.4524 24.4446 67.637 24.1683C68.082 23.5017 68.541 22.8144 69.0665 22.2614C70.3725 20.8879 72.652 19.9528 74.5324 19.9445C74.4902 20.4796 74.5514 20.9936 74.6132 21.5147C74.6632 21.9354 74.7137 22.3605 74.7109 22.8049ZM69.3194 31.333C69.32 31.3321 69.319 31.3293 69.3149 31.3269C69.3167 31.3326 69.3188 31.3337 69.3194 31.333ZM80.0145 44.7503C80.3851 43.9717 80.7089 43.2912 80.9 42.9474C82.0557 40.8678 83.2002 38.8059 84.2837 36.6877C83.4244 37.0153 82.6967 37.5176 81.9593 38.0266C81.848 38.1034 81.7366 38.1801 81.6244 38.2566C81.236 38.5215 80.8122 38.7606 80.3862 39.001C79.7467 39.362 79.1021 39.7258 78.5645 40.1835C78.4428 40.2871 78.3443 40.4019 78.2503 40.5114C78.0358 40.7613 77.8454 40.9831 77.4583 40.9792C77.1937 40.9767 76.8189 40.7034 76.4839 40.4589C76.2888 40.3166 76.1071 40.1841 75.9684 40.1205C75.6954 39.9956 75.4703 39.832 75.2475 39.6703C74.9965 39.488 74.7485 39.3079 74.4386 39.1879C74.2459 39.1131 74.0884 39.0881 73.9432 39.0651C73.6979 39.0262 73.488 38.9929 73.2035 38.7341C73.0202 39.8177 70.473 39.3073 68.8205 38.9761C68.2718 38.8662 67.8217 38.7761 67.5896 38.7705C67.5013 38.7686 67.4098 38.7659 67.3157 38.763C66.4901 38.739 65.4639 38.7093 64.7445 39.0182C64.1934 39.2547 63.5421 39.789 62.977 40.2526C62.7587 40.4318 62.5534 40.6002 62.3717 40.737C61.475 41.4112 60.8358 42.2706 60.1757 43.2038C59.3288 44.4011 60.5936 44.2856 61.5063 44.2023C61.5691 44.1965 61.6304 44.191 61.6892 44.186C63.7693 44.0093 65.7905 44.3597 67.7958 44.8349C69.5866 45.2591 71.2156 45.9107 72.9301 46.599C73.2477 46.7264 73.8249 47.0261 74.476 47.3641C75.8031 48.053 77.4372 48.9013 77.8054 48.7758C78.1558 48.656 79.1985 46.4651 80.0145 44.7503Z" fill="#70B7FE"/>
<path fill-rule="evenodd" clip-rule="evenodd" d="M91.6368 31.261C92.3587 31.2241 93.0776 31.3853 93.7995 31.3151C93.1726 30.7691 92.5459 30.2232 91.919 29.6773C91.6422 30.1636 91.6219 30.7168 91.6368 31.261ZM74.508 20.0376C72.6393 20.0459 70.3598 20.9845 69.0617 22.3553C68.3739 23.0818 67.8055 24.0574 67.2237 24.8736C66.8337 25.4213 66.4527 25.9499 65.9791 26.4311C65.2885 27.1325 65.4863 27.2929 66.2643 27.821C66.5106 27.3595 67.8163 24.8923 68.3635 25.0033C69.195 25.1721 67.5891 27.7781 67.4137 28.1028C66.8943 29.0634 66.0553 30.4051 66.4323 31.4182C66.9296 32.7556 66.2085 33.5177 65.5822 34.6572C66.2399 34.6762 66.3046 34.4198 66.5313 33.8589C66.8223 33.1381 67.1399 32.5359 67.7554 32.0376C68.232 31.6516 69.0117 31.4892 69.2356 31.0232C69.5126 30.4473 69.3388 29.31 69.3612 28.6692C69.3952 27.6955 69.3978 25.3941 70.4706 24.9614C71.5947 24.5082 73.6158 24.9353 74.7146 25.271C74.5774 24.413 74.1447 23.8527 74.1506 22.8992C74.157 21.9011 74.4318 21.0107 74.508 20.0376ZM60.152 35.9602C61.1295 35.6507 62.0562 35.3246 63.0619 35.1138C64.1143 34.893 64.1847 34.6404 64.7779 33.7379C65.2277 33.0537 65.7733 32.5204 65.6459 31.6826C65.5642 31.1451 65.27 30.8833 65.3584 30.2788C65.4133 29.9042 65.5882 29.4953 65.7144 29.139C65.8694 28.702 66.1903 28.2064 65.444 28.1848C65.0318 28.1727 65.0116 28.3902 64.7327 28.7553C64.2179 29.4297 63.6254 30.0422 63.0775 30.689C62.1261 31.8121 61.1171 33.0071 60.0551 34.0466C58.8859 35.1904 57.8768 36.5699 57.121 38.0342C56.9814 38.3047 56.1328 39.8974 56.4949 40.2097C56.8273 40.4966 58.6766 39.8276 59.0137 39.7494C60.4693 39.4116 62.1213 39.2909 63.4964 38.6773C64.197 38.3645 65.7431 37.9914 66.2965 37.5077C66.8108 37.058 66.7877 35.9685 66.4892 35.3347C65.6537 35.8545 59.6134 37.8156 60.152 35.9602ZM78.337 27.0216C79.3123 26.1406 80.4652 25.4338 81.6696 24.9101C82.7468 24.4417 84.085 23.9195 85.2836 24.0008C86.7767 24.102 86.1528 25.3048 86.1474 26.329C86.1405 27.6882 85.5448 29.646 87.1676 30.3512C87.6973 28.4693 88.8139 24.0193 91.4888 26.4851C92.1724 24.6757 94.6106 24.0633 96.3275 23.7309C96.0163 22.8167 95.071 21.9892 94.4159 21.303C93.5963 20.4447 92.9493 19.4387 92.1282 18.5966C90.5062 16.9335 87.5676 17.4676 85.514 17.8822C84.8287 18.0204 82.8415 18.194 82.5095 18.6975C82.3012 19.0132 82.4175 19.7845 82.2631 20.1706C82.0504 20.7024 81.687 21.1955 81.3955 21.6867C80.3318 23.4792 79.2496 25.2834 77.4293 26.3098L78.337 27.0216ZM84.2896 36.6784C83.3265 37.0479 82.618 37.6659 81.7638 38.1862C80.7281 38.8172 79.5135 39.4081 78.584 40.1874C78.2439 40.4725 78.0528 40.9648 77.5834 40.9968C77.175 41.0246 76.5528 40.5502 76.1907 40.3844C75.5834 40.1055 75.0034 39.6831 74.3931 39.4347C73.8915 39.2305 73.6694 39.2722 73.2355 38.8751C72.9921 40.3239 68.5638 38.9697 67.6348 38.9476C66.7754 38.9271 65.5962 39.029 64.7964 39.3744C64.0343 39.7036 63.4383 40.4279 62.7859 40.9214C61.8917 41.5983 61.0385 42.2827 60.38 43.2195C59.4767 44.5041 60.8395 44.1405 61.7483 44.0629C63.8227 43.8855 65.8407 44.3798 67.8405 44.8565C69.628 45.2826 71.3934 45.7938 73.1046 46.4849C74.0669 46.8736 75.0797 47.2309 75.9848 47.7361C76.462 48.0025 77.2359 48.6547 77.7835 48.4667C78.2855 48.2944 78.7859 46.8551 79.0903 46.2801C79.6815 45.1641 80.3035 44.067 80.9139 42.962C82.0669 40.8746 83.2088 38.8047 84.2896 36.6784ZM72.4384 64.3051C73.0319 63.9642 73.9995 64.056 74.6557 63.9132C75.3974 63.7518 76.1431 63.4888 76.8502 63.2146C77.5664 62.9371 78.243 62.6532 78.8975 62.3058C79.1967 62.147 79.5956 61.9907 79.8721 61.7703C80.095 61.5927 80.1762 61.2626 80.3818 61.1016C80.9179 60.6811 81.0754 60.9449 81.1473 60.1339C81.2253 59.2529 80.731 58.754 80.1157 58.0946C79.5648 57.5046 78.8492 56.9946 78.1571 56.5795C77.8509 56.396 77.5238 56.1894 77.2114 56.0142C76.7386 55.7488 76.105 55.3077 75.857 55.8773C76.3736 56.0091 76.4876 56.6689 76.0212 56.906C75.7652 57.0362 75.3775 56.845 75.0888 56.9833C74.6431 57.1971 74.2143 57.7934 73.8328 58.1145C72.5804 59.1689 71.3827 59.5642 69.7435 59.6489C66.3183 59.8255 62.7316 59.4348 59.3723 58.9272C58.5077 58.7964 57.6446 58.938 56.772 58.9068C55.9229 58.8766 55.0376 58.6908 54.203 58.5474C52.5954 58.2713 50.9009 58.0439 49.3183 57.6377C47.4043 57.1462 45.4836 56.5105 43.6866 55.6873C41.9629 54.8973 40.0146 53.5924 38.0784 53.4918C38.9047 54.3007 40.1427 54.6124 41.1365 55.1452C41.9487 55.5804 43.2189 55.8599 43.7321 56.5772C44.0661 57.044 44.2337 57.9015 44.4861 58.4489C44.7651 59.0546 45.0226 59.6702 45.281 60.285C45.5405 60.9036 45.8108 61.5226 46.0215 62.1598C46.1521 62.555 46.2083 63.3745 46.5165 63.6448C47.0081 64.0762 48.6535 64.2676 49.3161 64.411C50.5531 64.6791 51.9641 64.6435 53.2258 64.6621C53.7473 64.6697 54.2728 64.7408 54.771 64.7505C55.4707 64.7639 55.404 64.6428 55.3941 64.0353C55.3883 63.6705 55.3956 63.0072 55.8835 63.3076C56.2159 63.5123 55.9872 64.419 55.9256 64.7412C58.7107 65.0186 61.6165 65.1581 64.3883 65.0653C67.1142 64.9739 69.7457 64.6225 72.4384 64.3051ZM85.0158 57.912C85.5073 54.3831 86.1061 50.7954 86.7764 47.3122C87.4538 43.7925 88.2683 40.3046 89.1843 36.798C88.5793 36.6532 87.9741 36.5087 87.369 36.3641C87.3465 37.103 87.0967 37.7448 86.9901 38.4802C86.8431 39.4953 86.562 40.481 86.3939 41.4928C86.0742 43.416 85.4819 45.2979 84.9602 47.1735C84.4284 49.0855 84.2506 51.0553 83.7621 52.977C83.3594 54.5601 83.1536 56.3039 82.9287 57.9314C82.3832 61.8798 81.6059 65.8359 81.0143 69.7863C80.4595 73.49 80.4039 77.2689 80.4358 81.0071C80.4554 83.2895 80.8036 85.5653 80.7855 87.8507C80.7809 88.4156 80.8285 88.9788 80.8578 89.5428C80.8785 89.9407 80.6647 91.0439 80.8461 91.3772C80.9608 91.5882 81.4539 91.7828 81.6284 92.0758C81.9044 92.5396 81.9626 93.0938 82.406 93.4445C82.7654 91.995 82.5956 90.0817 82.5171 88.6022C82.4411 87.1767 82.5886 85.7035 82.6177 84.2562C82.6745 81.4169 82.8249 78.6192 82.9705 75.7786C83.1301 72.6633 83.5839 69.4723 84.0271 66.3805C84.4302 63.5692 84.6991 60.7081 85.0158 57.912ZM71.8625 13.6575C71.6676 13.6392 71.4728 13.6212 71.2779 13.603C71.307 14.0136 71.2203 14.6787 71.5097 14.8929C71.7291 15.0553 72.1732 15.0019 72.4391 15.0537C73.3106 15.2241 74.3206 15.3667 75.1857 15.0562C75.522 14.9356 75.306 14.7468 75.7689 14.8252C76.3265 14.92 76.1229 15.0083 76.284 15.3561C76.408 15.6245 76.4718 16.0814 76.6126 16.4038C76.801 16.835 77.183 17.6069 77.0197 18.1049C76.861 18.5891 76.2689 18.7354 76.0173 19.2836C75.8302 19.6913 75.8743 20.2838 75.7771 20.7328C75.6474 21.3316 75.4834 21.9281 75.4109 22.5379C75.3198 23.3063 75.351 24.2078 76.303 24.3269C77.1865 24.4377 77.8182 24.1538 78.4106 23.5103C79.5422 22.2819 80.8341 20.548 81.4989 19.0028C81.5765 18.8223 81.7676 18.5211 81.741 18.3278C81.6883 17.9456 81.6653 18.3325 81.5442 18.0671C81.4285 17.8132 81.247 17.5829 81.1403 17.3013C80.7565 16.2894 80.4844 15.2288 80.3306 14.1576C80.2607 13.6724 80.2373 13.1931 80.2494 12.7031C80.2532 12.5358 80.3537 12.0335 80.2938 11.9189C80.2328 11.8028 79.9144 11.7493 79.8152 11.6341C79.6312 11.4206 79.3152 10.8177 79.1114 10.6577C78.8607 10.4614 78.2998 10.617 78.1979 10.2262C78.035 9.60107 81.8905 8.58273 80.0893 7.74845C78.7445 7.12556 76.6818 10.2744 76.2116 7.79662C76.1301 7.36744 76.2854 6.78486 76.0971 6.39154C75.8889 5.95682 75.3226 5.79431 74.927 5.58277C74.4222 5.31306 73.9122 5.03586 73.4216 4.74045C73.085 4.538 72.6002 4.00038 72.242 3.95114C72.3831 4.68089 72.1128 5.40421 72.1082 6.13253C72.8841 5.92257 73.418 5.91811 74.1838 6.29146C74.5485 6.46912 75.9226 7.47749 75.2264 7.96251C74.6624 7.62912 74.0591 7.33997 73.4304 7.14393C73.1823 7.06652 72.8727 6.96127 72.609 6.95592C71.9967 6.94361 72.083 7.00765 71.8531 7.46929C71.6315 7.91399 71.6791 9.0738 71.1926 9.35779C70.6896 9.65144 71.0775 9.24041 70.648 9.33531C70.403 9.38954 70.1361 9.5717 69.9117 9.67457C70.2191 10.0082 70.8393 10.3127 71.043 10.6831C71.3404 11.2233 71.2373 12.3404 71.2838 12.9314C71.673 12.7921 72.0827 12.7864 72.4773 12.683C72.848 12.5855 73.3624 12.1641 73.4011 12.7837C73.4443 13.4742 72.3527 13.6575 71.8625 13.6575ZM76.9281 31.8374C76.9584 31.2407 76.9916 30.6442 77.058 30.05C77.1028 29.651 77.4817 28.4937 77.2675 28.1432C77.0347 27.762 76.2542 27.7377 75.8784 27.6462C75.1585 27.4706 74.4679 27.3269 73.736 27.211C73.0629 27.1044 72.4287 27.082 71.7505 27.0511C71.0118 27.0177 70.8288 26.8218 70.6655 27.6357C70.5372 28.2757 70.3649 28.9424 70.3411 29.5976C70.3185 30.2127 70.5044 30.7466 69.8948 31.1611C71.2333 31.1611 72.9766 29.9694 74.198 31.035C75.9453 32.5589 72.9047 32.9979 72.1028 33.3343C72.7694 33.6583 73.7588 33.9127 74.0726 34.6525C74.4246 35.4819 73.9138 35.8345 73.132 35.9009C73.2055 36.2206 73.487 36.4281 73.5708 36.8125C73.6936 37.376 73.2953 37.1894 73.8035 37.6254C74.4727 38.1992 75.8503 38.5829 76.6709 38.9484C76.8632 39.0344 77.0577 39.115 77.2543 39.1905C77.5618 39.4641 77.7887 39.412 77.9354 39.034C78.3564 38.7675 78.7312 38.173 79.1046 37.8272C79.9354 37.0576 80.8524 36.3823 81.8399 35.8267C81.4305 35.6571 80.941 36.0402 80.5482 35.8538C80.2308 35.7031 80.3504 35.4288 80.1603 35.2235C80.2365 34.9557 80.156 34.8578 79.9189 34.9298C79.8003 34.9424 79.6901 34.9222 79.588 34.8696C79.3894 34.6234 79.3001 34.5428 79.2869 34.1627C79.273 33.7594 79.5066 33.6171 79.5963 33.2942C79.8876 33.0957 79.8811 32.9006 79.5764 32.7093C79.4511 32.5045 79.3829 32.2825 79.3715 32.0428C79.3136 31.1533 80.1255 30.7947 80.7447 30.3242C79.636 30.2023 79.6783 28.9019 80.4455 28.3335C81.2407 27.7441 82.9242 27.9854 83.8858 28.1184C84.0857 28.1458 84.6259 28.4037 84.8281 28.2393C84.9521 28.1385 84.8646 27.2865 84.8702 27.1361C84.8833 26.7947 84.9663 26.3876 84.9118 26.0479C84.798 25.3367 85.0392 25.6949 84.5273 25.6751C83.3089 25.6279 81.7573 26.6915 80.6853 27.193C79.4855 27.7543 78.7144 27.8406 78.7019 29.2324C78.6899 30.5501 78.3204 31.8632 78.1591 33.1601C78.0885 33.7264 78.0382 36.6688 77.0016 35.583C76.5998 35.1618 76.8572 34.5142 76.887 33.9947C76.9277 33.28 76.9036 32.5541 76.9281 31.8374ZM9.89943 75.9507C10.4927 76.056 11.4587 75.7154 12.1058 75.6797C13.2373 75.6175 14.4025 75.5097 15.5111 75.2743C16.3784 75.09 17.3666 74.9279 17.8343 74.0884C18.2525 73.3382 18.4002 72.3987 18.6254 71.5799C18.745 71.1452 19.0536 70.5148 19.0534 70.0652C19.0533 69.4804 18.9745 69.5956 18.3648 69.2755C17.5931 68.8707 16.8422 68.3064 16.0097 68.0767C15.7579 68.0274 15.5059 67.9793 15.2537 67.9321C14.9275 67.7428 14.7435 67.8359 14.7008 68.2109C14.3824 68.5466 14.1958 69.1654 13.9286 69.5579C13.3196 70.4531 12.5964 71.0631 11.6515 71.5793C9.95122 72.508 8.367 73.2247 6.54596 73.832C5.54236 74.1665 4.61694 74.6361 3.63599 75.005C2.8501 75.3005 1.7655 75.3904 1.16182 76.0483C0.480679 76.7906 1.52763 77.0604 2.10954 77.5622C2.58635 77.9734 2.59563 78.0677 3.24785 77.8681C3.73376 77.7194 4.16455 77.435 4.63113 77.2422C6.22954 76.582 8.16409 76.1427 9.89943 75.9507ZM46.4285 87.7236C45.8328 87.5948 45.237 87.4659 44.6414 87.3372C45.2271 88.4309 46.4593 90.0312 45.575 91.297C45.2444 91.7698 44.6947 91.9047 44.2036 92.1445C43.6092 92.435 43.0604 92.8069 42.4985 93.1529C40.1814 94.5797 37.8266 96.0264 35.3851 97.2506C36.1494 97.4974 37.3246 97.6681 38.1118 97.4531C39.0284 97.2027 39.8772 96.6279 40.8182 96.3766C42.5066 95.9261 44.2837 95.5423 45.999 95.3111C47.401 95.1223 50.9106 95.5491 50.7402 93.4406C50.5783 91.4386 49.3825 89.5286 49.0267 87.5495C48.1535 87.7435 47.3206 87.7096 46.4285 87.7236ZM81.9354 55.6816C82.6143 52.3491 83.02 48.96 83.8208 45.6515C84.2204 44.001 84.5019 42.3279 84.8923 40.6769C85.0739 39.9089 85.2111 39.1332 85.3879 38.3665C85.5671 37.5904 85.9525 36.8741 86.0407 36.0717C85.3918 36.2323 85.2417 37.7184 85.0451 38.2774C84.6842 39.303 84.2908 40.2886 83.8272 41.2706C83.0902 42.8314 82.3083 44.3372 81.4769 45.8505C80.6003 47.4466 79.6745 48.9814 78.5793 50.439C78.2195 50.918 77.7312 51.2933 77.4993 51.8186C77.1346 52.6451 76.9812 53.63 76.633 54.49C76.8783 54.6146 77.512 54.6455 77.8128 54.7049C78.3725 54.8153 78.7645 54.9135 79.302 55.1796C80.2488 55.6484 81.0443 56.204 81.677 57.0474C81.8359 56.6145 81.8773 56.1397 81.9354 55.6816ZM55.5439 81.1075C55.5327 77.898 55.4872 74.6612 55.5398 71.4756C55.5543 70.591 55.6264 69.6367 55.7546 68.7589C55.8351 68.2071 56.3091 67.0342 55.9975 66.7697C55.7312 66.5435 54.3258 66.6925 53.9808 66.6844C53.312 66.669 52.6451 66.6392 51.9748 66.5888C51.9748 67.7783 52.4395 69.129 52.6554 70.3055C52.8566 71.4031 53.0221 72.5067 53.1882 73.6093C53.5478 75.9969 53.6501 78.4175 54.0404 80.8115C54.3942 82.9821 54.8608 85.1437 55.1181 87.3141C55.2593 88.5054 55.5449 89.6295 55.767 90.8201C55.8829 91.441 56.3057 93.9983 56.8381 94.2498C56.9508 93.3324 56.4909 92.2247 56.4085 91.2971C56.3236 90.3394 56.2576 89.3752 56.1024 88.4125C55.9201 87.2823 55.828 86.1242 55.758 84.98C55.7153 84.2799 55.7024 83.5819 55.6418 82.8822C55.5981 82.3746 55.406 81.6052 55.5439 81.1075ZM72.2694 38.1907C72.2915 37.8412 71.387 37.8553 71.2186 37.4536C70.8767 36.6379 71.6557 36.7847 72.1346 36.7003C71.9639 36.2467 68.7662 36.4118 69.5113 35.1873C70.0281 34.3376 71.9878 35.6381 72.5115 34.8307C72.8557 34.3005 71.9189 34.2274 71.5473 34.1743C70.9883 34.0942 69.6712 34.3531 69.7145 33.6276C69.7691 32.7161 72.3297 32.087 73.048 31.8192C72.9684 31.195 69.8866 32.0823 69.4407 32.3353C68.4312 32.9079 67.6578 33.9355 67.5096 35.0775C67.3371 36.4061 68.011 37.4526 69.3381 37.7787C69.8914 37.9146 70.3004 37.9298 70.8123 38.1341C71.1493 38.2685 72.2396 38.6036 72.4705 38.2645C72.4034 38.24 72.3365 38.2153 72.2694 38.1907ZM90.3608 29.9262C90.4117 29.3588 90.8894 28.2906 90.339 27.9179C89.5689 27.3962 89.2499 28.2559 89.0754 28.7724C88.8619 29.4029 87.9649 30.9464 88.7493 31.3393C88.9316 31.4307 89.7965 31.3244 89.949 31.2641C90.374 31.3748 90.5109 31.2157 90.3608 30.7864V29.9262ZM71.5659 75.7482C71.5175 74.1975 72.2119 72.333 72.6054 70.8141C73.0515 69.0931 73.2865 67.3379 73.7591 65.6357C73.2334 65.6992 72.7029 65.7508 72.1834 65.8562C71.4748 66.0002 71.462 65.9775 71.513 66.6727C71.5889 67.7166 71.4894 68.74 71.4355 69.7836C71.3275 71.873 71.5906 73.9967 71.4156 76.0729C71.5717 76.1124 71.6217 76.0042 71.5659 75.7482ZM91.1861 35.1046C92.8887 35.3652 94.5205 35.905 96.0698 36.6302C96.9238 37.0299 97.8644 37.4595 98.8188 37.6192C99.879 37.7967 101.004 37.7134 102.086 37.7818C102.468 37.8059 103.471 37.9914 103.844 37.7669C104.212 37.5444 104.183 37.1675 104.201 36.7182C104.245 35.5625 103.722 34.4309 103.252 33.3939C102.848 32.5043 102.543 31.825 101.917 31.0598C101.113 30.0769 100.413 29.0163 99.6598 27.9904C99.0919 27.2172 98.5183 26.455 97.9395 25.6827C97.5256 25.1296 97.5452 24.9393 96.9211 25.0012C96.3067 25.0622 95.6881 25.4254 95.1093 25.6178C94.2503 25.9036 93.2101 26.0604 92.4267 26.5173C91.9203 26.8127 91.8977 26.867 91.9035 27.3825C91.9091 27.8627 92.064 28.4484 92.3511 28.824C92.9479 29.6038 93.937 30.0166 94.7858 30.4057C95.2769 30.6306 95.7013 30.9498 96.1385 31.2602C96.6094 31.5947 97.5596 31.7918 97.92 32.1732C98.9693 33.284 97.0592 33.0644 96.5255 33.031C95.3738 32.9585 94.2283 32.9695 93.0681 32.9687C91.8017 32.9678 90.5454 32.9089 89.2969 32.9501C88.5655 32.9742 87.7265 32.6033 87.2528 31.9851C87.0233 31.6855 86.9339 31.4025 86.634 31.0917C86.2409 30.6849 85.899 30.2563 85.4208 29.9414C84.6383 29.4262 83.2164 29.1348 82.2848 29.327C82.6184 29.3736 84.1872 29.9076 83.4966 30.5789C83.4125 30.6607 82.4033 30.7142 82.1841 30.8149C81.7882 30.9967 81.2893 31.2609 81.0572 31.6447C81.7332 31.5315 84.2401 31.4003 82.9612 32.6974C82.6474 33.0158 81.7459 33.3335 82.513 33.672C82.6891 33.7498 83.0417 33.6397 83.2684 33.7098C83.6056 33.8142 83.8811 34.0933 84.197 34.2422C85.0927 34.6647 86.3275 34.9252 87.2623 34.8327C88.555 34.7044 89.9022 34.9353 91.1861 35.1046ZM56.9051 74.1851C56.9492 76.0483 56.8819 77.9224 56.9217 79.7943C56.9641 81.7931 57.2206 83.752 57.3428 85.7309C57.4526 87.5042 57.692 89.244 57.8865 91.009C57.9985 92.0256 58.1275 92.9977 58.2994 94.0067C58.4606 94.9509 58.4882 95.7828 57.3594 96.0366C55.2015 96.5222 54.8661 93.4177 54.4491 92.1096C53.8266 90.1575 53.4273 88.1081 53.1188 86.0843C52.5446 82.3154 51.7809 78.599 51.483 74.798C51.2995 72.4575 51.0335 70.1409 50.8825 67.8026C50.8528 67.3442 50.9697 66.6383 50.5673 66.4341C50.3253 66.3117 49.6587 66.3106 49.3532 66.2217C48.502 65.9741 47.7169 65.6096 46.8864 65.2312C47.4758 68.3132 47.6705 71.3799 48.1126 74.4889C48.3472 76.1386 48.7961 77.8479 49.1852 79.4717C49.5883 81.1542 49.6778 82.9658 50.1428 84.6116C50.3477 85.3371 50.5211 85.6327 50.2238 86.3773C49.8592 87.2913 50.1011 87.5099 50.5584 88.4075C51.3997 90.059 52.0419 92.0079 51.8993 93.8696C51.7829 95.3902 50.6342 96.1862 49.211 96.5964C47.4308 97.1093 45.5668 97.0487 43.7758 97.6313C42.2156 98.1387 40.6302 98.5138 39.115 99.1838C38.504 99.4538 37.9235 99.7743 37.2451 99.824C36.3146 99.8915 35.6871 99.3516 34.8084 99.2391C34.2591 99.1689 33.4549 99.431 33.1385 98.8552C32.8876 98.3987 33.1714 97.4026 33.4864 97.0353C34.3709 96.0026 36.1425 95.1028 37.3354 94.4935C38.7103 93.7912 40.0407 92.9122 41.3146 92.0057C42.0867 91.4562 42.8741 90.9289 43.6457 90.3784C44.1561 90.014 44.3501 90.0117 44.298 89.4328C44.2564 88.9713 44.0484 88.5234 44.0119 88.0508C43.9841 87.6887 44.111 87.1951 43.9398 86.9588C43.814 86.7846 43.3415 86.6615 43.1558 86.5296C42.4764 86.048 42.322 85.4522 42.0135 84.7196C41.3127 83.0556 40.5076 81.4385 39.831 79.7612C38.378 76.16 37.4914 72.3732 36.2869 68.6983C35.0564 64.944 33.9561 61.0028 33.2784 57.1077C32.3715 57.3837 31.5157 58.6048 30.7934 59.209C29.8178 60.0256 28.818 60.8152 27.8612 61.6542C26.2929 63.0295 24.7049 64.3669 23.4088 66.014C22.7843 66.8072 22.2731 67.6609 21.7078 68.4943C21.3813 68.9757 21.0768 69.5207 20.7232 69.9787C20.6665 70.0522 20.6648 70.2032 20.6036 70.2658C20.469 70.4033 20.2117 70.2201 20.1254 70.3108C19.5925 70.868 19.5994 72.4502 19.4334 73.1855C19.2046 74.1989 18.9476 75.364 18.1564 76.0624C16.9341 77.141 14.6802 77.3082 13.1334 77.3642C11.1484 77.436 9.22275 77.9892 7.33942 78.5833C6.46097 78.8603 5.6055 79.1845 4.72378 79.4534C4.21665 79.6085 3.63813 79.9173 3.09654 79.8578C2.44341 79.7863 1.92771 79.2368 1.44929 78.8283C0.683925 78.1748 -0.0246821 77.5308 0.000659782 76.4587C0.027605 75.3238 0.642351 74.4674 1.61078 73.9036C3.48305 72.8137 5.57712 72.1152 7.59525 71.362C8.36856 71.0733 9.03063 70.7538 9.77002 70.3651C10.8149 69.8157 12.0176 69.3673 12.9447 68.642C13.218 68.428 14.2226 67.7722 14.3082 67.4341C14.3194 67.3899 14.0684 66.8736 14.0672 66.7917C14.0648 66.581 14.1895 66.3528 14.2663 66.1725C14.7492 65.0374 15.5591 63.9442 16.1783 62.8738C17.3123 60.913 18.4507 58.942 19.7655 57.0979C22.3872 53.4214 25.3323 49.8214 28.511 46.6121C30.0606 45.0475 31.3996 43.2729 32.971 41.7299C33.5937 41.1188 34.2509 40.621 35.018 40.2243C35.8732 39.7822 36.8331 39.6955 37.8132 39.5604C40.1885 39.2335 42.1722 39.9361 44.4021 40.5475C46.5104 41.1255 48.6209 41.613 50.7409 42.2151C53.069 42.8761 55.3734 43.5102 57.6941 44.2308C58.9343 44.6157 60.2099 44.852 61.4558 45.2215C62.0558 45.3991 64.3239 46.513 64.8241 46.147C63.2483 45.4076 61.6342 44.7338 59.9484 44.2875C59.4519 44.1561 59.1348 44.3016 59.1532 43.7314C59.1633 43.4206 59.5128 43.0008 59.6385 42.7449C59.9397 42.1322 60.2808 41.5333 60.5755 40.9187C59.5068 41.2222 56.6342 42.2725 55.8288 41.1868C54.9861 40.0502 55.6896 37.8221 56.2179 36.7094C57.5968 33.8047 59.9418 31.3808 62.2269 29.1911C62.7212 28.7177 63.7867 28.0995 64.0502 27.4965C64.1302 27.3131 63.9558 27.0438 64.1366 26.8057C64.2441 26.664 64.6758 26.5672 64.8483 26.4145C65.4766 25.8583 65.9779 24.688 66.412 23.9588C66.8667 23.1952 67.2764 22.3682 67.8478 21.683C68.7824 20.5626 69.7473 19.375 71.2606 19.1129C72.0028 18.9845 72.7911 19.0531 73.5024 18.7967C74.3627 18.4866 75.1802 17.9982 76.0488 17.6771C75.8333 17.2341 75.6586 16.5295 75.2405 16.4811C74.8379 16.4344 74.2475 16.7805 73.7867 16.778C73.1138 16.7743 72.5394 16.6667 71.89 16.5384C71.1712 16.3963 70.9345 16.4221 70.6724 15.6424C70.3977 14.8257 70.467 13.877 70.4692 13.0286C70.4702 12.6141 70.5525 12.0995 70.5172 11.6926C70.4643 11.0794 70.3451 11.0559 69.8645 10.666C69.264 10.1789 68.5237 9.53424 69.2593 8.6878C69.6568 8.23043 70.4735 8.58612 70.8255 8.09469C71.1841 7.59416 71.1668 6.33677 71.276 5.74884C70.1707 6.29217 70.5759 4.26097 70.5758 3.77223C70.5755 3.06102 70.0989 1.78205 70.7851 1.19038C71.1039 0.915675 71.3407 1.14293 71.7052 0.98506C72.1213 0.8049 72.3832 0.332372 72.8258 0.149175C73.7053 -0.215061 74.6035 0.223569 75.5065 0.151148C76.5425 0.0681979 77.56 -0.0919838 78.6016 0.0742566C79.0951 0.152751 79.3028 0.340219 79.7204 0.550361C80.122 0.752457 80.5294 0.807752 80.9654 0.937796C81.3536 1.05357 81.6939 1.11207 81.9561 1.45027C82.1634 1.71785 82.0789 2.16788 82.2882 2.39853C82.4947 2.62578 82.9032 2.59278 83.1492 2.86267C83.3855 3.12168 83.5268 3.54978 83.6497 3.87212C83.8156 4.30629 83.835 4.46933 84.1272 4.81681C84.3819 5.12004 84.7485 5.3639 84.9611 5.70977C85.4618 6.52514 85.4746 7.70422 85.3148 8.62144C85.2605 8.93378 84.8078 9.74112 84.8786 10.0069C84.946 10.2599 85.3706 10.1933 85.5628 10.3534C85.729 10.4916 85.8751 11.1075 86.0061 11.1451C86.289 11.2263 86.6381 10.6674 86.8526 10.5835C87.2252 10.4378 87.3812 10.2884 87.5876 10.8377C87.7406 11.2452 87.5275 11.7984 87.4152 12.1873C87.2725 12.6825 87.1147 13.2789 86.7364 13.6534C86.2917 14.0935 85.9357 13.8529 85.4451 14.09C84.7096 14.4453 84.9266 15.5563 84.0217 15.8738C83.1595 16.1763 82.2094 15.2245 81.5572 14.7869C81.6923 15.8491 82.2008 16.8727 81.9568 17.9613C83.94 17.1843 85.9015 16.0816 88.0628 15.8386C89.1649 15.7146 90.2783 15.5679 91.3185 16.0254C92.5364 16.5609 93.2825 17.7421 94.1067 18.7236C95.6557 20.5682 97.2452 22.361 98.7319 24.265C100.096 26.0116 101.245 28.0352 102.746 29.6707C104.268 31.329 105.417 34.0197 105.25 36.316C105.236 36.5233 105.075 36.9943 105.1 37.2178C105.12 37.389 105.275 37.6061 105.273 37.7442C105.264 38.2089 105.111 38.4765 104.668 38.7342C103.9 39.1814 102.756 39.4077 101.888 39.5187C100.735 39.6662 99.3231 39.6821 98.1695 39.5246C96.9799 39.3619 95.9341 38.696 94.84 38.2936C93.8804 37.9404 92.9167 37.7199 91.9082 37.4946C91.352 37.3703 90.7362 37.0262 90.3924 37.3592C90.0768 37.6653 90.0113 39.2357 89.9378 39.6533C89.1399 44.1795 88.1918 48.5524 87.3521 53.0554C86.4004 58.1596 85.7496 63.2617 85.0878 68.4091C84.4862 73.0883 84.2896 77.8203 84.155 82.495C84.0908 84.725 84.0815 86.931 84.0951 89.1628C84.1028 90.4126 84.7275 94.5842 82.8748 94.744C81.7861 94.8381 80.9152 93.2771 80.6234 92.4259C80.1851 91.1469 79.9568 89.7697 79.8869 88.4261C79.7455 85.7062 79.5602 82.9843 79.4504 80.2634C79.3316 77.3154 79.4828 74.3131 79.7251 71.375C79.969 68.4171 80.5836 65.5023 80.772 62.5401C80.2066 63.347 80.0256 63.4987 79.0838 63.85C78.0982 64.2181 77.1501 64.6533 76.1555 64.9964C75.8173 65.113 75.2893 65.1861 75.0119 65.3772C74.5001 65.7297 74.8364 65.3297 74.6729 66.0157C74.4984 66.7487 74.4655 67.6286 74.4191 68.3818C74.2013 71.9163 73.2221 75.4257 72.7704 78.9416C72.6614 79.7904 72.817 83.3941 71.3561 82.2583C70.231 81.3837 70.2533 78.6366 70.0932 77.3497C69.8801 75.6344 69.9989 73.8708 70.0325 72.1451C70.0709 70.1798 70.104 68.1184 70.5729 66.1995C69.7338 66.0559 68.5667 66.4471 67.7222 66.5129C66.9909 66.5698 66.2621 66.606 65.5349 66.646C63.8009 66.7412 62.0146 66.8171 60.2512 66.7831C59.9301 66.7768 57.8329 66.4832 57.5649 66.7199C57.4778 66.7968 57.4511 67.8543 57.4349 67.9835C57.3732 68.4693 57.2895 68.9547 57.227 69.4379C57.0278 70.9825 56.848 72.6411 56.9051 74.1851Z" fill="black"/>
<path fill-rule="evenodd" clip-rule="evenodd" d="M88.0505 88.8639C89.3741 89.3811 90.7787 89.5688 92.1133 90.04C93.3065 90.4613 94.4146 91.0276 95.5895 91.4557C95.6582 90.9107 95.6948 89.9878 95.4935 89.4742C95.2085 88.7467 94.4586 88.729 93.7202 88.4699C91.923 87.8393 90.0326 87.7063 88.2485 86.9698C88.5539 87.5578 88.4176 88.3363 88.0505 88.8639ZM110.897 86.9618C108.038 87.0457 105.307 87.7109 102.49 88.1222C101.119 88.3223 99.7468 88.5009 98.3747 88.6877C97.8467 88.7595 96.8844 88.6749 96.5006 89.1319C96.1825 89.5106 96.5311 90.803 96.3898 91.3579C96.9676 91.4006 97.9933 90.8609 98.6203 90.7715C99.5968 90.6327 100.56 90.4382 101.547 90.3763C103.109 90.2778 104.645 90.1941 106.204 90.0202C107.791 89.8434 109.326 89.5147 110.924 89.3947C111.702 89.3362 112.014 89.482 112.06 88.6614C112.078 88.3406 112.122 87.8037 112.032 87.4873C112.176 87.0983 112.048 86.9096 111.649 86.9207C111.396 86.8922 111.145 86.9059 110.897 86.9618ZM105.368 84.3432C106.141 84.2707 106.917 84.1667 107.692 84.1231C107.85 84.1142 108.647 84.1623 108.777 84.0162C108.961 83.8096 108.756 83.0536 108.722 82.8197C108.607 82.0244 108.48 81.5619 107.612 81.5602C106.88 81.5583 106.122 81.7133 105.393 81.7846C102.082 82.1091 98.788 82.2461 95.5137 82.8623C95.7131 83.7111 95.9393 84.5867 95.7009 85.4547C97.2716 85.5357 98.9961 85.2335 100.531 84.9234C102.1 84.6066 103.765 84.4492 105.368 84.3432ZM100.128 76.3522C98.9453 76.3574 97.695 76.8784 96.5278 76.7622C96.5104 76.9795 96.884 76.7993 96.9872 77.0024C97.2075 77.003 97.2843 77.0748 97.217 77.2185C97.2211 77.3165 97.171 77.3739 97.0666 77.3905C97.0151 77.3951 96.9636 77.3995 96.9124 77.4039C96.6866 77.4112 96.6496 77.5633 96.8015 77.8609C96.7363 78.2295 96.8342 78.6978 96.8484 79.0677C98.946 78.7823 100.984 78.4854 103.096 78.3579C104.094 78.2979 105.09 78.2981 106.086 78.216C107.182 78.1257 108.378 78.3193 109.45 78.1142C110.022 78.0043 109.962 78.012 109.921 77.2672C109.895 76.8147 109.905 76.2775 109.536 75.9475C108.921 75.3962 107.52 75.7148 106.784 75.7342C104.568 75.7928 102.315 75.9987 100.128 76.3522ZM101.339 86.9885C104.508 86.7007 107.653 86.0703 110.84 86.0703C110.614 85.8453 110.123 85.7873 109.843 85.6644C109.523 85.5245 109.221 85.2264 108.909 85.1039C108.282 84.8584 107.644 85.1995 107 85.347C105.446 85.7027 103.852 85.7147 102.296 86.0638C100.688 86.4243 99.0579 86.7569 97.4195 86.9403C96.6394 87.0275 95.8024 87.2045 95.0315 86.9984C94.969 86.9537 94.906 86.9089 94.8436 86.8644C94.7762 86.5774 94.5892 86.5008 94.2824 86.6345C93.8928 86.5603 93.3967 86.6561 93.0045 86.6658C92.9885 86.8225 94.4376 87.3139 94.7139 87.4356C95.3797 87.7288 95.831 87.9433 96.542 87.8177C98.143 87.5349 99.7177 87.1974 101.339 86.9885ZM90.1918 77.724C90.3157 78.2067 90.8357 77.987 91.2834 78.0402C91.8843 78.1115 92.4821 78.3188 93.0641 78.475C94.1211 78.7591 95.1783 79.0392 96.2307 79.3394C96.1893 78.9143 96.2834 77.9467 96.0587 77.5696C95.8229 77.1743 94.7055 77.001 94.1852 76.8804C92.8734 76.5769 91.4724 76.7496 90.1399 76.8134C90.1634 77.1167 90.1809 77.4199 90.1918 77.724ZM102.791 80.7441C104.036 80.6387 105.282 80.5567 106.53 80.5128C107.957 80.4629 106.92 80.2349 106.89 79.3647C105.014 79.6638 103.122 79.7228 101.252 79.9785C99.7035 80.1906 97.8582 80.7443 96.2784 80.4469C95.5332 80.3067 94.7724 80.2526 93.9796 80.1733C93.2317 80.0985 92.5261 79.7502 91.7874 79.6636C90.958 79.5664 90.1108 80.0325 89.2858 80.1557C88.9362 80.2079 88.8549 80.445 88.6897 80.0242C88.5186 79.5876 89.009 79.2309 89.2021 78.9698C89.4276 78.6648 89.3339 79.1599 89.4592 78.6837C89.4943 78.5503 89.3992 78.2151 89.3817 78.0713C89.3375 77.7079 89.2232 77.3136 89.2055 76.9509C89.1891 76.6178 89.1862 76.1092 89.5479 75.9148C89.7685 75.7962 89.925 75.9692 90.1175 75.9357C91.6194 75.6745 93.3859 75.6531 94.9091 75.9052C96.5603 76.1783 97.9815 75.4551 99.609 75.1618C101.518 74.8177 103.447 74.7662 105.373 74.6208C107.02 74.4966 110.028 73.8522 110.656 75.9553C110.833 76.5512 111.092 78.1918 110.614 78.6988C109.987 79.3647 108.535 79.1521 107.724 79.3252C107.845 79.6701 108.207 79.9048 108.082 80.3158C109.218 80.3694 109.419 81.4428 109.597 82.4448C109.781 83.4817 109.422 83.8937 110.413 84.4336C111.794 85.1861 113.256 85.9459 113.229 87.7378C113.216 88.6389 113.115 89.9976 112.19 90.465C111.285 90.9223 109.811 90.845 108.814 91.011C106.883 91.3327 104.944 91.71 103.001 91.9031C100.932 92.1087 98.8285 92.2775 96.7559 92.3693C95.6267 92.4197 94.6512 92.5903 93.5606 92.2103C92.4883 91.8367 91.4395 91.5638 90.3331 91.2864C89.241 91.0128 85.8976 90.6444 86.8718 88.7765C87.0276 88.4777 87.5606 88.24 87.6465 87.9575C87.7853 87.5016 87.3165 87.1459 87.3361 86.734C87.3718 85.9802 88.2222 85.8857 88.8094 85.8857C87.8029 85.2563 89.1506 84.5111 89.1427 83.9767C89.1285 83.0353 87.9576 82.4241 87.8913 81.6349C87.7303 79.7143 93.823 81.7141 94.7607 82.1296C94.0389 83.1999 90.6903 82.2737 89.6929 82.1114C89.829 82.4688 89.9591 82.7901 89.9984 83.156C90.0303 83.4541 89.9164 83.795 90.0207 84.0951C90.1853 84.5695 90.1796 84.4787 90.7624 84.6081C91.1934 84.7038 91.6197 84.8143 92.0493 84.9158C92.7094 85.0714 93.7476 85.4893 94.4016 85.4664C94.9753 85.4464 94.8619 85.6244 94.967 84.9873C95.0237 84.6449 94.9272 84.2809 94.8694 83.9455C94.749 83.2426 94.5727 82.5772 95.1867 82.0729C95.772 81.5919 97.0059 81.3629 97.7238 81.1934C99.3173 80.8169 101.157 80.7247 102.791 80.7441Z" fill="black"/>
<path fill-rule="evenodd" clip-rule="evenodd" d="M110.374 68.7462C108.644 68.4562 106.885 68.3848 105.134 68.4727C105.229 68.906 105.324 69.3392 105.419 69.7722C107.059 69.3498 108.724 69.1022 110.374 68.7462ZM96.3018 72.1074C95.6078 72.0566 96.0907 72.3669 96.2621 72.8212C96.4726 73.3793 96.4275 74.0849 96.4759 74.6723C98.5065 73.898 100.869 73.4448 103.028 73.1842C104.052 73.0607 105.091 73.0253 106.12 72.9725C106.425 72.9569 107.524 73.0843 107.747 72.8795C107.912 72.7273 107.796 71.8873 107.637 71.7018C106.773 70.6945 103.432 71.5643 102.224 71.6546C100.242 71.8026 98.2971 72.1566 96.3018 72.1074ZM99.1859 69.408C100.984 69.5807 102.72 69.5642 104.518 69.8337C104.382 68.6907 104.545 68.399 103.248 68.3383C102.093 68.2844 100.941 68.2407 99.7911 68.2412C97.2048 68.2426 94.6246 68.1933 92.0355 68.1933V69.3548C94.4301 69.1096 96.7866 69.5524 99.1859 69.408ZM90.5397 73.6794C91.6744 73.6745 92.747 74.1026 93.8818 74.2136C94.5611 74.28 94.3477 74.3643 94.8189 74.7054C95.5527 75.2366 95.7642 74.9536 95.6722 74.2318C95.3603 71.7898 92.2687 72.3374 90.4871 72.2017C90.6041 72.784 90.335 73.2778 89.9385 73.6794H90.5397ZM102.805 70.5443C101.173 70.5707 99.5389 70.6635 97.9181 70.6295C97.1926 70.6144 96.2527 70.4706 95.5417 70.5944C95.0208 70.6849 94.5852 70.9502 94.0139 71.0488C94.8531 71.5008 95.2785 71.1954 96.1607 71.0925C97.0422 70.99 97.9367 70.9919 98.8218 70.9383C100.275 70.8503 101.825 70.5021 103.256 70.5969C103.283 70.3951 103.132 70.3775 102.805 70.5443ZM89.8595 75.8329C89.1106 75.8312 90.141 74.9795 90.2762 74.8951C89.4471 74.8951 89.2464 74.3978 89.4866 73.5989C89.7129 72.8465 89.8803 73.0768 89.3109 72.4502C88.8823 71.9784 88.8174 71.6307 89.3227 71.1032C89.8369 70.5666 90.8784 70.7184 91.334 70.2754C92.1097 69.5214 91.1087 68.0197 92.1835 67.4421C92.9102 67.0519 94.0813 67.1001 94.8834 67.0177C95.6587 66.938 96.4613 66.9226 97.2418 66.912C98.9431 66.8887 100.71 67.1741 102.404 67.3311C103.022 67.3882 103.716 67.6378 104.324 67.6382C104.945 67.6389 105.595 67.5006 106.235 67.5166C106.98 67.5353 107.698 67.4804 108.466 67.6026C109.054 67.6964 110.428 67.7456 110.878 68.183C112.376 69.6408 108.822 70.3103 108.211 70.474C108.833 71.1558 108.807 72.0571 108.714 72.9154C109.01 72.9154 109.521 72.7865 109.674 73.1188C109.864 73.5312 109.159 73.6385 108.993 73.6866C108.034 73.9636 106.912 73.8877 105.923 73.9883C103.948 74.1893 101.996 74.3053 100.041 74.6796C99.0884 74.8619 98.1413 75.0877 97.1892 75.2652C97.0249 75.296 96.8596 75.3205 96.6936 75.3391C96.4387 75.3174 96.3564 75.4771 96.4462 75.8195C96.1819 75.9487 95.1966 75.627 94.892 75.5777C93.1478 75.2948 91.5874 75.4123 89.8595 75.8329Z" fill="black"/>
<path fill-rule="evenodd" clip-rule="evenodd" d="M125.08 92.7698C123.955 93.6551 122.909 94.4905 121.691 95.2597C122.552 95.2329 125.416 93.8594 125.08 92.7698ZM124.64 91.3269C124.026 90.7993 123.416 90.8533 122.657 90.6934C121.957 90.5461 121.277 90.2925 120.578 90.1237C120.03 89.9913 119.488 89.8122 118.942 89.6871C118.17 89.5103 118.094 89.7049 117.385 90.1089C114.87 91.5424 112.055 92.5284 109.406 93.692C110.184 94.3767 111.933 94.4062 112.906 94.6246C113.615 94.7838 114.291 95.0018 114.971 95.2539C115.604 95.489 116.624 96.0295 117.291 96.0475C117.855 96.0627 118.313 95.5082 118.798 95.2095C119.436 94.8163 120.072 94.4302 120.715 94.047C122.076 93.2359 123.349 92.2421 124.64 91.3269ZM113.273 97.1333C112.983 96.8539 112.109 96.8661 111.745 96.7808C111.028 96.6132 110.321 96.4391 109.595 96.3133C108.415 96.1092 106.552 96.018 106.424 94.488C106.318 93.2165 107.854 92.9148 108.752 92.484C110.104 91.836 111.482 91.2381 112.868 90.6665C114.167 90.131 115.485 89.678 116.808 89.2151C117.066 89.1249 117.275 89.1374 117.486 88.9308C117.652 88.7679 117.6 88.4516 117.783 88.2813C118.199 87.8914 118.74 88.0966 119.241 88.1966C120.379 88.4235 121.561 88.7215 122.645 89.1425C123.773 89.5799 124.781 89.6713 125.052 90.9493C125.628 90.6789 126.062 90.6396 125.993 91.4342C125.973 91.6677 125.803 91.9217 125.762 92.1625C125.703 92.5175 125.807 92.8917 125.748 93.2477C125.532 94.5419 123.787 95.5005 122.706 96.0088C121.373 96.6352 119.652 97.5611 118.164 97.6834C116.577 97.8138 114.848 97.1907 113.273 97.1333Z" fill="black"/>
<path fill-rule="evenodd" clip-rule="evenodd" d="M93.081 75.6621C92.6081 75.6651 92.1349 75.6681 91.6621 75.6711C92.134 75.5824 92.6073 75.5814 93.081 75.6621Z" fill="black"/>
<path fill-rule="evenodd" clip-rule="evenodd" d="M65.4122 25.6202C65.2704 25.8566 65.1286 26.093 64.9866 26.3297C65.035 26.0249 65.1431 25.7637 65.4122 25.6202Z" fill="black"/>
<path fill-rule="evenodd" clip-rule="evenodd" d="M93.0811 82.4442C93.3654 82.4468 93.6496 82.4489 93.9324 82.4516C93.6475 82.4495 93.3644 82.4469 93.0811 82.4442Z" fill="black"/>
<path fill-rule="evenodd" clip-rule="evenodd" d="M93.9324 75.6691C93.6485 75.6664 93.3646 75.6638 93.0811 75.6611C93.3658 75.5835 93.6498 75.5862 93.9324 75.6691Z" fill="black"/>
<path fill-rule="evenodd" clip-rule="evenodd" d="M105.225 35.4107C105.217 35.1268 105.209 34.8428 105.201 34.5593C105.209 34.8434 105.217 35.1269 105.225 35.4107Z" fill="black"/>
<path fill-rule="evenodd" clip-rule="evenodd" d="M56.9783 78.2621C56.9725 78.0255 56.9665 77.7889 56.9607 77.5526C56.9667 77.7894 56.9725 78.0257 56.9783 78.2621Z" fill="black"/>
<path fill-rule="evenodd" clip-rule="evenodd" d="M64.7026 66.6976C64.8925 66.6976 65.0819 66.6979 65.2702 66.6982C65.0802 66.6982 64.8914 66.6979 64.7026 66.6976Z" fill="black"/>
<path fill-rule="evenodd" clip-rule="evenodd" d="M90.1013 15.733C89.8648 15.7502 89.6282 15.7672 89.3918 15.7844C89.6284 15.7672 89.8649 15.7502 90.1013 15.733Z" fill="black"/>
<path fill-rule="evenodd" clip-rule="evenodd" d="M84.0817 85.0728C84.0746 84.8834 84.0674 84.6937 84.0605 84.5052C84.0675 84.695 84.0746 84.884 84.0817 85.0728Z" fill="black"/>
<path fill-rule="evenodd" clip-rule="evenodd" d="M84.3623 77.8364C84.3571 77.6471 84.352 77.4577 84.3469 77.2688C84.3522 77.4581 84.3573 77.6472 84.3623 77.8364Z" fill="black"/>
<path fill-rule="evenodd" clip-rule="evenodd" d="M79.52 81.0999C79.5268 81.2893 79.5338 81.4788 79.5405 81.6674C79.5336 81.4777 79.5268 81.289 79.52 81.0999Z" fill="black"/>
<path fill-rule="evenodd" clip-rule="evenodd" d="M65.8379 66.5589C65.9804 66.557 66.1225 66.555 66.2636 66.553C66.1208 66.555 65.9794 66.557 65.8379 66.5589Z" fill="black"/>
<path fill-rule="evenodd" clip-rule="evenodd" d="M106.987 73.9436C107.129 73.9375 107.271 73.9313 107.412 73.9252C107.27 73.9314 107.128 73.9375 106.987 73.9436Z" fill="black"/>
<path fill-rule="evenodd" clip-rule="evenodd" d="M79.802 85.6404C79.8102 85.8298 79.8183 86.0194 79.8264 86.2079C79.8183 86.018 79.8102 85.8292 79.802 85.6404Z" fill="black"/>
<path fill-rule="evenodd" clip-rule="evenodd" d="M95.0108 84.6472C95.0013 84.8368 94.9917 85.0262 94.9822 85.2148C94.9917 85.0252 95.0013 84.8362 95.0108 84.6472Z" fill="black"/>
<path fill-rule="evenodd" clip-rule="evenodd" d="M78.657 0.100478C78.4567 0.0749372 78.2561 0.0496093 78.0554 0.0240688C78.2544 0.0700417 78.4722 -0.100441 78.657 0.100478Z" fill="black"/>
<path fill-rule="evenodd" clip-rule="evenodd" d="M70.0318 72.8701C70.0264 73.0595 70.0209 73.249 70.0154 73.4377C70.0206 73.2478 70.0263 73.059 70.0318 72.8701Z" fill="black"/>
<path fill-rule="evenodd" clip-rule="evenodd" d="M57.8356 90.181C57.826 89.9917 57.816 89.8024 57.8064 89.6134C57.8162 89.8027 57.826 89.9918 57.8356 90.181Z" fill="black"/>
<path fill-rule="evenodd" clip-rule="evenodd" d="M103.723 74.2225C103.866 74.2196 104.008 74.2164 104.149 74.2137C104.006 74.2169 103.864 74.2197 103.723 74.2225Z" fill="black"/>
<path fill-rule="evenodd" clip-rule="evenodd" d="M55.5491 39.8093C55.5502 39.9989 55.5513 40.1883 55.5522 40.3769C55.5509 40.1872 55.5501 39.9983 55.5491 39.8093Z" fill="black"/>
<path fill-rule="evenodd" clip-rule="evenodd" d="M52.5721 82.377C52.5715 82.5664 52.5708 82.7561 52.5698 82.9445C52.5704 82.7548 52.5712 82.5658 52.5721 82.377Z" fill="black"/>
<path fill-rule="evenodd" clip-rule="evenodd" d="M87.9366 81.2417C87.9315 81.4311 87.9265 81.6207 87.9211 81.8093C87.8433 81.6147 87.8521 81.4262 87.9366 81.2417Z" fill="black"/>
<path fill-rule="evenodd" clip-rule="evenodd" d="M84.2152 80.3904C84.2137 80.201 84.2123 80.0117 84.2107 79.8229C84.2123 80.0127 84.2137 80.2014 84.2152 80.3904Z" fill="black"/>
<path fill-rule="evenodd" clip-rule="evenodd" d="M113.23 97.1986C113.372 97.2026 113.515 97.2064 113.655 97.2104C113.512 97.2066 113.371 97.2026 113.23 97.1986Z" fill="black"/>
<path fill-rule="evenodd" clip-rule="evenodd" d="M108.122 79.1867C108.217 79.185 108.312 79.1835 108.405 79.1818C108.31 79.1835 108.216 79.185 108.122 79.1867Z" fill="black"/>
<path fill-rule="evenodd" clip-rule="evenodd" d="M104.574 79.6103C104.669 79.61 104.764 79.6099 104.858 79.6097C104.763 79.61 104.668 79.6102 104.574 79.6103Z" fill="black"/>
<path fill-rule="evenodd" clip-rule="evenodd" d="M49.3161 80.5324C49.3104 80.3905 49.3046 80.2483 49.2991 80.1067C49.3049 80.2489 49.3106 80.3908 49.3161 80.5324Z" fill="black"/>
<path fill-rule="evenodd" clip-rule="evenodd" d="M107.412 80.4246C107.289 80.5493 107.13 80.4756 106.987 80.4836C107.128 80.4639 107.27 80.4443 107.412 80.4246Z" fill="black"/>
<path fill-rule="evenodd" clip-rule="evenodd" d="M90.527 75.8849C90.3397 75.9734 90.1503 75.9856 89.9595 75.891C90.1488 75.889 90.3379 75.887 90.527 75.8849Z" fill="black"/>
<path fill-rule="evenodd" clip-rule="evenodd" d="M102.872 80.7476C102.682 80.7461 102.493 80.7445 102.304 80.7428C102.493 80.7445 102.683 80.7461 102.872 80.7476Z" fill="black"/>
<path fill-rule="evenodd" clip-rule="evenodd" d="M51.5833 75.1404C51.5799 75.2827 51.5761 75.4247 51.5723 75.5661C51.5758 75.4236 51.5795 75.2818 51.5833 75.1404Z" fill="black"/>
<path fill-rule="evenodd" clip-rule="evenodd" d="M84.2019 82.8026C84.2093 82.6605 84.2165 82.5183 84.2238 82.377C84.2165 82.5194 84.2093 82.661 84.2019 82.8026Z" fill="black"/>
<path fill-rule="evenodd" clip-rule="evenodd" d="M103.723 74.62C103.534 74.6359 103.345 74.6518 103.156 74.6677C103.345 74.6518 103.534 74.6359 103.723 74.62Z" fill="black"/>
<path fill-rule="evenodd" clip-rule="evenodd" d="M56.9754 74.1472C56.9716 74.0051 56.9676 73.8629 56.9636 73.7216C56.9676 73.864 56.9716 74.0056 56.9754 74.1472Z" fill="black"/>
<path fill-rule="evenodd" clip-rule="evenodd" d="M80.6824 63.2216C80.6712 63.3637 80.66 63.5058 80.6489 63.6472C80.6601 63.5051 80.6713 63.3634 80.6824 63.2216Z" fill="black"/>
<path fill-rule="evenodd" clip-rule="evenodd" d="M106.561 67.5152C106.371 67.6133 106.182 67.601 105.993 67.5142C106.183 67.5144 106.372 67.5149 106.561 67.5152Z" fill="black"/>
<path fill-rule="evenodd" clip-rule="evenodd" d="M84.0837 87.2013C84.0752 87.0591 84.0668 86.9172 84.0586 86.7756C84.0668 86.918 84.0752 87.0596 84.0837 87.2013Z" fill="black"/>
<path fill-rule="evenodd" clip-rule="evenodd" d="M84.0799 88.3363C84.0739 88.1943 84.0678 88.0523 84.062 87.9106C84.0681 88.0528 84.0741 88.1944 84.0799 88.3363Z" fill="black"/>
<path fill-rule="evenodd" clip-rule="evenodd" d="M57.2505 69.6066C57.2526 69.4646 57.2545 69.3222 57.2564 69.1809C57.2543 69.3234 57.2525 69.4648 57.2505 69.6066Z" fill="black"/>
<path fill-rule="evenodd" clip-rule="evenodd" d="M97.6216 92.2422C97.7165 92.2395 97.8116 92.2368 97.9054 92.2344C97.8099 92.2374 97.7158 92.2396 97.6216 92.2422Z" fill="black"/>
<path fill-rule="evenodd" clip-rule="evenodd" d="M51.8731 93.4445C51.8654 93.3024 51.8578 93.1604 51.8501 93.0188C51.8579 93.1608 51.8654 93.3027 51.8731 93.4445Z" fill="black"/>
<path fill-rule="evenodd" clip-rule="evenodd" d="M82.5811 94.6476C82.6761 94.6496 82.7712 94.6514 82.8648 94.6535C82.7695 94.6516 82.6753 94.6496 82.5811 94.6476Z" fill="black"/>
<path fill-rule="evenodd" clip-rule="evenodd" d="M82.6401 82.5187C82.6482 82.0929 82.656 81.6672 82.664 81.2417C82.6559 81.6675 82.6481 82.0931 82.6401 82.5187Z" fill="black"/>
<path fill-rule="evenodd" clip-rule="evenodd" d="M71.5771 66.9106C71.582 67.242 71.5868 67.5733 71.5919 67.9039C71.5871 67.5723 71.5821 67.2414 71.5771 66.9106Z" fill="black"/>
<path fill-rule="evenodd" clip-rule="evenodd" d="M47.1081 87.6935C46.8713 87.6963 46.6341 87.6992 46.3987 87.7023C46.6362 87.6994 46.8722 87.6965 47.1081 87.6935Z" fill="black"/>
<path fill-rule="evenodd" clip-rule="evenodd" d="M66.5473 59.4669C66.3102 59.463 66.0733 59.4592 65.8379 59.4558C66.0756 59.4596 66.3115 59.4633 66.5473 59.4669Z" fill="black"/>
<path fill-rule="evenodd" clip-rule="evenodd" d="M60.446 64.9954C60.6827 64.9954 60.9193 64.9952 61.1555 64.9949C60.919 64.9949 60.6826 64.9953 60.446 64.9954Z" fill="black"/>
<path fill-rule="evenodd" clip-rule="evenodd" d="M63.5676 59.3148C63.3777 59.3179 63.188 59.3212 63 59.3242C63.1904 59.3211 63.379 59.3179 63.5676 59.3148Z" fill="black"/>
<path fill-rule="evenodd" clip-rule="evenodd" d="M48.2433 87.6994C48.0536 87.6983 47.8639 87.6973 47.6758 87.6963C47.8662 87.6974 48.0548 87.6983 48.2433 87.6994Z" fill="black"/>
<path fill-rule="evenodd" clip-rule="evenodd" d="M73.7839 15.2158C74.0203 15.1993 74.257 15.1828 74.4934 15.1664C74.2569 15.1828 74.0203 15.1993 73.7839 15.2158Z" fill="black"/>
<path fill-rule="evenodd" clip-rule="evenodd" d="M76.9631 31.8634C76.9719 31.6269 76.9807 31.3903 76.9895 31.1539C76.9806 31.3906 76.9719 31.627 76.9631 31.8634Z" fill="black"/>
<path fill-rule="evenodd" clip-rule="evenodd" d="M71.2299 34.0626C71.0876 34.0626 70.9451 34.0628 70.8042 34.0629C70.9471 34.0629 71.0884 34.0628 71.2299 34.0626Z" fill="black"/>
<path fill-rule="evenodd" clip-rule="evenodd" d="M59.1691 58.8916C59.0268 58.8932 58.8843 58.8947 58.7434 58.8961C58.8863 58.8949 59.0276 58.8932 59.1691 58.8916Z" fill="black"/>
<path fill-rule="evenodd" clip-rule="evenodd" d="M55.9055 64.6884C56.0948 64.7037 56.2839 64.7191 56.4731 64.7345C56.2838 64.7191 56.0948 64.7037 55.9055 64.6884Z" fill="black"/>
<path fill-rule="evenodd" clip-rule="evenodd" d="M55.5461 71.8769C55.5491 71.6875 55.5524 71.4983 55.5551 71.3093C55.5521 71.4989 55.5491 71.6879 55.5461 71.8769Z" fill="black"/>
<path fill-rule="evenodd" clip-rule="evenodd" d="M71.7974 64.3136C71.9865 64.295 72.1758 64.2765 72.3649 64.2579C72.1756 64.2765 71.9865 64.295 71.7974 64.3136Z" fill="black"/>
<path fill-rule="evenodd" clip-rule="evenodd" d="M84.7637 60.9512C84.775 60.762 84.7862 60.5724 84.7974 60.3837C84.7862 60.5732 84.7749 60.7622 84.7637 60.9512Z" fill="black"/>
<path fill-rule="evenodd" clip-rule="evenodd" d="M67.9662 59.6054C67.8239 59.604 67.6814 59.6026 67.5405 59.6013C67.6834 59.6026 67.8249 59.604 67.9662 59.6054Z" fill="black"/>
<path fill-rule="evenodd" clip-rule="evenodd" d="M55.5609 82.5188C55.5538 82.3766 55.547 82.2346 55.54 82.0931C55.547 82.2353 55.5538 82.3771 55.5609 82.5188Z" fill="black"/>
<path fill-rule="evenodd" clip-rule="evenodd" d="M71.4698 75.2823C71.7799 76.0514 71.6058 75.5068 71.6138 75.6843C71.3496 75.7198 71.3015 75.5857 71.4698 75.2823Z" fill="black"/>
<path fill-rule="evenodd" clip-rule="evenodd" d="M58.4596 58.9014C58.3174 58.8963 58.1748 58.8912 58.0339 58.886C58.1771 58.8911 58.3181 58.8962 58.4596 58.9014Z" fill="black"/>
<path fill-rule="evenodd" clip-rule="evenodd" d="M87.4629 44.4918C87.4718 44.3025 87.481 44.1132 87.4898 43.9242C87.4808 44.1136 87.4718 44.3028 87.4629 44.4918Z" fill="black"/>
<path fill-rule="evenodd" clip-rule="evenodd" d="M55.5515 81.0999C55.551 80.9106 55.5505 80.7215 55.55 80.5323C55.5505 80.7221 55.5509 80.9111 55.5515 81.0999Z" fill="black"/>
<path fill-rule="evenodd" clip-rule="evenodd" d="M55.5359 76.8432C55.5457 76.7011 55.5556 76.5591 55.5654 76.4175C55.5556 76.5597 55.5457 76.7015 55.5359 76.8432Z" fill="black"/>
<path fill-rule="evenodd" clip-rule="evenodd" d="M85.0442 58.2553C85.0574 58.1132 85.0707 57.9712 85.0839 57.8296C85.0707 57.9718 85.0574 58.1137 85.0442 58.2553Z" fill="black"/>
<path fill-rule="evenodd" clip-rule="evenodd" d="M53.687 77.2688C53.6996 77.411 53.7124 77.5532 53.725 77.6945C53.7123 77.5524 53.6996 77.4107 53.687 77.2688Z" fill="black"/>
<path fill-rule="evenodd" clip-rule="evenodd" d="M53.4014 76.1337C53.4154 76.2757 53.4293 76.4179 53.4434 76.5593C53.4293 76.417 53.4154 76.2753 53.4014 76.1337Z" fill="black"/>
<path fill-rule="evenodd" clip-rule="evenodd" d="M81.7847 56.6945C81.7953 56.5526 81.8058 56.4105 81.8165 56.2688C81.8057 56.411 81.7952 56.5527 81.7847 56.6945Z" fill="black"/>
<path fill-rule="evenodd" clip-rule="evenodd" d="M9.36499 75.9433C9.55399 75.9284 9.74327 75.9133 9.93256 75.8986C9.74285 75.9133 9.55385 75.9284 9.36499 75.9433Z" fill="black"/>
<path fill-rule="evenodd" clip-rule="evenodd" d="M80.5318 79.3972C80.5263 79.5394 80.5206 79.6819 80.5154 79.8229C80.5209 79.6803 80.5264 79.5388 80.5318 79.3972Z" fill="black"/>
<path fill-rule="evenodd" clip-rule="evenodd" d="M82.7783 79.8229C82.7888 79.681 82.7993 79.5388 82.81 79.3972C82.7993 79.5394 82.7888 79.6811 82.7783 79.8229Z" fill="black"/>
<path fill-rule="evenodd" clip-rule="evenodd" d="M81.9202 56.127C81.9351 55.9849 81.9503 55.843 81.965 55.7013C81.9501 55.8435 81.9351 55.9852 81.9202 56.127Z" fill="black"/>
<path fill-rule="evenodd" clip-rule="evenodd" d="M10.5 75.8069C10.6893 75.7883 10.8786 75.7696 11.0676 75.751C10.8786 75.7696 10.689 75.7883 10.5 75.8069Z" fill="black"/>
<path fill-rule="evenodd" clip-rule="evenodd" d="M70.6622 59.4598C70.5673 59.4608 70.4721 59.462 70.3784 59.463C70.4739 59.462 70.568 59.4608 70.6622 59.4598Z" fill="black"/>
<path fill-rule="evenodd" clip-rule="evenodd" d="M55.5515 75.5661C55.551 75.4239 55.5505 75.2818 55.55 75.1404C55.5505 75.2827 55.551 75.4242 55.5515 75.5661Z" fill="black"/>
<path fill-rule="evenodd" clip-rule="evenodd" d="M83.0887 75.2824C83.0383 75.1356 83.0136 74.9911 83.1108 74.8567C83.1035 74.9989 83.0961 75.1406 83.0887 75.2824Z" fill="black"/>
<path fill-rule="evenodd" clip-rule="evenodd" d="M80.6717 72.5863C80.6678 72.7283 80.6635 72.8705 80.6597 73.012C80.6638 72.8697 80.6678 72.7279 80.6717 72.5863Z" fill="black"/>
<path fill-rule="evenodd" clip-rule="evenodd" d="M80.7942 86.6337C80.803 86.7756 80.8119 86.9179 80.8207 87.0593C80.8119 86.9172 80.803 86.7753 80.7942 86.6337Z" fill="black"/>
<path fill-rule="evenodd" clip-rule="evenodd" d="M91.2366 35.0258C91.3786 35.046 91.5205 35.0662 91.6622 35.0863C91.5202 35.0661 91.3785 35.0458 91.2366 35.0258Z" fill="black"/>
<path fill-rule="evenodd" clip-rule="evenodd" d="M90.6689 35.0389C90.8594 35.0504 91.0685 34.9589 91.2365 35.093L90.6689 35.0389Z" fill="black"/>
<path fill-rule="evenodd" clip-rule="evenodd" d="M70.6621 34.8894L71.2297 34.9388C71.0403 34.9223 70.8514 34.9059 70.6621 34.8894Z" fill="black"/>
<path fill-rule="evenodd" clip-rule="evenodd" d="M61.2974 64.9581C61.4868 64.959 61.6758 64.9598 61.8649 64.9607C61.6749 65.0521 61.4858 65.061 61.2974 64.9581Z" fill="black"/>
<path fill-rule="evenodd" clip-rule="evenodd" d="M56.1344 88.762C56.1238 88.6197 56.113 88.4776 56.1021 88.3363C56.113 88.4786 56.1238 88.6202 56.1344 88.762Z" fill="black"/>
<path fill-rule="evenodd" clip-rule="evenodd" d="M76.8315 35.127C76.8337 34.9848 76.8357 34.8429 76.8378 34.7013C76.8357 34.8436 76.8337 34.9854 76.8315 35.127Z" fill="black"/>
<path fill-rule="evenodd" clip-rule="evenodd" d="M64.8447 65.018C65.034 65.0028 65.2232 64.9876 65.4123 64.9722C65.223 64.9876 65.034 65.0028 64.8447 65.018Z" fill="black"/>
<path fill-rule="evenodd" clip-rule="evenodd" d="M80.9448 90.0391C80.9478 90.1811 80.9512 90.3231 80.9543 90.4647C80.9512 90.3223 80.9478 90.1808 80.9448 90.0391Z" fill="black"/>
<path fill-rule="evenodd" clip-rule="evenodd" d="M83.9097 67.762C83.9227 67.6199 83.9358 67.4779 83.9486 67.3363C83.9356 67.4785 83.9226 67.6201 83.9097 67.762Z" fill="black"/>
<path fill-rule="evenodd" clip-rule="evenodd" d="M90.4399 29.877C90.4509 29.7348 90.4617 29.5929 90.4723 29.4513C90.4617 29.5935 90.4507 29.7352 90.4399 29.877Z" fill="black"/>
<path fill-rule="evenodd" clip-rule="evenodd" d="M76.9724 17.6742C76.9751 17.8162 76.9777 17.9584 76.9806 18.0999C76.9779 17.9576 76.9752 17.8158 76.9724 17.6742Z" fill="black"/>
<path fill-rule="evenodd" clip-rule="evenodd" d="M71.9392 15.0255C72.1284 15.0413 72.3178 15.0572 72.5068 15.0728C72.3176 15.057 72.1284 15.0413 71.9392 15.0255Z" fill="black"/>
<path fill-rule="evenodd" clip-rule="evenodd" d="M43.5608 95.6716C43.7501 95.653 43.9391 95.6346 44.1284 95.616C43.9391 95.6346 43.7501 95.6531 43.5608 95.6716Z" fill="black"/>
<path fill-rule="evenodd" clip-rule="evenodd" d="M72.223 13.6304C72.1281 13.6303 72.0329 13.6301 71.9392 13.6301C72.0346 13.6304 72.1288 13.6304 72.223 13.6304Z" fill="black"/>
<path fill-rule="evenodd" clip-rule="evenodd" d="M37.3176 97.5196C37.5071 97.4219 37.6961 97.4498 37.8852 97.5203C37.6961 97.52 37.5066 97.5199 37.3176 97.5196Z" fill="black"/>
<path fill-rule="evenodd" clip-rule="evenodd" d="M110.959 86.84C110.77 86.8442 110.58 86.8486 110.392 86.853C110.582 86.8488 110.771 86.8442 110.959 86.84Z" fill="black"/>
<path fill-rule="evenodd" clip-rule="evenodd" d="M108.122 84.0259C108.358 84.0078 108.595 83.9898 108.831 83.9718C108.61 84.1104 108.358 84.0078 108.122 84.0259Z" fill="black"/>
<path fill-rule="evenodd" clip-rule="evenodd" d="M105.426 84.3181C105.662 84.3009 105.899 84.2839 106.135 84.2667C105.899 84.2839 105.662 84.3009 105.426 84.3181Z" fill="black"/>
<path fill-rule="evenodd" clip-rule="evenodd" d="M103.156 86.7297C103.345 86.7129 103.534 86.6963 103.723 86.6794C103.534 86.6962 103.345 86.7129 103.156 86.7297Z" fill="black"/>
<path fill-rule="evenodd" clip-rule="evenodd" d="M104.149 81.879C104.006 81.88 103.864 81.881 103.723 81.8816C103.866 81.8804 104.007 81.8797 104.149 81.879Z" fill="black"/>
<path fill-rule="evenodd" clip-rule="evenodd" d="M107.696 89.6959C107.885 89.68 108.074 89.6638 108.263 89.6479C108.087 89.772 107.887 89.7006 107.696 89.6959Z" fill="black"/>
<path fill-rule="evenodd" clip-rule="evenodd" d="M101.595 76.0629C101.452 76.0628 101.31 76.0625 101.169 76.0624C101.312 76.0625 101.453 76.0628 101.595 76.0629Z" fill="black"/>
<path fill-rule="evenodd" clip-rule="evenodd" d="M100.176 76.3458C100.081 76.3465 99.9856 76.3468 99.8918 76.3471C99.9873 76.3467 100.081 76.3463 100.176 76.3458Z" fill="black"/>
<path fill-rule="evenodd" clip-rule="evenodd" d="M96.7703 76.7412C96.7226 76.8578 96.4719 76.8429 96.4872 76.7231C96.5815 76.7291 96.6758 76.7352 96.7703 76.7412Z" fill="black"/>
<path fill-rule="evenodd" clip-rule="evenodd" d="M90.1636 77.2688C90.1694 77.4107 90.1752 77.5529 90.1809 77.6945C90.1751 77.5523 90.1694 77.4104 90.1636 77.2688Z" fill="black"/>
<path fill-rule="evenodd" clip-rule="evenodd" d="M109.541 78.021C109.682 78.0186 109.824 78.0163 109.966 78.0139C109.826 78.1141 109.684 78.1001 109.541 78.021Z" fill="black"/>
<path fill-rule="evenodd" clip-rule="evenodd" d="M104.149 75.9188C104.054 75.9202 103.959 75.9217 103.865 75.9228C103.96 75.9215 104.055 75.9202 104.149 75.9188Z" fill="black"/>
<path fill-rule="evenodd" clip-rule="evenodd" d="M100.459 84.8866C100.649 84.8688 100.838 84.8512 101.027 84.8335C100.838 84.8512 100.649 84.8688 100.459 84.8866Z" fill="black"/>
<path fill-rule="evenodd" clip-rule="evenodd" d="M102.446 90.2816C102.635 90.2123 102.825 90.1886 103.013 90.2833C102.824 90.2827 102.635 90.2821 102.446 90.2816Z" fill="black"/>
<path fill-rule="evenodd" clip-rule="evenodd" d="M102.145 70.7231L101.878 70.6309C102.209 70.6267 102.541 70.6226 102.872 70.6187C102.872 70.6188 102.183 70.7261 102.145 70.7231Z" fill="black"/>
<path fill-rule="evenodd" clip-rule="evenodd" d="M99.6081 68.259C99.371 68.2589 99.1341 68.2586 98.8987 68.2584C99.1361 68.2587 99.3722 68.259 99.6081 68.259Z" fill="black"/>
<path fill-rule="evenodd" clip-rule="evenodd" d="M90.6689 73.6828C90.9051 73.5883 91.1416 73.6068 91.3784 73.6803C91.1419 73.6811 90.9055 73.682 90.6689 73.6828Z" fill="black"/>
<path fill-rule="evenodd" clip-rule="evenodd" d="M105 71.3777C104.858 71.3794 104.715 71.3811 104.574 71.3828C104.717 71.381 104.858 71.3794 105 71.3777Z" fill="black"/>
<path fill-rule="evenodd" clip-rule="evenodd" d="M102.021 69.5125C102.257 69.5279 102.494 69.5434 102.73 69.559C102.494 69.5432 102.257 69.5279 102.021 69.5125Z" fill="black"/>
<path fill-rule="evenodd" clip-rule="evenodd" d="M99.3242 69.3705C99.5135 69.3859 99.7026 69.4016 99.8918 69.417C99.7025 69.4014 99.5134 69.3859 99.3242 69.3705Z" fill="black"/>
<path fill-rule="evenodd" clip-rule="evenodd" d="M96.6285 72.0928C96.5334 72.0908 96.4387 72.0888 96.3447 72.0868C96.4401 72.0888 96.5343 72.0908 96.6285 72.0928Z" fill="black"/>
<path fill-rule="evenodd" clip-rule="evenodd" d="M99.608 70.6796C99.5129 70.6738 99.418 70.6678 99.3242 70.662C99.4196 70.6678 99.5138 70.6738 99.608 70.6796Z" fill="black"/>
<path fill-rule="evenodd" clip-rule="evenodd" d="M97.7635 70.6747C97.6685 70.672 97.5734 70.6693 97.4797 70.6669C97.5751 70.6696 97.6693 70.6721 97.7635 70.6747Z" fill="black"/>
<path fill-rule="evenodd" clip-rule="evenodd" d="M102.872 70.5427C102.872 70.5794 103.299 70.393 103.297 70.5664L102.872 70.5427Z" fill="black"/>
<path fill-rule="evenodd" clip-rule="evenodd" d="M101.311 68.2584C101.216 68.2586 101.121 68.2589 101.027 68.259C101.123 68.2589 101.217 68.2586 101.311 68.2584Z" fill="black"/>
<path fill-rule="evenodd" clip-rule="evenodd" d="M50.9392 61.5297C51.0929 60.9026 51.051 60.412 51.5983 60.8127C51.8985 61.0328 52.3937 62.1483 52.3561 62.5262C52.3099 62.9923 52.0973 63.178 51.6586 63.0297C51.1543 62.8589 50.9542 61.9988 50.9392 61.5297Z" fill="black"/>
<path fill-rule="evenodd" clip-rule="evenodd" d="M78.584 57.7228C79.8548 57.7228 79.3003 59.0752 78.241 59.1054C77.7543 59.1194 77.0541 59.0234 77.2119 58.3718C77.2962 58.024 78.5309 57.5552 78.584 57.7228Z" fill="black"/>
<path fill-rule="evenodd" clip-rule="evenodd" d="M64.9545 60.3837C65.8718 60.8275 64.5812 62.7764 63.7477 62.294C62.6804 61.6764 64.5773 60.6618 64.9545 60.3837Z" fill="black"/>
<path fill-rule="evenodd" clip-rule="evenodd" d="M62.7227 62.2283C63.0229 62.5558 64.376 63.6661 63.6302 64.1126C62.713 64.6616 62.0149 62.8492 62.7227 62.2283Z" fill="black"/>
<path fill-rule="evenodd" clip-rule="evenodd" d="M47.3462 61.377C47.0478 60.7999 47.4585 59.2897 48.3697 59.5657C49.2866 59.8437 47.8508 61.2237 47.3462 61.377Z" fill="black"/>
<path fill-rule="evenodd" clip-rule="evenodd" d="M67.5889 61.7095C68.1838 61.47 68.0704 62.1786 68.1604 62.4072C68.2623 62.6669 68.7861 63.2994 68.6547 63.5758C68.4598 63.9861 67.9937 63.7245 67.7405 63.4584C67.2968 62.9914 67.3283 62.2425 67.5889 61.7095Z" fill="black"/>
<path fill-rule="evenodd" clip-rule="evenodd" d="M58.5218 62.3663C58.026 62.3663 56.8422 60.9366 57.5378 60.6966C58.401 60.399 59.1228 62.4713 58.5218 62.3663Z" fill="black"/>
<path fill-rule="evenodd" clip-rule="evenodd" d="M75.658 60.0999C76.1122 60.2118 76.7133 61.4976 76.0288 61.6468C75.2711 61.8121 75.1359 60.4554 75.658 60.0999Z" fill="black"/>
<path fill-rule="evenodd" clip-rule="evenodd" d="M72.9045 62.512C72.5483 61.8261 72.4606 60.3578 73.3302 61.5364C73.5187 61.7917 73.713 61.6884 73.6163 62.1095C73.5317 62.4771 73.1942 62.512 72.9045 62.512Z" fill="black"/>
<path fill-rule="evenodd" clip-rule="evenodd" d="M54.1438 58.9647C54.5067 59.5111 54.3996 61.2245 53.641 60.2111C53.3184 59.7803 53.5406 58.9852 54.1438 58.9647Z" fill="black"/>
<path fill-rule="evenodd" clip-rule="evenodd" d="M72.3917 7.4719C73.0961 7.29006 73.2649 8.95061 72.8541 9.13365C72.279 9.38981 72.3511 7.74966 72.3917 7.4719Z" fill="black"/>
<path fill-rule="evenodd" clip-rule="evenodd" d="M116.941 91.8338C116.287 91.7957 115.372 91.6173 116.362 91.1535C116.99 90.8595 117.924 90.839 118.588 90.9596C119.045 91.0428 119.731 91.4218 119.033 91.9131C118.625 92.2005 117.438 91.8479 116.941 91.8338Z" fill="black"/>
<path fill-rule="evenodd" clip-rule="evenodd" d="M116.208 93.0187C116.019 92.9975 115.83 92.976 115.642 92.955C115.793 92.6799 116.234 92.6221 116.208 93.0187Z" fill="black"/>
<path fill-rule="evenodd" clip-rule="evenodd" d="M117.061 91.8064C117.251 91.8105 117.44 91.8149 117.628 91.8189C117.438 91.8148 117.249 91.8105 117.061 91.8064Z" fill="black"/>
</svg>
