<svg width="80" height="80" viewBox="0 0 80 80" fill="none" xmlns="http://www.w3.org/2000/svg">
<g filter="url(#filter0_d_619_11631)">
<circle cx="40" cy="36" r="24" fill="white"/>
</g>
<path d="M39.334 37.332H38.0007C38.0007 35.7407 38.6328 34.2146 39.758 33.0894C40.8832 31.9642 42.4094 31.332 44.0007 31.332V32.6654C41.4207 32.6654 39.334 34.752 39.334 37.332ZM44.0007 35.332V33.9987C42.1607 33.9987 40.6673 35.492 40.6673 37.332H42.0007C42.0007 36.2254 42.894 35.332 44.0007 35.332ZM36.6673 30.6654C36.6673 29.9254 36.074 29.332 35.334 29.332C34.594 29.332 34.0007 29.9254 34.0007 30.6654C34.0007 31.4054 34.594 31.9987 35.334 31.9987C36.074 31.9987 36.6673 31.4054 36.6673 30.6654ZM39.634 30.9987H38.3007C38.2233 31.4644 37.9831 31.8875 37.623 32.1927C37.2629 32.4979 36.8061 32.6654 36.334 32.6654H34.334C33.7807 32.6654 33.334 33.112 33.334 33.6654V35.332H37.334V33.8254C37.9517 33.6306 38.4987 33.259 38.9075 32.7566C39.3163 32.2543 39.5688 31.6431 39.634 30.9987ZM44.6673 39.332C45.4073 39.332 46.0007 38.7387 46.0007 37.9987C46.0007 37.2587 45.4073 36.6654 44.6673 36.6654C43.9273 36.6654 43.334 37.2587 43.334 37.9987C43.334 38.7387 43.9273 39.332 44.6673 39.332ZM45.6673 39.9987H43.6673C43.1952 39.9988 42.7385 39.8313 42.3783 39.5261C42.0182 39.2209 41.778 38.7977 41.7007 38.332H40.3673C40.4325 38.9764 40.685 39.5876 41.0938 40.09C41.5026 40.5923 42.0496 40.9639 42.6673 41.1587V42.6654H46.6673V40.9987C46.6673 40.4454 46.2207 39.9987 45.6673 39.9987Z" fill="#223645"/>
<defs>
<filter id="filter0_d_619_11631" x="0" y="0" width="80" height="80" filterUnits="userSpaceOnUse" color-interpolation-filters="sRGB">
<feFlood flood-opacity="0" result="BackgroundImageFix"/>
<feColorMatrix in="SourceAlpha" type="matrix" values="0 0 0 0 0 0 0 0 0 0 0 0 0 0 0 0 0 0 127 0" result="hardAlpha"/>
<feOffset dy="4"/>
<feGaussianBlur stdDeviation="8"/>
<feComposite in2="hardAlpha" operator="out"/>
<feColorMatrix type="matrix" values="0 0 0 0 0.133333 0 0 0 0 0.211765 0 0 0 0 0.270588 0 0 0 0.13 0"/>
<feBlend mode="normal" in2="BackgroundImageFix" result="effect1_dropShadow_619_11631"/>
<feBlend mode="normal" in="SourceGraphic" in2="effect1_dropShadow_619_11631" result="shape"/>
</filter>
</defs>
</svg>
