<svg width="94" height="32" viewBox="0 0 94 32" fill="none" xmlns="http://www.w3.org/2000/svg">
<path d="M76.4687 13.688C77.3419 13.688 78.0499 12.9801 78.0499 12.1068C78.0499 11.2336 77.3419 10.5257 76.4687 10.5257C75.5955 10.5257 74.8876 11.2336 74.8876 12.1068C74.8876 12.9801 75.5955 13.688 76.4687 13.688Z" fill="#697681"/>
<path d="M53.8853 18.849C54.6609 18.849 55.1084 18.2673 55.0786 17.7005C55.0637 17.4021 55.0338 17.2082 55.004 17.059C54.5267 15.0006 52.856 13.4791 50.8721 13.4791C48.5153 13.4791 46.606 15.6121 46.606 18.2374C46.606 20.8628 48.5153 22.9958 50.8721 22.9958C52.3489 22.9958 53.4079 22.4588 54.1687 21.6086C54.5416 21.1909 54.467 20.5495 54.0195 20.2363C53.6466 19.9827 53.1842 20.0722 52.8411 20.3556C52.5129 20.639 51.8864 21.2058 50.8721 21.2058C49.6788 21.2058 48.6645 20.1766 48.4407 18.8192H53.8853V18.849ZM50.8572 15.284C51.9312 15.284 52.856 16.1193 53.1991 17.2679H48.5153C48.8584 16.1044 49.7832 15.284 50.8572 15.284Z" fill="#697681"/>
<path d="M46.6954 14.4188C46.6954 13.9713 46.3673 13.6133 45.9496 13.5387C44.6519 13.3448 43.4287 13.8222 42.7277 14.7022V14.5829C42.7277 14.031 42.2802 13.6879 41.8327 13.6879C41.3404 13.6879 40.9377 14.0907 40.9377 14.5829V21.892C40.9377 22.3693 41.2957 22.787 41.773 22.8168C42.2951 22.8466 42.7277 22.4439 42.7277 21.9218V18.1479C42.7277 16.4773 43.9806 15.105 45.711 15.2989C45.7706 15.2989 45.8303 15.2989 45.89 15.2989C46.3374 15.2691 46.6954 14.8812 46.6954 14.4188Z" fill="#697681"/>
<path d="M77.3637 15.3735C77.3637 14.8812 76.961 14.4785 76.4688 14.4785C75.9765 14.4785 75.5738 14.8812 75.5738 15.3735C75.5738 15.4033 75.5738 21.6384 75.5738 21.9218C75.5738 22.414 75.9765 22.8168 76.4688 22.8168C76.961 22.8168 77.3637 22.414 77.3637 21.9218C77.3637 21.6533 77.3637 15.4182 77.3637 15.3735Z" fill="#697681"/>
<path d="M64.0583 10.4212C64.0583 9.92897 63.6555 9.52623 63.1633 9.52623C62.671 9.52623 62.2683 9.92897 62.2683 10.4212V14.4039C61.6567 13.7923 60.896 13.494 59.9861 13.494C57.6293 13.494 55.7199 15.6271 55.7199 18.2524C55.7199 20.8777 57.6293 23.0107 59.9861 23.0107C60.896 23.0107 61.6716 22.6975 62.2832 22.0859C62.3578 22.5036 62.7307 22.8168 63.1633 22.8168C63.6555 22.8168 64.0583 22.4141 64.0583 21.9218V10.4212ZM60.001 21.2357C58.6287 21.2357 57.5248 19.9081 57.5248 18.2524C57.5248 16.6116 58.6287 15.2691 60.001 15.2691C61.3733 15.2691 62.4771 16.5966 62.4771 18.2524C62.4771 19.9081 61.3584 21.2357 60.001 21.2357Z" fill="#697681"/>
<path d="M73.396 10.4212C73.396 9.92897 72.9933 9.52623 72.501 9.52623C72.0088 9.52623 71.606 9.92897 71.606 10.4212V14.4039C70.9945 13.7923 70.2337 13.494 69.3238 13.494C66.967 13.494 65.0577 15.6271 65.0577 18.2524C65.0577 20.8777 66.967 23.0107 69.3238 23.0107C70.2337 23.0107 71.0094 22.6975 71.621 22.0859C71.6955 22.5036 72.0685 22.8168 72.501 22.8168C72.9933 22.8168 73.396 22.4141 73.396 21.9218V10.4212ZM69.3238 21.2357C67.9515 21.2357 66.8477 19.9081 66.8477 18.2524C66.8477 16.6116 67.9515 15.2691 69.3238 15.2691C70.6961 15.2691 71.8 16.5966 71.8 18.2524C71.8 19.9081 70.6961 21.2357 69.3238 21.2357Z" fill="#697681"/>
<path d="M81.8983 21.9368V15.284H82.6888C83.1065 15.284 83.4794 14.9708 83.5092 14.5382C83.5391 14.0758 83.1662 13.6879 82.7187 13.6879H81.8983V12.435C81.8983 11.9576 81.5403 11.54 81.0629 11.5101C80.5409 11.4803 80.1083 11.883 80.1083 12.4051V13.7029H79.3625C78.9448 13.7029 78.5719 14.0161 78.542 14.4487C78.5122 14.9111 78.8851 15.2989 79.3326 15.2989H80.0934V21.9517C80.0934 22.4439 80.4961 22.8467 80.9883 22.8467C81.5104 22.8168 81.8983 22.429 81.8983 21.9368Z" fill="#697681"/>
<path d="M23.4258 28.5C30.3293 28.5 35.9258 22.9035 35.9258 16C35.9258 9.09643 30.3293 3.5 23.4258 3.5C16.5222 3.5 10.9258 9.09643 10.9258 16C10.9258 22.9035 16.5222 28.5 23.4258 28.5Z" fill="#697681"/>
<path d="M31.7641 16C31.7641 14.9857 30.9437 14.1802 29.9443 14.1802C29.4521 14.1802 29.0046 14.3741 28.6764 14.6873C27.4234 13.7923 25.7081 13.2106 23.7988 13.136L24.6341 9.2279L27.3489 9.80964C27.3787 10.4958 27.9455 11.0477 28.6466 11.0477C29.3626 11.0477 29.9443 10.466 29.9443 9.74997C29.9443 9.03398 29.3626 8.45224 28.6466 8.45224C28.1394 8.45224 27.6919 8.75057 27.4831 9.18315L24.4551 8.54174C24.3656 8.52682 24.2761 8.54174 24.2164 8.58649C24.1418 8.63124 24.0971 8.70582 24.0822 8.79532L23.1573 13.1509C21.2182 13.2106 19.473 13.7923 18.2051 14.7022C17.8769 14.389 17.4294 14.1951 16.9372 14.1951C15.9229 14.1951 15.1174 15.0155 15.1174 16.0149C15.1174 16.7607 15.5649 17.3872 16.1914 17.6706C16.1615 17.8496 16.1466 18.0286 16.1466 18.2225C16.1466 21.0268 19.4133 23.309 23.4408 23.309C27.4682 23.309 30.7349 21.0417 30.7349 18.2225C30.7349 18.0435 30.72 17.8496 30.6901 17.6706C31.3166 17.3872 31.7641 16.7458 31.7641 16ZM19.2641 17.2977C19.2641 16.5817 19.8459 16 20.5619 16C21.2779 16 21.8596 16.5817 21.8596 17.2977C21.8596 18.0137 21.2779 18.5954 20.5619 18.5954C19.8459 18.6104 19.2641 18.0137 19.2641 17.2977ZM26.5285 20.7434C25.6335 21.6384 23.933 21.6981 23.4408 21.6981C22.9336 21.6981 21.2331 21.6235 20.3531 20.7434C20.2188 20.6092 20.2188 20.4003 20.3531 20.2661C20.4873 20.1318 20.6961 20.1318 20.8304 20.2661C21.3972 20.8329 22.5905 21.0268 23.4408 21.0268C24.291 21.0268 25.4992 20.8329 26.0511 20.2661C26.1854 20.1318 26.3942 20.1318 26.5285 20.2661C26.6478 20.4003 26.6478 20.6092 26.5285 20.7434ZM26.2898 18.6104C25.5738 18.6104 24.9921 18.0286 24.9921 17.3126C24.9921 16.5966 25.5738 16.0149 26.2898 16.0149C27.0058 16.0149 27.5875 16.5966 27.5875 17.3126C27.5875 18.0137 27.0058 18.6104 26.2898 18.6104Z" fill="white"/>
</svg>
