<svg width="44" height="44" viewBox="0 0 44 44" fill="none" xmlns="http://www.w3.org/2000/svg">
<mask id="mask0_415_5593" style="mask-type:alpha" maskUnits="userSpaceOnUse" x="0" y="0" width="44" height="44">
<rect width="44" height="44" fill="#D9D9D9"/>
</mask>
<g mask="url(#mask0_415_5593)">
<path d="M14.666 20.168C15.1855 20.168 15.6209 19.9923 15.9723 19.6409C16.3237 19.2895 16.4993 18.8541 16.4993 18.3346C16.4993 17.8152 16.3237 17.3798 15.9723 17.0284C15.6209 16.677 15.1855 16.5013 14.666 16.5013C14.1466 16.5013 13.7112 16.677 13.3598 17.0284C13.0084 17.3798 12.8327 17.8152 12.8327 18.3346C12.8327 18.8541 13.0084 19.2895 13.3598 19.6409C13.7112 19.9923 14.1466 20.168 14.666 20.168ZM21.9993 20.168C22.5188 20.168 22.9542 19.9923 23.3056 19.6409C23.657 19.2895 23.8327 18.8541 23.8327 18.3346C23.8327 17.8152 23.657 17.3798 23.3056 17.0284C22.9542 16.677 22.5188 16.5013 21.9993 16.5013C21.4799 16.5013 21.0445 16.677 20.6931 17.0284C20.3417 17.3798 20.166 17.8152 20.166 18.3346C20.166 18.8541 20.3417 19.2895 20.6931 19.6409C21.0445 19.9923 21.4799 20.168 21.9993 20.168ZM29.3327 20.168C29.8521 20.168 30.2875 19.9923 30.6389 19.6409C30.9903 19.2895 31.166 18.8541 31.166 18.3346C31.166 17.8152 30.9903 17.3798 30.6389 17.0284C30.2875 16.677 29.8521 16.5013 29.3327 16.5013C28.8132 16.5013 28.3778 16.677 28.0264 17.0284C27.675 17.3798 27.4993 17.8152 27.4993 18.3346C27.4993 18.8541 27.675 19.2895 28.0264 19.6409C28.3778 19.9923 28.8132 20.168 29.3327 20.168ZM3.66602 40.3346V7.33464C3.66602 6.3263 4.02504 5.46311 4.7431 4.74505C5.46115 4.027 6.32435 3.66797 7.33268 3.66797H36.666C37.6744 3.66797 38.5375 4.027 39.2556 4.74505C39.9737 5.46311 40.3327 6.3263 40.3327 7.33464V29.3346C40.3327 30.343 39.9737 31.2062 39.2556 31.9242C38.5375 32.6423 37.6744 33.0013 36.666 33.0013H10.9993L3.66602 40.3346ZM9.44102 29.3346H36.666V7.33464H7.33268V31.3971L9.44102 29.3346Z" fill="#1C1B1F"/>
</g>
</svg>
