<svg width="64" height="64" viewBox="0 0 64 64" fill="none" xmlns="http://www.w3.org/2000/svg">
<path fill-rule="evenodd" clip-rule="evenodd" d="M60 32C60 47.464 47.464 60 32 60C16.536 60 4 47.464 4 32C4 16.536 16.536 4 32 4C47.464 4 60 16.536 60 32Z" fill="#EB4823"/>
<path fill-rule="evenodd" clip-rule="evenodd" d="M32 18C27.5557 18 23.9529 21.6364 23.9529 26.1221V37.6641C23.9529 38.7266 23.0997 39.5878 22.0471 39.5878C20.9945 39.5878 20.1412 38.7266 20.1412 37.6641V32.5344H14V37.8779C14 42.3636 17.6028 46 22.0471 46C26.4914 46 30.0941 42.3636 30.0941 37.8779V26.1221C30.0941 25.0596 30.9473 24.1985 32 24.1985C33.0527 24.1985 33.9059 25.0596 33.9059 26.1221V28.4733L36.7496 30.0302L40.0471 28.4733V26.1221C40.0471 21.6364 36.4443 18 32 18ZM33.9059 32.6412V37.8779C33.9059 42.3636 37.5086 46 41.9529 46C46.3972 46 50 42.3636 50 37.8779V32.7481H43.8588V37.8779C43.8588 38.9404 43.0056 39.8015 41.9529 39.8015C40.9003 39.8015 40.0471 38.9404 40.0471 37.8779V32.6412L36.4471 33.8168L33.9059 32.6412Z" fill="white"/>
</svg>
