<svg width="113" height="32" viewBox="0 0 113 32" fill="none" xmlns="http://www.w3.org/2000/svg">
<path d="M89.3279 14.7603V22H91.6419V17.1736H100.105V22H102.419V14.7603H89.3279ZM91.3775 12.4132H100.303C101.559 12.1818 102.452 11.0579 102.716 10H88.9642C89.2287 11.0579 90.1543 12.1488 91.3775 12.4132ZM82.2866 22C83.4436 21.5041 84.0717 20.6446 84.3361 19.6529H73.9229V10.0331H71.5758V22H82.2866ZM54.2205 12.3802H62.4849C63.7411 12.0165 64.7659 11.0579 65.0304 10.0331H51.9395V17.1074H62.6502V19.5868H54.2535C52.9312 19.9504 51.8072 20.843 51.2453 22H64.9643V14.7603H54.2535L54.2205 12.3802ZM33.8568 12.4132H42.7825C44.0387 12.1818 44.9643 11.0579 45.1957 10H31.4106C31.675 11.0579 32.6007 12.1488 33.8568 12.4132ZM33.8568 17.1405H42.7825C44.0387 16.9091 44.9643 15.7851 45.1957 14.7273H31.4106C31.675 15.7851 32.6007 16.876 33.8568 17.1405ZM33.8568 22H42.7825C44.0387 21.7686 44.9643 20.6446 45.1957 19.5868H31.4106C31.675 20.6446 32.6007 21.7686 33.8568 22Z" fill="#5E5E5E"/>
<path d="M10.6172 10.0331C10.8817 11.0909 11.8073 12.1488 13.0304 12.4132H16.799L16.9973 12.4793V21.9669H19.3445V12.4793L19.5428 12.4132H23.3114C24.5676 12.0826 25.4602 11.0909 25.7246 10.0331V10L10.6172 10.0331Z" fill="#5E5E5E"/>
</svg>
