<svg width="56" height="56" viewBox="0 0 56 56" fill="none" xmlns="http://www.w3.org/2000/svg">
<circle cx="28" cy="28" r="28" fill="#FFB200"/>
<mask id="mask0_640_4907" style="mask-type:alpha" maskUnits="userSpaceOnUse" x="16" y="16" width="24" height="24">
<rect x="16" y="16" width="24" height="24" fill="#D9D9D9"/>
</mask>
<g mask="url(#mask0_640_4907)">
<path d="M21 38V18H23V20H37L35 25L37 30H23V38H21ZM28.5 27C29.05 27 29.5208 26.8042 29.9125 26.4125C30.3042 26.0208 30.5 25.55 30.5 25C30.5 24.45 30.3042 23.9792 29.9125 23.5875C29.5208 23.1958 29.05 23 28.5 23C27.95 23 27.4792 23.1958 27.0875 23.5875C26.6958 23.9792 26.5 24.45 26.5 25C26.5 25.55 26.6958 26.0208 27.0875 26.4125C27.4792 26.8042 27.95 27 28.5 27ZM23 28H34.05L32.85 25L34.05 22H23V28Z" fill="#1C1B1F"/>
</g>
</svg>
