<svg width="58" height="55" viewBox="0 0 58 55" fill="none" xmlns="http://www.w3.org/2000/svg">
<g opacity="0.68" clip-path="url(#clip0_203_745)">
<circle cx="29.3917" cy="29.2472" r="25.0324" fill="#676769"/>
<path d="M43.5547 18.1342C42.1292 17.3255 40.5209 16.1911 39.0337 17.641C37.1858 20.1291 33.7933 23.4792 35.5244 26.7343C36.2233 27.9835 37.3783 28.9156 38.3066 30.0017C38.8512 30.5327 39.1387 31.2243 39.0337 31.9745C38.9073 32.9917 38.0537 33.7931 37.0104 33.9164C35.6193 34.0705 34.4179 32.9917 34.4179 31.6662C34.2914 30.9572 34.4811 29.3544 33.2165 29.1694C32.3945 29.0461 31.3512 30.3099 30.8137 31.9745C30.3836 33.349 30.6241 34.5185 30.6241 35.8892C30.6241 37.3577 29.5028 38.678 27.8419 38.5093C26.7354 38.386 25.7869 37.5229 25.6288 36.444C25.4901 35.5873 25.8793 34.7165 26.4192 34.0397C26.9567 33.2691 27.7787 32.0978 28.1897 31.0189C28.6323 29.8784 29.2822 28.9691 28.4426 28.368C27.603 27.7669 24.0403 32.7959 22.0879 32.4677C21.2027 32.3135 20.5071 31.6046 20.3491 30.7723C20.0961 29.5085 20.9497 28.3988 22.1195 28.183C23.4926 27.9468 27.5617 26.4955 27.1147 24.9156C26.7085 23.5689 23.2172 26.0638 22.0879 25.9637C21.013 25.9328 20.1594 25.0389 20.1277 23.9909C20.1277 22.8185 21.1152 21.9873 22.3092 21.9873C23.7084 21.9873 25.0917 22.547 26.5141 22.2339C30.1599 21.4664 31.525 18.3835 33.343 15.6374C34.1966 14.3428 33.7856 12.5858 32.3945 11.8151C30.6876 10.9137 28.9226 10.3782 27.0831 11.4144L15.1958 18.1342C14.026 18.7815 13.2988 20.0145 13.2988 21.34V34.2247C13.2988 35.5501 14.026 36.7831 15.1958 37.4304L27.1147 44.1194C28.5058 44.9208 30.2447 44.9208 31.6674 44.1194L43.5864 37.4304C44.7561 36.7831 45.4833 35.5501 45.4833 34.2247V21.34C45.4517 20.0145 44.7245 18.7815 43.5547 18.1342Z" fill="white"/>
</g>
<defs>
<clipPath id="clip0_203_745">
<rect width="57.2168" height="54.2514" fill="white" transform="translate(0.783203 0.640625)"/>
</clipPath>
</defs>
</svg>
