<svg width="58" height="55" viewBox="0 0 58 55" fill="none" xmlns="http://www.w3.org/2000/svg">
<g clip-path="url(#clip0_186_4099)">
<circle cx="29.392" cy="29.2494" r="25.0324" fill="#5FCF80"/>
<path d="M43.5554 18.1339C42.1298 17.3253 40.5215 16.1908 39.0344 17.6407C37.1864 20.1289 33.7939 23.4789 35.525 26.734C36.2239 27.9832 37.3789 28.9153 38.3072 30.0014C38.8519 30.5324 39.1393 31.224 39.0344 31.9742C38.9079 32.9914 38.0543 33.7928 37.011 33.9161C35.6199 34.0703 34.4185 32.9914 34.4185 31.6659C34.292 30.957 34.4817 29.3541 33.2171 29.1691C32.3951 29.0458 31.3518 30.3097 30.8144 31.9742C30.3843 33.3487 30.6247 34.5182 30.6247 35.8889C30.6247 37.3575 29.5034 38.6777 27.8425 38.509C26.736 38.3857 25.7875 37.5226 25.6294 36.4438C25.4907 35.587 25.8799 34.7162 26.4198 34.0394C26.9573 33.2688 27.7793 32.0975 28.1903 31.0186C28.6329 29.8781 29.2828 28.9688 28.4432 28.3677C27.6036 27.7666 24.041 32.7956 22.0885 32.4674C21.2033 32.3133 20.5077 31.6043 20.3497 30.772C20.0967 29.5082 20.9504 28.3985 22.1201 28.1828C23.4932 27.9465 27.5624 26.4952 27.1154 24.9153C26.7091 23.5686 23.2178 26.0635 22.0885 25.9634C21.0136 25.9326 20.16 25.0386 20.1284 23.9906C20.1284 22.8182 21.1158 21.987 22.3098 21.987C23.709 21.987 25.0923 22.5467 26.5147 22.2336C30.1605 21.4661 31.5256 18.3832 33.3436 15.6371C34.1972 14.3425 33.7862 12.5855 32.3951 11.8149C30.6882 10.9134 28.9232 10.3779 27.0837 11.4141L15.1964 18.1339C14.0266 18.7812 13.2994 20.0142 13.2994 21.3397V34.2244C13.2994 35.5498 14.0266 36.7828 15.1964 37.4302L27.1154 44.1191C28.5064 44.9205 30.2453 44.9205 31.668 44.1191L43.587 37.4302C44.7567 36.7828 45.4839 35.5498 45.4839 34.2244V21.3397C45.4523 20.0142 44.7251 18.7812 43.5554 18.1339Z" fill="white"/>
</g>
<defs>
<clipPath id="clip0_186_4099">
<rect width="57.2168" height="54.2514" fill="white" transform="translate(0.783264 0.640961)"/>
</clipPath>
</defs>
</svg>
