<svg width="24" height="25" viewBox="0 0 24 25" fill="none" xmlns="http://www.w3.org/2000/svg">
<path d="M8.84156 21.293C6.41531 21.293 4.15363 20.5873 2.25 19.3697C3.86624 19.4743 6.71855 19.2238 8.49268 17.5316C5.82381 17.4091 4.6202 15.3622 4.4632 14.4874C4.68997 14.5749 5.77148 14.6799 6.382 14.435C3.31192 13.6652 2.84095 10.971 2.94561 10.1487C3.52125 10.5511 4.49809 10.691 4.88185 10.6561C2.02109 8.60915 3.05027 5.53004 3.55613 4.86523C5.60912 7.70947 8.6859 9.3069 12.4923 9.39575C12.4205 9.08099 12.3826 8.75328 12.3826 8.4167C12.3826 6.00116 14.3351 4.04297 16.7435 4.04297C18.0019 4.04297 19.1358 4.57753 19.9318 5.4326C20.7727 5.23555 22.0382 4.77427 22.6569 4.37537C22.3451 5.49505 21.3742 6.42909 20.7869 6.77528C20.7821 6.76345 20.7918 6.78705 20.7869 6.77528C21.3028 6.69725 22.6986 6.42899 23.25 6.05489C22.9773 6.68391 21.948 7.72977 21.1033 8.31529C21.2605 15.2465 15.9574 21.293 8.84156 21.293Z" fill="#A6B1BE"/>
</svg>
