<svg width="24" height="25" viewBox="0 0 24 25" fill="none" xmlns="http://www.w3.org/2000/svg">
<path d="M8.84156 21.8555C6.41531 21.8555 4.15363 21.1498 2.25 19.9322C3.86624 20.0368 6.71855 19.7863 8.49268 18.0941C5.82381 17.9716 4.6202 15.9247 4.4632 15.0499C4.68997 15.1374 5.77148 15.2424 6.382 14.9975C3.31192 14.2277 2.84095 11.5335 2.94561 10.7112C3.52125 11.1136 4.49809 11.2535 4.88185 11.2186C2.02109 9.17165 3.05027 6.09254 3.55613 5.42773C5.60912 8.27197 8.6859 9.8694 12.4923 9.95825C12.4205 9.64349 12.3826 9.31578 12.3826 8.9792C12.3826 6.56366 14.3351 4.60547 16.7435 4.60547C18.0019 4.60547 19.1358 5.14003 19.9318 5.9951C20.7727 5.79805 22.0382 5.33677 22.6569 4.93787C22.3451 6.05755 21.3742 6.99159 20.7869 7.33778C20.7821 7.32595 20.7918 7.34955 20.7869 7.33778C21.3028 7.25975 22.6986 6.99149 23.25 6.61739C22.9773 7.24641 21.948 8.29227 21.1033 8.87779C21.2605 15.809 15.9574 21.8555 8.84156 21.8555Z" fill="white"/>
</svg>
