<svg width="78" height="32" viewBox="0 0 78 32" fill="none" xmlns="http://www.w3.org/2000/svg">
<path d="M13.3146 20.2837C13.5581 20.9298 13.8951 21.4823 14.3259 21.941C14.7566 22.3999 15.2669 22.751 15.8567 22.9944C16.4466 23.2379 17.088 23.3596 17.7809 23.3596C18.4551 23.3596 19.0871 23.2332 19.677 22.9803C20.2669 22.7275 20.7819 22.3717 21.2219 21.9129C21.662 21.4541 22.0038 20.9064 22.2472 20.2697C22.4907 19.633 22.6124 18.9214 22.6124 18.1349V6H25.5618V25.6629H22.6405V23.8371C21.9851 24.5299 21.2125 25.0636 20.323 25.4382C19.4335 25.8127 18.4738 26 17.4438 26C16.3951 26 15.4167 25.8174 14.5084 25.4522C13.6002 25.0871 12.8136 24.5675 12.1489 23.8933C11.4841 23.2191 10.9597 22.4093 10.5759 21.4635C10.1919 20.5178 10 19.4645 10 18.3034V6H12.9494V18.1349C12.9494 18.9214 13.0711 19.6376 13.3146 20.2837Z" fill="#697681"/>
<path d="M30.6459 6V13.1629C31.3013 12.5075 32.0597 11.9879 32.9212 11.6039C33.7826 11.22 34.7189 11.0281 35.7301 11.0281C36.7789 11.0281 37.7619 11.2247 38.6796 11.6179C39.5971 12.0112 40.393 12.5449 41.0672 13.2191C41.7414 13.8933 42.2751 14.6891 42.6683 15.6067C43.0616 16.5244 43.2582 17.4981 43.2582 18.5281C43.2582 19.558 43.0616 20.5271 42.6683 21.4353C42.2751 22.3436 41.7414 23.1348 41.0672 23.8089C40.393 24.4831 39.5971 25.0168 38.6796 25.4101C37.7619 25.8033 36.7788 25.9999 35.7301 25.9999C34.7189 25.9999 33.7779 25.808 32.9071 25.4241C32.0363 25.0402 31.2732 24.5205 30.6178 23.8651V25.6629H27.8088V6H30.6459ZM30.9689 20.4663C31.2217 21.0656 31.5728 21.5899 32.0223 22.0394C32.4717 22.4888 32.996 22.8446 33.5953 23.1068C34.1946 23.369 34.8406 23.5001 35.5335 23.5001C36.2077 23.5001 36.8444 23.369 37.4436 23.1068C38.0428 22.8446 38.5625 22.4889 39.0026 22.0394C39.4427 21.59 39.7938 21.0656 40.056 20.4663C40.3181 19.8671 40.4492 19.221 40.4492 18.5281C40.4492 17.8352 40.3181 17.1845 40.056 16.5758C39.7938 15.9672 39.4427 15.4382 39.0026 14.9888C38.5625 14.5394 38.0429 14.1882 37.4436 13.9354C36.8443 13.6826 36.2077 13.5562 35.5335 13.5562C34.8594 13.5562 34.2227 13.6826 33.6234 13.9354C33.0242 14.1883 32.4999 14.5394 32.0504 14.9888C31.601 15.4382 31.2451 15.9672 30.983 16.5758C30.7208 17.1845 30.5897 17.8352 30.5897 18.5281C30.5897 19.221 30.7161 19.8671 30.9689 20.4663Z" fill="#697681"/>
<path d="M44.859 15.6348C45.2334 14.7359 45.7485 13.9448 46.4039 13.2613C47.0592 12.5777 47.8365 12.0394 48.7354 11.6461C49.6342 11.2528 50.608 11.0562 51.6567 11.0562C52.6867 11.0562 53.6417 11.2435 54.5219 11.618C55.402 11.9925 56.1604 12.5122 56.7972 13.177C57.4339 13.8418 57.9302 14.6284 58.2859 15.5366C58.6417 16.4448 58.8196 17.4327 58.8196 18.5001V19.4271H47.1623C47.256 20.0076 47.4433 20.546 47.7242 21.0422C48.0051 21.5384 48.3562 21.9691 48.7775 22.3343C49.1989 22.6995 49.6764 22.9851 50.2101 23.191C50.7438 23.397 51.3103 23.5001 51.9096 23.5001C53.6137 23.5001 54.9901 22.7978 56.0388 21.3933L58.0894 22.9101C57.3777 23.8652 56.4976 24.6143 55.449 25.1573C54.4002 25.7004 53.2205 25.9719 51.9096 25.9719C50.8422 25.9719 49.845 25.7846 48.918 25.4101C47.9911 25.0356 47.1858 24.5112 46.5023 23.837C45.8188 23.1628 45.2804 22.3717 44.8872 21.4635C44.4939 20.5552 44.2973 19.5674 44.2973 18.5C44.2971 17.4888 44.4845 16.5337 44.859 15.6348ZM48.8056 14.5252C48.0097 15.19 47.4807 16.0749 47.2185 17.1797H55.9545C55.7111 16.0749 55.1914 15.19 54.3955 14.5252C53.5996 13.8605 52.668 13.5281 51.6006 13.5281C50.5331 13.5281 49.6015 13.8605 48.8056 14.5252Z" fill="#697681"/>
<path d="M64.1286 14.8483C63.5293 15.5037 63.2297 16.3932 63.2297 17.5169V25.663H60.3925V11.3371H63.2015V13.1068C63.5573 12.5263 64.0208 12.0674 64.592 11.7304C65.1631 11.3932 65.842 11.2247 66.6285 11.2247H67.6117V13.8651H66.4319C65.4956 13.8652 64.7278 14.1929 64.1286 14.8483Z" fill="#697681"/>
</svg>
