<svg width="84" height="84" viewBox="0 0 84 84" fill="none" xmlns="http://www.w3.org/2000/svg">
<rect width="84" height="84" rx="42" fill="#FF6AC2"/>
<mask id="mask0_409_4739" style="mask-type:alpha" maskUnits="userSpaceOnUse" x="30" y="30" width="24" height="24">
<rect x="30" y="30" width="24" height="24" fill="#D9D9D9"/>
</mask>
<g mask="url(#mask0_409_4739)">
<path d="M38.8 40.95L40.95 38.775L39.55 37.35L38.45 38.45L37.05 37.05L38.125 35.95L37 34.825L34.825 37L38.8 40.95ZM47 49.175L49.175 47L48.05 45.875L46.95 46.95L45.55 45.55L46.625 44.45L45.2 43.05L43.05 45.2L47 49.175ZM37.25 51H33V46.75L37.375 42.375L32 37L37 32L42.4 37.4L46.175 33.6C46.375 33.4 46.6 33.25 46.85 33.15C47.1 33.05 47.3583 33 47.625 33C47.8917 33 48.15 33.05 48.4 33.15C48.65 33.25 48.875 33.4 49.075 33.6L50.4 34.95C50.6 35.15 50.75 35.375 50.85 35.625C50.95 35.875 51 36.1333 51 36.4C51 36.6667 50.95 36.9208 50.85 37.1625C50.75 37.4042 50.6 37.625 50.4 37.825L46.625 41.625L52 47L47 52L41.625 46.625L37.25 51ZM35 49H36.4L46.2 39.225L44.775 37.8L35 47.6V49Z" fill="white"/>
</g>
</svg>
