<svg width="24" height="25" viewBox="0 0 24 25" fill="none" xmlns="http://www.w3.org/2000/svg">
<path d="M8.84156 21.8545C6.41531 21.8545 4.15363 21.1488 2.25 19.9312C3.86624 20.0358 6.71855 19.7853 8.49268 18.0931C5.82381 17.9706 4.6202 15.9237 4.4632 15.049C4.68997 15.1364 5.77148 15.2414 6.382 14.9965C3.31192 14.2267 2.84095 11.5325 2.94561 10.7102C3.52125 11.1126 4.49809 11.2526 4.88185 11.2176C2.02109 9.17067 3.05027 6.09156 3.55613 5.42675C5.60912 8.27099 8.6859 9.86842 12.4923 9.95727C12.4205 9.64251 12.3826 9.31481 12.3826 8.97822C12.3826 6.56268 14.3351 4.60449 16.7435 4.60449C18.0019 4.60449 19.1358 5.13906 19.9318 5.99412C20.7727 5.79707 22.0382 5.33579 22.6569 4.9369C22.3451 6.05657 21.3742 6.99061 20.7869 7.3368C20.7821 7.32497 20.7918 7.34858 20.7869 7.3368C21.3028 7.25877 22.6986 6.99052 23.25 6.61641C22.9773 7.24543 21.948 8.29129 21.1033 8.87681C21.2605 15.808 15.9574 21.8545 8.84156 21.8545Z" fill="#6A26DA"/>
</svg>
