<svg width="48" height="17" viewBox="0 0 48 17" fill="none" xmlns="http://www.w3.org/2000/svg">
<path fill-rule="evenodd" clip-rule="evenodd" d="M31.4631 6.82562C32.0778 2.75981 35.1132 0.171875 39.4828 0.171875C44.2023 0.171875 47.3806 3.50941 47.3806 8.42131C47.3806 13.3325 44.1777 16.5993 39.4351 16.5993C34.5973 16.5993 31.3482 13.3565 31.3482 8.39799C31.3482 7.93945 31.3758 7.49537 31.4297 7.06701C31.2489 8.19435 30.7395 9.17809 29.9371 9.97283C28.9178 10.9612 27.6135 11.4073 25.525 11.4073H22.7041V16.2244H17.6987V16.2237V0.573277H24.3398C26.9255 0.573277 28.1115 0.808717 29.203 1.5361C30.6727 2.49967 31.5036 4.1455 31.5036 6.11928C31.5036 6.36012 31.49 6.59569 31.4631 6.82562ZM17.6987 16.2237L12.0222 7.92834L17.6987 0.572525H11.9484C11.9484 0.572525 9.60174 4.35612 9.34117 4.94434C8.98606 4.14475 6.41493 0.572525 6.41493 0.572525H0.75L6.49564 7.92909L0.755381 16.2237H6.55098L7.87075 13.7572C8.33844 13.008 8.75841 12.2312 9.12825 11.4314C9.48414 12.2979 9.74548 12.7928 10.2904 13.6865L11.8324 16.2237H17.6987ZM36.399 8.32728C36.399 11.1232 37.4205 12.7457 39.4351 12.7457C41.4036 12.7457 42.3529 11.1706 42.3537 8.20994C42.3537 5.57797 41.3329 4.02542 39.4121 4.02542C37.4674 4.02542 36.399 5.672 36.399 8.32728ZM22.7033 7.71697H24.6403C26.04 7.74104 26.6327 7.22202 26.6327 6.09672C26.6327 4.96766 25.9693 4.42682 24.5458 4.42682H22.7033V7.71697Z" fill="#2E2E52" fill-opacity="0.5"/>
</svg>
