<svg width="50" height="42" viewBox="0 0 50 42" fill="none" xmlns="http://www.w3.org/2000/svg">
<path fill-rule="evenodd" clip-rule="evenodd" d="M2.00831 41.3744L21.5196 31.0505C22.6789 31.1621 23.7939 31.2293 24.9533 31.2293C38.555 31.2293 49.6146 24.2719 49.6146 15.7554C49.6146 7.2364 38.555 0.347656 24.9533 0.347656C11.3733 0.347656 0.380859 7.2364 0.380859 15.7554C0.380859 21.5523 5.44322 26.6134 12.9347 29.2226L2.00831 41.3744ZM16.3659 8.73268H11.5723L11.75 10.0926H12.2181C12.6515 10.0926 12.8736 10.13 12.9856 10.1489L12.9857 10.1489C13.0234 10.1553 13.0487 10.1595 13.0654 10.1595C13.177 10.2268 13.177 10.2941 13.177 10.3602C13.177 10.4271 13.177 10.6947 12.9322 11.2072C12.7317 11.4752 12.4641 11.9216 12.152 12.5011C12.152 12.5011 11.4379 13.616 10.9026 14.3961C10.3902 13.2811 9.27523 10.8739 9.27523 10.8739C9.22315 10.8218 9.21142 10.7696 9.18814 10.6663C9.18136 10.6362 9.17361 10.6017 9.1636 10.5617C9.09638 10.3602 9.03038 10.2941 9.03038 10.2941V10.2268H9.09638C9.09638 10.174 9.2067 10.1626 9.54591 10.1278C9.63861 10.1182 9.7484 10.1069 9.8777 10.0926H10.4574L10.2558 8.73268H4.34729L4.59213 10.0265L4.99419 10.0926C5.4051 10.14 5.62544 10.2215 5.74285 10.2649C5.79108 10.2827 5.82194 10.2941 5.84152 10.2941C5.84152 10.2941 5.97474 10.4271 6.28678 11.1415C6.28678 11.1415 8.69552 16.2024 8.82874 16.47C8.76274 16.7376 8.31628 20.6396 8.31628 20.6396C8.24906 21.086 8.11584 21.4197 7.91542 21.4869C7.8482 21.5541 7.60338 21.6657 6.93368 21.6657L6.35397 21.7329L6.55442 23.0483H13.5118L13.2442 21.7329L12.865 21.6657C12.0176 21.6657 11.6828 21.6213 11.5723 21.5541C11.5052 21.5541 11.4379 21.4197 11.3707 21.2193V20.84C11.3707 20.7068 11.3707 20.4391 11.4379 20.1715C11.4379 20.1715 11.75 17.1171 11.8172 16.5373C11.9504 16.337 15.2737 11.0742 15.2737 11.0742C15.5857 10.5617 15.7862 10.3602 15.8534 10.2941C15.9194 10.2268 16.121 10.1595 16.4991 10.0926L17.0344 10.0265L16.7667 8.73268H16.3659ZM16.4991 13.3456L17.9933 13.0338C18.0153 13.0338 18.0391 13.032 18.0646 13.03C18.1951 13.0201 18.3719 13.0067 18.5958 13.2126C18.7074 13.3456 18.7746 13.4802 18.7746 13.6805V13.8139L18.1937 20.6368V20.9488V21.0832V21.1504C18.261 21.1504 18.5958 21.0832 19.1083 20.3031C19.4875 19.6562 19.8884 18.9421 20.2017 18.2292C20.5353 17.5822 20.7357 16.8682 20.9374 16.0881C21.0125 15.7279 21.0974 15.2567 21.206 14.6541L21.206 14.6541L21.206 14.6538C21.2588 14.3611 21.3171 14.0375 21.3826 13.6805L21.517 13.2126H23.9918L23.9246 13.8139L23.2777 20.8372V21.016L23.3233 20.9488C23.3233 20.9488 23.3893 20.8372 23.5909 20.5695L24.3038 19.4558L25.4188 20.1687L25.2184 20.5695C25.0179 21.0832 24.7719 21.5513 24.4371 21.9305C23.8574 22.8439 23.1445 23.2903 22.4304 23.2903C22.0295 23.2903 21.6503 23.1787 21.3154 22.9111C21.049 22.7107 20.8029 22.3314 20.7357 21.8634C20.7357 21.7631 20.7192 21.6515 20.7027 21.5399C20.6862 21.4283 20.6697 21.3166 20.6697 21.2164V21.1504C20.6697 20.9488 20.6697 20.7712 20.7357 20.5695C20.646 20.7097 20.5563 20.854 20.4727 20.9886L20.4726 20.9887C20.3693 21.1548 20.2752 21.3062 20.2017 21.4169C19.4203 22.6434 18.5286 23.2903 17.4808 23.2903C17.2132 23.2903 16.9012 23.2232 16.6335 23.1115C16.2987 22.9111 15.8534 22.5102 15.6518 21.7301V21.2837V20.8828L16.0538 15.3753V15.1734V15.1077C16.0538 15.0404 15.9866 14.9731 15.9866 14.9731C15.9194 14.907 15.719 14.907 15.2738 14.907H15.2737H14.8057L14.6268 13.7466L16.4991 13.3456ZM28.7421 13.0354C28.3985 13.1129 28.0769 13.1877 27.7774 13.2574C26.8719 13.4679 26.1681 13.6316 25.6649 13.6822L25.1524 13.8155L25.3529 15.042H25.7994H25.7994C26.4006 15.042 26.5795 15.042 26.6467 15.1093C26.6467 15.1093 26.7128 15.1093 26.7128 15.1751V15.2423V15.4212L25.9327 23.0471H28.4745L28.5418 22.5791C28.7421 21.4857 28.8537 20.6384 28.921 20.0587C29.1216 19.1442 29.3219 18.3641 29.568 17.8287C29.8356 17.249 30.2363 16.6022 30.6818 15.9564C31.2625 15.1751 31.5301 15.1093 31.6634 15.1093V15.2423V15.3096V15.4212C31.6634 15.4885 31.0164 23.0471 31.0164 23.0471H33.537L33.6028 22.5791C33.7373 20.9504 33.8707 19.9915 33.9377 19.5234C34.005 19.0782 34.2053 18.4985 34.4502 17.8287C34.7178 17.1832 35.0972 16.5362 35.5651 15.9564C35.8773 15.4212 36.2792 15.1751 36.5468 15.1093V15.1751V15.4212L36.0789 21.0177V21.4185V21.7978C36.2122 22.4003 36.4798 22.7795 36.7917 23.0471C37.0593 23.1804 37.3714 23.292 37.639 23.292C38.2861 23.292 38.8213 23.0472 39.3338 22.5119C39.7802 22.0654 40.2482 21.4857 40.6276 20.7728L40.6937 20.6384L40.8952 20.2375L39.7345 19.4574L38.9544 20.6384L38.8874 20.7728C38.8545 20.8057 38.8214 20.8498 38.7881 20.8941L38.788 20.8942C38.7569 20.9356 38.7256 20.9772 38.6943 21.01C38.7783 20.155 39.1332 16.0225 39.1332 16.0225V15.9564V15.2423V14.7744C38.9989 14.1946 38.754 13.7482 38.3531 13.4146C37.9739 13.1469 37.5718 13.0354 37.1266 13.0354C36.2122 13.0354 35.3648 13.6149 34.4502 14.8414C34.395 14.9527 34.3392 15.018 34.2572 15.114C34.241 15.1329 34.2237 15.1531 34.2053 15.1751V14.7744C34.071 14.1274 33.7373 13.6149 33.2909 13.3473C32.9572 13.1469 32.6439 13.0354 32.2432 13.0354C31.3958 13.0354 30.5484 13.5479 29.7011 14.7071C29.6376 14.8033 29.5789 14.8992 29.5204 14.9951C29.4562 15.1001 29.3921 15.2049 29.3219 15.3096C29.3892 14.5295 29.5222 13.3473 29.5222 13.3473L28.9883 12.9681L28.7421 13.0354ZM38.6943 21.01L38.6868 21.0849V21.0177L38.6943 21.01ZM42.3911 11.3404C42.3911 10.4257 42.4584 9.71294 42.6587 9.31075C42.9048 8.73129 43.373 8.46367 43.8852 8.46367C44.2862 8.46367 44.6656 8.59794 44.9332 8.86555C45.2008 9.17771 45.3797 9.51138 45.4469 9.84627C45.5127 10.2254 45.5127 10.6264 45.4469 11.0728C45.3797 11.4077 45.1336 12.4327 44.6656 14.1944C44.5996 14.3947 44.465 14.9084 44.2201 16.2683L43.5061 19.5232L42.6587 19.39L42.258 19.2784L42.325 15.8219C42.3911 13.8595 42.3911 13.2798 42.3911 13.1467V11.3404ZM41.0985 21.7315C41.0312 21.3523 41.1646 20.9502 41.4107 20.6382C41.5437 20.3705 41.9459 20.1029 42.5257 20.1029C42.9048 20.1029 43.3057 20.2373 43.6406 20.505C44.0198 20.8386 44.2201 21.1519 44.2862 21.6199C44.4207 22.0652 44.2862 22.4444 44.0198 22.7793C43.7522 23.1129 43.373 23.2918 42.9048 23.2918C42.5257 23.2918 42.1235 23.1801 41.8113 22.9125C41.4107 22.6449 41.2318 22.2656 41.0985 21.7315Z" fill="#2E2E52" fill-opacity="0.5"/>
</svg>
